<?xml version="1.0" encoding="UTF-8" standalone="no"?>
<svg viewBox="0 0 221.73087 303.85831" xmlns="http://www.w3.org/2000/svg" xmlns:xlink="http://www.w3.org/1999/xlink">
<defs>
<linearGradient id="linearGradient3089">
<stop offset="0" stop-color="#fff9ff"/>
<stop offset="1" stop-color="#fff9ff" stop-opacity="0"/>
</linearGradient>
<linearGradient gradientUnits="userSpaceOnUse" id="linearGradient3363" x1="-532.4959" x2="-429.9017" y1="18.79882" y2="-54.92338">
<stop offset="0"/>
<stop offset="1" stop-color="#af5605"/>
</linearGradient>
<linearGradient gradientUnits="userSpaceOnUse" id="linearGradient3353" x1="-642.14404" x2="-641.65965" y1="-221.08991" y2="-213.67084">
<stop offset="0" stop-color="#db9f00"/>
<stop offset="1" stop-color="#f5f2de"/>
</linearGradient>
<linearGradient id="linearGradient3136">
<stop offset="0" stop-color="#f5ff82"/>
<stop offset="1" stop-color="#f59f00"/>
</linearGradient>
<linearGradient gradientUnits="userSpaceOnUse" id="linearGradient3421" x1="-491.41927" x2="-485.42757" xlink:href="#linearGradient3089" y1="7.73122" y2="-3.66563"/>
<linearGradient gradientUnits="userSpaceOnUse" id="linearGradient3419" x1="-494.72942" x2="-489.14459" xlink:href="#linearGradient3089" y1="9.33306" y2="1.05208"/>
<linearGradient gradientUnits="userSpaceOnUse" id="linearGradient3417" x1="-507.24719" x2="-503.0104" xlink:href="#linearGradient3089" y1="7.98501" y2="1.82241"/>
<linearGradient gradientUnits="userSpaceOnUse" id="linearGradient3415" x1="-512.63943" x2="-508.59524" xlink:href="#linearGradient3089" y1="7.21468" y2="1.82241"/>
<linearGradient gradientUnits="userSpaceOnUse" id="linearGradient3413" x1="-514.37267" x2="-511.48394" xlink:href="#linearGradient3089" y1="8.56274" y2="4.71111"/>
<linearGradient gradientUnits="userSpaceOnUse" id="linearGradient3411" x1="-516.49105" x2="-513.02459" xlink:href="#linearGradient3089" y1="11.45144" y2="6.82952"/>
<linearGradient gradientUnits="userSpaceOnUse" id="linearGradient3409" x1="-526.31268" x2="-523.61654" xlink:href="#linearGradient3089" y1="5.09627" y2="1.62984"/>
<linearGradient gradientUnits="userSpaceOnUse" id="linearGradient3407" x1="-488.13848" x2="-490.07568" xlink:href="#linearGradient3089" y1="18.0147" y2="9.268"/>
<linearGradient gradientUnits="userSpaceOnUse" id="linearGradient3405" x1="-494.38613" x2="-492.66805" xlink:href="#linearGradient3089" y1="19.73278" y2="12.0017"/>
<linearGradient gradientUnits="userSpaceOnUse" id="linearGradient3403" x1="-499.22805" x2="-498.44711" xlink:href="#linearGradient3089" y1="18.17577" y2="14.57848"/>
<linearGradient gradientUnits="userSpaceOnUse" id="linearGradient3401" x1="-502.24007" x2="-498.38845" xlink:href="#linearGradient3089" y1="6.82952" y2="1.43725"/>
<linearGradient gradientUnits="userSpaceOnUse" id="linearGradient3399" x1="-503.6014" x2="-521.52633" xlink:href="#linearGradient3089" y1="28.01092" y2="-30.09217"/>
<linearGradient gradientUnits="userSpaceOnUse" id="linearGradient3387" x1="-485.56133" x2="-491.7799" xlink:href="#linearGradient3089" y1="-17.44068" y2="-13.30164"/>
<linearGradient gradientUnits="userSpaceOnUse" id="linearGradient3351" x1="-627.72033" x2="-638.7214" xlink:href="#linearGradient3136" y1="-170.70117" y2="-221.69205"/>
<linearGradient gradientUnits="userSpaceOnUse" id="linearGradient3349" x1="-633.66285" x2="-632.14817" xlink:href="#linearGradient3136"/>
<radialGradient cx="286.42676" cy="247.95479" gradientTransform="matrix(1.13799,1.16075,-.53455,.52407,-766.4452,-519.4533)" gradientUnits="userSpaceOnUse" id="radialGradient3379" r="11.86258">
<stop offset="0"/>
<stop offset="1" stop-opacity="0"/>
</radialGradient>
<radialGradient cx="281.37439" cy="263.67108" gradientTransform="matrix(1.52165,1.65701,-.86753,.79666,-777.1296,-715.3725)" gradientUnits="userSpaceOnUse" id="radialGradient3397" r="8.8756" xlink:href="#linearGradient3089"/>
<radialGradient cx="284.05566" cy="282.79507" gradientTransform="matrix(1.10955,.9795,-.41194,.46662,-774.3915,-440.2201)" gradientUnits="userSpaceOnUse" id="radialGradient3395" r="13.71875" xlink:href="#linearGradient3089"/>
<radialGradient cx="349.07443" cy="251.74301" gradientTransform="matrix(-1.49356,.55551,-1.23375,-3.31708,325.5946,591.9738)" gradientUnits="userSpaceOnUse" id="radialGradient3393" r="8.27674" xlink:href="#linearGradient3089"/>
<radialGradient cx="342.17081" cy="263.07962" gradientTransform="matrix(1.71727,1.42098,-.36866,.44553,-1007.532,-643.0976)" gradientUnits="userSpaceOnUse" id="radialGradient3391" r="12.04578" xlink:href="#linearGradient3089"/>
<radialGradient cx="349.0621" cy="283.81088" gradientTransform="matrix(1.64265,.99316,-.17411,.28797,-1034.519,-450.2812)" gradientUnits="userSpaceOnUse" id="radialGradient3389" r="22.39368" xlink:href="#linearGradient3089"/>
<radialGradient cx="251.4595" cy="237.80827" gradientTransform="matrix(1.35282,.73055,-.36871,.68278,-860.663,-410.1929)" gradientUnits="userSpaceOnUse" id="radialGradient3385" r="18.81447" xlink:href="#linearGradient3089"/>
<radialGradient cx="267.88651" cy="241.49139" gradientTransform="matrix(1.26497,1.33835,-.53016,.50109,-802.4686,-538.5473)" gradientUnits="userSpaceOnUse" id="radialGradient3383" r="10.28147" xlink:href="#linearGradient3089"/>
<radialGradient cx="278.30511" cy="245.56848" gradientTransform="matrix(1.27678,1.13787,-.52178,.58547,-807.9893,-517.6296)" gradientUnits="userSpaceOnUse" id="radialGradient3381" r="10.77385" xlink:href="#linearGradient3089"/>
<radialGradient cx="286.42676" cy="247.95479" gradientTransform="matrix(1.13799,1.16075,-.53455,.52407,-766.4452,-519.4533)" gradientUnits="userSpaceOnUse" id="radialGradient3377" r="11.86258" xlink:href="#linearGradient3089"/>
<radialGradient cx="296.15396" cy="247.4207" gradientTransform="matrix(-.42565,.47809,-1.23136,-1.09628,-133.9292,75.12524)" gradientUnits="userSpaceOnUse" id="radialGradient3375" r="8.0484" xlink:href="#linearGradient3089"/>
<radialGradient cx="301.1402" cy="249.24612" gradientTransform="matrix(.97712,.89935,-.6296,.68404,-695.4637,-496.0668)" gradientUnits="userSpaceOnUse" id="radialGradient3373" r="10.64865" xlink:href="#linearGradient3089"/>
<radialGradient cx="311.26563" cy="250.00745" gradientTransform="matrix(1.20419,1.82739,-.76305,.50283,-731.8798,-747.254)" gradientUnits="userSpaceOnUse" id="radialGradient3371" r="6.48438" xlink:href="#linearGradient3089"/>
<radialGradient cx="323.82251" cy="250.62663" gradientTransform="matrix(1.12704,.48505,-.4711,1.09464,-782.159,-483.5348)" gradientUnits="userSpaceOnUse" id="radialGradient3369" r="6.76229" xlink:href="#linearGradient3089"/>
<radialGradient cx="321.6875" cy="252.16911" gradientTransform="matrix(.98788,1.19039,-.92535,.76793,-621.8478,-627.1605)" gradientUnits="userSpaceOnUse" id="radialGradient3367" r="5.15625" xlink:href="#linearGradient3089"/>
<radialGradient cx="319.73438" cy="253.67668" gradientTransform="matrix(1,0,0,1.25641,-859.0924,-367.7933)" gradientUnits="userSpaceOnUse" id="radialGradient3365" r="3.79688" xlink:href="#linearGradient3089"/>
<radialGradient cx="252.75529" cy="199.46321" gradientTransform="matrix(-2.53044,.86187,-.84293,-2.47495,199.8496,122.244)" gradientUnits="userSpaceOnUse" id="radialGradient3361" r="29.43887" xlink:href="#linearGradient3136"/>
<radialGradient cx="442.68356" cy="209.33984" gradientTransform="matrix(-.51768,-3.79632,1.46644,-.19999,-586.1213,1779.189)" gradientUnits="userSpaceOnUse" id="radialGradient3359" r="126.26351" xlink:href="#linearGradient3136"/>
<radialGradient cx="416.85788" cy="177.97174" gradientTransform="matrix(.29458,-.24279,.51204,.62126,-738.1557,33.16214)" gradientUnits="userSpaceOnUse" id="radialGradient3357" r="126.26351" xlink:href="#linearGradient3136"/>
<radialGradient cx="282.91864" cy="217.64384" gradientTransform="matrix(1.81478,1.8509,-1.66397,1.6315,-814.8226,-961.3112)" gradientUnits="userSpaceOnUse" id="radialGradient3355" r="74.81812" xlink:href="#linearGradient3136"/>
</defs>
<g transform="matrix(.7142,0,0,.7142,499.84132,196.55597)">
<path d="m-587.52988,25.68924c-.34598.99325-1.1217,3.3093-1,4.34375 .15619,1.32762 1.73458,1.59404 2.28125,2.375s-.0985.9222-.90625,1.78125c-1.03872,1.10469-5.07881.7031-6.875.625s-4.38946-1.79079-5.8125-3.3125c-1.32849-1.42063.13843-.43013-.03125-2.53125-3.10557,1.4051-6.31939,2.74299-9.59375,4 .55639,2.9592.47858,3.45746 1.40625,3.65625 .54667.11714 2.10249.31107 3,1.125 .49774.45137.34331.40677 1.53125.71875s2.933,1.47262 4.5625,1.59375c6.41142.47659 8.60948-1.68768 8.84375-2.15625s2.48199.15558 5.34375-1.75c2.35125-1.56563 2.2818-2.77991 3.46875-3 2.32582-.43128 1.89059-3.94336 1.78125-4.65625-.81829.02205-1.92506-.06043-3.4375-.3125-1.76863-.29477-3.2308-1.29265-4.5625-2.5zm-12.65625,6.53125c.04349.02164.2185.21382.625.6875 2.73906,3.19174 5.98619,3.42645 5.84375,3.21875 0,0-.59617.80922.6875,1.75 .05522.11045.42075.25658-.59375.34375-5.45545.46874-7.47882-.41048-7.21875-1.25s.05705-.73633-.03125-1.5c-.08573-.74155.23958-.72942.75-1.125 .82426-.6388-.19298-2.18992-.0625-2.125z" fill="#ad6700" fill-opacity=".92353" fill-rule="evenodd" stroke="#000" stroke-width=".1"/>
<path d="m-602.81113,17.72049c.46259-.14067.91754-.26476 1.34375-.375-2.07025-1.58167-5.66273-4.29421-5.59375-4.15625 .18067.36134 2.27973,2.76431 4.25,4.53125z" fill="#000100" fill-opacity=".21176" fill-rule="evenodd" stroke="#000" stroke-width=".2"/>
<path d="m-603.21738,18.18924c-.17175-.11063-.1834-.09019-.375-.21875-1.01307.34698-2.02631.7701-2.90625,1.28125-1.21739.70718-2.19476,1.0276-3.0625,1.28125s-1.62586.44051-2.34375.9375-.38213.26696-.59375.15625-.97062-.10208-3.9375.8125c-.85255.26281-1.02489.37097-1.0625.75s.0595,1.02891-.28125,2.34375c-.28854,1.1134-.07308,1.72187.09375,2.4375 .08341.35781.16425.72835.15625,1.21875s-.10749,1.09733-.34375,1.875c-.30827,1.01469-.3793,1.92322-.28125,2.71875s.36519,1.47806.6875,2.09375c4.56562-1.56728 9.12895-3.2759 13.53125-5.125s8.64355-3.83868 12.53125-5.96875c-2.74268-1.78982-6.34529-4.59754-10.0625-7.4375-.42621.11024-.88116.23433-1.34375.375 .43855.39329.8791.90599 1.28125,1.1875 .59161.41413.63611.55955.34375.46875-.02538-.00788-.12452-.08155-.15625-.09375-.32468-.12484-.91407-.46842-1.875-1.09375zm10.28125,2.53125c-.11841.17227 1.57895,2.1192 2.5625,3.5 .28824-.16236.55971-.33605.84375-.5-.90608-.94611-1.78755-1.87744-2.71875-2.59375-.44868-.34514-.65171-.45832-.6875-.40625z" fill="#ff0" fill-opacity=".62941" fill-rule="evenodd" stroke="#000" stroke-width=".2"/>
<path d="m-615.49863,8.53299c-7.55921,2.44203-7.28125,4.46875-7.28125,4.46875s-.15649,1.71875-.78125,1.71875-1.87542.62518-2.96875,1.09375-4.68762-.46851-5,.15625-.00053-.93762-1.40625-1.25-4.37535-.46816-5.3125,1.09375-.62565,2.34387-2.34375,2.65625-3.92736-.04757-4.6875.3125c-2.96763,1.40572-5.00047,1.40625-6.25,1.40625s-2.93773,1.40672-3.5625,2.65625c-.61629,1.23257-.7703,3.06971.125,4.46875-.15396.05932-.48859.28665-.6875.375 .50862-.21063 1.34375-.625 1.34375-.625s7.41269-1.72195 14-3.46875c.14201.05027 1.65496.57953 3.375.9375 .86002.17898 1.78013.3011 2.59375.3125s1.52671-.08706 2-.40625c.34368-.23178.66344-.34822.96875-.375s.60297.02832.875.15625c.54406.25585 1.0272.77083 1.46875,1.34375s.83891,1.19986 1.21875,1.6875 .73481.84375 1.09375.84375 .52223.35519.59375.90625 .0473,1.29821 0,2.125-.09624,1.73533-.09375,2.5625 .06036,1.57278.28125,2.125c.42682,1.06707.90064,1.81915 1.375,2.40625 1.07448,1.33842 2.13307,1.67591 2.59375,1.90625 .66267.33133 1.10443,4.29367 0,4.625-.33451.10036-1.33306.13314-2.4375.90625s-1.19391,2.2102-.53125,3.09375c1.23262,1.6435-.79794.88314-.6875,1.65625s-3.53257-.66825-6.625-2.65625c-2.17144-1.39593-3.10422-4.81734-3.40625-6.25-.23034-.48408-.41263-.86979-.46875-.9375s.01393.18259.28125,1c-.14018,1.63563-.15905,5.88685 3.28125,9.0625 .06085.05617.12588.10142.1875.15625-7.21241,1.85942-9.76971-2.00654-9.3125-2.9375 .28782-.58607-1.54661-1.15672-.84375-2.40625s1.5625-.23488 1.5625-1.5625c0-.34206.01521-.62986.03125-.9375 1.65281-.44056 3.3404-.88492 5.09375-1.375-4.77823,1.33557-9.25774,2.47038-13.125,3.4375 .22672.70167.68905,1.44162 1.65625,1.53125 1.39448.12921 1.99577,4.50079 8.0625,6.3125 2.29885.68651 5.42481-.64395 7.34375-1.6875 2.58316,2.10825 5.60786,3.13116 6.625,3.53125 1.55139.61024 3.3014-1.31892 6.0625-.65625 1.62517.39004 1.43826-1.72309 2.21875-1.75 3.20287-.11046 3.54857-1.55532 3.1875-2.21875-1.21854-2.239.99399-4.51629 0-6.0625-1.56311-2.4315-.88101-4.09548-1.875-5.53125-.46457-.67105-1.22057-1.5117-1.78125-2.59375-.32231-.61569-.58945-1.29822-.6875-2.09375s-.02702-1.70406.28125-2.71875c.23626-.77767.33575-1.3846.34375-1.875s-.07284-.86094-.15625-1.21875c-.16683-.71563-.38229-1.3241-.09375-2.4375 .34075-1.31484.24364-1.96472.28125-2.34375s.20995-.48719 1.0625-.75c2.96688-.91458 3.72588-.92321 3.9375-.8125s-.12413.34074.59375-.15625 1.47601-.68385 2.34375-.9375 1.84511-.57407 3.0625-1.28125c.87994-.51115 1.89318-.93427 2.90625-1.28125 .1916.12856.20325.10812.375.21875-1.90266-1.23816-4.91057-3.44185-9-7.15625l-1.375,1.875c0,0-.31787-1.5717-1.90625-4.375z" fill="#ad6700" fill-opacity=".92353" fill-rule="evenodd" stroke="#000" stroke-width=".2"/>
<path d="m-640.31113,23.59549c-6.58731,1.7468-14,3.46875-14,3.46875s-.83513.41437-1.34375.625c-.47954.213-1.0202.4914-1.65625.90625-.43228.29001-.87022.63414-1.3125,1.03125-.19809.1783-.39999.32872-.59375.53125-.67346.70168-1.30549,1.51723-1.8125,2.53125-2.18668,4.37336 1.40625,9.21876 1.40625,9.21875 3.74859,5.15431 8.40707,3.67166 10.59375,3.125 .02014-.00503.04233-.02621.0625-.03125 2.44004-.6102 5.18249-1.31048 8.03125-2.0625 1.66628-.43987 3.33034-.88211 5.09375-1.375-.06911-.21131-.04284-.54658.1875-.0625 3.55459-.99542 7.29038-2.08375 11.09375-3.28125-.47436-.5871-.94818-1.33918-1.375-2.40625-.22089-.55222-.27876-1.29783-.28125-2.125s.04645-1.73571.09375-2.5625 .07152-1.57394 0-2.125-.23481-.90625-.59375-.90625-.71391-.35611-1.09375-.84375-.7772-1.11458-1.21875-1.6875-.92469-1.0879-1.46875-1.34375c-.27203-.12793-.56969-.18303-.875-.15625s-.62507.14322-.96875.375c-.11832.0798-.26013.13356-.40625.1875-.29224.10788-.62267.19352-1,.21875-.18866.01261-.39034.00285-.59375,0-.81362-.0114-1.73373-.13352-2.59375-.3125-1.72004-.35797-3.23299-.88723-3.375-.9375z" fill="#ff0" fill-opacity=".62941" fill-rule="evenodd" stroke="#0000bc" stroke-width=".2"/>
<path d="m-632.31113-180.06076c-.54141.13017-1.2921.33322-1.25.34375 .73945.18487 1.12251.15196 1.28125,0 .07937-.07598-.01292-.22391-.03125-.34375z" fill="url(#linearGradient3349)" fill-rule="evenodd" stroke="#000" stroke-opacity=".15882" stroke-width=".2"/>
<path d="m-650.46738-219.71701h-.03125c-.69399-.26735-1.2327-.70146-1.46875-.9375-.50361-.50361-1.03238-.73537-1.625-.84375-.32034-.05859-.68012-.08531-1.0625-.09375-.70287.84241.34857,1.05495.8125,1.625 .2149.26404-3.01459.11163-2.5.71875 1.46471,1.72808-.99269.77865.09375,2.125 .51311.63585.61826,1.45038-.625,1.625-1.44938.20357-1.86803-1.37247-1.9375-.53125-.07079.85733 1.62925,2.86831 1.40625,2.71875-2.55627-1.71439-.97229-.0513.28125,1.8125-.1153-.0976-.25124-.18662-.375-.28125 .88134.67481 1.56837,1.41285 1.6875,2.21875 .52801,3.57198-.98212,1.94438-.71875,5.53125 .39425,5.36941 1.33929,4.90179-.625,7.9375s2.32557,2.09557-.8125,7.84375c-2.17627,3.9864.60285,5.98609-2.28125,8.15625 0,0-1.45859,1.27108-1.84375,1.65625s2.70782-.20275 1.9375.375c-.17246.12934-1.26821,1.88589-1.90625,2.75-.14164.35695-.30619.71483-.3125.96875-.00851.34275.08778.57958.25.75 .32444.34085.9217.36727 1.40625.125s1.23247-.77638 1.8125-.9375c.29002-.08056.52466-.05373.65625.125s.18073.5271.03125,1.125c-.10704.42815-.13089.56871-.0625.53125s.215-.25192.375-.53125c.32-.55866.75391-1.37891.9375-1.5625 .23283-.23283.36969-.1942.46875.03125s.13891.63282.1875,1.09375c.09718.92185.19861,2.09815.59375,2.625 .17463.23283.299.1991.4375.03125s.28721-.49139.40625-.875c.23809-.76721.45843-1.76061.71875-2.28125 .24015-.48029.43825-.67394.625-.65625s.35294.23127.5.53125c.29412.59996.53248,1.56496.75,2 .19322.38644.30235.5127.375.46875s.08168-.26343.09375-.5625c.02414-.59814-.01675-1.52677.125-2.09375 .0625-.25001.17631-.25188.3125-.09375s.30672.47666.5.8125 .42246.68562.65625.96875 .46105.5.71875.5c.21558,0 .51278-.85538.75-1.75s.41494-1.82989.5-2c.16789-.3358.53395.57327.625.9375 .07943.31771.28421-.58255.5625-1.1875 .13914-.30247.30011-.53028.46875-.5s.34659.32384.53125,1.0625c.27081,1.08324.49579,1.34011.6875,1.125s.35061-.90243.5625-1.75c.13184-.52737.31363-.87224.5-1.0625s.40367-.23064.59375-.21875c.38015.02377.69124.32125.78125.34375 .56628.14157.8681.08943 1.03125-.03125s.18979-.31559.21875-.5 .05504-.35663.21875-.40625 .46384.0288 1.03125.3125c.79155.39577 1.03443.78555 1.1875.84375s.21703-.2153.6875-1.15625c.25078-.50155.41675-1.04186.625-1.5625 .09954-.24885.20663-.25144.3125-.09375s.22077.47749.34375.84375c.24595.73253.52722,1.68347.90625,2.0625 .24.24.45.20214.625,0s.31542-.57048.46875-1c.30667-.85905.61374-1.9575 1.09375-2.4375 .26547-.26547.4571-.6017.625-.9375 .12862-.25723.88118.32778 1.21875.875 .08439.1368.01292.22391.03125.34375 .40875-.09827.56226-.09363.9375-.28125 .39729-.19865.57732-.3813.625-.5625s-.03549-.37203-.1875-.53125c-.30402-.31843-.85924-.57798-1.0625-.78125 .83302-.41651 1.84144-.59144 2.5-1.25 .19826-.19826.31662.33571.40625.84375s.15075.99075.21875.71875c.17602-.70407.36359-1.12094.53125-1.34375s.32694-.24402.46875-.1875c.28363.11304.48713.57491.5625.59375 .31946.07986-.20838.62512-.3125.9375-.10048.30145.00134.32454.1875.1875s.45155-.4261.75-.8125c.59691-.7728 1.25-1.86448 1.25-2.5 0-.50855.1107-.79367.28125-.90625s.41049-.06648.6875.0625c.55403.25795 1.24841.85858 1.84375,1.15625 .19894.09947.36045.05446.46875-.09375s.16483-.40419.21875-.6875c.10785-.56661.14211-1.2872.25-1.71875 .068-.272.32161-.13044.625.09375s.65713.53125.9375.53125c.25029,0 .21379-.64338.4375-1.125 .11186-.24081.27164-.44632.59375-.5s.79179.03652 1.46875.375c.16239.08119.21745.03066.25-.09375s.05457-.33678.09375-.5625 .09897-.46476.28125-.6875 .47564-.41578.9375-.53125c1.17713-.29428 1.66241.10629 2.5-.3125 .72466-.36233.73221-.68445.90625-.90625s.51563-.34375 1.90625-.34375c1.15374,0 1.7343-.03256 2.09375-.28125s.49887-.71423.71875-1.59375c.05436-.21745.18909-.14011.375.0625s.43555.53218.65625.78125 .43502.42183.59375.34375 .25-.40867.25-1.1875c0-.4217-.10274-.76141-.25-1.03125s-.35098-.46847-.5625-.625c-.42305-.31306-.88041-.4402-1.0625-.53125-.58903-.29452.12576-.20709 1.09375.0625s2.19058.72183 2.65625,1.1875c.22393.22394.53322.22367.875.125s.71674-.29587 1-.4375c.20879-.10439.24193-.25301.21875-.40625s-.10104-.3098-.125-.40625c-.04793-.19291.1327-.16803 1.46875.5 1.08298.54149 1.82182.68621 2.125.5 .15159-.09311.21658-.28999.125-.53125s-.3206-.53935-.6875-.90625c-.49391-.49392-.62512-1.25024-.9375-1.875-.10478-.20955-.03591-.26248.15625-.25s.50754.0937.84375.1875 .70387.18433 1.03125.21875 .61559.00942.78125-.15625c.41651-.41651.67856-1.10714 1.25-1.25 .28572-.07143.32583-.21379.21875-.40625s-.36259-.43715-.6875-.6875c-.64982-.5007-1.56002-1.05283-2.03125-1.40625-.36377-.27283-.48541-.40073-.4375-.4375s.2537.02967.53125.125c.5551.19067 1.39982.52965 1.78125.625 1.03312.25828 1.60711.27257 2.0625.375s.79349.29349 1.375.875c.39134.39135.10402-.15471-.40625-.84375s-1.24433-1.52202-1.78125-1.65625c-.4354-.10885-.83504-.65137-1.15625-1.25s-.56471-1.25442-.71875-1.5625c-.36723-.73448-1.99817-1.68567-2.5-2.1875-.95768-.95768-1.7341-1.3358-2.8125-1.875-.63373-.31686-1.04354-.53243-1.5625-.6875s-1.14848-.25-2.1875-.25c-1.78062,0-2.89646-.25536-4.375-.625-.41376-.10344-.80591-.53343-1.21875-1s-.84732-.97054-1.28125-1.1875c-.64654-.32327-1.1348-.56528-1.6875-.71875s-1.17123-.21875-2.0625-.21875c-.64901,0-2.9876-1.22507-3.4375-1.5625-1.14424-.85818-2.30573-1.27956-3.4375-1.5625-.76006-.19002-1.02984-.64143-1.375-1.0625-.17258-.21054-.35874-.41648-.625-.5625s-.63344-.25-1.125-.25c-.76621,0-1.37732-.148-1.96875-.34375-.17743-.05872-.35544-.12384-.53125-.1875-.26666.20218-.32105.32245-.53125.375-.34077.08519-.68653.21802-.9375.40625-.28082.21061-.55864.38966-.875.46875-.36705.09176-.59821.15625-1,.15625-.22142,0-.71122.15625-1.09375.15625-.41812,0-.68243.08362-.875.46875-.11355.22711-.06057.38106-.0625.5s-.05894.1875-.40625.1875c-.20216,0-.61995.3881-.78125.46875-.27984.13992-.53056.3434-.78125.46875-.29753.14877-.73989.15625-1.09375.15625-.38483,0-.84771.0713-.9375.09375-.34055.08513-.80314,0-1.15625,0-.23133,0-.90168.37272-1.09375.46875-.37684.18841-.75346.15625-1.1875.15625h-1.25-1.15625c-.37306,0-.83888-.03003-1.09375-.09375-.33414-.08354-.64346-.48721-.78125-.625-.24147-.24146-.44555-.33215-.71875-.46875-.24345-.12172-.37216-.4659-.53125-.625-.23658-.23658-.57732-.26483-.78125-.46875-.23901-.23901-.40728-.37707-.5625-.6875-.15371-.30746-.33614-.4299-.53125-.625l-.71875-.71875c-.07082-.07082-.03107-.35987-.03125-.625z" fill="url(#linearGradient3351)" fill-rule="evenodd"/>
<path d="m-636.34238-221.62326c-.01441.07862-.00952.17904-.03125.25-.37666,1.23001-2.70309,3.39427-7.09375,3.59375-2.32567.10566-3.41478-1.22963-4.03125-2.375-.18727.13048-.41674.27087-.75.4375-.3683.18415-.7414.26645-1.125.25-.37345-.01601-.75354-.12164-1.09375-.25 .00018.26513-.03957.55418.03125.625l.71875.71875c.19511.1951.37754.31754.53125.625 .15522.31043.32349.44849.5625.6875 .20393.20392.54467.23217.78125.46875 .15909.1591.2878.50328.53125.625 .2732.1366.47728.22729.71875.46875 .13779.13779.44711.54146.78125.625 .25487.06372.72069.09375 1.09375.09375h1.15625 1.25c.43404,0 .81066.03216 1.1875-.15625 .19207-.09603.86242-.46875 1.09375-.46875 .35311,0 .8157.08513 1.15625,0 .08979-.02245.55267-.09375.9375-.09375 .35386,0 .79622-.00748 1.09375-.15625 .25069-.12535.50141-.32883.78125-.46875 .1613-.08065.57909-.46875.78125-.46875 .34731,0 .40432-.06856.40625-.1875s-.05105-.27289.0625-.5c.19257-.38513.45688-.46875.875-.46875 .38253,0 .87233-.15625 1.09375-.15625 .40179,0 .63295-.06449 1-.15625 .31636-.07909.59418-.25814.875-.46875 .25097-.18823.59673-.32106.9375-.40625 .2102-.05255.26459-.17282.53125-.375-.41022-.14854-.81835-.29834-1.25-.40625-1.2955-.32387-2.73828-.99707-3.75-1.25-.78801-.197-1.31682-.42157-1.84375-.65625z" fill="url(#linearGradient3353)" fill-rule="evenodd" stroke="#000" stroke-opacity=".15882" stroke-width=".2"/>
<path d="m-534.06113,30.62674c-.11024-.09519-.23068-.19943-.34375-.3125-.58839-.58839-.84781-1.03532-1.34375-1.53125-.80002-.80002-1.41527-1.19652-1.9375-1.71875-.76755-.76755-1.18213-1.21338-1.71875-1.75-.61754-.61754-.90372-1.28827-1.53125-2.125-.44399-.59198-1.26029-1.12495-1.9375-1.53125-.62411-.37447-.91461-1.10211-1.34375-1.53125-.58838-.58839-1.03532-.8478-1.53125-1.34375-.58839-.58838-.87906-1.06655-1.375-1.5625-.58839-.58839-1.0353-.84781-1.53125-1.34375-.58838-.58839-.84782-1.03531-1.34375-1.53125-.58839-.58839-.66031-1.25408-1.15625-1.75-.33431-.33431-.77575-1.52028-.96875-1.90625-.36164-.72328-.65635-1.50019-.96875-2.125-.38967-.77936-.60868-1.27988-.9375-1.9375-.42479-.84957-.84246-.9987-1.375-1.53125-.45024-.45024-.60522-1.46041-.9375-2.125-.3475-.695-.85769-1.12164-1.15625-1.71875l-.96875-1.9375c-.40805-.8161-.80535-1.01695-1.15625-1.71875-.34102-.68204-.82917-1.09586-1.15625-1.75-.37483-.74966-.68227-1.33329-.96875-1.90625-.34522-.69042-.58341-1.33365-.78125-2.125-.22472-.89889-.54658-1.68633-.75-2.5s-.59053-1.54962-.78125-2.3125c-.1925-.76998-.77169-1.14921-.96875-1.9375-.1925-.76998-.77167-1.14923-.96875-1.9375-.15521-.62084-.99807-1.18557-1.34375-1.53125-.43199-.43199-.76104-1.37931-1.15625-1.90625-.60619-.80825-.82193-1.45633-1.15625-2.125-.37342-.74684-.6815-1.27525-1.15625-1.75-.37848-.37847-.79865-1.35088-.9375-1.90625-.11813-.47253-.62325-.84023-.78125-1.15625l-61.4375-129.125c.11446.07632.1875.09426.1875-.09375 0-1.05588.18768-1.62572.40625-2.5 .06123-.24493.12751-.59763.09375-.90625s-.16757-.57314-.5-.65625c-.28772-.07193-.56989-.28324-.8125-.5625s-.44568-.62646-.53125-.96875c-.09571-.38284-.375-1.02551-.375-2.125 0-.49685-.16406-.71746-.3125-1s-.28126-.627-.28125-1.3125c0-.36596-.44531-.88281-.875-1.21875-.21484-.16797-.40137-.27801-.5625-.3125s-.28125.00452-.28125.1875c0,1.05478.1875,1.56684.1875,2.6875 0,.34986-.0463.63886-.09375.90625-.21155.09036-.41345.19089-.625.28125-.25235.10779-.37844-.13502-.46875-.46875s-.15854-.75457-.28125-1c-.25272-.50544-.39124-1.21998-.59375-1.625-.27257-.54517-.70812-.67622-.875-1.34375-.18344-.73376-.19295-1.26089-.4375-1.75-.0279-.05579-.4375,1.40032-.4375,1.75 1e-005,.24484-.65065,1.27004-.75,1.46875-.2332.4664-.438,1.00197-.59375,1.625-.04495.17977-.49432-.91479-.59375-1.3125-.15571-.62285-.01219-1.61126-.125-2.0625-.19537-.78152.125-1.31241.125-2.0625 0-.62898-.03869-.80392-.15625-.75s-.29647.32771-.5625.59375c-.36698.36698-.8941.61285-1.3125,1.03125-.24896.24896-.34316.21586-.34375,0s.08342-.61493.1875-1.03125c.18944-.75774-.14317-1.56759-.3125-1.90625-.00859-.01717-1.74695.15625-2.0625.15625-.04872,0-.15265.08627-.21875.03125s-.07212-.27401.09375-.9375c.1545-.61805.8611-.63187 1.03125-1.3125 .16114-.64455.26865-1.1958.53125-1.625-.03445-.02857-.06002-.21269-.09375-.21875-.16864-.03028-.32961.19753-.46875.5-.27829.60495-.48307,1.50521-.5625,1.1875-.09105-.36423-.45711-1.2733-.625-.9375-.08506.17011-.26278,1.10538-.5,2s-.53442,1.75-.75,1.75c-.2577,0-.48496-.21687-.71875-.5s-.46297-.63291-.65625-.96875-.36381-.65437-.5-.8125-.25-.15626-.3125.09375c-.14175.56698-.10086,1.49561-.125,2.09375-.01207.29907-.0211.51855-.09375.5625s-.18178-.08231-.375-.46875c-.21752-.43504-.45588-1.40004-.75-2-.14706-.29998-.31325-.51356-.5-.53125s-.38485.17596-.625.65625c-.26032.52064-.48066,1.51404-.71875,2.28125-.11904.38361-.26775.70715-.40625.875s-.26287.20158-.4375-.03125c-.39514-.52685-.49657-1.70315-.59375-2.625-.04859-.46093-.08844-.8683-.1875-1.09375s-.23592-.26408-.46875-.03125c-.18359.18359-.6175,1.00384-.9375,1.5625-.16.27933-.30661.49379-.375.53125s-.04454-.1031.0625-.53125c.14948-.5979.10034-.94627-.03125-1.125s-.36623-.20556-.65625-.125c-.58003.16112-1.33462.69856-1.8125.9375s-1.08181.21585-1.40625-.125c-.16222-.17042-.25851-.40725-.25-.75 .00631-.25392.17086-.6118.3125-.96875-2.21189,2.99561-5.98355,8.7658-8.375,16.6875-3.0813,10.20679-6.99565,30.48407-5.90625,40.09375 .86772,7.65421 13.23044,52.78431 15.15625,57.40625s18.72776,40.83664 36.625,58.40625c9.77255,9.59366 10.96875,15.625 10.96875,15.625l1.375-1.875c8.68196,7.88577 12.89637,9.42122 10.6875,7.875s-5.31036-5.27698-5.53125-5.71875 15.01201,11.68109 17,12.34375-5.05904-6.61513-2.1875-4.40625 5.30527,6.39984 9.28125,7.0625 5.28125,0 5.28125,0-5.09029-2.19605-2.21875-1.3125 16.15116,5.94177 19.90625,5.5-.44656.69259-5.96875-3.0625 7.7385,1.74572 12.15625,2.1875 5.2786,1.32186-.90625-2.875 8.18241,2.88915 11.9375,4.65625 2.43831,1.09457-.875-2.21875 1.75906-2.6592 7.28125.875 9.28125,4.65625 9.28125,4.65625-9.84504-7.11403-6.96875-5.96875z" fill="url(#radialGradient3355)" fill-rule="evenodd"/>
<path d="m-502.62363-38.49826h-6.59375-41.53125-21.1875c-1.16186,0-3.61921.05221-5.875.15625l5.28125,11.09375c.158.31602.66312.68372.78125,1.15625 .13885.55537.55902,1.52778.9375,1.90625 .47475.47475.78283,1.00316 1.15625,1.75 .33432.66867.55006,1.31675 1.15625,2.125 .39521.52694.72426,1.47426 1.15625,1.90625 .34568.34568 1.18854.91041 1.34375,1.53125 .19708.78827.77625,1.16752.96875,1.9375 .19706.78829.77625,1.16752.96875,1.9375 .19072.76288.5782,1.50032.78125,2.3125s.52528,1.60111.75,2.5c.19784.79135.43603,1.43458.78125,2.125 .28648.57296.59392,1.15659.96875,1.90625 .32708.65414.81523,1.06796 1.15625,1.75 .3509.7018.7482.90265 1.15625,1.71875l.96875,1.9375c.29856.59711.80875,1.02375 1.15625,1.71875 .33228.66459.48726,1.67476.9375,2.125 .53254.53255.95021.68168 1.375,1.53125 .32882.65762.54783,1.15814.9375,1.9375 .3124.62481.60711,1.40172.96875,2.125 .193.38597.63444,1.57194.96875,1.90625 .49594.49592.56786,1.16161 1.15625,1.75 .49593.49594.75537.94286 1.34375,1.53125 .49595.49594.94286.75536 1.53125,1.34375 .49594.49595.78661.97412 1.375,1.5625 .49593.49595.94287.75536 1.53125,1.34375 .42914.42914.71964,1.15678 1.34375,1.53125 .67721.4063 1.49351.93927 1.9375,1.53125 .62753.83673.91371,1.50746 1.53125,2.125 .53662.53662.9512.98245 1.71875,1.75 .52223.52223 1.13748.91873 1.9375,1.71875 .49594.49593.75536.94286 1.34375,1.53125 .11307.11307.23351.21731.34375.3125 .26655.10613.49419.17523 1,.4375 5.96397,3.09244 20.75693,11.72221 26.5,14.59375s7.52799,7.7043 20.78125,15.65625 14.34375,8.40625 14.34375,8.40625 8.61564,9.926 12.8125,14.34375 17.03125,20.0625 17.03125,20.0625 10.9405,13.84516 18.90625,17.59375 9.22058.78066 14.0625-.78125 .78084-7.81326-.3125-9.84375 .62452-2.96946-.625-4.84375-11.03125-12.75-11.03125-12.75h.1875c1e-005,0-8.26677-10.99137-10-13.6875s-7.16057-8.9059-7.65625-12.03125c-.69926-4.40896-1.20587-5.17076-1.84375-6.6875-1.01951-2.42419-2.17046-1.42177-3.9375-5.53125-1.40412-3.26542-7.22843-6.43868-7.53125-8.1875-.61505-3.55191-15.70086-20.23404-19.28125-23.59375-2.66503-2.50077-1.87069-2.16363-3.21875-5.4375s-6.07728-5.2744-5.375-6.09375c1.80342-2.10407-1.08323-3.45213 1.34375-5.40625 .77033-1.73322-2.17379-7.53431-5.0625-12.15625s-8.29218-11.55818-9.0625-12.90625-6.16641-6.52693-5.78125-7.875-2.90117-5.59528-3.09375-7.90625c-.10729-1.28739-.96028-2.92538-1.71875-4.5z" fill="url(#radialGradient3357)" fill-rule="evenodd"/>
<path d="m-625.87363-249.99826c-3.79991-.06511-7.71193.21018-11.5,1.0625-9.63716,2.16836-19.07064,8.86644-18.4375,12 .2427,1.20116.36871,1.69873.21875,1.90625 .18466,1.09986-.0015,1.64156.25,2.21875 1.10048,2.52562-.80616.60324-1,.84375-.23246.28842 1.02254,1.65808.34375,1.46875-2.82058-.78672-2.63721-1.51484-.5,1.96875 .16939.27609-2.30015.04241-1.625.625 2.10497,1.81639-1.66365,2.68461-.125,2.40625 1.39496-.25237 2.92819.04651-.15625,1.90625-.67636.40781 2.28674-.53467 2.15625-.375-3.17844,3.88941 4.36078-.94134 1.59375,2.375 .38238.00844.74216.03516 1.0625.09375 .59262.10838 1.12139.34014 1.625.84375 .23605.23604.77476.67015 1.46875.9375 .34699.13367.7414.23355 1.125.25s.7567-.06585 1.125-.25c.33326-.16663.56273-.30702.75-.4375-.46026-.85514-.67193-1.59137-.875-1.5625-1.12596-1.6446.67532-5.60221 3-7.03125 1.87653-1.15356 3.76618.81197 6.40625,1.84375 1.76946.69153 2.91404,3.70465 2.625,5.28125 .52693.23468 1.05574.45925 1.84375.65625 1.01172.25293 2.4545.92613 3.75,1.25 .61664.15416 1.18982.398 1.78125.59375s1.20254.34375 1.96875.34375c.49156,0 .85874.10397 1.125.25s.45242.35196.625.5625c.34516.42107.61494.87248 1.375,1.0625 1.13177.28294 2.29326.70432 3.4375,1.5625 .4499.33743 2.78849,1.5625 3.4375,1.5625 .89127,0 1.5098.06528 2.0625.21875s1.04096.39548 1.6875.71875c.43393.21696.86841.72093 1.28125,1.1875s.80499.89656 1.21875,1c1.47854.36964 2.59438.625 4.375.625 1.03902,0 1.66854.09493 2.1875.25s.92877.37064 1.5625.6875c1.0784.5392 1.85482.91732 2.8125,1.875 .50183.50183 2.13277,1.45302 2.5,2.1875 .15404.30808.39754.96387.71875,1.5625s.72085,1.14115 1.15625,1.25c.53692.13423 1.27098.96721 1.78125,1.65625s.79759,1.2351.40625.84375c-.58151-.58151-.91961-.77257-1.375-.875s-1.02938-.11672-2.0625-.375c-.38143-.09535-1.22615-.43433-1.78125-.625-.27755-.09533-.48334-.16177-.53125-.125s.07373.16467.4375.4375c.47123.35342 1.38143.90555 2.03125,1.40625 .32491.25035.58042.49504.6875.6875s.06697.33482-.21875.40625c-.57144.14286-.83349.83349-1.25,1.25-.16566.16567-.45387.19067-.78125.15625s-.69504-.12495-1.03125-.21875-.65159-.17502-.84375-.1875-.26103.04045-.15625.25c.31238.62476.44359,1.38108.9375,1.875 .3669.3669.59592.66499.6875.90625s.02659.43814-.125.53125c-.30318.18621-1.04202.04149-2.125-.5-1.33605-.66803-1.51668-.69291-1.46875-.5 .02396.09645.10182.25301.125.40625s-.00996.30186-.21875.40625c-.28326.14163-.65822.33883-1,.4375s-.65107.09894-.875-.125c-.46567-.46567-1.68826-.91791-2.65625-1.1875s-1.68278-.35702-1.09375-.0625c.18209.09105.63945.21819 1.0625.53125 .21152.15653.41524.35516.5625.625s.25.60955.25,1.03125c0,.77883-.09127,1.10942-.25,1.1875s-.37305-.09468-.59375-.34375-.47034-.57864-.65625-.78125-.32064-.27995-.375-.0625c-.21988.87952-.3593,1.34506-.71875,1.59375s-.94001.28125-2.09375.28125c-1.39062,0-1.73221.12195-1.90625.34375s-.18159.54392-.90625.90625c-.83759.41879-1.32287.01822-2.5.3125-.46186.11547-.75522.30851-.9375.53125s-.24207.46178-.28125.6875-.0612.43809-.09375.5625-.08761.17494-.25.09375c-.67696-.33848-1.14664-.42868-1.46875-.375s-.48189.25919-.59375.5c-.22371.48162-.18721,1.125-.4375,1.125-.28037,0-.63411-.30706-.9375-.53125s-.557-.36575-.625-.09375c-.10789.43155-.14215,1.15214-.25,1.71875-.05392.28331-.11045.53929-.21875.6875s-.26981.19322-.46875.09375c-.59534-.29767-1.28972-.8983-1.84375-1.15625-.27701-.12898-.51695-.17508-.6875-.0625s-.28125.3977-.28125.90625c0,.63552-.65309,1.7272-1.25,2.5-.29845.3864-.56384.67546-.75.8125s-.28798.11395-.1875-.1875c.10412-.31238.63196-.85764.3125-.9375-.07537-.01884-.27887-.48071-.5625-.59375-.14181-.05652-.30109-.03531-.46875.1875s-.35523.63968-.53125,1.34375c-.068.272-.12912-.21071-.21875-.71875s-.20799-1.04201-.40625-.84375c-.65856.65856-1.66698.83349-2.5,1.25 .20326.20327.75848.46282 1.0625.78125 .15201.15922.23518.35005.1875.53125s-.22771.36385-.625.5625c-.37524.18762-.52875.18298-.9375.28125 .01833.11984.11062.26777.03125.34375-.15874.15196-.5418.18487-1.28125,0-.0421-.01053.70859-.21358 1.25-.34375-.01833-.11984.05314-.20695-.03125-.34375-.33757-.54722-1.09013-1.13223-1.21875-.875-.1679.3358-.35953.67203-.625.9375-.48001.48-.78708,1.57845-1.09375,2.4375-.15333.42952-.29375.79786-.46875,1s-.385.24-.625,0c-.37903-.37903-.6603-1.32997-.90625-2.0625-.12298-.36626-.23788-.68606-.34375-.84375s-.21296-.1551-.3125.09375c-.20825.52064-.37422,1.06095-.625,1.5625-.47047.94095-.53443,1.21445-.6875,1.15625s-.39595-.44798-1.1875-.84375c-.56741-.2837-.86754-.36212-1.03125-.3125s-.18979.22184-.21875.40625-.0556.37932-.21875.5-.46497.17282-1.03125.03125c-.09001-.0225-.4011-.31998-.78125-.34375-.19008-.01189-.40738.02849-.59375.21875s-.36816.53513-.5,1.0625c-.21189.84757-.37079,1.53489-.5625,1.75s-.41669-.04176-.6875-1.125c-.14773-.59093-.29969-.72946-.4375-.84375-.2626.4292-.37011.98045-.53125,1.625-.17015.68063-.87675.69445-1.03125,1.3125-.16587.66349-.15985.88248-.09375.9375s.17003-.03125.21875-.03125c.31555,0 2.05391-.17342 2.0625-.15625 .16933.33866.50194,1.14851.3125,1.90625-.10408.41632-.18809.81539-.1875,1.03125s.09479.24896.34375,0c.4184-.4184.94552-.66427 1.3125-1.03125 .26603-.26604.44494-.53983.5625-.59375s.15625.12102.15625.75c0,.75009-.32037,1.28098-.125,2.0625 .11281.45124-.03071,1.43965.125,2.0625 .09943.39771.5488,1.49227.59375,1.3125 .15575-.62303.36055-1.1586.59375-1.625 .09935-.19871.75001-1.22391.75-1.46875 0-.34968.4096-1.80579.4375-1.75 .24455.48911.25406,1.01624.4375,1.75 .16688.66753.60243.79858.875,1.34375 .20251.40502.34103,1.11956.59375,1.625 .12271.24543.19094.66627.28125,1s.2164.57654.46875.46875c.21155-.09036.41345-.19089.625-.28125 .04745-.26739.09375-.55639.09375-.90625 0-1.12066-.1875-1.63272-.1875-2.6875 0-.18298.12012-.22199.28125-.1875s.34766.14453.5625.3125c.42969.33594.875.85279.875,1.21875-1e-005,.6855.13281,1.02996.28125,1.3125s.3125.50315.3125,1c0,1.09949.27929,1.74216.375,2.125 .08557.34229.28864.68949.53125.96875s.52478.49057.8125.5625c.33243.08311.46624.34763.5.65625s-.03252.66132-.09375.90625c-.21857.87428-.40625,1.44412-.40625,2.5 0,.18801-.07304.17007-.1875.09375l56.15625,118.03125c2.25579-.10404 4.71314-.15625 5.875-.15625h21.1875 41.53125 6.59375c-.60304-1.25195-1.15625-2.46797-1.15625-3.40625 0-2.11839-4.79737-13.93346-6.3125-16.25-.67497-1.03198-5.28388-5.04067-5.0625-7.15625 .56617-5.41057-10.40255-23.47441-15.3125-33.34375-4.72097-9.48949-1.43259-2.61168-15.09375-35.09375-1.84398-4.38441-2.12068-6.94996-3.46875-10.03125s-1.54725-4.22613-2.125-7.5-2.125-1.93395-2.125-4.4375-.00077-2.89254-1.15625-5.78125-.3656-4.6156-1.90625-6.15625 .56173-6.16209-.59375-7.125-2.5-6.34375-2.5-6.34375 1.72306-1.15193.375-2.5-1.15625-5.96875-1.15625-5.96875 2.52032-.016 1.75-.59375-3.484-4.79649-2.90625-4.21875 2.96875-1.21875 2.96875-1.21875c-3.40993-2.40518-4.53413-16.95744-16.59375-31.3125-5.76978-6.86801-21.07932-16.79727-25.625-18.3125-3.40926-1.13642-13.85027-4.55468-25.25-4.75z" fill="url(#radialGradient3359)" fill-rule="evenodd"/>
<path d="m-638.74863-153.56076 .15625,1.25c-.00096.01468.00099.01634 0,.03125-.08657,1.29838-.50105,9.76947-.78633,9.19892-2.82955-5.65911-3.4564-6.13425-3.55742-5.73017-.5579,2.23157-.06712,9.10657-.625,6.875-.56471-2.25885-3.68971-8.50884-3.125-6.25 .36771,1.47085.88229,2.90415 1.25,4.375 1.31871,5.27485-3.8893.06774-3.75.625l.625,2.5c1.05535,4.22141 4.92003,5.74504 5.87194,7.64887 .62477,1.24952-5.66059-.89687-4.67275.09097 1.35765,1.35766 7.21065,7.64887 5.29065,7.64887-.62477,0-5.10784-3.10966-4.9563-2.50355 .40722,1.62888 4.46471,3.23895 5.96646,3.98984 1.98006.99003 5.94038,6.56537 4.375,5-1.39701-1.39701-7.3921-2.75855-5.625-1.875 .33507.16753 2.80936,2.18437 4.375,3.75 2.09339,2.09339 4.06202,1.25194 3.125,5-.3745,1.49801-.43744,5.09921 2.21875,6.6875l.375,3.0625c0,1.2258.11674,1.375-1.15625,1.375-1.17659,0-.78124,1.05015-.78125,2.09375 0,1.12417.15355,1.64545.375,2.53125 .19644.78573.40625,1.33703.40625,2.5 0,1.41309.34616,1.5024 1.15625,2.3125 .4474.4474 1.14031.93686 1.53125,1.71875 .52964,1.05929 1.10257,2.06677 1.71875,3.09375 .65703,1.09505 1.31829,2.4433 2.125,3.25 .51045.51046 2.07857,2.10947 3.09375,2.3125 1.95894.39179 3.9617,2.18399 5.78125,3.09375 2.29334,1.14667 4.32203,1.9375 6.90625,1.9375 1.64552,0 3.75269.61073 5.21875,1.34375 1.40102.70051 3.41929,1.45461 5,1.90625 1.71383.48966 4.24529,2.71875 5.96875,2.71875 1.65709,0 2.39039-.5497 3.28125-1.15625l1.15625-.78125c-1.42453-1.40964-1.25001-6.47207-1.25-10 0-3.12382-1e-005-6.25118 0-9.375 0-2.46279-.73933-6.08232-1.25-8.125-.81392-3.25571-2.49999-2.81926-2.5-6.875 0-1.06921-2.03818-5.02772-2.5-6.875-.50353-2.01411-3.25353-3.87854-4.375-5-1.30828-1.30828-2.92934-3.98368-3.75-5.625-1.05314-2.10628-3.0129-3.63789-4.375-5-1.89063-1.89063-1.86609-4.33934-2.5-6.875-.97134-3.88537-.91457-4.03957-3.125-6.25l-5-5c-1.82388-1.82388-3.62998-2.75249-5.625-3.75-2.73055-1.36527-4.89277-1.5089-6.875-2.5-1.01143-.50572-4.00303-.375-5.1875-.375z" fill="url(#radialGradient3361)" fill-rule="evenodd"/>
<path d="m-648.59238-110.24826c-.31384.50742 7.07777,11.71625 8.71875,13.8125 .62263.79537-6.87837-3.69801-8.40625-4.875-.57432-.44243 6.13287,5.80742 6.09375,6.6875-.06902,1.55254-4.625-1.36118-4.625-1.9375-1.04703-.57619 4.72696,5.76602 4.65625,6.46875-.1024,1.01762-2.91092-.41361-4-1.1875 1.4857,2.07611 6.45629,7.99621 1.71875,4.40625-2.09884-1.59042-.17638-.27902-2.0625-1.8125-.10147-.01128 3.48991,8.74206 7.03125,12.3125 1.9171,1.93284 8.83066,9.81077 13.90625,11.53125 2.48398.842-2.38147,2.44888 38.09375,34.875 25.14972,20.14832 31.38101,20.10733 30.75,19.53125-.69959-.63868 40.09759,30.88397 43.53125,33.875 4.8005,4.18168 11.78866,6.04087 13.99586,7.13865s3.90744,3.37122 7.44164,5.5801 16.78372,9.54642 18.59375,10.8125c3.18452,2.22751 8.69225,5.79386 12.53125,8.3125 3.301,3.56862 9.8064,9.23483 12.25,10.71875 2.58687,1.57092 8.11322,2.48334 10.25,1.40625-.66258-4.0173-1.16554-4.84849-1.78125-6.3125-1.01951-2.42419-2.17046-1.42177-3.9375-5.53125-1.40412-3.26542-7.22843-6.43868-7.53125-8.1875-.61505-3.55191-15.70086-20.23404-19.28125-23.59375-2.66503-2.50077-1.87069-2.16363-3.21875-5.4375s-6.07728-5.2744-5.375-6.09375c1.80342-2.10407-1.08323-3.45213 1.34375-5.40625 .77033-1.73322-2.17379-7.53431-5.0625-12.15625s-8.29218-11.55818-9.0625-12.90625-6.16641-6.52693-5.78125-7.875-2.90117-5.59528-3.09375-7.90625-2.875-5.78786-2.875-7.90625-4.79737-13.93346-6.3125-16.25c-.67497-1.03198-5.28388-5.04067-5.0625-7.15625 .00311-.02973-.00242-.06325 0-.09375-.43773.32276-.93732.52504-1.53125.40625-1.92582-.38516-2.87932-3.26803-1.53125.96875s-4.24847-2.52311-1.9375,1.90625-2.31174-1.1598-1.15625,1.34375 1.36407,5.21875.59375,5.21875-1.83632-3.51734-5.03125-6.75c-7.35484-7.44167 1.16585.77901-1.9375,4.03125-.93813.98313-8.9071-4.09113-4.4375-.5625-.30639-1.39702 4.10801,3.72356-1.65625,1.875-2.71746-.87146-4.83043-2.87913-6.9375-4.25-3.24858-2.11354-8.2307-8.63887-7.15625-6.28125 1.73323,3.80316-4.587-.26838-3,.875 2.22895,1.60587.50981,3.48091-2.96875,1.25-.7728-.49562-.92826,1.18399-3.1875,0-1.30348-.68311-.6474.96071-4.625-1.375-2.05352-1.20587-3.95519-1.82062-4.125-3.25-.0564-.47468-.94834,2.76223-2.3125,2.09375-2.10104-1.02958-1.59583,3.54411-3.875.78125-3.2305-3.91607-4.14872-5.89727-4.3125-6.0625 .01126.24216.27217,1.35628.28125,3.3125 .00967,2.08305-5.15613,2.96135-6.46875-.0625-1.92212-4.42796-2.5942-5.99756-2.71875-6.125 .00286.44676 1.5143,5.49904-.4375,5.96875-3.20494.77127-6.42099-8.49097-6.1875-5.96875 .41459,4.47842-2.25,1.99923-2.25.84375s-2.72498-4.02238-1.59375-1.15625c1.51515,3.83888-2.0258,3.87853-4.96875,1.59375-1.94322-1.50863-.39086-6.07202-.96875-4.625-1.01641,2.54499-.98804,4.42113-2.90625,1.6875-.9894-1.40999-.39609-5.8379-.78125-4.875s-1.65182,4.96851-2.53125,4.03125c-4.70747-5.01701-.91905-2.00366-3.4375-10.125-1.27363-4.10712-.11005,1.18842-.46875,3.8125-.57832,4.23082-2.63634-.58904-4.0625-2.71875-.29372-.43862-.43597-1.64032-.46875-2-.12192.04321-.42296.02568-1.15625-.21875-1.73323-.57775-3.14028-5.30356-3.28125-4.09375-.18607,1.59692-.09873,2.69371-1.34375,2.71875-1.53166.0308-2.41141-7.49637-2.40625-5.71875 .00504,1.73676.47128,2.56327-.125,3.71875-.59242,1.14803-.7246,1.60899-1.6875,1.03125-.88467-.5308-1.05136-5.10586-1.15625-5.40625-.09479.48295-1.16408,4.24217-1.9375,3.46875 0,0-.19258-4.03202 0-5.1875s-4.05233-7.90549-4.4375-6.75 .40549,4.42073-.75,2.6875-3.09375-3.25-3.09375-3.25 1.33282,2.09884.5625,1.90625-4.59375-4.22306-4.59375-2.875 5.55665,7.13516 4.59375,6.75-11.53125-9.4375-11.53125-9.4375zm32.34375,20.65625c.16625-.05892-.03125-.25-.03125-.25s.02621.19473.03125.25zm-30.25-2.125c-.21187-.00784-.04597.18053.3125.4375-.08442-.11822-.2546-.34805-.3125-.4375z" fill="url(#linearGradient3363)" fill-rule="evenodd" stroke="#000" stroke-opacity=".94118" stroke-width=".2"/>
<path d="m-505.06113,28.22049c4.37137,6.21654 10.09206,13.75909 17.625,22.96875 6.70703,8.19991 13.1572,14.40582 16.5,19.09375 .80428.92695 8.33043,9.5896 12.3125,13.78125 4.19687,4.41776 17.03125,20.0625 17.03125,20.0625s10.9405,13.84516 18.90625,17.59375 9.22058.78066 14.0625-.78125 .78084-7.81326-.3125-9.84375 .62452-2.96946-.625-4.84375-11.03125-12.75-11.03125-12.75h.1875c1e-005,0-8.26677-10.99137-10-13.6875s-7.16057-8.9059-7.65625-12.03125l-.0625-.375c-2.13678,1.07709-7.66313.16467-10.25-1.40625-2.4436-1.48392-8.949-7.15013-12.25-10.71875-3.839-2.51864-9.34673-6.08499-12.53125-8.3125-1.81003-1.26608-15.05954-8.60364-18.59375-10.8125s-5.22629-4.49396-7.4375-5.59375c-1.08106-.53768-3.31889-1.25733-5.875-2.34375z" fill="#1f1f1c" fill-opacity=".9" fill-rule="evenodd" stroke="#000" stroke-opacity=".94706" stroke-width=".2"/>
<path d="m-655.59238-235.02951c-.15313.20478-.57589.125-1.46875.125-6.566,0-21.71875,8.21875-21.71875,8.21875s10.76339-.65625 11.65625.59375 .36607,1.94196 1.4375,2.65625 6.42857,1.62054 0,.90625-11.09375-.25-11.09375-.25 9.26401,2.98723 15.15625,8.34375c.72571.65972 3.0109,1.67705 4.5,2.9375-1.25354-1.8638-2.83752-3.52689-.28125-1.8125 .223.14956-1.47704-1.86142-1.40625-2.71875 .06947-.84122.48812.73482 1.9375.53125 1.24326-.17462 1.13811-.98915.625-1.625-1.08644-1.34635 1.37096-.39692-.09375-2.125-.51459-.60712 2.7149-.45471 2.5-.71875-.46393-.57005-1.51537-.78259-.8125-1.625 2.76703-3.31634-4.77219,1.51441-1.59375-2.375 .13049-.15967-2.83261.78281-2.15625.375 3.08444-1.85974 1.55121-2.15862.15625-1.90625-1.53865.27836 2.22997-.58986.125-2.40625-.67515-.58259 1.79439-.34891 1.625-.625-2.13721-3.48359-2.32058-2.75547.5-1.96875 .67879.18933-.57621-1.18033-.34375-1.46875 .19384-.24051 2.10048,1.68187 1-.84375-.2515-.57719-.06534-1.11889-.25-2.21875z" fill="#a56202" fill-rule="evenodd" stroke="#000" stroke-opacity=".94706" stroke-width=".1"/>
<path d="m-648.36121-221.724c.47506-.06755.84029,4.13363 4.90232,3.94908 4.39065-.19948 6.70444-2.37863 7.0811-3.60864 .45749-1.49398-.72963-4.78908-2.58733-5.5151-2.64007-1.03178-4.5237-2.99193-6.40023-1.83837-2.32467,1.42905-4.12182,5.36843-2.99586,7.01303z" fill="#000100" fill-opacity=".77059" fill-rule="evenodd" stroke="#000" stroke-width=".2"/>
<path d="m-528.84238-65.34201c-.04603.12959 1.02421,1.66765 1.5625,3.375 .29587-.41052.57181-.82222.75-1.15625-1.55986-1.58407-2.28124-2.30674-2.3125-2.21875z" fill="#00f9ff" fill-opacity=".11176" fill-rule="evenodd" stroke="#000" stroke-width=".1"/>
<path d="m-535.62363-44.68576c-.11799-.22717-.25068-.43888-.3125-.5625-.15556-.31112-.25387-.539-.375-.78125-.12399-.24797-.4329-.4283-.5625-.6875-.12264-.24525-.37113-.46488-.53125-.625-.28975-.28975-.36117-.28843-.46875-.71875-.08239-.32958-.29057-.54988-.40625-.78125-.16022-.32043-.2449-.52103-.375-.78125-.16669-.33335-.26889-.50653-.40625-.78125-.13228-.26453-.35328-.45656-.46875-.6875-.17225-.34452-.3153-.40904-.53125-.625-.15348-.15347-.34995-.55604-.40625-.78125-.04096-.16386-.43227-.52602-.53125-.625-.21456-.21455-.25315-.46495-.40625-.65625-.0125.28619-.21635,1.52171-.3125,1.90625-.06372.25488-.06249.7207-.0625,1.09375 0,.3525-.09495.59855-.15625.84375-.07924.31696-.07617.63869-.3125.875-.17482.17483-.44869.45986-.5625.6875-.03671.07342-.1741.28161-.28125.4375 .24749.26522.181,1.14215.9375,1.25 .79739.11366 2.49079.31562 3.25,1.53125 .79049,1.26572 2.09666.6849 3.28125.46875z" fill="url(#radialGradient3365)" fill-rule="evenodd"/>
<path d="m-532.31113-44.87326c-.10997-.14467-.21196-.22286-.25-.375-.06378-.25516-.3507-.45139-.46875-.6875-.1424-.28482-.41704-.33408-.5625-.625-.13798-.27595-.24003-.5851-.3125-.875-.08626-.34503-.29037-.44273-.375-.78125-.08717-.34863-.17025-.61852-.25-.9375-.09597-.38383-.375-.23881-.375-.78125 1e-005-.32097-.31025-.58925-.40625-.78125-.14979-.29959-.22967-.49058-.375-.78125-.14448-.28895-.34273-.43545-.46875-.6875-.10355-.2071-.42384-.48634-.5625-.625-.23862-.2386-.33014-.42388-.53125-.625-.22899-.22901-.46758-.34316-.71875-.46875-.30307-.15154-.43156-.34078-.6875-.46875-.23557-.11778-.49068-.49068-.625-.625-.23859-.2386-.36138-.42389-.5625-.625-.2386-.23861-.42388-.36139-.625-.5625-.2386-.2386-.42389-.33014-.625-.53125 .5254.90354.85435,1.60918-1.09375.6875-.1759-.08322-.2421-.00449-.3125.0625 .13001.08651.30991.09115.46875.25 .23189.23189.62501.41461.625.71875 0,.39048 1e-005,.76578 0,1.15625 0,.00707.0004.05335 0,.0625 .1531.1913.19169.4417.40625.65625 .09898.09898.49029.46114.53125.625 .0563.22521.25277.62778.40625.78125 .21595.21596.359.28048.53125.625 .11547.23094.33647.42297.46875.6875 .13736.27472.23956.4479.40625.78125 .1301.26022.21478.46082.375.78125 .11568.23137.32386.45167.40625.78125 .10758.43032.179.429.46875.71875 .16012.16012.40861.37975.53125.625 .1296.2592.43851.43953.5625.6875 .12113.24225.21944.47013.375.78125 .06182.12362.19451.33533.3125.5625 .26133-.04768.54172-.14496.78125-.125 1.32532.11045 2.34375.77311 2.34375,0 0-.07859.13201-.03918.1875-.0625z" fill="url(#radialGradient3367)" fill-rule="evenodd"/>
<path d="m-533.46738-60.02951c.08733.15191.49849.5202 1.34375,1.1875-.30639-1.39702 4.10801,3.72356-1.65625,1.875-.48914-.15686-.95279-.3736-1.40625-.59375-.97371.09713-2.43745-.0324-4.34375-.8125-3.65153-1.49429-2.33039.33569-1.5625,1.65625 .20111.20111.3864.29265.625.53125 .20112.20111.3864.32389.625.5625 .20112.20111.32391.3864.5625.625 .13432.13432.38943.50722.625.625 .25594.12797.38443.31721.6875.46875 .25117.12559.48976.23974.71875.46875 .20111.20112.29263.3864.53125.625 .13866.13866.45895.4179.5625.625 .12602.25205.32427.39855.46875.6875 .14533.29067.22521.48166.375.78125 .096.192.40626.46028.40625.78125 0,.54244.27903.39742.375.78125 .07975.31898.16283.58887.25.9375 .08463.33852.28874.43622.375.78125 .07247.2899.17452.59905.3125.875 .14546.29092.4201.34018.5625.625 .11805.23611.40497.43234.46875.6875 .03804.15214.14003.23033.25.375 .49033-.20608 2.78794,1.401 2.53125.4375-.42187-1.58352-.4123-3.10345.34375-2.5 1.45155,1.1586.72409-1.21146.34375-3.28125-.50394-2.74242-.61473-5.26957-1.375-5.375-1.48795-.20633.95205-.33907 1.0625-2.4375 .00638-.1213.03663-.24976.0625-.375-.00287-.00098.00287-.03027 0-.03125-1.82002-.62284-4.38698-2.04949-4.125-1.59375z" fill="url(#radialGradient3369)" fill-rule="evenodd"/>
<path d="m-543.09238-47.93576c.10715-.15589.24454-.36408.28125-.4375 .11381-.22764.38768-.51267.5625-.6875 .23633-.23631.23326-.55804.3125-.875 .0613-.2452.15625-.49125.15625-.84375 1e-005-.37305-.00122-.83887.0625-1.09375 .09922-.39683.3125-1.74052.3125-1.96875 1e-005-.39047 0-.76577 0-1.15625 1e-005-.30414-.39311-.48686-.625-.71875-.15884-.15885-.33874-.16349-.46875-.25-.29315.27895-.06782,1.49634-2.25,1.34375-4.50131-.31475-7.35863-1.6752-9.5-3.375 .05751.16639-.00349.23379.0625.40625 .32195.84145.7492,1.74604 1.28125,2.6875s1.18149,1.90747 1.9375,2.875 1.63115,1.95535 2.625,2.875c.35081.32462.80589.59383 1.1875.90625 .50067.27568 1.5,1.00169 1.5.6875-1e-005-.55222 1.33156.11659 2.09375-.34375 .2439-.14731.37584-.13081.46875-.03125z" fill="url(#radialGradient3371)" fill-rule="evenodd"/>
<path d="m-547.15488-48.24826c-.38161-.31242-.83669-.58163-1.1875-.90625-.99385-.91965-1.86899-1.90747-2.625-2.875s-1.40545-1.93354-1.9375-2.875-.9593-1.84605-1.28125-2.6875c-.06599-.17246-.00499-.23986-.0625-.40625-.73681-.58488-1.39833-1.20581-2-1.84375-2.37013-2.51302-2.59217.32936-6.40625-.40625-1.83012-.35298-3.2694-.80496-4.625-1.25 .05125.42655.03761.80838.1875,1.28125 .29213.92157.81606,1.95414 1.53125,3.03125s1.62793,2.19457 2.71875,3.375 2.36222,2.39347 3.78125,3.625c.88081.76443 1.91379,1.54469 2.90625,2.3125 .03459.00638-.22899-.1474.34375.09375 2.09844.88355 3.91061,1.13737 4.5.625 .72523-.63044.57433.60409 2.46875.8125 2.69023.29596 3.34477.25855 2.1875-1-1.00666-1.09475-.87929-1.1151-.5-.90625z" fill="url(#radialGradient3373)" fill-rule="evenodd"/>
<path d="m-556.15488-47.87326c-.99246-.76781-2.02544-1.54807-2.90625-2.3125-1.41903-1.23153-2.69043-2.44457-3.78125-3.625s-2.00356-2.29789-2.71875-3.375-1.23912-2.10968-1.53125-3.03125c-.14989-.47287-.13625-.8547-.1875-1.28125-2.03339-.66756-3.64005-1.36281-4.1875-2.03125-1.32507-1.61793 1.74139,2.72542 1.09375,3.6875 .19058.17887.40077.36401.53125.625 .1445.28901.36205.64331.6875.96875 .18204.18204.51873.47498.65625.75 .16437.32875.39547.47842.59375.875 .12533.25067.59516.53686.65625.78125 .0994.39761.29917.54916.59375.84375 .24798.24797.36206.48706.65625.78125 .24797.24797.29955.58081.59375.875 .24797.24797.26831.54955.5625.84375l.78125.78125c.24797.24797.48705.39331.78125.6875l.75.75c.12399.12399.89144,1.12357 1.78125,2.0625 .4449.46946.92722.91092 1.375,1.25 .07142.05408.11786.04627.1875.09375 .06018-.13961 2.70191,1.17816 3.40625-.0625 .30963-.54541-.46715-.95449-.375-.9375z" fill="url(#radialGradient3375)" fill-rule="evenodd"/>
<path d="m-559.18613-46.87326c-.06964-.04748-.11608-.03967-.1875-.09375-.44778-.33908-.9301-.78054-1.375-1.25-.88981-.93893-1.65726-1.93851-1.78125-2.0625l-.75-.75c-.2942-.29419-.53328-.43953-.78125-.6875l-.78125-.78125c-.29419-.2942-.31453-.59578-.5625-.84375-.2942-.29419-.34578-.62703-.59375-.875-.29419-.29419-.40827-.53328-.65625-.78125-.29458-.29459-.49435-.44614-.59375-.84375-.06109-.24439-.53092-.53058-.65625-.78125-.19828-.39658-.42938-.54625-.59375-.875-.13752-.27502-.47421-.56796-.65625-.75-.32545-.32544-.543-.67974-.6875-.96875-.13048-.26099-.34067-.44613-.53125-.625-.07816.11611-.17315.21875-.375.21875-1.87429,0-6.71917-2.96911-7.8125-3.90625s1.00891.61016-2.75.46875c-.55226-.02078-.88951-.14511-1.3125-.21875 .43957.54289.57691,1.17066 1.1875,1.78125 .56884.56884 1.10637.88763 1.78125,1.5625 .56884.56884.85638,1.07514 1.53125,1.75 .5362.5362.88158,1.35033 1.53125,2 .56884.56884.88762,1.10638 1.5625,1.78125 .56884.56884 1.10638.85639 1.78125,1.53125 .56884.56884.73139,1.41887 1.40625,2.09375 .31666.31666.78669.59335 1.28125.875 1.08478.50977 3.02782,1.45829 3.6875,1.1875 .68539-.28133-1.54998-3.02133.34375-.9375 2.08158,2.29053 1.90541,2.44562 3.78125,2.90625 .76985.18906 5.10493,1.24251 3.28125-.1875-.12402-.09725.27286.08196.28125.0625z" fill="url(#radialGradient3377)" fill-rule="evenodd"/>
<path d="m-570.56113-49.90451c-.49456-.28165-.96459-.55834-1.28125-.875-.67486-.67488-.83741-1.52491-1.40625-2.09375-.67487-.67486-1.21241-.96241-1.78125-1.53125-.67488-.67487-.99366-1.21241-1.5625-1.78125-.64967-.64967-.99505-1.4638-1.53125-2-.67487-.67486-.96241-1.18116-1.53125-1.75-.67488-.67487-1.21241-.99366-1.78125-1.5625-.61059-.61059-.74793-1.23836-1.1875-1.78125-2.63453-.45862-3.12522-1.70754-3.90625-1.875-.85788-.18393-.45168-.14234-1.0625.1875-.85779.46321-4.00215-.98125-3.46875-.5 .37052.3343.07937.47044-.4375.5 .0296.0314.05854.02729.09375.0625 .24798.24797.39331.48706.6875.78125 .24797.24798.45582.36205.75.65625s.39247.47248.59375.875c.1443.2886.19832.69831.46875.96875 .24798.24797.39329.45581.6875.75 .24797.24797.36207.48706.65625.78125 .24797.24797.39331.48706.6875.78125 .24798.24797.36205.45581.65625.75 .24797.24797.48705.39331.78125.6875s.43767.62516.6875.875 .36206.45581.65625.75c.26098.26098.33868.52618.6875.875 .24797.24798.36207.48705.65625.78125 .24797.24797.48704.36207.78125.65625 .20593.20593.35724.42848.5625.65625-.00576-.34914 2.98543,2.0993 6.0625,3.4375 3.29747,1.43405 6.55687,1.31116 4.75.15625-.53547-.34226-.77809-.53305-.84375-.59375 .07368.02201.59104.24156.875.375z" fill="url(#radialGradient3381)" fill-rule="evenodd"/>
<path d="m-581.40488-53.27951c-.20526-.22777-.35657-.45032-.5625-.65625-.29421-.29418-.53328-.40828-.78125-.65625-.29418-.2942-.40828-.53327-.65625-.78125-.34882-.34882-.42652-.61402-.6875-.875-.29419-.29419-.40828-.50203-.65625-.75s-.39809-.58559-.6875-.875-.53328-.43953-.78125-.6875c-.2942-.29419-.40827-.50203-.65625-.75-.29419-.29419-.43953-.53328-.6875-.78125-.29418-.29419-.40828-.53328-.65625-.78125-.29421-.29419-.43952-.50203-.6875-.75-.27043-.27044-.32445-.68015-.46875-.96875-.20128-.40252-.30723-.58849-.59375-.875s-.50203-.40827-.75-.65625c-.29419-.29419-.43952-.53328-.6875-.78125-.03521-.03521-.06415-.0311-.09375-.0625-1.13768.06506-3.73278-.51351-5.34375-1.53125-2.80116-1.76964-4.0625-2.8125-4.0625-2.8125-.61982-.24793.2556,1.66743.78125,2.5 .21313.33756-.30741.34437-1.0625.1875 .02359.02658.03832.06716.0625.09375 .28609.31453.62246.65119.90625,1.21875 .41447.82894.80072,1.51948 1.46875,2.1875 .56884.56884.57513,1.32514 1.25,2 .56884.56884.79386,1.16888 1.46875,1.84375 .53951.53952.89455,1.13355 1.53125,1.78125 .66733.67888 1.77061,1.74187 2.625,2.625 .29296.05234.60064.22392 1.59375.96875 2.20889,1.65666 3.756,3.90838 4.75,3.6875s-.92936-4.11685-.15625-3.34375 1.74242,2.52125 2.625,2.5625c3.50324.16373 2.20593-1.2362 1.375-2.4375-.06644-.09606.2818.18986.28125.15625z" fill="url(#radialGradient3383)" fill-rule="evenodd"/>
<path d="m-591.87363-54.87326c-.85439-.88313-1.95767-1.94612-2.625-2.625-.6367-.6477-.99174-1.24173-1.53125-1.78125-.67489-.67487-.89991-1.27491-1.46875-1.84375-.67487-.67486-.68116-1.43116-1.25-2-.66803-.66802-1.05428-1.35856-1.46875-2.1875-.28379-.56756-.62016-.90422-.90625-1.21875-.02418-.02659-.03891-.06717-.0625-.09375-1.01974-.21185-2.52582-.76379-3.78125-1.59375-2.53359-1.67494-5.2691-1.76292-6.71875-2.34375-1.42794-.57215-3.0986-1.26072-9.28125-5.75-6.57157-4.77168-8.26667-5.33514-8.25-7.125 .00261-.27994-.03071-.37799-.0625-.34375-.13777.14837-.36603,2.83259 1.21875,4.5 2.81801,2.96493 3.37705,2.47178 3.34375,2.53125 1e-005,1e-005 10.90585,12.17895 12.5625,13.0625s.54373-.72008 2.34375.53125c2.02283,1.40621 5.69378,6.25139 7.375,5.65625 2.82258-.99917 2.34466,2.52919 5.9375,1.34375 .7563-.24955 1.2329,1.54794 3,1.4375 .9726-.06079 1.26636-.22032 1.625-.15625z" fill="url(#radialGradient3385)" fill-rule="evenodd"/>
<path d="m-496.31113-19.87326c1.83735,1.92884 3.94421,4.18426 7.09375,7.6875-.32581-.16541 1.14295.63366 1.96875.65625-.88126-1.2208-1.66067-2.29312-2.40625-3.3125-1.83675-1.08816-4.66726-3.56032-6.65625-5.03125z" fill="url(#linearGradient3387)" fill-rule="evenodd" stroke="#000" stroke-width=".1"/>
<path d="m-532.87363-39.68576c1e-005-1e-005 6.00088,7.54755 8.34375,9.34375s16.32875,13.82827 17.96875,14.21875 .7524.22296 1.40625.5625c.62475.32446 7.11046,4.0368 10,5.78125 2.54581,1.53694 6.03411,1.61893 6.625,1.875 .78207.33891-.05174-3.95848-.6875-4.28125-3.14954-3.50324-5.2564-5.75866-7.09375-7.6875-.99688-.73723-1.83778-1.30565-2.125-1.15625-1.57449.81896-2.26991-2.14658-3.34375-.875-.42641.50489-1.25993.40381-1.9375-.1875-.93218-.81352-.90211-1.28644-1.625-1.46875-.45872-.11568-1.19354-1.57289-1.0625-1.46875 .20621.16388-2.71704.22881-3.6875-1.40625-.65635-1.10587.60107.45693-2.625-1.09375-7.01815-3.37344-11.2118-6.48505-11.5-6.625-5.62246-2.73026-8.7402-5.48403-8.65625-5.53125z" fill="url(#radialGradient3389)" fill-rule="evenodd" stroke="#000" stroke-width=".1"/>
<path d="m-507.59238-36.24826c-1.08421-1.29325-3.62018-4.15784-5.375-5.09375-2.34286-1.24953-10.15802-4.21987-14.84375-7.1875-.39302-.24891-.74376-.49479-1.09375-.75 .22986,1.11462.46204,2.13832.28125,2.5 .00482.00544-.00486.02576 0,.03125 1.82157,2.05558 5.74877,6.49897 6.5,7.125 .93715.78095 9.26857,7.15871 11.1875,8.21875 .8907.49204 5.66347,2.5355 5.9375.375 .18863-1.48726-.12244-2.0835-.15625-2.125-.64987-.8506-1.44613-1.76561-2.4375-3.09375z" fill="url(#radialGradient3391)" fill-rule="evenodd" stroke="#000" stroke-width=".1"/>
<path d="m-507.59238-36.24826c.99137,1.32814 1.78763,2.24315 2.4375,3.09375-.00099-.00121.0005-.06233 0-.0625s2.34393,1.24994 2.8125,1.09375-.56291-6.71916-1.65625-7.8125c-.52523-.52524-.22393-1.30222.21875-1.96875 0-.00815.00014-.02282 0-.03125-.03664-2.18426-4.8032-13.91112-6.3125-16.21875-.67497-1.03198-5.28388-5.04067-5.0625-7.15625 .00311-.02973-.00242-.06325 0-.09375-.43773.32276-.93732.52504-1.53125.40625-.94161-.18832-1.6474-.96036-1.96875-1.21875 1.61279,3.79595 3.50811,8.28613 4.03125,8.25 2.14785-.14832 2.14935-.53779 3.0625,1.3125 .92739,1.87915 4.84375,11.56286 4.84375,12.5s-.15672,1.40572-1.40625,0-.15613,2.5007.15625,4.375c.27335,1.63999.54865,3.41718 1.03125,4.25-.07442-.09724-.49303-.52406-.65625-.71875z" fill="url(#radialGradient3393)" fill-rule="evenodd" stroke="#000" stroke-width=".1"/>
<path d="m-585.24863-43.40451c.02924.54168.0809,1.09153-.03125,1.4375-.48165,1.48579-1.09375,1.09369-1.09375.9375 0,0 5.47005,7.65725 8.90625,10.3125s9.81339,9.68803 12.15625,11.09375 6.25,2.96875 6.25,2.96875-3.2819-3.12535-5-4.0625 .625,0 .625,0-6.38827-7.79386-7.25-8.21875c-.00662-.00326-.05655-.06012-.0625-.0625-.0105-.00907-.02072.0091-.03125,0-2.02489-1.75032-4.53255-4.13362-7-6.5625s-4.88854-4.92288-6.71875-6.90625c-.43789-.47453-.38689-.52834-.75-.9375z" fill="url(#radialGradient3395)" fill-rule="evenodd" stroke="#000" stroke-width=".1"/>
<path d="m-585.24863-43.40451c.36311.40916.31211.46297.75.9375 1.83021,1.98337 4.2513,4.47737 6.71875,6.90625s4.97511,4.81218 7,6.5625c.01053.0091.02075-.00907.03125,0-.78095-.31237 1.84375.3125 1.84375.3125s-.12577-1.09463-2.15625-3.4375-2.34375-3.75-2.34375-3.75-4.22005-4.06386-7.65625-7.65625-5.46875-5.9375-5.46875-5.9375c-.04444-.0889 1.1503,3.63701 1.28125,6.0625z" fill="url(#radialGradient3397)" fill-rule="evenodd" stroke="#000" stroke-width=".1"/>
<path d="m-461.18613,54.25174c.29831.47184.55003.85147.84375,1.3125 3.37023,3.57783 9.58621,8.99066 11.96875,10.4375 2.58687,1.57092 8.11322,2.48334 10.25,1.40625-.66258-4.0173-1.16554-4.84849-1.78125-6.3125-.44151-1.04982-.90733-1.44822-1.4375-1.90625 .69557,2.11543 1.39011,4.47181 1.25,5.3125-.27236,1.63411.95343,2.20095-1.90625,1.65625s-4.03311-.75851-9.21875-4.09375c-2.23739-1.43901-4.42295-3.32025-6.34375-5.25-1.22802-.85164-2.34313-1.6577-3.625-2.5625z" fill="#fff9ff" fill-opacity=".81176" fill-rule="evenodd" stroke="#000" stroke-width=".1"/>
<path d="m-506.31113,13.68924c-.13876.21617-.16691.61847-.59375.8125 .62224.85728 1.75569,1.41791 2.2627,1.96113 1.34806,1.44435 5.8783,4.62323 6.84121,5.77871s3.73299,4.32012 5.17734,4.41641 2.12076,1.10078 3.375,1.15625c2.4904.11014 1.38983-.85267 2.21875-.875 .96255-.02593 2.8877-.07343 2.40625-.84375s1.55311.17404 2.51601-.40371 1.35061-3.16286.48399-5.37754c-.41537-1.06151-.98698-2.90676-1.5-4.5625-.56174-.03391-1.24406-.29083-1.90625-.59375 .37383.86591.77146,1.95292.90625,3.03125 .28887,2.31096.75763,3.76855.46875,4.25s-.8656,1.62754-2.40625,1.53125-2.13593-.86738-2.90625-1.15625 .41387.95351.125,1.53125-1.56073.68165-2.8125-.28125-1.25331-.30234-2.3125-.6875-1.73552-1.05818-3.46875-2.40625-4.69488-3.06734-7.96875-6.4375c-.36899-.37984-.58016-.55556-.875-.84375-.00528.00707-.02637-.00761-.03125,0z" fill="#fff9ff" fill-opacity=".81176" fill-rule="evenodd" stroke="#000" stroke-width=".1"/>
<path d="m-482.18613,13.22049c.26713.74457.46554,1.66363.0625,2.1875 3.18007,5.89178 4.98064,14.2051 5.125,14.8125 .35266,1.48392-1.34833,2.46375-1.65625,1.28125-.02515.28872-.31877,1.19722-2.96875,1.125-2.11978-.05776-8.01753-1.15778-10.90625-3.46875s-5.67556-4.99568-7.3125-6.34375-6.25153-5.015-8.5625-8l-.3125-.40625c-.39443-.10521-.82266-.22821-1.21875-.375 .47201.75944 1.06562,1.7229 1.15625,1.84375 .28888.38515 6.93826,6.82851 8.09375,7.40625s4.61484,3.85976 5,4.4375 6.44335,5.96113 7.40625,6.25 5.69589,2.71036 6.5625,1.84375 2.97968-.1123 3.75-.59375 .59211-1.74963 1.15625-1.625c2.77802.6137 2.88333-.55211 2.21875-3.28125-.72551-2.97942-2.18006-8.87316-5.6875-14.25-.77516-1.18831-1.34359-2.03604-1.90625-2.84375z" fill="#fff9ff" fill-opacity=".81176" fill-rule="evenodd" stroke="#000" stroke-width=".1"/>
<path d="m-479.24863,12.25174c-.39249.36665-.89628.55724-1.4375.5625 1.14452,1.41495 3.82555,4.73182 5.59375,6.5 2.1788,2.1788 2.3392,4.84809 3.15625,5.9375s2.30374,2.96113 3.53125,5.71875c2.11995,4.76258 3.08805,5.1467 3.125,7 .02514,1.26071.87152,2.22905.6875,2.96875-.27351,1.09943-3.2024-1.22651-3.96875-.34375-.6719.77394-1.67701.04588-4.1875.09375-3.05408.05823-4.2409-2.03561-5.875-3.125-.94689-.63126-1.62402-1.50503-2.0625-2.15625-.40441.04718-.77649.1515-1.03125.40625-.16249.16249-.45974.22047-.84375.1875 1.64937,1.548 4.62481,4.2608 6.53125,5.5 2.72351,1.77028 7.22517,3.39962 9.8125,2.71875s1.3659-.41515 3-.6875 .94868-.6693.8125-3.9375-2.87935-6.40376-3.96875-8.71875c-.4654-.98897-1.77717-3.44581-3.09375-5.90625-.42384-.42938-.89925-.91701-1.1875-1.1875-2.66503-2.50077-1.87069-2.16363-3.21875-5.4375s-6.07728-5.2744-5.375-6.09375z" fill="#fff9ff" fill-opacity=".81176" fill-rule="evenodd" stroke="#000" stroke-width=".1"/>
<path d="m-453.21738,43.93924c.7505,1.58522 1.3405,3.17964 1.15625,4.0625-.55559,2.66207-2.98662,4.29569-3.59375,4.0625-.9927-.38129-2.39979-.54688-4.0625-2.09375-1.17735-1.09534-1.48552-.39153-4.53125-2.8125-1.29847-1.03212-2.30814-1.98558-3.09375-2.78125-.81718.02983-1.73476-.0899-2.6875-.3125 2.05854,2.1828 5.88213,5.99645 7.59375,6.28125 2.89258.48132 4.67604,3.13646 5.3125,3.03125 2.94661-.48711 4.41748-1.31314 4.59375-2.46875 .11258-.73809.86276-2.01206 1.25-3.25-.04236-.09569-.07842-.19269-.09375-.28125-.12089-.69813-.80204-1.92574-1.84375-3.4375z" fill="#fff9ff" fill-opacity=".81176" fill-rule="evenodd" stroke="#000" stroke-width=".1"/>
<path d="m-476.31113,41.31424c1.52223,1.49327 7.77394,7.63165 8.46875,8.1875 .78094.62476 13.98493,10.04714 15.46875,10.75s4.92273,3.06203 7.1875,1.8125c2.08251-1.14896 2.45314-1.76193 2.1875-4.875-.26428-.44221-.54702-.93493-.84375-1.625-.77883-1.81126-2.91663-3.56656-4.71875-5.09375 2.05697,3.00428 4.39598,7.24224 2.4375,8.46875-1.59127.99653-.92923.32663-1.9375.46875-3.80422.53619-10.74984-5.98659-14.375-7.65625-4.47836-2.0626-7.9693-5.05174-10.25-8.1875-.14002-.19252-.27188-.37218-.40625-.53125-1.07383-.45652-2.09478-.98348-2.9375-1.53125l-.28125-.1875z" fill="#fff9ff" fill-opacity=".81176" fill-rule="evenodd" stroke="#000" stroke-width=".1"/>
<path d="m-510.68613-15.87326c1.27872,1.36749 2.43602,2.66525 4.1875,4.28125 2.64342,2.43894 5.65718,5.05025 8.5625,7.5 5.81064,4.89951 11.14881,9.15871 12.125,10.09375 .5963.57117 1.33815.99315 2.125,1.3125s1.62483.5355 2.46875.59375 1.70126-.03787 2.46875-.25c.15735-.04349.2555-.16366.40625-.21875 .15132-.20132.17211-.38006.4375-.59375 .77033-1.73322-2.17379-7.53431-5.0625-12.15625-1.17408-1.87853-2.75624-4.10618-4.28125-6.21875-.11196-.00306-.24548-.00398-.375-.03125 .18464,1.04359.53073,2.22311 1.1875,3.28125 1.73324,2.79243 5.77363,9.82089 6.0625,10.6875s.55412,3.28125-.3125,3.28125-1.8966.19282-7-3.5625-12.24314-11.19335-13.6875-12.15625-4.34375-2.5-4.34375-2.5c-.14791-1e-005-4.13673-3.24268-4.125-3.375 .01633-.18435-.27182-.04161-.84375.03125z" fill="url(#linearGradient3399)" fill-rule="evenodd" stroke="#000" stroke-width=".1"/>
<path d="m-537.65488-23.21701c2.12535,1.77218 4.09856,3.47304 7.6875,6.21875 5.2027,3.98031 10.28125,7.75001 10.28125,7.75 .08069-.16139 3.73695,2.81492 7.78125,6.15625s8.47644,7.04828 10,8.3125c1.58911,1.31862 3.44353,3.19369 5.125,4.8125s3.1867,2.98873 4.09375,3.3125c1.18281.42219 2.00067.59284 2.53125.5625s.75879-.25635.78125-.625-.15845-.876-.5-1.46875c-.16154-.28035-.43702-.62583-.65625-.9375-4.40642-4.01811-9.16163-8.33013-10.0625-9.25-1.57717-1.61042-.86447-1.12556-3.84375-3.65625-3.32303-2.82269-10.70606-8.57431-17.28125-13.625-3.27832-2.51822-3.89999-2.97121-6.15625-4.6875 .55633.51268 2.34935,2.55386-1.8125.40625-5.22481-2.69614-1.35544-.88338-3.28125-1.75-1.91426-.86142-4.65436-1.52335-4.6875-1.53125z" fill="url(#linearGradient3401)" fill-rule="evenodd" stroke="#000" stroke-width=".1"/>
<path d="m-500.06113,14.75174c-.02478.00385-.03743.02795-.0625.03125-.39634.05219-.82007.03771-1.3125-.09375s-1.0321-.37084-1.59375-.71875c-.17216-.10664-.35491-.30892-.53125-.4375l-.1875.15625c.41281.13373 1.38833.79268 2.46875,1.71875 1.34805,1.15547 3.25494,3.20543 4.125,2.59375 .33926-.23851.45479-.33894.53125-.375-.03115-.07347-.00915-.10316-.0625-.1875-.35246-.55713-1.21416-1.36214-2.8125-2.28125-.24552-.14119-.3394-.26907-.5625-.40625z" fill="url(#linearGradient3403)" fill-rule="evenodd" stroke="#000" stroke-width=".1"/>
<path d="m-500.06113,14.75174c.2231.13718.31698.26506.5625.40625 1.59834.91911 2.46004,1.72412 2.8125,2.28125 .05335.08434.03135.11403.0625.1875 .26194-.12353-.23533.77821 3.625,1.8125 1.22582.32844 2.76192-.02106 2.96875-1.4375 .12951-.88698-.10085-1.24284-.25-1.40625-1.29457-.96058-2.0331-1.5555-3.03125-2.25-.0867.06217-.142.15306-.25.1875-.24631.07855-.54712.09091-.9375,0-.78075-.18182-1.85654-.75258-3.3125-1.90625l-.71875-.5625c.04066.14566.13816.29917.15625.4375 .05312.40624-.00144.80396-.125,1.125s-.32037.57823-.59375.78125c-.25609.19018-.60181.28679-.96875.34375z" fill="url(#linearGradient3405)" fill-rule="evenodd" stroke="#000" stroke-width=".1"/>
<path d="m-493.31113,14.34549c.99815.6945 1.73668,1.28942 3.03125,2.25-.00966-.01058.00911-.08527 0-.09375 .13633.06098.41847.16692.9375.25 1.44822.23181 2.43659-.18529 2.5-1.5625 .04334-.94124-.5625-1.34375-.5625-1.34375s.17319.08415.1875.09375c-1.60584-1.46101-1.85812-1.73629-3.3125-3.0625 .21923.31167.49471.65715.65625.9375 .34155.59275.52246,1.1001.5,1.46875s-.25067.59466-.78125.625-1.34844-.14031-2.53125-.5625c-.06136-.0219-.21455-.18752-.28125-.21875 .02049.34747.11593.72206-.03125.96875-.06667.11175-.20147.17038-.3125.25z" fill="url(#linearGradient3407)" fill-rule="evenodd" stroke="#000" stroke-width=".1"/>
<path d="m-538.99863-9.31076c2.7538,2.18064 5.12751,4.18929 5.5625,4.5 .67402.48145 14.26347,14.05996 14.9375,14.15625 .56871.08124 1.23301-.29631 1.78125-.21875-.71403-1.0042-1.55043-2.11172-2.8125-3.34375-1.64001-1.60096-3.39881-3.10184-4.375-3.84375s-5.64248-4.37248-10.5625-8.0625c-1.84394-1.38296-2.7969-1.92958-4.53125-3.1875z" fill="url(#linearGradient3409)" fill-rule="evenodd" stroke="#000" stroke-width=".1"/>
<path d="m-538.99863-9.31076c1.73435,1.25792 2.68731,1.80454 4.53125,3.1875 4.92002,3.69002 9.58631,7.3206 10.5625,8.0625s2.73499,2.24279 4.375,3.84375c1.26207,1.23203 2.09847,2.33955 2.8125,3.34375 .10153.01436.22223-.06018.3125,0 .57775.38515 3.85976,3.58359 4.4375,3.96875s3.18318,1.53125 4.53125,1.53125 .76347-1.15879 1.4375-1.0625l.21875.03125c-1.75447-1.15023-3.76251-2.60901-6.28125-4.71875-2.95557-2.47563-6.31863-5.44164-9.8125-8.46875s-7.11665-6.12754-10.59375-8.875-6.81349-5.14457-9.71875-6.78125c-1.37134-.77255-2.56192-1.58308-3.59375-2.375s-1.88466-1.56559-2.625-2.34375c-.04344-.04566-.05123-.07945-.09375-.125-.06113.13038-.05514.27962-.34375.34375-.86662.19258-6.15701-3.84375-7.3125-3.84375s7.97435,7.79625 12.5,10.78125c1.60499,1.05861 3.14296,2.30168 4.65625,3.5z" fill="url(#linearGradient3411)" fill-rule="evenodd" stroke="#000" stroke-width=".1"/>
<path d="m-548.49863-20.09201c.04252.04555.05031.07934.09375.125 .74034.77816 1.59317,1.55183 2.625,2.34375s2.22241,1.60245 3.59375,2.375c2.90526,1.63668 6.24165,4.03379 9.71875,6.78125s7.09988,5.84789 10.59375,8.875 6.85693,5.99312 9.8125,8.46875c2.51874,2.10974 4.52678,3.56852 6.28125,4.71875 .69043.09798 1.66841.21182 1.40625-.3125-.05736-.11471.52273.37312.625.40625l.1875-.15625c-.39893-.2909-.79988-.55462-1.21875-.96875-.68331-.67558-1.99082-2.1426-3.96875-4.09375s-4.6465-4.36895-8-7c-5.4088-4.24359-11.88129-9.57103-12.6875-10.3125-.79908-.7349-3.00177-2.53845-5.1875-4.25s-4.37404-3.33412-5.21875-3.71875c-.84848-.38634-1.92972-1.26602-3.0625-2.3125-.60626-.56008-1.17661-1.17738-1.78125-1.78125-.03306.01773.02029.08639-.03125.09375-.67402.09628.79242,1.34298-2,.1875s-2.89278-1.52287-2.21875-.65625c.44957.57801.55993.92639.4375,1.1875z" fill="url(#linearGradient3413)" fill-rule="evenodd" stroke="#000" stroke-width=".1"/>
<path d="m-544.68613-20.90451c.60464.60387 1.17499,1.22117 1.78125,1.78125 1.13278,1.04648 2.21402,1.92616 3.0625,2.3125 .84471.38463 3.03302,2.0072 5.21875,3.71875s4.38842,3.5151 5.1875,4.25c.80621.74147 7.2787,6.06891 12.6875,10.3125 3.3535,2.63105 6.02207,5.04885 8,7s3.28544,3.41817 3.96875,4.09375c.60402.59718 1.18835,1.05834 1.75,1.40625s1.10132.58729 1.59375.71875 .91616.14594 1.3125.09375 .75787-.17198 1.03125-.375 .47019-.46021.59375-.78125 .17812-.71876.125-1.125c-.01809-.13833-.11559-.29184-.15625-.4375-1.90087-1.46069-7.34292-5.51233-7.84375-6.15625-.27334-.35143-2.52953-2.36855-5-4.5s-5.14886-4.35184-6.28125-5.09375-4.23957-2.92672-7.65625-5.40625-7.14934-5.25856-9.53125-7.25c-2.2959-1.91953-3.72057-3.43346-4.65625-4.53125-.06699.00689-.00734.0625-.09375.0625-1.73322-1e-005-1.25076-1.34629-2.40625-1.25s-1.92226.09375-2.5.09375c-.53357,1e-005 .21179.84839-.1875,1.0625z" fill="url(#linearGradient3415)" fill-rule="evenodd" stroke="#000" stroke-width=".1"/>
<path d="m-539.49863-20.87326c.93568,1.09779 2.36035,2.61172 4.65625,4.53125 2.38191,1.99144 6.11457,4.77047 9.53125,7.25s6.52387,4.66434 7.65625,5.40625 3.81078,2.9623 6.28125,5.09375 4.72666,4.14857 5,4.5c.54667.70286 7.33832,5.74874 8.5625,6.71875 1.45596,1.15367 2.53175,1.72443 3.3125,1.90625 .39038.09091.69119.07855.9375,0s.44377-.23849.5625-.4375c.14718-.24669.05174-.62128.03125-.96875-.91935-.43043-2.24478-1.58445-3.8125-3.09375-1.68147-1.61881-3.53589-3.49388-5.125-4.8125-1.52356-1.26422-5.9557-4.97117-10-8.3125s-7.70056-6.31764-7.78125-6.15625c0,1e-005-5.07855-3.76969-10.28125-7.75-3.58894-2.74571-5.56215-4.44657-7.6875-6.21875h-.03125c0,0 1.73577,1.75-.09375,1.75-.86903-1e-005-1.43611-.20095-1.8125-.40625 .50044.42003.89443.91764.09375,1z" fill="url(#linearGradient3417)" fill-rule="evenodd" stroke="#000" stroke-width=".1"/>
<path d="m-527.87363-20.34201c2.25626,1.71629 2.87793,2.16928 6.15625,4.6875 6.57519,5.05069 13.95822,10.80231 17.28125,13.625 2.97928,2.53069 2.26658,2.04583 3.84375,3.65625 1.19821,1.22348 6.90384,6.42498 13.375,12.3125 .31109.20868 3.70951,2.48476 4.90625,1.65625 1.01202-.70062.09242-2.45791-.0625-3-1.1364-1.07746-1.29954-1.39596-4.5-3.9375-2.65525-2.10858-5.41069-4.89205-8.5-7.78125-1.54466-1.4446-3.18693-2.90862-4.9375-4.34375s-3.60359-2.83576-5.625-4.125c-2.51761-1.60571-4.83667-3.30204-6.90625-4.96875s-3.88296-3.32485-5.40625-4.84375c-1.02998-1.02702-1.72617-1.87057-2.46875-2.75-2.44601-1.48508-2.11695-2.69758-2.40625-.46875-.15229,1.1732-5.00444-1.93426-5.3125-1.90625-1e-005,0-3.57979-1.38514.5,2.09375 .01711.01459.04145.07435.0625.09375z" fill="url(#linearGradient3419)" fill-rule="evenodd" stroke="#000" stroke-width=".1"/>
<path d="m-520.71738-20.15451c.74258.87943 1.43877,1.72298 2.46875,2.75 1.52329,1.5189 3.33667,3.17704 5.40625,4.84375s4.38864,3.36304 6.90625,4.96875c2.02141,1.28924 3.87443,2.68987 5.625,4.125s3.39284,2.89915 4.9375,4.34375c3.08931,2.8892 5.84475,5.67267 8.5,7.78125 3.20046,2.54154 3.3636,2.86004 4.5,3.9375-.0367-.12843-.24095-.56184-.125-.46875 1.15513.92738 2.43382.88745 3.25.125 .03156-.03682.06501-.05738.09375-.09375 1.434-1.81443-.39579-3.11121.8125-4.71875-.15075.05509-.2489.17526-.40625.21875-.76749.21213-1.62483.30825-2.46875.25s-1.6819-.2744-2.46875-.59375-1.5287-.74133-2.125-1.3125c-.97619-.93504-6.31436-5.19424-12.125-10.09375-2.90532-2.44975-5.91908-5.06106-8.5625-7.5-1.75148-1.616-2.90878-2.91376-4.1875-4.28125-.32128.04093-.61292.09956-1.28125-.03125-.66205-.12958-1.92141-.39514-3.1875-1.34375-1.31001-.98154-3.0625-1.625-3.0625-1.625s.55857.23289-1.34375-.59375c-.52618-.22865-.78215-.46037-1.15625-.6875z" fill="url(#linearGradient3421)" fill-rule="evenodd" stroke="#000" stroke-width=".1"/>
</g>
</svg>
