<?xml version="1.0" encoding="UTF-8" standalone="no"?>
<svg viewBox="0 0 355.13013 173.45552" xmlns="http://www.w3.org/2000/svg">
<path d="m36.26308,170.37588c18.10419-2.19764 33.49396-15.67747 40.38554-32.12706 1.64863-4.43849 2.32111-9.81029 7.57599-11.0032 11.30522-3.76715 23.39896-5.949 34.9877-9.21966 49.75992-12.23713 100.12924-22.32124 150.66458-31.41535 17.61805,11.10113 38.62175,23.2872 59.25872,17.92965 10.3009-2.97857 22.05332-10.97882 20.99123-23.32549-2.32559-12.35523-15.95028-18.98577-20.38682-30.4124 .38971-9.46581 9.30578-17.2098 5.27017-27.25677-5.58893-13.55224-22.60789-21.4454-36.11286-17.49167-15.43952,3.80855-21.42527,20.32384-26.88143,33.51517-2.12502,6.52926-7.13631,11.57898-13.95654,12.82777-62.85638,14.44002-126.50413,26.10377-190.60788,35.42152-15.3212-7.74422-32.25798-18.86877-49.43699-13.53096-9.93697,4.39268-18.01109,16.222-13.3415,27.96746 2.21329,6.64735 6.43054,12.45822 10.89903,17.83383-3.83675,14.23207-6.23524,32.77711 6.20441,44.32475 4.01884,3.60823 9.23507,5.98959 14.48665,5.96241z" fill="#e6e5c9"/>
<path d="m345.74179,75.18668c-8.44895,2.24957-16.8261,4.8769-25.81401,4.29119-10.01421.8815-19.89286-2.97562-29.76162-4.91975-9.54457-2.0404-19.29758-6.55725-28.85849-3.46587-58.44005,13.40024-116.95699,26.57359-175.34898,40.11562-6.89012,2.83756-14.47426,4.79735-20.93025,8.184-6.51245,8.42002-10.6799,18.71993-18.30549,26.11877-8.59751,5.2807-18.68455,7.37949-28.83842,7.79783 3.57152,3.46737 6.55663,8.05061 10.47441,10.85908 5.86352.77087 12.07213,4.12965 17.34727.48801 6.92495-1.93721 12.58103-6.01329 17.94608-10.57994 4.90948-3.47778 6.99065-9.70235 10.08849-14.72896 2.18442-4.22231 3.24685-9.75207 6.10775-13.18614 39.6167-9.78656 78.99065-20.44643 119.07101-28.56512 23.85484-5.14227 47.94616-9.33821 71.90339-14.07079 10.12739,7.50327 21.81837,12.29028 33.06328,17.51094 7.56234,1.50145 15.12261,2.78522 22.65736,1.38622 4.72152.30568 8.70803-1.33346 12.21095-4.25218 3.82038-2.72855 6.98624-6.80236 9.55815-10.59375 .59387-4.32891 2.52007-9.01249-2.16541-11.93596l-.40547-.4532z" fill="#abab96"/>
<path d="m315.54698,2.83978c9.46265,2.76254 20.93634,12.83115 22.31877,19.58558 1.37743,6.72991.22111,14.0245-3.08457,19.45998-2.23217,3.67024-2.93039,5.82865-2.45835,7.59948 .36261,1.3603 4.01775,6.0641 8.12251,10.45286 8.05437,8.61166 11.3728,14.0211 12.5017,20.37929 1.0752,6.05578-2.66779,13.81798-9.05989,18.78845-7.60314,5.91217-14.60157,8.04996-25.32637,7.73637-12.68612-.37088-24.97639-4.69615-40.70329-14.32439l-7.67096-4.69628-21.20363,3.92541c-19.58379,3.62552-28.52409,5.36445-57.69775,11.22245-30.71718,6.16795-105.8533,24.3691-108.32844,26.24174-.64884.49091-1.81163,3.22778-2.58402,6.08198-4.38548,16.20609-25.51664,34.728-41.1519,36.07053-9.88738.84898-18.44002-4.17698-24.44827-14.36703-2.35907-4.001-2.83255-6.07015-3.3424-14.60652-.43631-7.3051-.17213-11.63005.9953-16.29181l1.5893-6.34658-3.18621-4.05967c-13.78614-17.56542-11.22434-35.64889 6.26949-44.25551 3.21874-1.58354 5.85185-1.98148 11.63012-1.75757 9.70536.3761 14.04355,1.74725 28.11534,8.88637l11.6358,5.90328 22.74628-3.42295c12.51047-1.88263 28.32497-4.37307 35.14336-5.53433 11.35945-1.93466 19.05579-3.33542 58.50051-10.64733 7.36164-1.36464 27.92006-5.64038 45.68536-9.50165 31.97981-6.95078 32.33392-7.05627 35.65994-10.62351 1.96076-2.10295 4.68021-7.1139 6.53193-12.03589 5.5582-14.77403 12.91751-24.28949 22.03201-28.48698 4.85302-2.23497 15.42622-2.93539 20.76834-1.37578zm-19.68349,7.89258c-7.82378,4.42511-14.3395,14.29806-19.45248,29.47542-1.84244,5.46909-6.16663,10.88743-10.3333,12.94793-3.44277,1.70252-40.09649,10.03082-57.79395,13.13168-7.09042,1.24236-13.16412,2.42106-13.4971,2.61933-1.06642.63503-31.45364,6.38071-51.93358,9.81972-10.90994,1.83201-21.84373,3.71558-24.2973,4.18574-9.2251,1.76767-47.9561,7.49496-50.19354,7.42228-1.28225-.0417-6.76088-2.44479-12.17472-5.34032-11.97687-6.4057-19.78036-9.00362-27.82981-9.26507-6.90391-.22424-10.41855,1.16971-15.01255,5.95418-9.15039,9.52975-7.22007,20.08664 6.50902,35.59772 4.84382,5.47252 5.41444,6.57945 5.52814,10.72394 .15093,5.50094-1.71005,6.24682-1.95496.78356-.17969-4.00826-1.74439-6.48038-3.45392-5.45695-3.17581,1.90123-3.86912,21.73297-.99448,28.44642 5.17385,12.08304 16.78655,16.11824 29.2675,10.16991 8.9424-4.26189 19.04521-14.04183 23.04027-22.30394 1.80967-3.74258 3.55729-8.60581 3.88359-10.8072s1.11012-4.39807 1.74182-4.88154c1.68953-1.29306 57.99338-15.14683 92.26528-22.70223 30.79806-6.78957 82.853-17.03824 95.39755-18.78204 6.83999-.95083 7.36763-.88333 10.97467,1.40395 7.86685,4.98852 24.13057,12.88923 30.05053,14.59818 23.86536,6.88935 46.30194-5.91158 39.73342-22.66942-.56099-1.43126-4.42842-6.31085-8.59428-10.84356s-7.89198-9.20068-8.28028-10.3733c-1.17865-3.55938-2.9982-1.72463-3.22067,3.24755-.21806,4.87392-1.46878,6.10493-2.6324,2.59091-1.11279-3.36048 1.19307-13.23642 4.07077-17.43504 4.52245-6.59835 5.83095-10.04566 5.72344-15.07869-.16004-7.49316-3.94625-12.0558-14.44054-17.40199-7.01872-3.57561-15.53207-3.48974-22.09612.22287z"/>
</svg>
