<?xml version="1.0" encoding="UTF-8" standalone="no"?>
<svg width="293.33" xmlns="http://www.w3.org/2000/svg" height="393.31">
 <g id="svg_1" stroke-width="3" stroke="#000">
  <path id="path3288" fill="#e3dbdb" d="m121.71 233.32l72.767-15.761s12.424 19.954 26.82 8.585c14.396-11.37-5.741-22.662-5.741-22.662s20.218-11.035 0.34499-20.937c-19.873-9.903-26.505 15.826-26.505 15.826l-70.516 12.454s-18.342-24.588-31.815-8.356 5.01 26.399 5.01 26.399-14.826 12.891 4.088 21.536c18.915 8.645 24.553-14.737 25.547-17.084z"/>
  <path id="path3300" opacity=".5" d="m108.28 200.72c1.978 1.885 3.837 3.816 5.647 5.449 0.236-0.041992 0.47-0.092987 0.706-0.13397-1.74-1.741-3.899-3.67-6.353-5.315zm108.93-17.495c0.33301 0.46103 0.63501 0.957 0.91101 1.449 2.015 6.02-6.394 10.954-9.507 14.303 1.127 2.21 3.893 3.676 6.117 5.583 1.914-1.105 19.069-12.178 2.479-21.335zm-134.02 35.935c0.909 2.23 2.307 4.124 3.739 5.621 1.901-2.259-1.573-3.803-3.739-5.621zm134.14-14.55c0.44099 0.513 0.821 1.087 1.117 1.696 6.034 7.708-3.976 17.179-11.876 16.695-7.756-0.16898-10.841-7.664-15.723-12.379-24.259 5.252-50.254 10.832-74.513 16.084-2.477 4.051-3.344 9.33-6.65 13.063-4.95 7.839-15.93 7.029-22.552 1.672-0.132-0.070984-0.24-0.17297-0.365-0.24899 0.676 3.128 3.248 6.4 9.415 9.219 18.914 8.645 24.548-14.747 25.542-17.094l74.513-16.084s10.689 20.286 25.085 8.916c11.696-9.237 0.58-18.419-3.993-21.539z"/>
 </g>
</svg>
