<?xml version="1.0" encoding="UTF-8" standalone="no"?>
<svg enable-background="new 0 0 192.703 416.315" viewBox="0 0 192.703 416.315" xmlns="http://www.w3.org/2000/svg">
<path d="m12.632,352.324c6.059-36.506.398-78.328-4.815-114.711-1.959-13.676-.021-26.275-2.572-40.076-3.226-17.455-3.969-35.582-1.477-53.071 2.369-16.62 7.825-31.312 14.008-46.736 3.371-8.408 6.978-16.666 10.34-25.06 1.857-4.635 11.107-9.583 11.107-13.704 0-20.405 14.513-48.083 31.024-58.967 22.13,44.455 62.824,18.889 96.029,4.423-6.977,11.392-21.281,26.299-23.639,39.802 2.387-1.881 3.646-1.711 5.91-2.948-2.32,2.337-3.682,5.05-5.91,7.37 1.836-1.189 4.068-1.766 5.91-2.947-15.154,15.576-.29,34.14-7.387,51.594-4.047,9.953-10.342,14.55-10.342,25.798 0,8.64-8.83,13.195-16.25,14.005 6.418,4.035 9.605,12.173 12.433,19.224 5.525,13.782 14.944,23.614 21.546,36.794 10.514,20.993 19.379,46.036 22.16,69.286 1.416,11.83 1.477,23.494 1.477,35.379 0,8.42 14.287,20.205 17.729,28.01 7.944,18.008-2.369,38.867-14.773,51.596-17.539,18.002-44.193,23.92-68.328,29.943-22.277,5.559-46.22,11.867-69.065,6.174-17.281-4.309-37.598-27.496-8.207-17.717 20.356,6.773 45.329,3.115 65.492-4.068 21.634-7.707 89.388-23.871 71.246-61.506-10.194,19.4-46.141,41.66-65.005,42.752-9.727.563-11.129-2.258-16.988-8.109-7.89-7.879 7.692-17.059 12.557-21.375-5.702.475-29.335-4.422-31.486,3.088-2.649,9.25-6.209,16.475-9.88,24.922-2.933,6.748-16.743,33.406-30.285,19.9-2.576-2.57-8.928-6.152-11.081-8.109-1.175-1.066-2.338-5.168-2.954-5.895-1.63-1.924-6.372.547-8.126-2.949-3.209-6.395-4.797-24.411 9.602-22.112m26.593-23.586c-.399-15.939 5.826-31.592 4.432-47.174 4.163,17.432-5.48,30.953-4.432,47.174" fill="#f2f2d3" fill-rule="evenodd"/>
<path d="m18.543,403.919c-5.293-3.238-8.415-15.256-.001-11.057 7.052,3.518 18.597,6.002 26.593,6.633 23.329,1.84 47.802-7.076 69.435-14.74 20.461-7.248 40.762-11.033 49.518-32.869 3.426-8.541 1.426-14.168 2.189-21.676 1.186-11.635 6.756-21.363 5.908-33.904 1.438,8.818 10.703,15.816 14.773,23.588 5.463,10.426 4.432,16.979 4.432,28.006 0,19.965-21.941,38.633-38.41,45.699-35.009,15.026-101.021,36.707-134.437,10.32" fill="#402b14" fill-rule="evenodd"/>
<path d="m2.291,370.013c-3.647-2.658-2.781-11.178 1.479-14.742 7.216-6.037 8.817-.359 14.774,4.424h-2.955c3.059.412 6.439,1.594 10.342,1.475-2.279,3.574.74,2.217-1.479,4.422 6.13,6.275 37.237,7.988 30.286-5.896-6.319-12.621 13.003-26.506 18.467-29.484 2.529,3.17 4.727,2.76 7.387,4.422 .005-1.441-.15-2.99 0-4.422 1.266,2.109 3.284,3.871 4.432,5.898v-2.949c16.245,10.346 46.005,24.016 66.481,11.793-11.687,13.08-39.516,32.416-56.14,28.01-19.985-5.299-10.222-19.105 1.477-29.484-10.441.867-18.719-.98-29.109,1.094-4.45.887-6.236,16.379-8.563,21.018-4.057,8.088-6.668,18.742-14.034,23.588-7.443,4.896-23.342,4.092-29.547-1.475-1.521-1.365-2.885-8.49-4.432-10.318-3.283-3.878-8.662,1.749-8.866-7.374" fill="#402b14" fill-rule="evenodd"/>
<path d="m102.751,113.512c-7.825-.4-17.241-4.277-23.637-7.372v2.947c-3.871-3.057-10.298-3.425-13.297-5.896-1.686.489-.694,1.444-2.955,1.475 8.134-16.622-20.013-6.817-19.205-20.64 2.173,2.509 5.218,3.741 7.387,5.898l-1.477-1.475c2,.673 5.263.984 7.387,1.475-.22-4.855 1.706-9.249 1.477-14.743 1.65,4.326 3.696,5.986 7.387,8.844l-1.477-1.473c7.45,2.131 12.475-3.448 20.682-2.95-.59-.31-2.217-1.149-2.955-1.473 1.01.024 3.53.416 4.434,0 .492-1.476-.001-1.967-1.479-1.475 8.395-3.073 4.854-10.979 7.387-17.69l1.477,1.475c-.455-7.471-7.069-13.092-14.771-11.793 1.897-.419 1.381-.784 2.953-1.475h-2.953c2.42-3.837 1.598-4.547 2.953-8.844-.492.983-.984,1.966-1.477,2.949 7.314-16.723-2.603-21.684-10.342-35.38-7.81,3.709-20.577,20.373-20.683,29.483-.106,9.048 5.263,7.199 14.773,8.846-3.752,1.777-6.308,3.336-10.342,4.422h2.955c-5.689.928-8.969,2.925-4.432,7.372h-2.955c2.596.654 4.771,2.373 7.387,2.947-1.5.88-2.354,2.512-2.955,2.949-8.495-7.456-11.761-8.6-16.25,5.895 2.05-23.918 11.796-54.163 32.5-67.81 5.308,10.663 15.108,15.198 17.729,28.009l-1.477-1.475c3.178,7.035-.418,10.959 2.215,16.216 3.464,6.916 10.788,10.126 12.557,17.689 .889-1.438.858-1.401 1.479-2.947 .813,3.622 2.242,6.464 2.956,10.317l1.477-4.422c.492.983.984,1.966 1.477,2.949 .389-10.762-2.07-13.104-5.909-23.587 6.995,5.443 11.104,11.966 11.819,20.638 .047-4.641.666-7.085 0-11.794 1.553,3.751 3.92,6.847 5.91,10.321 0-7.246-3.098-17.447 2.953-20.638-1.483.571-2.934.395-4.432,1.473 1.383-4.795 3.831-9.524 7.387-13.266-2.201-.152-1.379.641-2.955,1.473-4.006-3.072-.516-2.867-5.908-4.422 12.309-8.929 34.621-15.956 48.752-22.112-3.393,7.677-7.406,14.062-13.297,20.639 2.617-3.739 6.053-8.295 5.91-13.269-3.617,2.285-6.572,5.234-8.865,8.846v-2.949c-8.728,7.725-18.6,20.412-20.682,30.957-1.254,6.35 2.104,24.83 11.818,22.112-.3,5.949 3.24,10.436 2.955,16.216-.417,8.463-7.155,14.046-9.604,21.376-1.617,4.842-4.264,7.209-7.387,10.319-2.506,2.497-2.991,8.172-5.17,12.53 2.34.617 1.221.492 1.477,2.949 1.494-.956 2.85-2.007 4.434-2.949-6.705,7.956-28.726,10.793-36.935,4.422 5.116,1.791 6.808.925 11.818,0-.926-.022 4.31-2.212 7.388-4.422-4.024-5.67.029-10.955-7.388-14.743 1.853.025 4.097-.36 5.909,0-3.039-.341-5.673-1.183-8.864-1.473l2.956-1.471" fill="#5e3f1d" fill-rule="evenodd"/>
<path d="m93.886,101.718c-14,5.972-15.579-18.768-2.953-13.268-.496,2.101-.685,5.449-1.479,7.37 7.448-16.294 15.544,7.921 4.432,5.898" fill="#402b14" fill-rule="evenodd" stroke="#000" stroke-miterlimit="9.42857" stroke-width=".345"/>
<path d="m124.912,106.14c.633-5.191 1.719-10.465 5.908-13.268-.369,1.998-1.129,3.804-1.477,5.896 .217-.676 9.558-15.316 8.863-5.896-.665,9.03-6.71,8.915-13.294,13.268" fill="#402b14" fill-rule="evenodd" stroke="#000" stroke-miterlimit="9.42857" stroke-width=".345"/>
<path d="m59.909,39.803c-2.639-1.001-4.353-1.976-7.387-1.475 1.669.971 2.923,1.828 4.432,2.949-17.847,8.169 3.53-31.236 13.295-35.38 5.997,10.614 23.498,25.403 2.955,32.431 .203.533 1.475-2.851 1.477-2.949-1.456,1.493-3.02,2.891-4.432,4.424 .493-1.475.986-2.949 1.479-4.424-1.467,1.167-2.548,2.311-4.434,2.949 .934-1.669 2.095-2.032 1.479-4.422-4.364,1.916-5.541,2.343-10.342,2.949 .492.983.985,1.965 1.478,2.948m70.911,5.897c-.461-8.389 12.979-22.498 19.205-28.009v2.949c2.293-3.612 5.248-6.561 8.865-8.846 .256,8.98-19.434,44.122-28.07,33.906" fill="#e0d0d0" fill-rule="evenodd"/>
<path d="m83.546,88.45c6.697-3.035 8.618.645 5.908,7.37 4.643-10.871 13.798-2.913 7.387,2.949-6.909,6.317-16.474-3.386-13.295-10.319m42.843,13.268c1.063-3.607.93-6.317 4.432-8.846-.337,1.824-1.043,4.046-1.477,5.896 6.722-20.868 13.545,6.025-2.955,2.95" fill="#7dcfff" fill-rule="evenodd"/>
<path d="m14.109,346.425c0-39.086-6.917-77.719-7.387-116.457-.361-29.781-11.33-66.64 0-95.819-.701,7.808-.462,19.444 8.866,20.638-15.974,21.559-2.956,37.54-2.956,60.439 0,11.422-1.172,15.934 4.433,24.322 5.225,7.822 12.63,9.063 16.249,15.482-6.329,4.744.247,12.582 1.479,19.16 2.102,11.223-4.39,23.672.738,33.908 6.64,13.252 4.026,50.619-11.08,56.018 .492-1.523 1.186-1.025 1.479-2.947-3.903.119-7.283-1.063-10.342-1.475h2.955c-5.419-1.625-3.542-1.438-5.911-5.898 12.593,3.074 18.472-21.209 17.729-30.955l-1.479,1.475c-.062-3.385 2.715-12.652.001-14.006-4.198-2.096-6.066-5.07-5.909-9.582-5.199,5.127 1.232,18.652 0,26.535-.767,4.912-4.457,16.037-8.865,19.162m42.845-4.422c-3.088-7.838 6.707-12.666 8.863-20.637 1.447-5.348-3.66-10.811 0-16.217 1.606-2.371 9.049-.809 13.297-5.896 5.476-6.559.823-15.324 11.818-17.689-9.896-7.613 5.886-15.787 0-25.061-6.092,8.109-13.14,21.988-23.639,23.586 .285-6.4 1.264-17.334 8.866-13.268-.295-9.588 11.818-10.145 11.818-22.111 0-5.656 6.327-10.088 8.863-14.742 3.006-5.516 2.751-7.457 4.432-13.268 4.564-15.774 7.854-30.711 7.388-47.172-.269-9.423 5.068-23.752 1.479-32.432 9.029-1.074 11.475,8.16 14.771,14.741 6.007,11.99 12.501,21.3 19.207,32.431 10.795,17.917 17.945,41.289 23.637,61.178 9.728,33.99 13.71,98.85-32.502,102.453 11.701-10.01 8.998-26.488 13.297-39.801 3.43-10.619 16.27-17.648 11.08-28.01-5.294-10.57 10.114-19.174 6.648-26.535-4.593-9.76-21.957-1.063-28.07-4.422 3.722-5.213 13.297-6.641 13.297-15.479 0-13.092.054-25.306-7.387-36.117-5.569-8.093-13.031-11.941-15.156-22.55-3.045-15.194-6.61-25.568-15.867-37.89 0,7.371-.006,14.742 0,22.112 .004,6.454 2.282,15.946.738,22.112-4.142,16.534-1.745,31.137-3.693,47.172-6.549-2.842-10.656,13.891-14.036,20.639-2.747,5.484 9.397,13.471 2.216,20.639-8.527,8.51-16.15,25.633-20.683,36.854-5.603,13.871-12.434,22.517-20.682,35.38m10.339-41.275c2.56-4.965 3.644-10.645 2.955-16.215 15.198,1.639-1.736,16.58-2.955,16.215m-26.592-41.275c-5.515-12.689-17.672-20.838-22.158-33.908 4.77,9.6 13.253,5.066 19.205,10.32 7.032,6.209 2.97,12.959 2.953,23.588m53.185-157.735c-8.408,3.586-14.938-5.245-10.34-13.268-5.278,10.777 11.472,15.825 16.25,5.897 1.392,5.579-.179,8.414-5.91,7.371m31.026,4.422c3.428-6.159 12.442-4.742 13.295-14.743 .81,9.886-6.701,10.383-13.295,14.743m-85.687,7.372c7.06-22.465-25.177-32.625 0-53.071-2.893,8.539-3.72,16.864-.738,25.797 3.106,9.307 12.4,17.4 14.036,25.797-5.058-3.144-11.853-6.827-13.298,1.477m56.139-81.081c-2.571-2.138-4.35-4.655-4.432-8.846 7.613,2.731 15.761.774 23.638,2.95-5.42,1.543-6.238,6.479-8.863,11.793-1.908-4.483-4.734-7.735-8.866-10.319-.541,1.621-.998,2.774-1.477,4.422" fill="#bfad84" fill-rule="evenodd"/>
<path d="m129.344,129.727c7.756-.608 15.434.221 22.16,4.422" fill="none" stroke="#000" stroke-linecap="square" stroke-miterlimit="9.42857" stroke-width=".345"/>
<path d="m129.344,128.25c8.275-2.195 19.109-3.231 26.592,1.477" fill="none" stroke="#000" stroke-linecap="square" stroke-miterlimit="9.42857" stroke-width=".345"/>
<path d="m173.664,128.25c-10.928-9.895-29.786-2.113-42.844-2.947" fill="none" stroke="#000" stroke-linecap="square" stroke-miterlimit="9.42857" stroke-width=".345"/>
<path d="m130.82,123.829c6.098-.61 11.705-2.459 17.729-2.948" fill="none" stroke="#000" stroke-linecap="square" stroke-miterlimit="9.42857" stroke-width=".345"/>
<path d="m130.82,120.881c9.086-3.551 20.25-6.594 29.547-2.947" fill="none" stroke="#000" stroke-linecap="square" stroke-miterlimit="9.42857" stroke-width=".345"/>
<path d="m87.978,128.25c-12.976,2.879-30.034,4.915-38.411,16.216" fill="none" stroke="#000" stroke-linecap="square" stroke-miterlimit="9.42857" stroke-width=".345"/>
<path d="m89.454,126.778c-15.08,0-29.304-.424-42.842,7.372" fill="none" stroke="#000" stroke-linecap="square" stroke-miterlimit="9.42857" stroke-width=".345"/>
<path d="m28.883,135.622c14.91-17.813 36.752-10.49 56.14-11.793" fill="none" stroke="#000" stroke-linecap="square" stroke-miterlimit="9.42857" stroke-width=".345"/>
<path d="m89.454,123.829c-7.78-1.939-15.566-4.729-23.637-4.422" fill="none" stroke="#000" stroke-linecap="square" stroke-miterlimit="9.42857" stroke-width=".345"/>
<path d="m83.546,120.881c-10.7-6.952-22.891-11.658-35.458-7.369" fill="none" stroke="#000" stroke-linecap="square" stroke-miterlimit="9.42857" stroke-width=".345"/>
<path d="m14.109,131.2c-.021-1.593.502-3.11 1.479-4.422" fill="none" stroke="#000" stroke-linecap="square" stroke-miterlimit="9.42857" stroke-width=".345"/>
<path d="m11.156,126.778c1.675-1.092 2.749-2.623 2.954-4.422" fill="none" stroke="#000" stroke-linecap="square" stroke-miterlimit="9.42857" stroke-width=".345"/>
<path d="m11.156,123.829c1.079-3.604 2.559-7.048 4.432-10.317" fill="none" stroke="#000" stroke-linecap="square" stroke-miterlimit="9.42857" stroke-width=".345"/>
<path d="m12.632,114.984c.16-4.586 2.292-8.788 5.911-11.793" fill="none" stroke="#000" stroke-linecap="square" stroke-miterlimit="9.42857" stroke-width=".345"/>
<path d="m71.727,113.512c10.924,11.211 20.579,35.654 41.367,22.11" fill="none" stroke="#000" stroke-linecap="square" stroke-miterlimit="9.42857" stroke-width=".345"/>
<path d="m108.66,123.829c-3.728,6.675 7.463,12.461 13.297,7.372 6.559-5.722 1.674-19.946 3.693-28.01 7.114-28.423 19.072,1.945.738-1.473" fill="none" stroke="#000" stroke-linecap="square" stroke-miterlimit="9.42857" stroke-width=".345"/>
<path d="m132.299,91.397c-.572,3.636.668,5.864-2.955,7.371-.332-2.597 1.055-3.608 1.477-5.896" fill="none" stroke="#000" stroke-linecap="square" stroke-miterlimit="9.42857" stroke-width=".345"/>
<path d="m99.796,94.347c-4.093,7.455-14.097,7.911-16.989-.738-3.76-11.245 13.167-3.638 16.989.738" fill="none" stroke="#000" stroke-linecap="square" stroke-miterlimit="9.42857" stroke-width=".345"/>
<path d="m93.886,88.45c-1.294,3.359-2.283,5.94-4.432,7.37 .158-2.717.873-4.801 1.479-7.37" fill="none" stroke="#000" stroke-linecap="square" stroke-miterlimit="9.42857" stroke-width=".345"/>
</svg>
