<?xml version="1.0" encoding="UTF-8"?>
<svg viewBox="0 0 600.044 455" xmlns="http://www.w3.org/2000/svg">
<title>Layer 1</title>
<path d="m32.044,107c3.438-.438 5.605.395 8,1-2.439,8.92 7.215,11.751 9,17-6.183,3.11999-13.167,1.82-19,5-3.169-7.788-2.265-13.021 2-23zm2,19c3.526-3.316 5.898-1.572 10-4-5.45-2.406-3.917-6.265-9-8 1.624,5.858-5.033,8.55-1,12z" fill-rule="evenodd"/>
<path d="m35.044,114c5.083,1.735 3.55,5.594 9,8-4.102,2.428-6.474.684-10,4-4.033-3.45 2.624-6.142 1-12z" fill="#f69d9a" fill-rule="evenodd"/>
<path d="m123.044,245c-28.11,4.226-49.732,3.13001-66-14-19.556-20.592-28.011-45.69-27-92 .614-1.386 3.85-.14999 4-2 9.966,1.646 20.162,5.248 27,5 29.32,26.317 31.938,69.522 56,99 2.319-.319 3.839.161 5,1-.086,1.41901-.165,2.832 1,3zm-51-85c-5.646-8.149-19.454-19.175-34-14-6.518,42.103 6.198,72.135 36,95 18.267,2.048 23.658,2.14799 35-1-24.632-16.16-21.822-58.091-37-80z" fill-rule="evenodd"/>
<path d="m262.04401,349c-33.03801-14.742-26.49001-50.58701-58-65 3.64099-10.08301 1.368-17.13699-2-25 5.39299-8.33701 13.526-18.95599 25-17 33.797,5.763 51.103,75.724 35,107zm-32-103c-3.43601,2.53-5.011.69099-7,1-14.56401,2.259-8.974,22.883-15,34 23.66199,11.94901 25.74599,43.79999 50,55 8.84399-34.56799-1.56799-73.39002-28-90z" fill-rule="evenodd"/>
<path d="m258.04401,336c-24.25401-11.20001-26.33801-43.051-50-55 6.026-11.117.43599-31.741 15-34 1.989-.30901 3.56399,1.53 7-1 26.43201,16.60999 36.84399,55.43201 28,90z" fill="#f69d9a" fill-rule="evenodd"/>
<path d="m54.044,253c29.076,13.16101 57.857.586 86.00001,7 3.56099,3.10599 5.91699,7.41599 10,10-2.81101,6.021.22099,7.384-3,11-2.35501,12.297 16.849,15.17099 18,29 .33299,4-3.61501,5.414-5,10-2.03201,6.729.42099,14.521 1,22 1.36,17.59201-.17601,42.18899-21,46-16.75201,3.065-28.55501-18.27899-37.00001-29-.56-2.259-1.56,1.21301-3-1-20.892-31.92499-41.149-65.86301-46-105zm46,100h3c7.171,11.82199 16.177,24.25101 31.00001,32 4.76599.10001 5.474-3.85901 10-4-.78801-4.92999 3.627-7.29599 5-9 7.45999-9.26199 5.366-20.315 5-36-7.10701-7.22501 4.998-19.74399 7-28-11.78201-8.34201-26.16701-23.82901-18-38-26.33701-10.607-56.036-4.10999-81.00001-7 5.972,30.241 18.004,61.638 38,90z" fill-rule="evenodd"/>
<path d="m62.044,263c24.96401,2.89002 54.663-3.607 81.00001,7-8.16701,14.17099 6.21799,29.65799 18,38-2.002,8.25601-14.10701,20.77499-7,28 .366,15.685 2.45999,26.73801-5,36-1.373,1.70401-5.78801,4.07001-5,9-4.526.14099-5.23401,4.10001-10,4-14.82301-7.74899-23.82901-20.17801-31.00001-32h-3c-19.996-28.362-32.028-59.759-38-90z" fill="#f69d9a" fill-rule="evenodd"/>
<path d="m181.04401,412c-.29701,13.20801-16.386,1.22501-20-1-3.373-2.07599-9.03201-6.017-13-7 .61499-.89099 1.20799-1.78799 0-2 10.23-1.35199 29.88899,2.31299 33,10z" fill-rule="evenodd"/>
<path d="m550.04401,231c-30.47601,36.526-94.67502,53.78101-113,101-9.10901,6.63699-13.379,17.86999-21,27-6.841,8.194-16.36301,15.11301-22,26-6.86002,2.129-9.71802,12.689-16,18-3.66501,3.09799-9.14002,6.16101-11,8-6.73901,6.659-12.01199,8.97101-20,13-11.603,5.85199-18.43301,12.84601-33,16-11.659,2.52399-22.84302,6.70801-39,8-13.13101,1.04999-23.74501,6.06201-47,4-32.43401-2.87701-73.50801-19.51501-98-40-2.716-2.271-1.306-2.10101-4.00001-4-7.327-5.16599-12.643-13.52301-19-20-1.329-1.354-3.583-.44299-5-2-.319-.35101 1.418-1.36899 1-2-3.533-5.32001-13.079-13.121-18-19-1.573-1.88-6.201-5.146-9-9-1.456-2.00501-1.497-5.89801-3-8-5.189-7.25299-12.763-13.34399-17-20-.873-1.371-.176-3.75299-1-5-6.601-9.996-11.23-21.47199-17-34-2.482-5.39002-3.907-11.052-5-14-4.084-11.021-9.516-19.142-12-33-3.362-18.75-4.508-26.71201-6-41-1.295-12.398-.529-23.759-4-36-3.456-12.19-7.398-27.35899-8-39-.171-3.318-.307-7.072 0-10 1.898-18.087 4.981-39.581 22-51 1.187-.49 2.913-4.908 3-5 26.24-27.655 64.987-19.493 99-23 14.387-1.483 29.257-3.871 44.00001-6 28.004-4.044 50.73799-6.794 78-4 26.95801,2.763 56.22998,12.003 86,6 3.422-.69 6.491-1.27 10-2 37.879-7.882 76.91-8.438 112-18 21.51099-5.862 38.23599-7.602 57-9 9.08197-.677 16.41998-.47 23,1 7.08801,1.583 16.25501,3.13 22,6 14.62897,7.307 28.70099,25.462 33,37 2.89197,7.763 4.867,14.352 4,24-.255,2.835 2.05902,5.698 2,8-.479,18.657-4.341,42.315-8,65-1.40698,8.72501-5.98901,25.18601-11,36-3.19702,6.901-7.10498,19.43201-11,27-4.89203,9.504-13.65399,18.618-18,23zm-225,188c13.86798-5.33499 23.401-10.76099 34-18 8.28799-5.66101 13.84699-14.46799 22-20 4.22299-2.86499 5.80701-7.21799 9-10 21.77799-18.97 32.569-39.44601 47-60 5.742-8.17801 11.63699-17.664 18-24 18.04098-17.96201 48.103-36.728 64-48 24.508-17.377 36.23901-31.327 49-56 .59497-1.14999 2.73401-5.892 3-7 .76099-3.16701 5.50702-13.83099 7-19 4.672-16.16701 4.349-32.97 7-52 3.41199-24.492 11.26202-56.229-15-75 .82696-3.507-7.66803-5.413-9-10-7.401-1.411-11.01801-4.391-19-8-10.526-3.015-21.88702,1.322-36,2-8.22702.395-10.67001.769-17,2-22.357,4.349-50.418,12.579-70,14-19.345,1.404-46.22601,3.046-52,6-3.104,1.588 1.24399-.428-3,0-3.01102.304-7.061,3.137-11,4-16.285,3.567-35.129,4.59-53,4-.10202-2.565-3.72702-1.607-5-3-26.48001-.558-55.29401-10.932-89-8-29.093,2.53-56.862,11.846-94.00001,11 14.699,24.961 31.11001,53.032 50.00001,83 15.96199,14.87199 28.14099,27.68899 47,40 3.836,5.72501 16.349,14.159 24,21 5.36699,4.798 8.271,10.28799 16,13 8.36301,11.731 15.43799,18.897 23,31 .332.53101 3.043,7.062 4,9 9.47199,19.17801 14.84,33.72601 18,51 5.41501,29.603 7.83499,63.013 0,96-3.836,15.05701-9.76102,34.68399-17,49 14.88901-4.677 36.203-9.72299 48-18zm-163-290c-1.31401-1.02-3.68601-.98-5-2-17.72501-27.422-36.02-57.016-56.00001-81-19.702-.44-34.909-.513-53,10-.168-1.165-1.581-1.086-3-1-22.455,16.388-36.511,43.624-32,78 2.383,18.162 11.104,45.743 13,67 2.048,22.96401 5.136,60.07199 16,74 .428.548 2.017,6.23099 4,11 7.634,18.358 14.967,31.323 25,45 6.357,11.85901 16.852,24.42499 27,35 12.606,13.13699 27.341,32.06101 40.00001,42 6.58099,5.168 22.31299,11.97699 24,16 13.70799,5.57001 31.43199,14.172 47,17 15.36299,5.11801 39.17,7.53201 52-1 8.685-5.77499 10.483-14.98099 15-24 1.81198-3.61899 6.21698-6.97501 8-11 2.04099-4.607 2.147-11.37201 4-17 3.01999-9.17099 6.733-20.466 8-29 .60999-4.108 1.00699-9.05801 1-13-.048-26.90201-5.56799-49.51901-11-73-6.086-26.31101-22.31201-49.30701-39-68-16.093-11.50501-31.621-26.58501-43-35-10.246-10.597-31.748-22.015-42-40z" fill-rule="evenodd"/>
<path d="m277.04401,437c7.23898-14.31601 13.164-33.94299 17-49 7.83499-32.987 5.41501-66.397 0-96-3.16-17.27399-8.52801-31.82199-18-51-.957-1.938-3.668-8.46899-4-9-7.56201-12.103-14.63699-19.269-23-31-7.729-2.71201-10.63301-8.202-16-13-7.651-6.841-20.164-15.27499-24-21-18.85901-12.31101-31.03801-25.12801-47-40-18.89-29.968-35.30101-58.039-50.00001-83 37.13801.846 64.907-8.47 94.00001-11 33.70599-2.932 62.51999,7.442 89,8 1.27298,1.393 4.89798.435 5,3 17.871.59 36.715-.433 53-4 3.93899-.863 7.98898-3.696 11-4 4.24399-.428-.104,1.588 3,0 5.77399-2.954 32.655-4.596 52-6 19.582-1.421 47.64301-9.651 70-14 6.32999-1.231 8.77298-1.605 17-2 14.11298-.678 25.474-5.015 36-2 7.982,3.609 11.599,6.589 19,8 1.33197,4.587 9.82696,6.493 9,10 26.26202,18.771 18.41199,50.508 15,75-2.651,19.03-2.328,35.83299-7,52-1.49298,5.16901-6.23901,15.83299-7,19-.26599,1.108-2.40503,5.85001-3,7-12.76099,24.673-24.492,38.623-49,56-15.897,11.272-45.95902,30.03799-64,48-6.36301,6.336-12.258,15.82199-18,24-14.431,20.55399-25.22201,41.03-47,60-3.19299,2.78201-4.77701,7.13501-9,10-8.15301,5.53201-13.71201,14.33899-22,20-10.599,7.23901-20.13202,12.66501-34,18-11.797,8.27701-33.11099,13.323-48,18z" fill="#b15c11" fill-rule="evenodd"/>
<path d="m204.04401,169c11.379,8.41499 26.907,23.49499 43,35 16.68799,18.69299 32.914,41.68899 39,68 5.43201,23.48099 10.952,46.09799 11,73 .00699,3.94199-.39002,8.892-1,13-1.267,8.534-4.98001,19.82901-8,29-1.853,5.62799-1.95902,12.39301-4,17-1.78302,4.02499-6.18802,7.38101-8,11-4.517,9.01901-6.315,18.22501-15,24-12.83,8.53201-36.63701,6.11801-52,1-15.56801-2.828-33.29201-11.42999-47-17-1.68701-4.02301-17.41901-10.832-24-16-12.659-9.939-27.39401-28.86301-40.00001-42-10.148-10.57501-20.643-23.14099-27-35-10.033-13.677-17.366-26.642-25-45-1.983-4.76901-3.572-10.452-4-11-10.864-13.92801-13.952-51.036-16-74-1.896-21.257-10.617-48.838-13-67-4.511-34.376 9.545-61.612 32-78 1.419-.086 2.832-.165 3,1 18.091-10.513 33.298-10.44 53-10 19.98,23.984 38.275,53.578 56.00001,81 1.314,1.02 3.68599.98 5,2 10.252,17.985 31.754,29.403 42,40zm-164.00001-69c3.219,1.114 3.541,5.125 9,4 13.968,8.325 20.217,23.587 27,36 3.271,5.985 10.181,15.07401 11,19 1.146,5.494 6.679,14.15199 10,22 6.534,15.44 13.904,26.914 22,38 1.132,1.55 5.087,9.093 5,9 1.5,1.59 7.979,4.979 9.00001,6 .487.487-1.30801,1.728-1,2 9.90599,8.77699 24.43399,13.26601 40,7 4.22299,2.17999 9.31599,2.34801 15,5 .558,2.039 3.00899,1.961 1,4 12.23099,5.73999 22.71199-7.52901 27-23 2.66699-9.623-.07701-29.806-7-36-.384-.34399-3.39201-1.41901-1-4-11.46001-6.01-19.632-14.539-35-20-4.72801-6.93201-14.265-12.832-20-21-9.302-13.24899-9.81401-29.686-23-44-.022-.024.63599.067 0-1-9.26101-15.554-50.787-35.874-65.00001-31 .555.003 1.135-.81 0-1-11.156,5.707-20.55,16.039-24,29zm-10,30c5.833-3.18 12.817-1.88 19-5-1.785-5.249-11.439-8.08-9-17-2.395-.605-4.562-1.438-8-1-4.265,9.979-5.169,15.212-2,23zm92,112c-1.161-.83901-2.681-1.319-5-1-24.062-29.478-26.68-72.683-56-99-6.838.248-17.034-3.354-27-5-.15,1.85001-3.386.614-4,2-1.011,46.31 7.444,71.40801 27,92 16.268,17.13001 37.89,18.226 66,14-1.165-.168-1.086-1.58099-1-3zm105.00001,0c-11.474-1.95599-19.60701,8.66299-25,17 3.368,7.86301 5.64099,14.91699 2,25 31.51,14.41299 24.96199,50.258 58,65 16.103-31.276-1.203-101.237-35-107zm-127.00001,116c1.44,2.21301 2.44-1.259 3,1 8.445,10.72101 20.248,32.065 37.00001,29 20.82399-3.81101 22.36-28.40799 21-46-.57901-7.479-3.03201-15.271-1-22 1.385-4.586 5.33299-6 5-10-1.151-13.82901-20.35501-16.703-18-29 3.22099-3.616.189-4.979 3-11-4.08301-2.58402-6.43901-6.89401-10-10-28.143-6.414-56.924,6.16101-86.00001-7 4.851,39.13699 25.108,73.07501 46,105zm94.00001-85c-.05701.60999-.149,1.18399-1,1-5.55101-14.607-16.71101-17.84-33-13 1.373,2.27899-2.578,3.759 0,4 .89699-2.40701 1.554,3.664 3,4 2.465.13199 4.81799.151 6-1 1.09399,4.70499 3.23099.88001 6,2 14.698,5.948 18.88599,25.00101 7,33-2.54901.83401-11.00801.926-7,5 21.14899.06699 26.05199-23.426 19-35zm-12,102c3.39099,14.63901 7.237,34.00201 13,42 5.597,7.768 19.60199,15.37201 31,17 42.16998,6.02399 35.961-34.96701 40-55-.633-2.875-6.052-10.39499-3-10-21.54501-10.75201-34.87601-23.16699-37-43-7.798-6.03699-6.04701-20.95499-17-25-9.084,9.27899-11.341,21.44501-31,20-4.58801,15.79401-.127,36.185 4,54zm-34,27c1.20799.21201.61499,1.10901 0,2 3.96799.983 9.627,4.92401 13,7 3.614,2.22501 19.70299,14.20801 20,1-3.11101-7.68701-22.77-11.35199-33-10z" fill="#efdacc" fill-rule="evenodd"/>
<path d="m64.044,71c1.135.19.555,1.003 0,1 14.21301-4.874 55.739,15.446 65.00001,31 .63599,1.067-.022.976 0,1 13.18599,14.314 13.698,30.75101 23,44 5.735,8.168 15.27199,14.06799 20,21 15.368,5.461 23.53999,13.99001 35,20-2.39201,2.58099.616,3.65601 1,4 6.92299,6.194 9.66699,26.377 7,36-4.28801,15.47099-14.76901,28.73999-27,23 2.00899-2.039-.442-1.961-1-4-5.68401-2.65199-10.77701-2.82001-15-5-15.56601,6.26601-30.09401,1.77699-40-7-.30801-.272 1.487-1.513 1-2-1.02101-1.021-7.50001-4.41-9.00001-6 .087.093-3.868-7.45-5-9-8.096-11.086-15.466-22.56-22-38-3.321-7.84801-8.854-16.506-10-22-.819-3.92599-7.729-13.015-11-19-6.783-12.413-13.032-27.675-27-36-5.459,1.125-5.781-2.886-9-4 3.45-12.961 12.844-23.293 24-29zm136.00001,164c.183-.397 1.90399,1.16 2,1 2.099-3.502 3.644-9.44501 4-12 2.60199-18.659-5.04501-21.74699-12-33-3.46901-5.61301-16.53601-14.711-26-17-2.06101-3.85001-7.22-10.66901-16-14-11.595-16.455-20.78401-35.189-28.00001-56-.389-1.123-8.248-9.993-11-12-6.142-4.48-16.362-9.879-23-12-.952-.304-4.665.576-6,0-.387-.167 1.141-1.889 1-2-11.916-9.406-36.972.331-35,22 6.019,5.314 11.273,11.394 19,15 .375,5.345 8.418,10.121 12,15 4.086,5.567 7.862,13.063 11,21 .653,1.651-.632,4.20399 0,6 1.991,5.659 6.734,11.242 9,17 .465,1.181-1.357,1.847-1,3 3.584,11.554 11.807,21.21401 19,32 6.661,9.98801 11.852,18.274 18.00001,25 20.868,16.897 39.702-10.22501 59,11 3.877-2.237 2.42099-6.562 4-10z" fill-rule="evenodd"/>
<path d="m196.04401,245c-19.298-21.22501-38.132,5.897-59-11-6.14801-6.726-11.33901-15.01199-18.00001-25-7.193-10.786-15.416-20.446-19-32-.357-1.153 1.465-1.819 1-3-2.266-5.758-7.00899-11.341-9-17-.632-1.79601.653-4.349 0-6-3.138-7.937-6.914-15.433-11-21-3.582-4.879-11.625-9.655-12-15-7.727-3.606-12.981-9.686-19-15-1.972-21.669 23.084-31.406 35-22 .141.111-1.387,1.833-1,2 1.335.576 5.048-.304 6,0 6.638,2.121 16.858,7.52 23,12 2.752,2.007 10.611,10.877 11,12 7.216,20.811 16.40501,39.545 28.00001,56 8.78,3.33099 13.939,10.14999 16,14 9.46399,2.289 22.53099,11.38699 26,17 6.95499,11.25301 14.60199,14.341 12,33-.356,2.55499-1.901,8.498-4,12-.09601.16-1.817-1.397-2-1-1.57901,3.438-.123,7.763-4,10z" fill="#f69d9a" fill-rule="evenodd"/>
<path d="m109.044,240c-11.342,3.14799-16.733,3.048-35,1-29.802-22.86501-42.518-52.897-36-95 14.546-5.175 28.354,5.851 34,14 15.178,21.909 12.368,63.84 37,80z" fill="#f69d9a" fill-rule="evenodd"/>
<path d="m175.04401,308c-4.00801-4.074 4.45099-4.16599 7-5 11.88599-7.99899 7.698-27.052-7-33-2.76901-1.12-4.90601,2.70499-6-2-1.18201,1.151-3.535,1.13199-6,1-1.446-.336-2.10301-6.40701-3-4-2.578-.241 1.373-1.72101 0-4 16.28899-4.84 27.44899-1.607 33,13 .851.18399.94299-.39002 1-1 7.05199,11.57401 2.14899,35.06699-19,35z" fill-rule="evenodd"/>
<path d="m178.04401,321c19.659,1.44501 21.916-10.72101 31-20 10.95299,4.04501 9.202,18.96301 17,25 2.12399,19.83301 15.45499,32.24799 37,43-3.052-.39499 2.367,7.125 3,10-4.039,20.03299 2.16998,61.02399-40,55-11.39801-1.62799-25.403-9.23199-31-17-5.763-7.99799-9.60901-27.36099-13-42-4.127-17.815-8.58801-38.20599-4-54zm6,3c-.138,1.862-.658,3.34201-2,4 1.90999,37.98199 7.051,84.298 38,100 4.107,2.08402 14.74399,4.12399 21,3 9.935-1.784 14.55499-13.11099 16-21 2.01199-10.987-3.28301-22.53699-6-34-26.209-13.48901-29.47101-45.81799-40-65-2.40701,14.48999-16.28201,12.57401-27,13z" fill-rule="evenodd"/>
<path d="m211.04401,311c10.52899,19.18201 13.791,51.51099 40,65 2.71699,11.46301 8.01199,23.013 6,34-1.44501,7.88901-6.065,19.216-16,21-6.25601,1.12399-16.893-.91599-21-3-30.94901-15.702-36.09001-62.01801-38-100 1.342-.65799 1.862-2.138 2-4 10.71799-.426 24.59299,1.48999 27-13z" fill="#f69d9a" fill-rule="evenodd"/>
</svg>
