<?xml version="1.0" encoding="UTF-8" standalone="no"?>
<!DOCTYPE svg  PUBLIC '-//W3C//DTD SVG 1.1//EN'  'http://www.w3.org/Graphics/SVG/1.1/DTD/svg11.dtd'>
<svg id="flash0.ai" style="enable-background:new 0 0 55.4 41.2" xmlns="http://www.w3.org/2000/svg" xml:space="preserve" height="41.2px" viewBox="0 0 55.4 41.2" width="55.4px" version="1.1" y="0px" x="0px" xmlns:xlink="http://www.w3.org/1999/xlink">
<symbol id="deluxe" viewBox="-0.009 -26.039 28.59 26.045">
	<g id="Layer_1_2_">
		<g clip-rule="evenodd" fill-rule="evenodd">
				<linearGradient id="SVGID_1_" y2="244.76" gradientUnits="userSpaceOnUse" x2="317.14" gradientTransform="matrix(.7495 .0252 -.0252 .7495 -202.68 -209.47)" y1="244.76" x1="276.27">
				<stop stop-color="#E9B140" offset="0"/>
				<stop stop-color="#C47E00" offset="1"/>
			</linearGradient>
			<path d="m18.75-10.912c5.375-0.125 8.312-1.188 8.812-3.188 0.65-2.625 0.462-4.875-0.563-6.75-1.05-2-2.962-3.4-5.737-4.2-1.975-0.575-4.438-0.9-7.387-0.975-3-0.075-5.287 0.125-6.862 0.6-4.125 1.25-6.212 3.5-6.262 6.75-0.025 1.025 0.15 2.075 0.525 3.149l0.6 1.35c1.525 0.25 3.025 0.7 4.5 1.35 3.174 1.402 7.299 2.039 12.374 1.914z" fill="url(#SVGID_1_)"/>
			<path d="m1.388-15.449c0.925 1.675 5.35 2.5 13.274 2.475 7.649 0 11.887-0.488 12.712-1.462 0.7-0.8 0.663-1.888-0.112-3.263-0.825-1.425-2.075-2.5-3.75-3.225-2-0.875-4.237-1.488-6.712-1.838-3.05-0.425-6.149-0.4-9.299 0.075-2.65 0.375-4.563 1.288-5.737 2.737-1.151 1.426-1.276 2.926-0.376 4.501z" fill="#FFD15B"/>
			<path d="m26.662-11.512c1.475-0.1 2.1-0.563 1.875-1.388-0.125-0.425-0.45-1.025-0.975-1.8-0.025-0.15 0.025-0.725 0.15-1.725 0.1-0.725-0.05-1.175-0.45-1.35-0.35-0.149-0.925-0.188-1.725-0.112-0.85 0.075-1.462 0.05-1.837-0.075-0.55-0.174-0.712-0.45-0.487-0.825 0.225-0.35 0.637-0.6 1.237-0.75 0.6-0.125 0.612-0.488 0.038-1.087-0.6-0.625-1.575-1.013-2.925-1.162-0.3-0.025-1.15 0.337-2.55 1.087-1 0.525-2.075 0.288-3.225-0.712-1.225-1.075-2.525-1.538-3.899-1.388-1.4 0.4-2.35 0.663-2.85 0.787-1.25 0.325-2.375 0.513-3.375 0.563-0.675 0.025-1.35 0.363-2.024 1.013s-0.813 1.137-0.413 1.462c0.775 0.625 4.387 2.025 10.837 4.2 6.798 2.275 10.998 3.362 12.598 3.262z" fill="#57390D"/>
			<path d="m26.587-11.137c1.475-0.1 2.1-0.562 1.875-1.387-0.125-0.425-0.45-1.025-0.975-1.8-0.025-0.15 0.025-0.725 0.15-1.725 0.1-0.725-0.05-1.175-0.45-1.35-0.35-0.149-0.925-0.188-1.725-0.112-0.85 0.075-1.463 0.05-1.838-0.075-0.525-0.174-0.65-0.462-0.375-0.862 0.175-0.25 0.575-0.612 1.2-1.087 0.425-0.325 0.3-0.675-0.375-1.05-0.625-0.35-1.487-0.625-2.587-0.825-0.375-0.075-1.212 0.262-2.513 1.012-1.025 0.575-2.1 0.362-3.225-0.637-1.25-1.075-2.563-1.538-3.938-1.388-1.374 0.399-2.311 0.662-2.811 0.786-1.275 0.325-2.4 0.513-3.375 0.563-0.675 0.025-1.35 0.363-2.025 1.013s-0.825 1.137-0.45 1.462c0.774 0.625 4.387 2.025 10.836 4.2 6.801 2.275 11.001 3.362 12.601 3.262z" fill="#80561C"/>
			<path d="m26.662-13.537c1.125-0.175 1.487-0.763 1.087-1.763-0.375-0.95-0.887-1.438-1.537-1.462-0.325-0.025-0.625-0.35-0.9-0.975-0.35-0.75-0.8-1.288-1.35-1.613-1.375-0.825-3.125-1.025-5.25-0.6-0.575 0.1-1.513-0.15-2.813-0.75-1.375-0.65-2.5-0.962-3.375-0.938-1 0.025-1.8 0.15-2.4 0.375-1.124 0.476-1.787 0.739-1.987 0.789-0.725 0.2-1.475 0.174-2.25-0.075-0.825-0.25-1.425-0.35-1.8-0.3-0.525 0.1-0.987 0.362-1.387 0.787-0.575 0.65-0.962 1.038-1.163 1.162-0.475 0.325-0.575 0.863-0.3 1.613 0.226 0.625 0.488 1.05 0.788 1.275 1.15 0.775 5.312 1.45 12.487 2.025 6.725 0.55 10.775 0.7 12.15 0.45z" fill="#57390D"/>
			<path d="m26.474-13.199c1.125-0.2 1.538-0.775 1.238-1.725-0.275-0.9-0.738-1.375-1.388-1.425-0.325-0.025-0.625-0.337-0.9-0.938-0.325-0.75-0.762-1.288-1.312-1.613-1.35-0.8-3.112-1.012-5.288-0.637-0.575 0.1-1.512-0.15-2.812-0.75-1.4-0.65-2.525-0.963-3.375-0.938-1 0.025-1.8 0.162-2.4 0.412-1.075 0.45-1.737 0.712-1.987 0.787-0.725 0.202-1.475 0.177-2.25-0.073-0.825-0.275-1.425-0.375-1.8-0.3-0.525 0.1-0.988 0.362-1.388 0.788-0.575 0.65-0.962 1.037-1.162 1.162-0.475 0.325-0.601 0.788-0.375 1.388 0.2 0.475 0.45 0.825 0.75 1.05 1.15 0.775 5.274 1.5 12.375 2.175 6.699 0.649 10.724 0.862 12.074 0.637z" fill="#80561C"/>
			<path d="m26.736-10.649c0.35-0.1 0.563-0.313 0.638-0.637 0.075-0.475 0.275-0.863 0.6-1.163 0.475-0.475 0.538-0.987 0.188-1.538-0.325-0.5-0.824-0.85-1.5-1.05-0.15-0.05-1.625-0.362-4.425-0.938-2.45-0.5-3.875-0.875-4.275-1.125s-0.275-0.725 0.375-1.425c0.35-0.4 0.85-0.962 1.5-1.688 0.275-0.449 0.013-0.787-0.788-1.012-0.775-0.226-1.512-0.238-2.212-0.038-1.9 0.55-3.475 0.75-4.725 0.601-0.875-0.1-1.75-0.1-2.625 0-1 0.1-1.737 0.312-2.212 0.637-1 0.7-2.162 1.05-3.488 1.05-0.524 0-0.912 0.075-1.162 0.225-0.275 0.175-0.575 0.563-0.9 1.162-0.275 0.5-0.237 0.975 0.113 1.425 0.125 0.175 0.437 0.425 0.938 0.75 0.549 0.35 4.549 1.275 12 2.775 7.473 1.476 11.461 2.138 11.96 1.989z" fill="#57390D"/>
			<path d="m26.662-10.162c0.35-0.1 0.563-0.313 0.637-0.638 0.1-0.45 0.3-0.837 0.6-1.163 0.475-0.475 0.538-0.975 0.188-1.5-0.3-0.5-0.8-0.85-1.5-1.05-0.175-0.05-1.65-0.363-4.425-0.938-2.45-0.525-3.862-0.9-4.237-1.125-0.4-0.25-0.288-0.737 0.338-1.462 0.35-0.4 0.862-0.962 1.537-1.688 0.275-0.45 0.012-0.788-0.788-1.012-0.774-0.225-1.512-0.238-2.212-0.038-1.975 0.575-3.563 0.788-4.762 0.637-0.9-0.1-1.775-0.112-2.625-0.037-1 0.1-1.725 0.312-2.175 0.637-1.025 0.725-2.2 1.087-3.524 1.087-0.525 0-0.913 0.075-1.163 0.225-0.251 0.178-0.551 0.553-0.901 1.128-0.3 0.5-0.263 0.975 0.112 1.425 0.125 0.175 0.45 0.438 0.975 0.788 0.55 0.35 4.538 1.263 11.962 2.737 7.475 1.5 11.463 2.162 11.963 1.987z" fill="#80561C"/>
			<path d="m17.287-18.262c0.1 0.475 0.925 1.2 2.475 2.175 1.775 1.1 3.538 1.813 5.287 2.138 1.65 0.275 2.425 0.737 2.325 1.387-0.05 0.35-0.35 0.713-0.9 1.088-0.275 0.225-0.35 0.387-0.225 0.487 0.1 0.1 0.388-0.075 0.862-0.525 0.525-0.525 0.7-1.038 0.525-1.538s-0.6-0.825-1.275-0.975c-1.125-0.25-2.45-0.688-3.975-1.313-2.1-0.875-3.487-1.725-4.163-2.55-0.6-0.75-0.675-1.2-0.225-1.35 0.525-0.175 0.775-0.35 0.75-0.525-0.075-0.4-0.587-0.538-1.538-0.412-0.175 0.025-1.1 0.2-2.775 0.524-0.7 0.15-1.7 0.201-3 0.15-1.375-0.025-2.237-0.013-2.587 0.037-0.325 0.05-0.912 0.3-1.762 0.75-0.8 0.4-1.587 0.625-2.363 0.675-0.899 0.075-1.487 0.3-1.762 0.675-0.226 0.275-0.263 0.55-0.113 0.825l1.125-0.938c0.15-0.1 0.576-0.212 1.275-0.337s1.237-0.3 1.612-0.525c0.9-0.6 1.962-0.85 3.188-0.75 2.625 0.201 4.462 0.1 5.512-0.3 0.75-0.325 1.475-0.475 2.175-0.45 0.7 0.05 0.85 0.138 0.45 0.263-0.673 0.227-0.973 0.664-0.898 1.314z" fill="#BA803D"/>
			<path d="m26.699-9.262c0.725-0.35 1.125-0.675 1.2-0.975 0.025-0.175 0.063-0.388 0.113-0.638 0.25-0.25 0.412-0.6 0.487-1.05-0.2 0.375-0.425 0.475-0.675 0.3-0.025-0.025-0.763-0.65-2.213-1.875-0.275-0.225-0.538-0.762-0.787-1.612-0.25-0.825-0.462-1.313-0.638-1.462-0.2-0.15-0.438-0.563-0.712-1.237-0.25-0.7-0.45-1.113-0.6-1.237-0.175-0.15-0.387-0.226-0.637-0.226-0.3 0.025-0.563 0.038-0.788 0.038-0.675 0-1.425 0.163-2.25 0.487-0.925 0.35-1.987 0.325-3.187-0.075-0.525-0.175-1.05-0.25-1.575-0.225-0.25 0-0.712 0.037-1.388 0.112-1.575 0.175-2.55 0.212-2.925 0.112-0.25-0.075-0.45-0.25-0.6-0.525l-0.413-0.637c-0.2-0.25-0.237-0.8-0.112-1.65 0.025-0.225-0.1-0.425-0.375-0.6-0.25-0.2-0.375-0.35-0.375-0.45 0-0.125 0.012-0.35 0.037-0.675 0-0.25-0.137-0.4-0.412-0.45s-0.475 0.063-0.6 0.338l-0.15 0.412v0.188c0 0.05 0.112 0.263 0.337 0.638 0.2 0.375 0.313 0.625 0.337 0.75 0.025 0.1-0.025 0.325-0.15 0.675-0.15 0.375-0.2 0.625-0.15 0.75 0.075 0.225 0.087 0.525 0.037 0.9-0.05 0.45-0.162 0.8-0.337 1.05s-0.525 0.475-1.05 0.675c-0.475 0.2-0.875 0.287-1.2 0.262-0.226-0.025-0.638 0-1.237 0.075-0.625 0.075-1.025 0.125-1.2 0.15-0.3 0.05-0.575 0.012-0.825-0.112-0.3-0.125-0.45-0.338-0.45-0.638 0-0.325-0.05-0.525-0.149-0.6-0.125-0.075-0.275 0-0.45 0.225-0.15 0.2-0.2 0.513-0.15 0.938 0.075 0.65 0.1 1.087 0.075 1.313-0.024 0.424 0.088 0.961 0.338 1.611 0.325 0.8 0.5 1.263 0.524 1.388 0.3 1.25 4.363 2.3 12.187 3.15 7.576 0.825 11.938 0.962 13.088 0.412z" fill="#F0D05B"/>
			<path d="m26.174-9.112c0.625-0.125 1.1-0.35 1.425-0.675 0.225-0.226 0.3-0.413 0.225-0.563-0.025-0.1-0.188-0.275-0.487-0.525-0.425-0.375-0.788-0.687-1.088-0.938-0.6-0.525-1.05-0.987-1.35-1.387-1.25-1.6-2.2-2.587-2.85-2.962-0.525-0.275-1.375-0.588-2.55-0.938-1.075-0.3-2-0.513-2.775-0.637-0.75-0.1-1.7-0.15-2.85-0.15-1.225 0-2.1 0.063-2.625 0.188-2.9 0.7-4.625 1.05-5.174 1.05-0.825 0-1.488 0.038-1.988 0.113-0.825 0.15-1.538 0.45-2.137 0.9-0.55 0.4-0.763 0.9-0.638 1.5 0.225 0.575 0.325 0.962 0.3 1.163-0.1 0.5 3.888 1.313 11.962 2.438 7.9 1.073 12.1 1.548 12.6 1.423z" fill="#FFE273"/>
			<path d="m17.7-17.587c-0.325 0.05-0.863 0.213-1.613 0.488l-1.05 0.375h-1.2c-0.35 0-1 0.063-1.95 0.188l-1.313 0.188-1.612-0.525c-0.2-0.475-0.725-0.65-1.575-0.525-0.525 0.075-0.975 0.25-1.35 0.525l-0.375 0.412c-0.025 0.25 2.075 1.4 6.3 3.45 4.325 2.125 7.012 3.162 8.062 3.112 1.25-0.05 2.787-0.288 4.612-0.712 1.875-0.425 2.788-0.788 2.737-1.087-0.025-0.275-0.175-0.463-0.45-0.563-0.175-0.05-0.512-0.088-1.012-0.113l-1.313-0.15c-0.05-0.1-0.275-0.362-0.675-0.788l-1.388-1.387 0.075-0.075 0.337-0.787-0.788-0.45c0-0.15-0.087-0.337-0.262-0.563-0.325-0.45-0.888-0.862-1.688-1.237-0.75-0.35-1.3-0.438-1.65-0.263-0.297 0.3-0.584 0.462-0.859 0.487z" fill="#BDA13B"/>
				<linearGradient id="SVGID_2_" y2="-15.312" gradientUnits="userSpaceOnUse" x2="28.417" gradientTransform="scale(.75)" y1="-14.561" x1="37.476">
				<stop stop-color="#70A62A" offset="0"/>
				<stop stop-color="#46851E" offset="1"/>
			</linearGradient>
			<path d="m22.874-10.162l5.138 0.375 0.037-1.163c-0.075-0.175-0.237-0.362-0.487-0.562-0.475-0.425-1.125-0.688-1.95-0.788-1.675-0.25-2.962 0-3.862 0.75-0.275 0.225-0.438 0.45-0.487 0.675v0.225l1.611 0.488z" fill="url(#SVGID_2_)"/>
			<path d="m24.224-7.65c0.975-0.2 1.888-0.563 2.738-1.087 1-0.6 1.287-1.15 0.862-1.65-1.125-1.274-3.038-1.537-5.737-0.787-1.625 0.45-2.337 1.262-2.138 2.438 0.225 1.224 1.65 1.587 4.275 1.086z" fill="#B6D65E"/>
			<path d="m27.374-10.2c-0.225-0.05-0.625-0.025-1.2 0.075-0.524 0.075-0.812 0.1-0.862 0.075 1.1-0.25 1.5-0.525 1.2-0.825-0.2-0.2-0.5-0.125-0.9 0.225l-0.524 0.6c-0.275-0.95-0.713-1.375-1.313-1.275-0.375 0.05-0.413 0.275-0.113 0.675 0.15 0.2 0.337 0.4 0.563 0.6-0.9-0.45-1.413-0.513-1.538-0.188-0.075 0.2 0.212 0.337 0.863 0.412 0.325 0.05 0.662 0.075 1.012 0.075l0.675 0.188c0.5 0.15 0.925 0.212 1.275 0.188 0.4-0.025 0.725-0.15 0.975-0.375 0.25-0.25 0.212-0.399-0.113-0.45z" fill="#D3FC7A"/>
				<linearGradient id="SVGID_3_" y2="-20.941" gradientUnits="userSpaceOnUse" x2="14.388" gradientTransform="scale(.75)" y1="-20.941" x1="5.3125">
				<stop stop-color="#70A62A" offset="0"/>
				<stop stop-color="#46851E" offset="1"/>
			</linearGradient>
			<path d="m9.112-14.512l1.65-0.375c0.125-0.225-0.012-0.538-0.413-0.938-0.825-0.825-2.087-1.175-3.787-1.05-0.825 0.05-1.5 0.262-2.025 0.637l-0.524 0.525-0.038 1.125 5.137 0.076z" fill="url(#SVGID_3_)"/>
			<path d="m7.575-12.149c2.575 0.725 4.025 0.488 4.35-0.712 0.3-1.15-0.35-2.025-1.95-2.625-2.625-0.95-4.55-0.837-5.774 0.337-0.45 0.45-0.2 1.025 0.75 1.725 0.799 0.6 1.674 1.025 2.624 1.275z" fill="#B6D65E"/>
			<path d="m6.712-14.587c-0.975-0.25-1.663-0.362-2.063-0.337-0.325 0.025-0.375 0.175-0.15 0.45 0.225 0.25 0.538 0.4 0.938 0.45 0.55 0.05 1.212-0.025 1.987-0.225l1.013 0.037c0.675-0.025 0.975-0.15 0.9-0.375-0.125-0.325-0.65-0.3-1.575 0.075 0.95-0.675 1.138-1.087 0.563-1.237s-1.05 0.237-1.425 1.162c-0.55-0.9-0.987-1.212-1.313-0.938-0.225 0.15-0.1 0.35 0.375 0.6l0.75 0.338z" fill="#D3FC7A"/>
				<linearGradient id="SVGID_4_" y2="-21.133" gradientUnits="userSpaceOnUse" x2="30.325" gradientTransform="scale(.75)" y1="-21.133" x1="17.975">
				<stop stop-color="#70A62A" offset="0"/>
				<stop stop-color="#46851E" offset="1"/>
			</linearGradient>
			<path d="m13.612-15.749c-0.524 0.35 0.25 0.737 2.325 1.162 2 0.4 3.487 0.525 4.462 0.375 1.2-0.2 1.987-0.625 2.362-1.275v-0.45c-0.025-0.175-0.15-0.363-0.375-0.563-0.45-0.425-1.163-0.738-2.137-0.938-1.225-0.25-2.65-0.075-4.275 0.525-0.874 0.326-1.662 0.714-2.362 1.164z" fill="url(#SVGID_4_)"/>
			<path d="m13.162-15.112l3.637 0.6c2.55 0.35 4.063 0.4 4.538 0.15 0.775-0.375 1.237-0.737 1.387-1.087-0.175-0.3-0.487-0.587-0.938-0.862-0.7-0.475-2.012-0.675-3.938-0.6-0.85 0.025-1.887 0.337-3.112 0.938l-1.574 0.861z" fill="#B6D65E"/>
			<path d="m17.7-15.862c0.35 0.15 0.725 0.288 1.125 0.413l0.563 0.638c1.7 0.175 2.513 0.175 2.438 0-0.05-0.175-0.6-0.275-1.65-0.3 1.475-0.05 2.038-0.175 1.688-0.375-0.2-0.1-0.612-0.125-1.237-0.075l-0.863 0.112c1.125-0.5 1.388-0.763 0.788-0.788-0.375-0.025-0.738 0.063-1.087 0.263l-0.45 0.337c-0.8-0.725-1.438-1-1.913-0.825-0.303 0.1-0.102 0.3 0.598 0.6z" fill="#CBF275"/>
			<path d="m26.549-8.512c0.325-0.1 0.563-0.25 0.713-0.45 0.025-0.35-0.238-0.788-0.788-1.313l-1.688-1.313-0.45-0.038-1.538-0.487-1.163-2.4 0.375-0.225c-0.225-0.175-1.012-0.513-2.362-1.012-0.85-0.325-1.737-0.538-2.663-0.638l-1.162-0.075-0.338 0.15-0.6 0.525c-0.6 0.125-1.225 0.237-1.875 0.337-1.3 0.175-2.087 0.138-2.362-0.112-0.4-0.425-0.788-0.713-1.163-0.863l-0.075 0.675-0.375 0.15c-0.15 0.05-0.387 0.212-0.712 0.487l-0.45 0.375c-0.425-0.1-1.138-0.15-2.138-0.15-1.025 0-1.612 0.1-1.763 0.3l0.263 0.75c14.527 3.652 21.964 5.427 22.314 5.327z" fill="#819E32"/>
				<linearGradient id="SVGID_5_" y2="428.97" gradientUnits="userSpaceOnUse" x2="501.74" gradientTransform="matrix(.7488 .042 -.042 .7488 -333.36 -352.31)" y1="428.97" x1="479.4">
				<stop stop-color="#FDCB53" offset="0"/>
				<stop stop-color="#D48801" offset="1"/>
			</linearGradient>
			<path d="m7.8-14.399c0.25 1.075 0.663 2.25 1.237 3.525 1.125 2.55 2.5 4.35 4.125 5.4 1.875 1.175 4.175 1.025 6.9-0.45 2.6-1.425 4.025-3.05 4.275-4.875 0.25-1.575-0.638-2.875-2.663-3.9-1.325-0.65-3.037-1.15-5.138-1.5-2.2-0.375-4.174-0.313-5.924 0.188-1.375 0.399-2.312 0.937-2.812 1.612z" fill="url(#SVGID_5_)"/>
			<path d="m23.549-9.149l0.262-0.188c0.325-0.6 0.5-1.087 0.525-1.462 0.25-1.575-0.638-2.875-2.663-3.9-1.325-0.65-3.037-1.15-5.138-1.5-2.2-0.375-4.174-0.313-5.924 0.188-1.375 0.4-2.313 0.938-2.813 1.612 0.225 0.975 0.6 2.075 1.125 3.3 1.05 2.424 2.325 4.187 3.825 5.287 0.375 0.15 0.575 0.163 0.6 0.037 0.025-0.1 0.113-0.45 0.262-1.05 0.675-1.6 0.525-2.937-0.45-4.012-0.5-0.55-1.063-0.925-1.688-1.125l-0.185-1.538c0.375-0.975 1.837-1.287 4.387-0.937 3.325 0.45 5.637 1.462 6.938 3.037 0.65 0.8 0.962 1.55 0.937 2.251z" fill="#C98000"/>
			<path d="m3.563-8.174c1.4 0.625 2.9 1.187 4.5 1.688 3.2 0.975 5.3 1.125 6.299 0.45 1.25-0.825 1.138-2.337-0.337-4.538-1.475-2.25-3.2-3.262-5.175-3.037-3.275 0.325-5.225 0.575-5.85 0.75-1.525 0.425-2.3 1.237-2.325 2.438-0.025 1.073 0.287 1.661 0.937 1.761 1.15 0.225 1.801 0.388 1.951 0.488z" fill="#EDE2AD"/>
				<linearGradient id="SVGID_6_" y2="-14338" gradientUnits="userSpaceOnUse" x2="-1577.7" gradientTransform="matrix(.1645 -.7317 .7317 .1645 10759 1190.4)" y1="-14338" x1="-1586.6">
				<stop stop-color="#FDCB53" offset="0"/>
				<stop stop-color="#D48801" offset="1"/>
			</linearGradient>
			<path d="m2.85-6.562c1.4 0.35 2.9 0.638 4.5 0.862 3.225 0.425 5.325 0.3 6.3-0.375 1.2-0.8 1.325-2.1 0.375-3.899-0.976-1.825-2.538-3.213-4.688-4.163-2.075-0.9-4.175-0.862-6.3 0.112-2 0.925-3.013 2.113-3.038 3.563-0.025 0.75 0.113 1.412 0.413 1.988 0.226 0.374 0.588 0.724 1.088 1.05 0.6 0.35 1.05 0.637 1.35 0.862z" fill="url(#SVGID_6_)"/>
				<linearGradient id="SVGID_7_" y2="-19292" gradientUnits="userSpaceOnUse" x2="11234" gradientTransform="matrix(-.6521 -.3705 .3705 -.6521 14475 -8431)" y1="-19292" x1="11215">
				<stop stop-color="#D69211" offset="0"/>
				<stop stop-color="#C98000" offset="1"/>
			</linearGradient>
			<path d="m9.337-14.137c-2.075-0.9-4.175-0.862-6.3 0.112-2 0.925-3.013 2.113-3.038 3.563-0.025 0.3 0 0.612 0.075 0.938 0.375-2.4 2.312-3.6 5.813-3.6 2.15 0 4.1 0.575 5.85 1.725 1.725 1.125 2.688 2.388 2.887 3.788 0.025-1.475-0.688-2.913-2.137-4.313-1-0.975-2.05-1.713-3.15-2.213z" fill="url(#SVGID_7_)"/>
			<path d="m9.712-1.8c0.725 0.025 1.588-0.65 2.588-2.025 0.475-0.675 0.887-1.35 1.237-2.025 0.25 0 0.313-0.05 0.188-0.15-0.25-0.225-1.287-0.575-3.112-1.05-2.3-0.65-4.475-0.938-6.525-0.863-1.025 0.025-1.825 0.113-2.4 0.262-0.325 0.25-0.5 0.601-0.525 1.05-0.075 0.9 0.65 1.85 2.175 2.85 0.975 0.651 2.337 1.176 4.087 1.576 0.85 0.175 1.612 0.3 2.287 0.375z" fill="#EDE2AD"/>
				<linearGradient id="SVGID_8_" y2="435.07" gradientUnits="userSpaceOnUse" x2="488.12" gradientTransform="matrix(.7488 .0418 -.0418 .7488 -331.68 -350.43)" y1="435.07" x1="467.91">
				<stop stop-color="#FDCB53" offset="0"/>
				<stop stop-color="#D48801" offset="1"/>
			</linearGradient>
			<path d="m9.375-1.725c1.175 0 3.287-1.05 6.337-3.15-0.575-0.425-2.313-1.037-5.212-1.837-2.3-0.625-4.575-1-6.825-1.125-1.125-0.05-2.024-0.037-2.7 0.038-0.275 0.275-0.388 0.662-0.337 1.162 0.05 0.975 0.825 1.95 2.325 2.925 1 0.65 2.375 1.175 4.125 1.575 0.85 0.199 1.612 0.337 2.287 0.412z" fill="url(#SVGID_8_)"/>
			<path d="m13.312-6.15c-1.5 0.825-2.675 1.587-3.525 2.288-1.625 1.35-1 2.387 1.875 3.112 2.375 0.6 4.612 0.525 6.712-0.225 1.025-0.375 1.825-0.813 2.4-1.313-0.575-0.025-1.212-0.087-1.913-0.188-1.449-0.224-2.537-0.599-3.261-1.124-1.2-0.8-1.963-1.65-2.288-2.55z" fill="#EDE2AD"/>
				<linearGradient id="SVGID_9_" y2="432.56" gradientUnits="userSpaceOnUse" x2="490.5" gradientTransform="matrix(.7488 .0413 -.0413 .7488 -328.47 -346.85)" y1="432.56" x1="474.62">
				<stop stop-color="#FDCB53" offset="0"/>
				<stop stop-color="#D48801" offset="1"/>
			</linearGradient>
			<path d="m13.65-6.075c-1.625 1-2.875 1.85-3.75 2.55-1.625 1.35-1 2.388 1.875 3.113 2.375 0.625 4.612 0.55 6.712-0.225 1.025-0.375 1.825-0.813 2.4-1.313-0.575-0.025-1.212-0.088-1.913-0.188-1.45-0.225-2.537-0.587-3.262-1.087-0.75-0.525-1.312-1.15-1.687-1.875l-0.375-0.975z" fill="url(#SVGID_9_)"/>
			<path d="m21.487-5.512c-2.35 0.3-4.425 0.325-6.225 0.075l-1.987-0.45c-0.05 0.275 0.012 0.613 0.188 1.013 0.325 0.8 1.062 1.537 2.212 2.212 1.875 1.075 3.8 1.3 5.775 0.675 2.025-0.625 3.563-1.95 4.612-3.975 0.825-1.55 0.862-2.712 0.112-3.487l-1.387-0.675c0.05 0.7-0.05 1.413-0.3 2.138-0.475 1.449-1.475 2.274-3 2.474z" fill="#EDE2AD"/>
				<linearGradient id="SVGID_10_" y2="433.92" gradientUnits="userSpaceOnUse" x2="506.41" gradientTransform="matrix(.7488 .042 -.042 .7488 -333.56 -352.53)" y1="433.92" x1="488.09">
				<stop stop-color="#FDCB53" offset="0"/>
				<stop stop-color="#D48801" offset="1"/>
			</linearGradient>
			<path d="m20.512-6.525c-1.875 0.85-3.575 1.175-5.1 0.976l-1.762-0.526c-0.05 0.275 0.012 0.613 0.187 1.013 0.325 0.825 1.05 1.563 2.175 2.212 1.925 1.125 3.95 1.462 6.075 1.012 2.225-0.45 3.85-1.662 4.875-3.637 0.824-1.575 0.637-3.075-0.563-4.5l-2.063-1.65c-0.1 0.6-0.325 1.262-0.675 1.987-0.749 1.476-1.799 2.513-3.149 3.113z" fill="url(#SVGID_10_)"/>
			<path d="m24.337-11.625c-0.1 0.65-0.35 1.363-0.75 2.138 1.175 0.475 1.962 1.175 2.362 2.1 0.5 1.225 0.263 2.575-0.713 4.05 0.725-0.6 1.3-1.313 1.726-2.137 0.824-1.575 0.637-3.075-0.563-4.5l-2.062-1.651z" fill="#C98000"/>
			<path d="m23.212-8.25c0.35-0.625 0.537-1.262 0.563-1.912-0.05 0.625-0.413 1.325-1.088 2.1-0.65 0.775-1.287 1.275-1.912 1.5-2.05 0.8-3.85 1.125-5.4 0.975l-1.725-0.488c-0.25-0.1-0.375-0.062-0.375 0.112 1.175 0.576 2.55 0.8 4.125 0.675 1.525-0.15 2.938-0.6 4.237-1.35 0.65-0.374 1.175-0.912 1.575-1.612z" fill="#EDE2AD"/>
			<path d="m13.462-5.625c0.35 0.05 0.687 0.075 1.012 0.075 0.3 0 0.388-0.025 0.262-0.075-0.4-0.175-0.575-0.363-0.524-0.563 0.025-0.1-0.063-0.125-0.263-0.075-0.322 0.099-0.791 0.049-1.406-0.15 0.108 0.081 0.202 0.181 0.281 0.3l0.188 0.337 0.45 0.151z" fill="#EDE2AD"/>
			<path d="m6.037-2.475c0.3 0.025 0.45-0.063 0.45-0.263-0.025-0.174-0.162-0.337-0.412-0.487-0.45-0.2-0.8-0.15-1.05 0.15-0.05 0.1 0.013 0.212 0.188 0.337 0.225 0.151 0.499 0.238 0.824 0.263z" fill="#A88A43"/>
			<path d="m5.925-2.362c0.3 0.025 0.45-0.063 0.45-0.262 0-0.2-0.137-0.363-0.413-0.488-0.225-0.1-0.438-0.125-0.637-0.075-0.175 0.05-0.3 0.125-0.375 0.225s-0.013 0.213 0.188 0.338c0.199 0.149 0.462 0.237 0.787 0.262z" fill="#EDE2AD"/>
			<path d="m5.775-2.475c0.35 0 0.4-0.1 0.15-0.3-0.35-0.249-0.588-0.275-0.713-0.075-0.025 0.1 0.013 0.188 0.113 0.262 0.125 0.076 0.275 0.113 0.45 0.113z" fill="#fff"/>
			<path d="m8.137-3.15c0.575-0.025 0.775-0.162 0.6-0.412-0.175-0.225-0.487-0.338-0.937-0.338-0.375 0-0.475 0.125-0.3 0.375 0.15 0.25 0.362 0.375 0.637 0.375z" fill="#A88A43"/>
			<path d="m4.875-4.725c0.4 0.075 0.55 0 0.45-0.225-0.1-0.25-0.275-0.35-0.525-0.3-0.225 0.025-0.325 0.113-0.3 0.263 0.05 0.15 0.175 0.237 0.375 0.262z" fill="#A88A43"/>
			<path d="m10.837-7.799c0.425-0.075 0.525-0.2 0.3-0.375s-0.475-0.25-0.75-0.225c-0.25 0.05-0.325 0.175-0.225 0.375s0.325 0.274 0.675 0.225z" fill="#A88A43"/>
			<path d="m7.5-10.2c0.35 0.075 0.575 0.013 0.675-0.188 0.075-0.175-0.087-0.262-0.487-0.262-0.35 0-0.513 0.075-0.488 0.225 0.05 0.126 0.15 0.2 0.3 0.225z" fill="#A88A43"/>
			<path d="m18.337-6.862c0.575 0.025 0.862-0.1 0.862-0.375 0.025-0.25-0.212-0.35-0.712-0.3-0.425 0.025-0.625 0.15-0.6 0.375 0.025 0.2 0.175 0.3 0.45 0.3z" fill="#A88A43"/>
			<path d="m23.624-3.337c0.525-0.15 0.713-0.362 0.563-0.637-0.15-0.3-0.45-0.35-0.9-0.15-0.375 0.175-0.475 0.375-0.3 0.6 0.15 0.199 0.362 0.262 0.637 0.187z" fill="#A88A43"/>
			<path d="m19.274-2.362c-0.05-0.35-0.3-0.513-0.75-0.487-0.45 0.05-0.65 0.188-0.6 0.413 0.05 0.2 0.3 0.325 0.75 0.375 0.451 0.023 0.65-0.076 0.6-0.301z" fill="#A88A43"/>
			<path d="m20.25-4.387c0.7-0.175 0.862-0.413 0.487-0.712-0.375-0.275-0.788-0.325-1.237-0.15-0.425 0.175-0.513 0.387-0.263 0.637 0.225 0.275 0.562 0.35 1.013 0.225z" fill="#A88A43"/>
			<path d="m15.15-0.412c0.575 0.025 0.774-0.15 0.6-0.525-0.175-0.4-0.5-0.563-0.975-0.487-0.45 0.075-0.588 0.263-0.413 0.563 0.15 0.274 0.413 0.423 0.788 0.449z" fill="#A88A43"/>
			<path d="m5.287-8.25c0.65 0.025 0.838-0.137 0.563-0.487-0.25-0.35-0.613-0.425-1.087-0.225-0.45 0.175-0.563 0.337-0.338 0.488 0.2 0.149 0.487 0.224 0.862 0.224z" fill="#A88A43"/>
			<path d="m11.7-2.25c0.6-0.1 0.75-0.362 0.45-0.787-0.325-0.425-0.663-0.513-1.013-0.263-0.325 0.225-0.387 0.475-0.188 0.75 0.201 0.25 0.451 0.35 0.751 0.3z" fill="#A88A43"/>
			<path d="m8.063-3.112c0.574-0.025 0.787-0.15 0.637-0.375-0.175-0.225-0.488-0.338-0.938-0.338-0.375 0-0.487 0.125-0.337 0.375 0.175 0.25 0.387 0.363 0.638 0.338z" fill="#EDE2AD"/>
			<path d="m4.8-4.65c0.4 0.075 0.55 0 0.45-0.225-0.075-0.25-0.25-0.362-0.525-0.337-0.225 0.025-0.312 0.125-0.263 0.3 0.05 0.15 0.163 0.237 0.338 0.262z" fill="#EDE2AD"/>
			<path d="m10.762-7.725c0.425-0.075 0.525-0.2 0.3-0.375-0.2-0.2-0.438-0.275-0.712-0.225-0.25 0.05-0.325 0.175-0.225 0.375s0.312 0.275 0.637 0.225z" fill="#EDE2AD"/>
			<path d="m7.425-10.125c0.35 0.076 0.575 0.013 0.675-0.187 0.1-0.175-0.05-0.263-0.45-0.263-0.35 0-0.513 0.063-0.488 0.188 0 0.125 0.088 0.212 0.263 0.262z" fill="#EDE2AD"/>
			<path d="m18.299-6.787c0.575 0.025 0.862-0.1 0.862-0.375 0.025-0.25-0.212-0.35-0.712-0.3-0.425 0.025-0.625 0.15-0.601 0.375 0.027 0.2 0.176 0.3 0.451 0.3z" fill="#EDE2AD"/>
			<path d="m23.549-3.262c0.525-0.15 0.712-0.363 0.563-0.638-0.15-0.3-0.438-0.35-0.863-0.15-0.4 0.175-0.512 0.375-0.337 0.6 0.15 0.2 0.362 0.263 0.637 0.188z" fill="#EDE2AD"/>
			<path d="m19.237-2.287c-0.075-0.35-0.337-0.513-0.787-0.488-0.45 0.05-0.638 0.188-0.563 0.413 0.05 0.2 0.3 0.325 0.75 0.375 0.45 0.025 0.65-0.076 0.6-0.3z" fill="#EDE2AD"/>
			<path d="m20.212-4.312c0.7-0.175 0.85-0.413 0.45-0.713-0.375-0.275-0.787-0.325-1.237-0.15-0.4 0.175-0.487 0.388-0.263 0.638 0.25 0.25 0.6 0.325 1.05 0.225z" fill="#EDE2AD"/>
			<path d="m15.075-0.337c0.6 0.025 0.812-0.15 0.638-0.525-0.175-0.4-0.5-0.563-0.976-0.487-0.45 0.075-0.6 0.262-0.45 0.563 0.175 0.274 0.438 0.424 0.788 0.449z" fill="#EDE2AD"/>
			<path d="m5.212-8.174c0.65 0.025 0.85-0.138 0.6-0.487-0.275-0.35-0.65-0.425-1.125-0.226-0.45 0.175-0.562 0.338-0.337 0.488 0.2 0.149 0.487 0.225 0.862 0.225z" fill="#EDE2AD"/>
			<path d="m11.662-2.175c0.6-0.1 0.737-0.362 0.413-0.788-0.325-0.425-0.663-0.512-1.013-0.262-0.325 0.225-0.387 0.475-0.187 0.75 0.2 0.25 0.462 0.35 0.787 0.3z" fill="#EDE2AD"/>
			<path d="m7.912-3.187c0.2 0.025 0.313 0 0.338-0.075 0-0.075-0.088-0.125-0.263-0.15-0.175 0-0.263 0.038-0.263 0.112 0.026 0.05 0.088 0.088 0.188 0.113z" fill="#fff"/>
			<path d="m4.912-4.725c0.126-0.025 0.151-0.075 0.075-0.15-0.049-0.075-0.137-0.1-0.262-0.075s-0.162 0.063-0.113 0.113c0.076 0.075 0.176 0.112 0.3 0.112z" fill="#fff"/>
			<path d="m5.212-8.287c0.3-0.025 0.325-0.1 0.075-0.226-0.249-0.124-0.462-0.162-0.637-0.112-0.15 0.051-0.138 0.125 0.038 0.226 0.174 0.099 0.35 0.137 0.524 0.112z" fill="#fff"/>
			<path d="m10.612-7.799c0.25-0.05 0.3-0.113 0.15-0.188-0.125-0.1-0.25-0.125-0.375-0.075-0.1 0.025-0.112 0.087-0.038 0.188 0.051 0.075 0.138 0.1 0.263 0.075z" fill="#fff"/>
			<path d="m7.612-10.2c0.275-0.05 0.225-0.1-0.15-0.149-0.1 0-0.113 0.025-0.038 0.075 0.051 0.074 0.113 0.099 0.188 0.074z" fill="#fff"/>
			<path d="m18.562-6.937c0.275-0.1 0.3-0.188 0.075-0.263-0.25-0.05-0.425-0.025-0.525 0.075-0.075 0.1-0.05 0.163 0.075 0.188 0.1 0.05 0.225 0.05 0.375 0z" fill="#fff"/>
			<path d="m20.137-4.425c0.35-0.075 0.375-0.175 0.075-0.3-0.3-0.15-0.538-0.175-0.712-0.075-0.15 0.075-0.125 0.163 0.075 0.263 0.199 0.125 0.387 0.162 0.562 0.112z" fill="#fff"/>
			<path d="m23.399-3.487l0.45-0.375c0.075-0.1-0.013-0.15-0.262-0.15-0.25 0.025-0.425 0.1-0.525 0.225-0.075 0.1-0.063 0.188 0.038 0.262 0.074 0.075 0.174 0.087 0.299 0.038z" fill="#fff"/>
			<path d="m18.524-2.137c0.275-0.05 0.325-0.137 0.15-0.263-0.15-0.1-0.313-0.125-0.487-0.075-0.125 0.05-0.125 0.125 0 0.225 0.15 0.1 0.263 0.138 0.337 0.113z" fill="#fff"/>
			<path d="m15.037-0.412c0.325-0.025 0.388-0.125 0.188-0.3-0.225-0.2-0.388-0.25-0.488-0.15s-0.112 0.2-0.037 0.3 0.187 0.15 0.337 0.15z" fill="#fff"/>
			<path d="m11.4-2.325c0.3-0.075 0.375-0.2 0.225-0.375-0.175-0.2-0.337-0.25-0.487-0.15-0.125 0.05-0.15 0.162-0.075 0.337 0.074 0.151 0.187 0.213 0.337 0.188z" fill="#fff"/>
			<path d="m0.938-14.962c0.15 0.1 0.25 0.063 0.3-0.112 0.025-0.15 0-0.275-0.075-0.375-0.1-0.125-0.188-0.587-0.262-1.388-0.025-0.125-0.013-0.288 0.037-0.487 0.025-0.175 0.013-0.325-0.037-0.45-0.05-0.174-0.125-0.212-0.225-0.112-0.075 0.125-0.113 0.25-0.113 0.375 0.225 0.775 0.275 1.3 0.15 1.575-0.075 0.175-0.075 0.375 0 0.6 0.05 0.174 0.124 0.299 0.225 0.374z" fill="#FFF1BD"/>
			<path d="m8.025-18.674c0.175 0.05 0.262-0.063 0.262-0.338v-0.75c0.05-0.175 0.038-0.35-0.037-0.524-0.075-0.15-0.175-0.201-0.3-0.15-0.1 0.025-0.125 0.163-0.075 0.412 0.05 0.4 0.075 0.613 0.075 0.638l-0.075 0.769c0.032-0.061 0.082-0.08 0.15-0.057z" fill="#FFF1BD"/>
			<path d="m7.612-22.687c0.075 0 0.138-0.087 0.188-0.263 0.025-0.149 0.025-0.275 0-0.375-0.1-0.2-0.237-0.212-0.413-0.038-0.1 0.1-0.112 0.237-0.038 0.412 0.051 0.177 0.138 0.264 0.263 0.264z" fill="#FFF1BD"/>
			<path d="m19.274-18.412c-0.075 0.075-0.038 0.163 0.112 0.262 0.15 0.125 0.325 0.175 0.525 0.15 0.25-0.05 0.462-0.15 0.638-0.3 0.225-0.2 0.413-0.338 0.563-0.413 0.175-0.075 0.462-0.149 0.862-0.225 0.275-0.05 0.388-0.1 0.337-0.15-0.025-0.05-0.35-0.037-0.975 0.038-0.175 0.025-0.538 0.125-1.087 0.3-0.55 0.176-0.874 0.289-0.975 0.338z" fill="#FFF1BD"/>
		</g>
	</g>
</symbol>
		<use xlink:href="#deluxe" transform="matrix(.8778 0 0 -.8146 24.75 11.4)" height="26.045" width="28.59" y="-26.039" x="-0.009"/>
		<use xlink:href="#deluxe" transform="matrix(1 0 0 -1 5.6001 15.15)" height="26.045" width="28.59" y="-26.039" x="-0.009"/>
</svg>
