<?xml version="1.0" encoding="UTF-8" standalone="no"?>
<!DOCTYPE svg  PUBLIC '-//W3C//DTD SVG 1.1//EN'  'http://www.w3.org/Graphics/SVG/1.1/DTD/svg11.dtd'>
<svg id="flash0.ai" style="enable-background:new 0 0 44.95 31.25" xmlns="http://www.w3.org/2000/svg" xml:space="preserve" height="31.25px" viewBox="0 0 44.95 31.25" width="44.95px" version="1.1" y="0px" x="0px" xmlns:xlink="http://www.w3.org/1999/xlink">
<symbol id="flash0.ai_Assets_x5F_0_x2F_Layer_1_x2F__x3C_Path_x3E__x5F_8" viewBox="0.021 -19 27.629 19">
	<g id="Layer_1_2_">
		<linearGradient id="SVGID_1_" y2="-9.5" gradientUnits="userSpaceOnUse" x2="30.212" y1="-9.5" x1="-2.5127">
			<stop stop-color="#40240A" offset="0"/>
			<stop stop-color="#5A391D" stop-opacity=".7137" offset=".0863"/>
			<stop stop-color="#775031" stop-opacity=".4039" offset=".2"/>
			<stop stop-color="#8B6140" stop-opacity=".1765" offset=".3176"/>
			<stop stop-color="#986B49" stop-opacity=".0431" offset=".4314"/>
			<stop stop-color="#9C6E4C" stop-opacity="0" offset=".5412"/>
			<stop stop-color="#906545" stop-opacity=".1137" offset=".6235"/>
			<stop stop-color="#6F4D32" stop-opacity=".4235" offset=".7725"/>
			<stop stop-color="#3B2614" stop-opacity=".9176" offset=".9725"/>
			<stop stop-color="#33200F" offset="1"/>
		</linearGradient>
		<path fill-rule="evenodd" clip-rule="evenodd" d="m27.2-6.85c0.033-0.3 0-0.583-0.1-0.85l-0.1-0.95-0.05-0.05h0.05l-0.05-0.05c0.133-0.2 0.066-0.433-0.2-0.7l0.05-0.15 0.2-0.35c0.5-0.333 0.667-0.566 0.5-0.7l-0.3-0.15c0.2-0.534 0.3-0.983 0.3-1.35 0.2-0.7 0.2-1.4 0-2.1l-0.05-0.05c-0.1-0.534-0.383-1.067-0.85-1.6-1.833-2.067-6.017-3.1-12.55-3.1h-1.5l-0.5 0.05h-0.85l-0.25 0.05c-2.867 0.233-5.2 0.75-7 1.55-1.733 0.767-2.8 1.717-3.2 2.85v0.05l-0.1 0.25v0.05l-0.1 0.45c-0.167 0.767-0.066 1.45 0.3 2.05l-0.1 0.2v0.2l-0.05 0.1c-0.167-0.067-0.267-0.1-0.3-0.1-0.1 0.033-0.217 0.167-0.35 0.4-0.066 0.067-0.017 0.217 0.15 0.45 0 0.2 0.267 0.533 0.8 1l-0.05 0.1 0.15 0.25c-0.067 0.267-0.083 0.45-0.05 0.55 0 0.133-0.117 0.533-0.35 1.2-0.2 0.6-0.217 1-0.05 1.2v0.05c0.267 1.533 1.583 2.883 3.95 4.05 2.667 1.333 5.883 2 9.65 2 3.867 0 7.017-0.717 9.45-2.15 1.933-1.133 3.083-2.483 3.45-4.05l0.1 0.1-0.05-0.75z" fill="url(#SVGID_1_)"/>
	</g>
</symbol>
	<g clip-rule="evenodd" fill-rule="evenodd">
		<path d="m35.512 23.681l2.666 0.571c-1.143 1.587-2.189 2.698-3.142 3.332-0.604 0.413-1.444 1.143-2.523 2.189-0.539 0.541-1.031 1.032-1.476 1.477-2.729 0-4.84-0.158-6.332-0.476l-10.14-2.095c-3.174-0.636-5.396-1.365-6.665-2.19 1.587-1.079 2.634-1.65 3.142-1.714l24.47-1.094z" fill="#C5C5C5"/>
		<path d="m33.607 28.394c-1.079 0.825-1.825 1.349-2.236 1.571-0.254 0.127-0.382 0.381-0.382 0.761 0 0.191 0.016 0.366 0.048 0.524l-6.332-1.143 4.762-0.476c1.047-0.095 2.428-0.507 4.14-1.237z" fill="#E2E2E2"/>
	</g>
		<g clip-rule="evenodd" fill-rule="evenodd">
				<path d="m23.849 18.967c4.729 0 8.062 0.635 9.997 1.904 1.588 1.017 2.143 2.365 1.666 4.047-0.889 3.016-5.157 4.523-12.806 4.523-3.523 0.031-6.459-0.382-8.808-1.238-2.158-0.794-3.444-1.825-3.856-3.095-1.333-4.093 3.269-6.141 13.807-6.141z" fill="#E09046"/>
				<path d="m35.465 24.966c-0.223 1.333-1.444 2.396-3.666 3.19-2.316 0.856-5.363 1.285-9.141 1.285-3.586 0.031-6.522-0.429-8.808-1.381-2.031-0.825-3.332-1.904-3.904-3.237-0.127-0.317-0.127-0.73 0-1.238l0.333 0.096 0.19 0.714c0.317 0.539 1.016 0.984 2.095 1.333 0.159 0.063 0.365 0.285 0.619 0.666 0.254 0.35 0.793 0.572 1.619 0.667 0.413 0.063 1.317 0.223 2.714 0.477 0.889 0.19 1.587 0.27 2.095 0.237 0.381 0 0.968 0.032 1.761 0.095 0.762 0.096 1.54 0.128 2.333 0.096 3.903-0.253 6.442-0.523 7.616-0.81 0.921-0.222 1.857-0.809 2.81-1.761 0.476-0.444 0.856-0.889 1.143-1.333l0.237-0.381c0.064 0.412 0.049 0.84-0.046 1.285z" fill="#C9813F"/>
				<path d="m35.465 24.966c-0.318 1.365-1.571 2.443-3.762 3.237-2.253 0.825-5.268 1.238-9.045 1.238-3.491 0.031-6.396-0.397-8.712-1.285-2.063-0.795-3.364-1.81-3.904-3.048l0.524 0.477c0.063 0.031 0.349 0.317 0.857 0.856 0.444 0.444 0.873 0.746 1.285 0.904 0.73 0.223 1.968 0.318 3.714 0.286 0.444 0.032 1.333 0.237 2.666 0.619 1.27 0.349 2.237 0.539 2.904 0.57 0.54 0 1.428-0.142 2.667-0.428 1.237-0.317 2.316-0.476 3.236-0.476 2.158 0 3.984-0.303 5.476-0.905 0.539-0.253 1.031-0.65 1.476-1.189 0.222-0.317 0.444-0.667 0.666-1.048l-0.048 0.192z" fill="#9C6431"/>
				<path d="m11.042 24.775l-0.286-0.81 23.708 0.143 0.333 0.477c-0.285 0.254-0.952 0.523-1.999 0.81-2.095 0.539-5.015 0.872-8.76 0.999-4.158 0.127-7.57-0.095-10.236-0.666-1.332-0.318-2.252-0.635-2.76-0.953z" fill="#C9813F"/>
				<path d="m10.661 24.395c-0.349-0.222-0.492-0.793-0.428-1.714l0.19-1.333 24.375-0.477 0.571 1.19c0.286 0.889 0.143 1.635-0.428 2.238-0.698 0.729-1.666 1.206-2.905 1.428-1.396 0.254-4.315 0.429-8.759 0.523-6.57 0.097-10.775-0.522-12.616-1.855z" fill="#42180E"/>
					<path d="m34.561 24.156c-0.286 0.508-1.523 0.937-3.714 1.285-2.285 0.382-5.015 0.571-8.188 0.571-3.269 0-5.999-0.174-8.188-0.523-2.19-0.349-3.428-0.793-3.713-1.333-0.286-0.603-0.302-1.189-0.047-1.761 0.254-0.636 0.762-1.032 1.523-1.19 3.555-0.698 7.157-1.048 10.807-1.048 1.587 0 3.459 0.19 5.617 0.571 1.175 0.19 2.65 0.477 4.428 0.857 0.794 0.158 1.317 0.508 1.571 1.047 0.252 0.509 0.22 1.016-0.096 1.524z" fill="#832F1D"/>
					<path d="m23.753 24.585c-0.222 0.222-0.603 0.333-1.143 0.333-0.571-0.031-0.92-0.158-1.047-0.381-0.127 0.063-0.286 0.096-0.476 0.096h-0.524c-0.063 0-0.174 0.063-0.333 0.19-0.095 0.063-0.222 0.063-0.381 0 0.064-0.159 0.317-0.286 0.762-0.381 0.412-0.096 0.761-0.127 1.047-0.096l-0.429 0.048h1.476c0.001 0.413 0.35 0.477 1.048 0.191z" fill="#9E3923"/>
					<path d="m29.467 24.442c-0.921 0.031-1.492 0.063-1.715 0.095-0.603 0.096-1.11 0.111-1.523 0.048-0.856 0.063-1.381 0.016-1.57-0.143 0.095-0.096 0.381-0.175 0.856-0.238 0.381-0.031 0.698-0.031 0.952 0 0.408-0.063 1.012-0.063 1.809 0 0.857 0.031 1.699-0.031 2.523-0.19-0.031 0.221-0.476 0.365-1.332 0.428z" fill="#9E3923"/>
					<path d="m17.85 24.537c1.733-0.499 3.114-0.722 4.142-0.666-0.381 0.254-1.031 0.444-1.952 0.571-0.508 0.19-0.921 0.317-1.238 0.381-0.603 0.158-1.016 0.175-1.238 0.048 0.032-0.127 0.127-0.238 0.286-0.334z" fill="#632316"/>
					<path d="m31.751 23.823h-0.333c0.317-0.19 0.777-0.349 1.381-0.476 0.666-0.127 1.19-0.175 1.57-0.144-0.19 0.063-0.38 0.286-0.57 0.667-0.159 0.317-0.35 0.491-0.572 0.523-0.158 0.032-0.301 0.016-0.428-0.048-0.096-0.127-0.175-0.206-0.238-0.238-0.35-0.157-0.62-0.253-0.81-0.284z" fill="#632316"/>
					<path d="m10.423 22.871c0.635-0.19 1.048-0.302 1.238-0.333 0.603-0.096 0.92 0.031 0.952 0.381 0 0.19-0.286 0.333-0.857 0.429-0.476 0.095-0.587 0.381-0.333 0.856l0.095 0.238c-0.095-0.032-0.159-0.048-0.19-0.048-0.095-0.032-0.127-0.111-0.095-0.238-0.381 0.032-0.619-0.11-0.714-0.428-0.064-0.159-0.096-0.445-0.096-0.857z" fill="#632316"/>
					<path d="m33.846 24.3c0.223-0.159 0.444-0.191 0.667-0.096-0.381 0.508-1.635 0.937-3.761 1.285-2.254 0.35-4.952 0.523-8.094 0.523-3.269 0-5.999-0.174-8.188-0.523-2.19-0.349-3.428-0.793-3.713-1.333v-0.048h0.095l-0.143-0.095-0.095-0.19v-0.095c0.285-0.032 0.539 0.016 0.761 0.143-0.031 0.285 0.143 0.444 0.524 0.476 0.317 0.032 0.587-0.047 0.809-0.238 0.73 0.794 1.396 1.144 2 1.048l0.048-0.285c0.127 0.031 0.238 0.047 0.333 0.047 0.032 0.032 0.095 0.111 0.191 0.238 0.253 0 0.841-0.016 1.761-0.048 0.825-0.031 1.286-0.016 1.38 0.048 0.254-0.063 0.635-0.063 1.143 0 0.445 0.063 0.826 0.031 1.143-0.096l0.047-0.285c0.032 0 0.143 0.031 0.333 0.096 0.063 0 0.127 0.063 0.19 0.189l0.429-0.047c0.222 0.349 0.762 0.523 1.619 0.523 0.158 0 0.809-0.063 1.951-0.19l-0.571-0.429c0.921-0.222 1.508-0.302 1.762-0.238l-0.285 0.381 1.095-0.095v0.286c0.635-0.032 1.587-0.191 2.855-0.477 0.667-0.096 1.064-0.143 1.19-0.143 0.159 0 0.365-0.017 0.619-0.048 0.223-0.063 0.397-0.19 0.523-0.381 0.128 0.031 0.382 0.016 0.762-0.048 0.319-0.062 0.525-0.014 0.62 0.145z" fill="#632316"/>
					<path d="m33.084 21.586c0.603 0.127 1.063 0.364 1.381 0.714 0.286 0.35 0.396 0.729 0.333 1.143l-1.19 0.238c-1.015 0.285-1.776 0.46-2.285 0.523-0.254 0.031-0.666 0.016-1.237-0.048-0.667-0.031-1.127-0.048-1.381-0.048-1.396 0.096-2.476 0.127-3.237 0.096-0.762 0-1.189 0.016-1.285 0.048-0.317 0.285-0.587 0.46-0.81 0.523-0.222-0.254-0.587-0.381-1.095-0.381-0.571 0.032-0.984 0.032-1.238 0-1.365-0.222-2.079-0.333-2.143-0.333-1.111 0.063-2.031 0.079-2.761 0.047-1.364-0.031-2.094-0.254-2.189-0.666-0.413 0.127-0.921 0.095-1.523-0.095-0.826-0.254-1.349-0.381-1.571-0.381-0.063-0.159-0.063-0.286 0-0.382l-0.097-0.284c0.254-0.571 0.746-0.937 1.476-1.095 3.555-0.698 7.157-1.048 10.807-1.048 1.587 0 3.459 0.19 5.617 0.571 1.175 0.191 2.651 0.477 4.428 0.858z" fill="#632316"/>
					<path d="m34.228 22.015c0.031 0.127 0.095 0.285 0.189 0.476 0.064 0.19 0.048 0.365-0.048 0.523-0.254 0.063-0.412 0.127-0.476 0.19l-0.143 0.477c-0.509 0.508-1.158 0.65-1.952 0.428-0.635-0.158-1.492-0.158-2.57 0-1.175 0.191-2.285 0.238-3.333 0.144-1.46-0.317-2.65-0.413-3.57-0.286-0.381 0.032-1.857 0.35-4.428 0.952-0.762 0.19-1.27 0.27-1.523 0.238-0.349 0-0.841-0.175-1.476-0.523l-1.238-0.81c-0.127-0.095-0.381-0.206-0.762-0.333-0.38-0.127-0.603-0.238-0.667-0.334-0.92 0-1.491-0.031-1.713-0.095v-0.095c-0.054-0.069-0.07-0.181-0.048-0.334 0.063-0.285 0.079-0.46 0.048-0.523 1.174 0.413 2.158 0.619 2.952 0.619 0.571 0.031 1.539 0.047 2.904 0.047 1.238-0.031 2.19-0.016 2.856 0.048 5.935 0.507 10.935 0.238 14.998-0.809z" fill="#42180E"/>
				<path d="m31.608 23.729c-1.27-0.223-1.952-0.334-2.047-0.334-2-0.19-4.555-0.047-7.665 0.429-0.476 0.063-1.793 0.333-3.952 0.81-0.984 0.222-1.825 0.254-2.523 0.095-0.571-0.412-1.159-0.762-1.762-1.047-0.508-0.223-1.095-0.444-1.761-0.667l-0.905-0.285c4.919 0.19 8.935 0.174 12.045-0.048 3.143-0.19 6.744-0.223 10.807-0.096 0.286 0.763 0.095 1.19-0.57 1.286-0.381 0.03-0.936-0.018-1.667-0.143z" fill="#FFE797"/>
				<path d="m12.994 23.252c0.92-0.031 1.873-0.063 2.856-0.096 2-0.095 3.221-0.189 3.666-0.285 0.698-0.096 1.936 0.079 3.713 0.523l-1.333 0.334c-0.667-0.223-1.222-0.302-1.666-0.238-0.222 0.031-0.333 0.111-0.333 0.238-0.032 0.158-0.159 0.253-0.381 0.285-1.238 0.19-2.19 0.365-2.856 0.523-0.444 0.096-0.746 0.063-0.905-0.095-0.412-0.35-0.667-0.556-0.761-0.619-0.349-0.19-0.778-0.349-1.286-0.476l-0.714-0.094z" fill="#E7D289"/>
				<path d="m31.322 23.49l2.571-0.667c-0.095 0.444-0.349 0.698-0.762 0.762-0.223 0.063-0.587 0.063-1.096 0l-0.713-0.095z" fill="#E7D289"/>
				<path d="m18.231 22.823l3.285-0.048c0.254 0.096 0.714 0.318 1.381 0.667l0.476 0.095c0.35-0.031 0.381 0 0.096 0.096l-1.095 0.096-0.477-0.238-1.666-0.096c-0.349 0-0.841 0.032-1.476 0.096-0.667 0.063-1.159 0.079-1.476 0.047-0.698 0.127-1.19 0.175-1.476 0.144 0.127-0.063 0.19-0.111 0.19-0.144-1.238 0.064-2.317-0.016-3.237-0.237l-0.381-0.144c0.254-0.095 0.762-0.079 1.523 0.048 0.095 0 1.285-0.095 3.57-0.285l0.763-0.097z" fill="#B0A069"/>
				<path d="m30.752 23.537l-0.191-0.047c-0.254 0.031-0.27 0-0.047-0.096l0.333-0.19c1.523-0.476 2.539-0.698 3.047-0.666l0.096 0.523c-0.413 0.19-0.984 0.365-1.715 0.523-0.888 0.191-1.396 0.176-1.523-0.047z" fill="#B0A069"/>
				<path d="m10.042 20.824c5.046 0.635 8.998 0.777 11.854 0.428 2.824-0.316 6.808-0.809 11.949-1.476l0.333 1c-2.348 0.952-5.982 1.682-10.901 2.19-3.333 0.349-6.364 0.46-9.093 0.333-2.253-0.096-3.539-0.271-3.856-0.524-0.222-0.158-0.333-0.523-0.333-1.095l0.047-0.856z" fill="#994748"/>
					<path d="m10.328 22.775c-0.222-0.158-0.333-0.745-0.333-1.761l1.095 0.618c-0.698 0.286-0.46 0.683 0.714 1.19 0.444 0.19 1.349 0.206 2.714 0.048 0.635-0.096 1.92-0.127 3.856-0.096 2.158 0.032 3.285 0.175 3.38 0.429-1.428-0.063-2.333-0.048-2.713 0.048-2.285 0.096-4.333 0.079-6.142-0.048-1.492-0.094-2.349-0.236-2.571-0.428z" fill="#803B3C"/>
					<path d="m17.85 22.3c1.523 0.096 2.443 0.333 2.761 0.714-0.127 0.127-0.429 0.207-0.905 0.238-0.571-0.031-0.937-0.048-1.095-0.048h-2.142c0.254-0.127 0.429-0.222 0.523-0.285-0.159-0.127-0.508-0.175-1.047-0.144-0.603 0.064-1 0.096-1.19 0.096-0.906 0-1.779-0.056-2.618-0.167 0.833 0.046 1.896-0.025 3.189-0.214 1.08-0.127 1.921-0.19 2.524-0.19z" fill="#6B3132"/>
					<path d="m9.899 21.49l1.095-0.333 8.76 1.81c-1.174-0.064-1.937-0.08-2.286-0.048-0.571 0.095-1.714 0.11-3.427 0.048-1.396 0.095-2.238 0.063-2.523-0.096-0.19-0.096-0.254-0.27-0.19-0.523s0.079-0.397 0.047-0.429c-0.063-0.063-0.333-0.095-0.809-0.095h-0.667v-0.334z" fill="#59292A"/>
				<path d="m19.563 22.015l0.477-0.144 14.663-1.333-0.286 1.857c-0.063 0.189-0.349 0.396-0.856 0.618-1.016 0.444-2.65 0.73-4.904 0.857-2.253 0.127-4.396 0-6.427-0.381l-2.38-0.667-0.287-0.807z" fill="#B35255"/>
				<path d="m23.563 22.3l8.522-1.095h2.332c-1.237 0.92-2.999 1.476-5.284 1.666-1.429 0.127-2.777 0.063-4.047-0.19l-1.523-0.381z" fill="#D96859"/>
				<path d="m33.561 23.014c-1.016 0.444-2.65 0.73-4.904 0.857-2.666 0.19-5.204-0.032-7.617-0.667 0.063-0.127 0.254-0.206 0.571-0.237 0.159-0.032 0.445-0.08 0.857-0.144 0.19-0.031 0.492-0.095 0.904-0.19 0.35-0.095 0.635-0.127 0.857-0.095l0.237 0.143c-0.349 0.063-0.523 0.19-0.523 0.381 2.476 0.476 4.316 0.619 5.523 0.429 1.65-0.254 3.316-0.683 4.998-1.286l-0.048 0.191c-0.062 0.189-0.348 0.396-0.855 0.618z" fill="#994748"/>
				<path d="m31.513 22.3c0.508-0.158 1.524-0.54 3.048-1.143 0.095 0.222 0.078 0.523-0.048 0.904-0.128 0.317-0.302 0.556-0.523 0.714-0.667 0.381-1.444 0.524-2.333 0.429 0.223-0.578 0.373-0.919 0.452-1.023l-0.596 0.119z" fill="#994748"/>
				<path d="m24.229 22.538l0.81 0.095c0.761 0.032 1.666 0.063 2.713 0.096 1.65 0.063 2.872 0 3.666-0.19-0.952 0.317-2.126 0.476-3.523 0.476-0.856 0-1.729-0.079-2.618-0.238l-1.048-0.239z" fill="#F07362"/>
				<path d="m31.322 21.729l3.429-0.571-0.048 0.571h-0.667c-0.761 0-1.189 0.016-1.285 0.048-0.032 0-0.127 0.174-0.286 0.523-0.158 0.285-0.429 0.492-0.809 0.619-0.413 0.127-0.921 0.127-1.524 0-0.634-0.159-1.078-0.254-1.332-0.286-0.635-0.095-2.016 0-4.142 0.286l-3 0.476-1.667-0.285 2.618-0.477c0.478-0.095 3.381-0.397 8.713-0.904z" fill="#6B3132"/>
				<path d="m28.942 20.871c1.492-0.349 2.714-0.714 3.666-1.095 2.317 0.825 3.285 1.396 2.903 1.714-0.222 0.159-0.46 0.19-0.714 0.096-0.381-0.127-0.729-0.159-1.047-0.096-0.286 0.063-0.571 0.27-0.857 0.619-0.254 0.317-0.666 0.508-1.237 0.571-0.539 0.063-1.063 0.031-1.571-0.096-0.698-0.158-1.237-0.254-1.618-0.285-0.667-0.031-1.825 0.063-3.476 0.285-1.777 0.255-2.92 0.413-3.428 0.477-0.54 0.063-1.174 0.016-1.904-0.143-0.921-0.19-1.603-0.302-2.047-0.334-2.698 0.127-4.618 0.159-5.761 0.096-0.571-0.031-0.666-0.158-0.285-0.381 0.38-0.19 0.285-0.317-0.286-0.381-0.508-0.063-0.968-0.031-1.38 0.096-0.159 0.063-0.333-0.048-0.524-0.334-0.127-0.158 0.159-0.523 0.857-1.095l1.047-0.81c0.476 0.286 1.207 0.588 2.19 0.904 2 0.604 4.332 0.969 6.998 1.096 2.667 0.096 5.491-0.205 8.474-0.904z" fill="#90A148"/>
				<path d="m34.561 20.11c0.603 0.635 0.714 1.063 0.332 1.285-0.254 0.127-0.618 0.127-1.094 0l-0.667-0.238c-0.381 0.603-1.016 0.984-1.904 1.143-0.444 0.063-1.127 0.048-2.048-0.048-1.078-0.063-1.983-0.079-2.713-0.048-2.983 0.413-4.84 0.588-5.57 0.524-2.031-0.254-3.412-0.397-4.142-0.429-0.571-0.063-2.079-0.048-4.523 0.048-0.571 0.031-0.793-0.127-0.666-0.477l0.333-0.523c-1.587 0.158-2.38 0.127-2.38-0.096 0-0.127 0.222-0.412 0.667-0.856l0.667-0.619 23.708 0.334z" fill="#849443"/>
				<path d="m10.519 19.682c1.555 0.254 4.094 0.476 7.617 0.666 3.555 0.19 9.061 0.048 16.52-0.428l0.19 0.571c-0.413 0.38-1.222 0.745-2.428 1.095-2.443 0.762-5.682 1.126-9.712 1.095-5.205-0.031-8.855-0.46-10.95-1.285-1.015-0.381-1.523-0.777-1.523-1.19l0.286-0.524z" fill="#555E29"/>
				<path d="m22.896 11.35c4.602 0 8.062 1 10.379 2.999 1.936 1.682 2.522 3.238 1.761 4.666-0.635 1.143-1.81 2-3.523 2.571-1.872 0.635-4.538 0.968-7.998 0.999-3.745 0-6.617-0.27-8.616-0.809-2.158-0.571-3.682-1.556-4.571-2.952-1.047-1.555-0.365-3.158 2.047-4.808 2.603-1.777 6.11-2.666 10.521-2.666z" fill="#E09046"/>
				<path d="m33.322 24.442c0.603-0.19 1.063-0.302 1.381-0.334-1.587 1.777-5.523 2.714-11.807 2.809-3.015 0.064-5.761-0.254-8.236-0.951-2.095-0.635-3.316-1.302-3.666-2l-0.095-0.19 0.048-0.047c0.349 0.063 0.904 0.301 1.667 0.714 0.984 0.349 1.523 0.539 1.618 0.571 1.523 0.349 2.92 0.523 4.189 0.523 1.047 0 2.619 0.031 4.714 0.096 1.84 0.031 3.396-0.048 4.665-0.238l4.095-0.571c0.221-0.033 0.698-0.16 1.427-0.382z" fill="#42180E"/>
			<path d="m12.994 24.252c0.095 0.063 0.238 0.127 0.428 0.19-0.063-0.223-0.032-0.396 0.095-0.523s0.286-0.096 0.476 0.095l-0.381 0.429c0.19-0.032 0.333-0.016 0.429 0.047 0.127 0.096 0.159 0.223 0.095 0.382-0.381 0.222-0.698 0.206-0.952-0.048-0.203-0.229-0.385-0.356-0.547-0.381h0.453c-0.096-0.033-0.128-0.096-0.096-0.191z" fill="#632316"/>
			<path d="m35.036 19.586c0 0.698-1.016 1.365-3.047 2-2.349 0.762-5.173 1.143-8.475 1.143-3.776 0.031-6.918-0.254-9.426-0.857-2.666-0.603-3.92-1.412-3.761-2.428 0-0.127-0.111-0.508-0.333-1.143-0.19-0.571-0.206-0.952-0.048-1.143l1.333-1.809c-0.222 0.667-0.381 1.349-0.476 2.047-0.19 1.396 0.048 2.237 0.714 2.523 0.571 0.253 1.412 0.428 2.523 0.523 1.396 0.095 2.253 0.175 2.57 0.237 2.698 0.571 5.253 0.857 7.666 0.857 0.856 0 1.872-0.175 3.046-0.523 0.636-0.19 1.556-0.492 2.762-0.904 0.698-0.159 1.333-0.397 1.904-0.715 0.729-0.412 1.158-0.65 1.286-0.714 0.222-0.095 0.586-0.333 1.094-0.714 0.477-0.381 0.777-0.651 0.905-0.81 0.064 0.225-0.014 1.033-0.237 2.43z" fill="#C9813F"/>
			<path d="m35.036 19.634c-0.063 0.666-1.111 1.333-3.142 1.999-2.349 0.73-5.143 1.096-8.38 1.096-3.364 0.031-6.268-0.19-8.712-0.667-2.539-0.508-4.015-1.19-4.427-2.047 0.889 0.539 2.27 1 4.142 1.381 2.253 0.444 4.776 0.666 7.569 0.666 6.412 0 10.728-0.81 12.95-2.428z" fill="#9C6431"/>
			<path d="m34.988 19.682c0.349 0.635-0.682 1.301-3.094 1.999-2.54 0.73-5.332 1.079-8.38 1.048-3.872-0.063-7.014-0.365-9.426-0.904-2.666-0.604-3.92-1.397-3.761-2.381l0.667 0.904c0.762 0.667 1.841 1.143 3.237 1.429 1.682 0.317 3.825 0.523 6.427 0.619 2.54 0.063 4.459 0.016 5.76-0.144 2.761-0.349 4.936-0.793 6.522-1.333 0.571-0.19 1.032-0.396 1.381-0.619 0.033-0.031 0.255-0.237 0.667-0.618z" fill="#784C25"/>
		</g>
			<use opacity=".6016" style="enable-background:new" xlink:href="#flash0.ai_Assets_x5F_0_x2F_Layer_1_x2F__x3C_Path_x3E__x5F_8" transform="matrix(.9521 0 0 -.9521 9.25 11.35)" height="19" width="27.629" y="-19" x="0.021"/>
		<path fill-rule="evenodd" clip-rule="evenodd" d="m27.323 13.873c0.159-0.19 0.413-0.143 0.763 0.143 0.349 0.286 0.412 0.524 0.189 0.714-0.254 0.191-0.555 0.175-0.904-0.047-0.317-0.223-0.333-0.492-0.048-0.81z" fill="#FFC3A3"/>
		<path fill-rule="evenodd" clip-rule="evenodd" d="m26.563 16.206c0.285-0.127 0.539-0.079 0.761 0.143 0.223 0.254 0.223 0.477 0 0.667-0.189 0.158-0.412 0.095-0.666-0.19-0.255-0.318-0.287-0.524-0.095-0.62z" fill="#FFC3A3"/>
		<path fill-rule="evenodd" clip-rule="evenodd" d="m14.946 16.206c-0.254-0.476 0.063-0.857 0.952-1.143 0.857-0.254 1.396-0.111 1.619 0.429 0.254 0.539-0.063 0.904-0.952 1.095s-1.429 0.063-1.619-0.381z" fill="#FFC3A3"/>
		<path fill-rule="evenodd" clip-rule="evenodd" d="m20.04 17.92c0.317-0.096 0.523 0.079 0.619 0.523 0.127 0.413-0.063 0.635-0.571 0.667-0.54 0.031-0.809-0.127-0.809-0.477 0.031-0.348 0.284-0.586 0.761-0.713z" fill="#FFC3A3"/>
		<path fill-rule="evenodd" clip-rule="evenodd" d="m23.896 13.873c0.286-0.222 0.588-0.222 0.905 0s0.302 0.508-0.048 0.857c-0.381 0.349-0.714 0.381-1 0.095-0.285-0.317-0.238-0.634 0.143-0.952z" fill="#FFC3A3"/>
		<path fill-rule="evenodd" clip-rule="evenodd" d="m18.326 12.921c0.349 0.349 0.301 0.635-0.143 0.857-0.444 0.191-0.809 0.175-1.095-0.047-0.285-0.222-0.238-0.508 0.143-0.857 0.349-0.318 0.714-0.302 1.095 0.047z" fill="#FFC3A3"/>
		<path fill-rule="evenodd" clip-rule="evenodd" d="m31.561 14.73c0.318-0.127 0.588-0.095 0.81 0.095 0.223 0.222 0.238 0.445 0.048 0.667-0.223 0.254-0.508 0.222-0.857-0.096-0.382-0.317-0.382-0.539-0.001-0.666z" fill="#FFC3A3"/>
		<path fill-rule="evenodd" clip-rule="evenodd" d="m13.279 14.73c0.254 0.064 0.318 0.238 0.191 0.524s-0.286 0.365-0.476 0.238c-0.191-0.096-0.254-0.27-0.191-0.524 0.032-0.254 0.191-0.333 0.476-0.238z" fill="#FFC3A3"/>
</svg>
