<?xml version="1.0" encoding="UTF-8" standalone="no"?>
<svg viewBox="0 0 166.37231 168.47308" xmlns="http://www.w3.org/2000/svg">
<defs>
<linearGradient gradientUnits="userSpaceOnUse" id="linearGradient5323" x1="379.92142" x2="387.75485" y1="-298.53522" y2="-148.13335">
<stop offset="0" stop-color="#0146a8"/>
<stop offset="1" stop-color="#0146a8" stop-opacity="0"/>
</linearGradient>
<linearGradient gradientTransform="matrix(.93571,0,0,.97143,96.55326,671.01127)" gradientUnits="userSpaceOnUse" id="linearGradient3003" x1="381.89471" x2="387.75485" y1="-310.05496" y2="-147.97206">
<stop offset="0" stop-color="#edf4fd" stop-opacity=".52846"/>
<stop offset="1" stop-color="#175bb3" stop-opacity="0"/>
</linearGradient>
</defs>
<g transform="matrix(.75853,0,0,.75853,-265.26672,-270.09526)">
<path d="m497.42289-208.45078c0,60.56799-49.10005,109.66804-109.66804,109.66804s-109.66804-49.10005-109.66804-109.66804 49.10006-109.66803 109.66804-109.66803 109.66804,49.10005 109.66804,109.66803z" fill="#103683" transform="matrix(1,0,0,1.01263,71.62617,678.21433)"/>
<path d="m497.42289-208.45078c0,60.56799-49.10005,109.66804-109.66804,109.66804s-109.66804-49.10005-109.66804-109.66804 49.10006-109.66803 109.66804-109.66803 109.66804,49.10005 109.66804,109.66803z" fill="url(#linearGradient5323)" transform="matrix(.93571,0,0,.97143,96.55326,671.01127)"/>
<g transform="matrix(.85187,0,0,.85187,-241.81265,5.45997)">
<path d="m820.66998,454.65031a16.35454,12.35406 0 0,0 -6.3125,1.21875 16.35454,12.35406 0 0,0 -7.03125,4.90625l-68.40625,88.78125a16.35454,12.35406 0 0,0 7.75,17.59375l61.4375-79.71875a16.35454,12.35406 0 0,1 7.03125-4.9375 16.35454,12.35406 0 0,1 21.3125,5l60.25,79.53125a16.35454,12.35406 0 0,0 6.5-17.03125l-67.53125-89.125a16.35454,12.35406 0 0,0 -15-6.21875z" fill="#eee"/>
<path d="m820.34375,187.125a10.05069,7.84926 0 0,0 -3.875.75 10.05069,7.84926 0 0,0 -4.34375,3.125l-42.03125,56.40625a10.05069,7.84926 0 0,0 -.40625.5625c-.01.0143.01.0481 0,.0625a10.05069,7.84926 0 0,0 -.0937.0937c-1.22731,1.8742-1.90625,4.11355-1.90625,6.53125v49.03125c0,6.59775 5.28309,11.90625 11.875,11.90625h24.5625v-42.90625c0-6.59775 5.28309-11.90625 11.875-11.90625h9.125c6.59191,0 11.875,5.3085 11.875,11.90625v42.90625h24.53125c6.59191,0 11.90625-5.3085 11.90625-11.90625v-49.03125c0-3.11645-1.21203-5.91297-3.15625-8.03125l-40.75-55.5625a10.05069,7.84926 0 0,0 -9.1875-3.9375z" fill="#eee" transform="translate(0,308.2677)"/>
<path d="m781.38479,469.5549a11.35848,18.43063 0 0,1 11.35848,18.43064v2.30589a11.35848,18.43063 0 0,1 -11.35848,18.43063 11.35848,18.43063 0 0,1 -11.35848-18.43063v-2.30589a11.35848,18.43063 0 0,1 11.35848-18.43064" fill="#eee"/>
</g>
<path d="m459.37617,361.96701c-56.67433,0-102.625,47.72503-102.625,106.5625 0,3.7524.1979,7.44146.5625,11.09375 50.06658,18.72599 126.58171,32.36872 204.6875-10.59375 .00074-.16695 0-.33287 0-.5 0-58.83747-45.95067-106.5625-102.625-106.5625z" fill="url(#linearGradient3003)"/>
</g>
</svg>
