<?xml version="1.0" encoding="UTF-8" standalone="no"?>
<svg viewBox="0 0 1052.3622 744.09448" xmlns="http://www.w3.org/2000/svg">
<defs>
<linearGradient gradientTransform="matrix(1.29108,5.022217e-2,3.814671e-2,.77603,0,0)" gradientUnits="userSpaceOnUse" id="linearGradient2328" x1="339.31155" x2="554.81445" y1="552.67712" y2="530.9187">
<stop offset="0" stop-color="#171717"/>
<stop offset="1" stop-color="#171717" stop-opacity="0"/>
</linearGradient>
<linearGradient gradientTransform="matrix(1.56173,0,0,.64031,-7.06656,7.20662)" gradientUnits="userSpaceOnUse" id="linearGradient2330" x1="48.35589" x2="633.30035" y1="677.49908" y2="658.29114">
<stop offset="0" stop-color="#d7c8c8"/>
<stop offset="1" stop-color="#d7c8c8" stop-opacity="0"/>
</linearGradient>
<radialGradient cx="596.08967" cy="555.61865" gradientUnits="userSpaceOnUse" id="radialGradient2332" r="22.40412">
<stop offset="0" stop-color="#f1e6e6"/>
<stop offset="1" stop-color="#f1e6e6" stop-opacity="0"/>
</radialGradient>
<radialGradient cx="354.03394" cy="593.12445" gradientTransform="scale(1.10195,.90748)" gradientUnits="userSpaceOnUse" id="radialGradient2334" r="10.17005">
<stop offset="0" stop-color="#f7f6ec"/>
<stop offset="1" stop-color="#f7f6ec" stop-opacity="0"/>
</radialGradient>
</defs>
<g transform="matrix(1.08761,0,0,1.04146,117.7994,-211.081)">
<path d="m156.64315,353.01188c3.2943-6.24571 16.26216-12.08975 21.24355-17.07396 4.1065-4.10878 22.09113-1.12954 30.07275-.81908 12.12858.47181 32.95085,15.23124 45.13193,19.65597 4.70571,1.70934 9.51704,3.02212 14.27555,4.53317 17.09589,5.42877 30.82104,15.11279 47.14333,19.73421 11.92386,3.37608 24.88333,12.18287 36.98844,17.35028s27.50281,8.42627 40.71735,11.52851c13.71324,3.21933 26.72266,11.02517 38.99982,17.42851 13.57666,7.08111 28.49664,11.50717 42.92466,15.59226 13.38398,3.78948 24.6388,9.93826 34.87911,15.27926 10.04998,5.24173 22.41155,10.27552 32.76979,13.20832 9.98741,2.82777 23.16221,12.0806 32.96571,17.19376 10.75463,5.60925 21.12599,13.53878 31.15023,21.10102 8.73368,6.58863 15.46981,12.169 18.984,18.63878 3.5598,6.55372 3.74773,20.87574 5.29616,26.06205 1.66574,5.57909 23.36591,13.15766 26.83361,14.96631 8.52917,4.44849 12.62395,12.36683 17.07059,20.55331 4.70855,8.66866 11.77555,12.80623 15.2551,24.46051 3.21028,10.75237 2.2383,17.21829-.83589,23.83459-3.02765,6.51601-18.20435,10.55557-23.45089,13.0102-8.50934,3.98118-12.32009,8.14551-17.41672,13.24496-7.46028,7.46446-10.54092,7.26116-15.20941,17.30869-2.2539,4.85075-13.43629,9.26229-17.41674,13.24495-4.83066,4.83337-15.5491,11.34015-23.45086,13.01022-9.28173,1.96176-15.46265,6.79165-25.65815,8.94652-12.3805,2.61669-18.00149,7.25545-31.79025,6.71905-12.6917-.49372-26.58391-9.98196-36.8905-15.3575-12.23902-6.38345-25.27949-9.30163-36.8905-15.35754-10.63206-5.54532-24.37205-8.82831-32.76979-13.20829-10.87399-5.6715-18.99674-8.69469-30.5625-9.14459-11.69504-.45496-27.10867-6.20168-38.60803-9.45755-15.12958-4.28374-28.90199-6.33691-42.82667-13.59955-14.11634-7.36256-30.47584-14.03253-43.0226-17.58497-13.4538-3.80924-27.85085-12.85544-39.19573-21.41396-11.65458-8.79214-21.9355-18.46686-33.45549-27.15746-12.25061-9.2418-23.58596-15.87426-33.25956-23.17199-16.07877-12.1297-24.84698-30.08481-40.37122-45.32677-13.52347-13.27758-18.47827-11.95099-23.49653-28.75897-2.96849-9.94255-3.18987-24.00123-5.59004-32.04026-3.52293-11.79958-2.28112-19.30869-9.31893-26.2185-11.075-10.87364-14.51864-7.01199-19.17991-22.6243-3.56612-11.94423-8.23588-22.59099-11.72213-34.26769-4.13025-13.83374-1.32985-23.37684 8.78348-25.51436 10.18357-2.15237 20.06954-2.73174 29.87681-4.80457 10.9563-2.31567 22.98999,2.5793 32.37798,5.23736 9.72575,2.75371 17.84797,6.44835 28.64909,11.05909z" fill="url(#linearGradient2328)" fill-rule="evenodd" opacity=".34409"/>
<path d="m178.90821,318.58182h22.11212c9.77859,0 19.98184,1.00138 29.1478,1.00138 11.10746,0 33.74597,11.30293 43.21916,16.02198 9.99953,4.98125 20.45651,7.18625 30.15289,12.01649 14.55786,7.25197 32.72034,15.58904 48.24464,19.0261 26.69267,5.90973 48.05141,23.63501 73.37204,32.04396 17.91264,5.94877 36.20233,13.74118 53.27012,21.02886 14.54032,6.20848 28.41661,8.43189 42.21406,17.02335 18.80438,11.70921 35.51681,19.02864 54.2752,33.04534 4.61129,3.44566 9.38091,6.67582 14.07136,10.01374 9.80837,6.98003 18.13131,17.28355 29.1478,20.02747 6.02855,1.50155 7.9697,10.66106 9.04587,16.02198 1.31424,6.54684 3.72252,13.5368 5.02548,20.02748 1.70745,8.50564 1.0051,18.33606 1.0051,27.0371 0,5.94233.66996,10.68091 2.01019,16.02197 1.48749,5.92792 1.00509,12.61551 1.00509,19.02611 0,7.71266-.53919,14.70251-2.01018,22.03023-1.32987,6.62466-6.365,14.3524-11.05607,19.02609-6.67078,6.64609-12.9089,12.29163-20.10193,18.02474-8.85255,7.05581-16.41523,10.17997-26.13251,15.0206-7.6573,3.81447-16.23445,5.86891-24.12232,9.01237-11.84764,4.7215-19.67664,7.00962-33.16818,7.00962-22.8625,0-37.03538-6.95874-58.2956-14.01924-20.47211-6.79876-40.18845-17.35203-60.30579-24.03297-15.45482-5.13253-33.3735-10.85575-49.24973-14.01923-25.24632-5.03056-50.48492-21.11482-74.37715-30.04121l-8.04077-3.00413c-16.98268-6.34492-34.94592-17.57786-52.26502-21.02885-9.80229-1.9532-21.51312-11.68607-29.1478-18.02473-13.13702-10.90697-34.97108-32.64271-51.25992-38.05221-6.75832-2.24442-17.82402-13.3185-24.12232-18.02472-9.52528-7.1175-14.00834-21.19523-18.09174-32.04397l-3.01529-8.01099c-3.67519-9.7642-8.7416-18.23592-6.03058-29.03985 1.10789-4.41514-.01849-9.65539 4.02039-15.0206 3.12041-4.14514 5.61912-7.7982 8.04078-11.01511 2.87396-3.81777 3.69092-5.68001 7.03567-9.01237 3.01528-3.00412 6.48731-5.61359 9.04587-9.01236 3.76005-4.99484 5.68903-10.22762 10.05096-16.02199 3.14213-4.17399 8.82071-9.56507 11.05607-14.01923 2.2072-4.39805 5.47376-9.12753 7.03567-13.01786 1.89994-4.73225 6.90877-5.8818 11.05607-10.01374 3.27073-3.25862 6.69088-9.55572 10.05096-14.01923 8.26203-10.97523 7.01645-9.01237 16.08154-9.01237z" fill="#d59558" fill-rule="evenodd"/>
<path d="m173.0532,360.93174c-.11072-1.87769 2.30234-11.74279 4.02038-16.02199 2.31868-5.77521 14.1073-4.00549 19.09684-4.00549 5.94633,0 15.80287,11.19605 23.11722,13.01786 7.50205,1.86856 15.60476,1.13297 23.11722,3.00412 10.11434,2.51923 17.99712,15.32298 29.1478,19.02611 10.67563,3.54536 23.0305,2.00274 34.17327,2.00274 9.33295,0 16.23187,9.01236 27.13762,9.01236 14.17001,0 35.5596,6.69885 48.24463,13.01787 16.81215,8.37494 30.96022,16.18285 50.25482,20.02747 7.4386,1.48222 16.5481,11.47994 22.11213,17.02336 8.31353,8.28274 17.77141,7.43052 28.14271,10.01373 15.79548,3.93425 30.83213,11.26889 46.23444,17.02337 10.47937,3.91521 18.40536,3.05381 27.1376,10.01374 5.68651,4.53236 13.22384,9.16936 19.09683,15.0206 9.03043,8.99698 15.27987,7.35831 5.02549,15.02061-1.28459.95987-2.78998,11.56754-3.0153,12.01649-1.74039,3.46788-5.26793,7.49273-7.03567,11.0151-2.50927,4.99995-2.50287,7.99134-5.02548,13.01786-7.65378,15.25088-41.02615,24.23779-56.28541,28.03847-44.18862,11.00624-116.66473-37.57899-160.81544-54.07418-31.18023-11.64928-55.89812-35.953-88.4485-44.06045-27.44466-6.83576-73.34871-48.04269-94.47907-69.0948-8.14996-8.11978.00027-27.03763 4.02038-35.04808 1.05947-2.11109 3.35032-3.33792 5.02549-5.00687z" fill="#bdaf3d" fill-rule="evenodd"/>
<path d="m173.88274,364.64503c-.11072-1.87769 2.30234-11.74279 4.02038-16.02199 2.31868-5.77521 14.1073-4.00549 19.09684-4.00549 5.94633,0 15.80287,11.19605 23.11722,13.01786 7.50205,1.86856 15.60476,1.13297 23.11722,3.00412 10.11434,2.51923 17.99712,15.32298 29.1478,19.02611 10.67563,3.54536 23.0305,2.00274 34.17327,2.00274 9.33295,0 16.23187,9.01236 27.13762,9.01236 14.17001,0 35.5596,6.69885 48.24463,13.01787 16.81215,8.37494 30.96022,16.18285 50.25482,20.02747 7.4386,1.48222 16.5481,11.47994 22.11213,17.02336 8.31353,8.28274 17.77141,7.43052 28.14271,10.01373 15.79548,3.93425 30.83213,11.26889 46.23444,17.02337 10.47937,3.91521 18.40536,3.05381 27.1376,10.01374 5.68651,4.53236 13.22384,9.16936 19.09683,15.0206 9.03043,8.99698 15.27987,7.35831 5.02549,15.02061-1.28459.95987-2.78998,11.56754-3.0153,12.01649-1.74039,3.46788-5.26793,7.49273-7.03567,11.0151-2.50927,4.99995-2.50287,7.99134-5.02548,13.01786-7.65378,15.25088-41.02615,24.23779-56.28541,28.03847-44.18862,11.00624-116.66473-37.57899-160.81544-54.07418-31.18023-11.64928-55.89812-35.953-88.4485-44.06045-27.44466-6.83576-73.34871-48.04269-94.47907-69.0948-8.14996-8.11978.00027-27.03763 4.02038-35.04808 1.05947-2.11109 3.35032-3.33792 5.02549-5.00687z" fill="#e0c93d" fill-rule="evenodd"/>
<path d="m174.02302,366.59454c-.11072-1.87769 2.30234-11.74279 4.02038-16.02199 2.31868-5.77521 14.1073-4.00549 19.09684-4.00549 5.94633,0 15.80287,11.19605 23.11722,13.01786 7.50205,1.86856 15.60476,1.13297 23.11722,3.00412 10.11434,2.51923 17.99712,15.32298 29.1478,19.02611 10.67563,3.54536 23.0305,2.00274 34.17327,2.00274 9.33295,0 16.23187,9.01236 27.13762,9.01236 14.17001,0 35.5596,6.69885 48.24463,13.01787 16.81215,8.37494 30.96022,16.18285 50.25482,20.02747 7.4386,1.48222 16.5481,11.47994 22.11213,17.02336 8.31353,8.28274 17.77141,7.43052 28.14271,10.01373 15.79548,3.93425 30.83213,11.26889 46.23444,17.02337 10.47937,3.91521 18.40536,3.05381 27.1376,10.01374 5.68651,4.53236 13.22384,9.16936 19.09683,15.0206 9.03043,8.99698 15.27987,7.35831 5.02549,15.02061-1.28459.95987-2.78998,11.56754-3.0153,12.01649-1.74039,3.46788-5.26793,7.49273-7.03567,11.0151-2.50927,4.99995-2.50287,7.99134-5.02548,13.01786-7.65378,15.25088-41.02615,24.23779-56.28541,28.03847-44.18862,11.00624-116.66473-37.57899-160.81544-54.07418-31.18023-11.64928-55.89812-35.953-88.4485-44.06045-27.44466-6.83576-73.34871-48.04269-94.47907-69.0948-8.14996-8.11978.00027-27.03763 4.02038-35.04808 1.05947-2.11109 3.35032-3.33792 5.02549-5.00687z" fill="#e3cf55" fill-rule="evenodd"/>
<path d="m297.30597,520.24725c3.6616,1.79437 1.71637.84112 0,0-44.67954-21.89523 40.73272,15.01912 52.4401,20.75633 21.51677,10.54431 43.13434,17.45965 65.55013,25.6983 30.11742,11.0693 69.94794,20.99414 96.81249,38.54746 11.70096,7.64542 34.03483,15.81435 47.39778,15.81435 8.43559,0 21.17699,1.9766 29.24545,3.95358 7.05271,1.72809 15.4936.9884 23.19466.9884 5.56098,0 11.08904.24809 16.13542-.9884 4.14899-1.01661 10.04226-3.43863 13.11002-4.94198 5.56608-2.72767 7.27691-2.40347 10.08464-7.90717 2.98207-5.84547 7.05923-14.31121 7.05923-21.74473 0-6.14459 1.00847-13.23624 1.00847-19.76791 0-8.16329-1.44069-14.6848-5.04232-21.74473-3.18519-6.24363-9.86805-11.14035-16.13542-14.82594-10.62868-6.25031-19.9311-9.27306-31.26237-14.82595-10.4275-5.11001-25.17719-8.14584-36.30468-10.87237-10.99007-2.69285-23.66804-8.68579-34.28776-12.84915-20.47525-8.02712-39.20035-16.76036-60.5078-23.72151-24.68104-8.0633-48.49072-18.81058-72.60938-27.6751-1.13485-.4171-2.01693-1.31785-3.02539-1.97678-23.06795-15.07263-58.13772-23.85557-83.70247-34.59388-19.86194-8.34287-40.23947-14.2832-59.49933-23.72151-12.97828-6.36-27.32041-10.7107-40.33856-15.81435-13.00407-5.09813-28.26637-7.92157-40.33853-13.83754-12.01534-5.88813-24.74112-7.18242-36.30468-12.84916-8.46421-4.14789-13.70103-10.52297-23.19466-12.84915-7.24531-1.77528-13.19762-5.21054-20.16928-6.91877-7.90269-1.93636-12.64574,2.38781-19.1608,4.94198-6.13859,2.40657-10.39322,6.23282-15.12695,10.87235-3.45988,3.39104-5.04232,9.45839-5.04232,13.83755 0,5.92489-.48197,10.91601 2.01693,15.81435 2.55231,5.00303 2.37232,11.56899 5.04232,16.80274 3.0565,5.99136 6.25891,9.56501 10.08464,15.81434 3.67915,6.0099 8.46785,10.51463 14.11849,13.83755 8.724,5.13025 19.18355,13.1972 27.22851,19.76792 2.38086,1.94457 4.70615,3.9536 7.05925,5.93038 26.46451,22.23249 58.15622,39.20786 82.694,63.25736 17.58943,17.23943 80.51969,50.36966 104.8802,56.3386 3.77106.92401 1.57173-13.60612 1.00846-15.81433-1.55381-6.09159-5.32629-11.01154-11.0931-13.83755-2.52858-1.23915-2.49694-6.30594-3.02538-8.89558z" fill="#c54d58" fill-rule="evenodd"/>
<path d="m311.93535,521.36789c3.33801,1.59732 1.56469.74874 0,0-40.73101-19.49073 37.13299,13.36974 47.80575,18.47689 19.61524,9.38634 39.32237,15.54226 59.75718,22.87615 27.45581,9.85368 63.76633,18.68859 88.25674,34.31423 10.6669,6.80581 31.02703,14.07764 43.20903,14.07764 7.69011,0 19.30549,1.75954 26.66091,3.5194 6.42942,1.53832 14.12436.87986 21.14484.87986 5.06954,0 10.10906.22083 14.70946-.87986 3.78234-.90497 9.15479-3.061 11.95143-4.39926 5.07419-2.42812 6.63382-2.13952 9.19342-7.03882 2.71853-5.20352 6.43538-12.73956 6.43538-19.35674 0-5.46981.91935-11.78266.91935-17.59703 0-7.26681-1.31338-13.07213-4.59671-19.35676-2.9037-5.55795-8.99598-9.91692-14.70946-13.19777-9.68938-5.56391-18.16971-8.2547-28.49958-13.19777-9.50598-4.54883-22.95217-7.25129-33.09628-9.67838-10.01882-2.39712-21.57639-7.73194-31.2576-11.43808-18.66577-7.14559-35.73605-14.91976-55.16046-21.11644-22.49987-7.1778-44.20539-16.74483-66.19258-24.63587-1.03455-.37128-1.83868-1.17312-2.75802-1.75968-21.02933-13.41738-52.99983-21.23579-76.30531-30.79483-18.10666-7.42667-36.68333-12.71463-54.24112-21.11645-11.83133-5.66155-24.90598-9.53446-36.77366-14.07763-11.85485-4.53826-25.76836-7.05164-36.77365-12.31792-10.95348-5.2415-22.55463-6.39365-33.09627-11.43808-7.71618-3.69237-12.4902-9.36736-21.14484-11.43807-6.60501-1.58033-12.03129-4.63833-18.38683-6.15896-7.2043-1.72372-11.52819,2.12558-17.46748,4.39926-5.5961,2.14228-9.47474,5.54834-13.79013,9.67836-3.15412,3.01864-4.5967,8.41968-4.5967,12.31793 0,5.27423-.43938,9.71722 1.83868,14.07764 2.32675,4.45359 2.16267,10.2985 4.59671,14.95747 2.78638,5.3334 5.70579,8.5146 9.19342,14.07763 3.354,5.34991 7.7195,9.35993 12.87078,12.31794 7.95302,4.56684 17.48821,11.7479 24.8222,17.59702 2.17045,1.73102 4.29025,3.51943 6.43539,5.27912 24.12573,19.79094 53.01669,34.90211 75.38597,56.31052 16.03498,15.34622 73.40381,44.83814 95.61148,50.15157 3.4378.82253 1.43282-12.11193.91933-14.07763-1.41649-5.42262-4.85557-9.80226-10.11275-12.31791-2.30512-1.10307-2.27627-5.61344-2.75802-7.91869z" fill="#c93d4a" fill-rule="evenodd" opacity=".82258"/>
<path d="m121.61771,424.72746-1.00509-1.00138c-6.9915-6.9656-13.08236-29.00776-8.04078-39.05358 2.34823-4.67906 10.17191-6.78939 15.07645-8.01099 6.19945-1.54413 8.4529-.59077 12.06116,3.00412 4.32507,4.30905 9.12233,8.31847 14.07135,12.01649 4.39014,3.28041 8.57239,6.64134 14.07136,8.01099 3.64473.90781 10.09882,5.03071 14.07135,7.00961 5.24162,2.61111 14.31613,1.69976 20.10192,4.0055 7.43836,2.96433 14.13334,5.06863 20.10193,11.01511 27.77994,27.67705-5.41781-5.56055 24.12232,16.02199 6.01537,4.39493 14.49118,5.71669 21.10703,9.01236 9.25498,4.61035 16.12705,7.04362 24.12231,13.01786 6.26205,4.67914 7.68463,10.14305 17.08664,12.01649 9.46826,1.88664 21.47343.27378 29.1478,6.00824 8.6556,6.46765 15.84597,3.77079 23.11722,11.01511 6.73954,6.71458 16.15561,12.82285 23.11722,18.02473 3.96198,2.96047 14.85287,4.00549 21.10704,4.00549 11.43011,0 21.83997,2.43566 32.16308,5.00687 6.71301,1.67204 11.33635,5.46666 16.08155,9.01237 6.09744,4.55615 14.3292,4.65769 21.10703,6.00824 7.7034,1.53497 14.62965,2.51455 22.11212,4.0055 7.94841,1.58379 16.25689,3.43961 24.12232,5.00687 8.03582,1.60121 13.95741,6.78259 17.08663,13.01786 1.20864,2.40831-8.65103,4.81018-11.05605,6.00824-10.093,5.02781 10.78002,13.74422 15.07645,18.02473 2.64456,2.63477-6.82454,7.80062-8.04078,9.01236-5.94802,5.926-9.35895,9.59103-19.09684,12.01649-18.19148,4.53103-25.11045,9.01236-45.22934,9.01236-56.36811,0-106.85599-29.69782-155.78996-54.07418-42.41037-21.12665-85.42162-31.04028-130.66255-40.05495-31.34148-6.24509-39.49602-34.12002-53.27011-56.07694-1.4316-2.28206-2.68026-4.67308-4.02039-7.00962-2.46045-4.28984-4.02039-8.18724-4.02039-14.01924v-11.0151z" fill="#ada92f" fill-rule="evenodd"/>
<path d="m536.72258,570.92803c2.8927,2.36117 8.84293,8.60799 11.05606,13.01786 2.45241,4.88665 9.23148,11.20004 13.06625,15.02061 3.79211,3.77807 6.51352,8.65252 9.04588,12.0165 2.61773,3.47737 2.23646,7.23504 6.03057,11.0151 2.23327,2.225 8.74409,3.1793 12.06117,4.0055 4.73845,1.18023 5.68333,3.00412 12.06115,3.00412 5.20664,0 10.85456,1.60183 14.07135,4.0055 6.1731,4.61267-4.91786,12.43675-7.03567,14.01923-3.51107,2.62355-8.12061,6.04801-12.06116,8.01099-4.67844,2.33055-9.45791,3.71007-14.07135,6.00825-5.16597,2.5734-9.66314,4.65993-15.07645,6.00824-5.4662,1.36149-11.26398,4.60975-16.08154,7.00961-3.58675,1.78673-11.97845,1.00138-16.08155,1.00138h-20.10193c-5.57728,0-11.00777-1.74038-16.08154-3.00413-6.71798-1.67327-13.66442-1.4007-20.10194-3.00412-7.47294-1.86131-15.898-5.134-23.11722-8.01098-6.00809-2.39434-12.06283-4.00633-18.09173-7.00963-9.22851-4.59715-19.6768-7.53601-30.15289-11.0151-6.32366-2.10008-12.36326-4.15598-18.09175-7.00962-8.36807-4.16854-17.62186-7.89396-26.13251-10.01374-7.93292-1.97589-18.99296-6.74725-26.1325-11.01511-7.79694-4.66084-20.06689-9.00364-28.14271-11.01512-7.79995-1.94276-15.88203-6.40954-23.11722-10.01374-7.2616-3.61734-16.76332-7.17943-24.12231-9.01236s-12.75955-7.18357-20.10194-9.01237c-6.46332-1.60984-13.22768-7.44233-21.10702-9.01236-6.52766-1.30069-12.27762-6.42032-17.08665-10.01374-6.82665-5.10103-15.41623-6.01179-22.11212-11.01511-5.55418-4.1502-12.51932-7.46609-17.08664-12.01649-3.53042-3.51733-9.59696-5.66899-14.07135-9.01236-5.53772-4.1379-11.21429-6.62716-17.08665-11.01512-6.33857-4.73632-9.90428-10.72715-17.08663-15.0206-6.64048-3.96954-8.31243-10.28439-13.06626-15.02061-4.69161-4.67424-5.20552-12.37522-8.04077-18.02473-2.67284-5.32589-3.69274-13.20316-6.03058-19.0261-1.74017-4.33432 1.07707-11.30194 2.01019-15.02061 1.297-5.16881 1.77795-10.08959 3.01529-15.02061 1.67034-6.65659 10.05345-7.34423 15.07644-9.01236 .63569-.21111-1.34012,0-2.01018,0-19.11906,0 16.36833-4.0055 23.11722-4.0055 6.75889,0 14.00912,3.9435 18.09173,8.01099 3.31807,3.30578 9.93168,6.72956 15.07645,8.011 8.35437,2.08085 13.34347,7.51769 22.11212,10.01374 6.60653,1.88058 13.35908,5.15273 19.09684,8.01099 7.41151,3.69203 14.83631,5.38793 22.11212,9.01236l26.13252,13.01786c6.7996,3.38721 16.63353,6.14573 24.12232,8.01099 8.33617,2.07632 15.62609,7.02839 23.11722,10.01374 8.71325,3.47239 16.96405,5.94718 25.1274,10.01374 10.62617,5.2934 25.55164,8.22231 35.17839,13.01785 8.76973,4.36864 19.63283,5.54089 27.1376,13.01786 4.42144,4.40507 19.2506,7.5486 25.12742,9.01238 7.70776,1.91979 14.60018,5.2703 22.11212,9.01236 8.10489,4.03744 18.43919,7.84719 27.1376,10.01373 7.80707,1.94454 16.05088,5.99297 22.11213,9.01237 5.55194,2.76569 10.30837,4.05679 15.07645,5.00686 5.86563,1.16879 9.8964,2.42645 15.07645,5.00687 5.32291,2.65161 11.75801,3.85449 16.08153,6.00825 3.35027,1.66893 3.3982,2.15534 8.04078,4.00549z" fill="#c6652e" fill-rule="evenodd"/>
<path d="m69.79135,332.37472c5.09555,2.83013 22.3871,13.47964 31.53145,15.76573 29.10505,7.27626 57.57507,24.54672 86.71149,35.47288 15.2548,5.72055 34.99228,13.79501 51.23861,13.79501 21.85508,0 57.38876,20.4434 78.82863,27.59002 16.86361,5.6212 31.6135,13.08676 49.26789,19.70715 17.05116,6.39419 32.48618,12.99448 49.2679,19.70716 14.72844,5.89138 28.50952,11.12349 41.38502,19.70716 4.16262,2.77508 9.19668,3.94143 13.79501,5.91215 8.95936,3.83972 12.35926,6.17962 19.70716,9.85357 6.17793,3.08897 12.61828,8.27986 19.70716,11.8243 8.22433,4.11217 16.32934,6.19395 23.64859,9.85358 6.64952,3.32476 17.85295,3.94143 27.59002,3.94143 7.26157,0 19.69186,4.43028 25.6193,5.91215 18.07243,4.5181 9.17452,12.97941-1.97071,15.76572-12.76412,3.19103-17.52448,4.04741-29.56074-1.97071-9.31891-4.65946-17.6193-5.8243-25.6193-11.8243-8.70378-6.52783-21.08175-8.57015-31.53146-13.79501-11.42261-5.71131-20.16575-8.11216-31.53145-13.79501-10.23754-5.11877-17.54735-6.80296-27.59002-11.82429-12.113-6.0565-26.75509-11.26317-39.41431-13.79501-14.60184-2.92037-40.93575-18.67002-57.15076-25.61931-16.81415-7.20606-36.45202-14.38498-53.20932-17.73644-31.88925-6.37785-63.48038-25.10156-94.59435-35.47288-15.3564-5.1188-32.29931-7.79586-47.29718-13.79501-15.29343-6.11737-29.85155-13.51719-45.32646-19.70716-13.45473-5.38189-17.86052-8.96127-29.56074-17.73644-6.49997-4.87497-5.91785-7.85436-3.94143-17.73644z" fill="url(#linearGradient2330)" fill-rule="evenodd" opacity=".22043"/>
<path d="m125.10148,361.2942c4.0827.30216 12.08548-3.51086 18.09174-5.00687 5.43269-1.35314 11.33491-1.00137 17.08664-1.00137 5.95024,0 7.20178,10.67571 8.04077,14.01923 1.44851,5.77257 7.4154,5.85248 12.06116,7.00962 7.2737,1.81169 17.50274,0 25.12741,0 6.95488,0 12.65034,2.72097 19.09684,4.0055 6.25183,1.24573 5.90028,7.52887 5.02548,11.0151-1.65901,6.61148-6.03185,5.00184-4.02039,13.01787 .88066,3.50958 15.45212,2.00274 18.09174,2.00274h22.11212 26.13252c7.13293,0 7.24987,4.15326 6.03057,9.01237-1.47107,5.86251-8.29901,5.98046-6.03057,15.02061 .25822,1.02907 20.3022,3.55469 22.11212,4.00549 7.2975,1.81762 17.61206,0 25.12742,0h30.15289c8.19079,0 15.13255-.77779 17.08665,7.00962 1.65718,6.6042-2.49397,9.08718-1.0051,15.0206 1.66033,6.61676 9.93623,9.48449 16.08154,11.01512 2.77704.69169 5.36052,2.00275 8.04078,3.00412 7.85569,2.93498 18.85484,1.00137 27.1376,1.00137 12.4131,0 22.40653,1.07471 34.17327,4.0055 6.45525,1.60783 3.65496,13.74601 2.0102,17.02336-.11746.23406 14.01774,2.49007 28.14271,6.00823 18.29763,4.55748 37.05761,8.38545 55.2803,12.0165 7.54036,1.50248 17.07998.97481 19.09684,9.01236 1.65344,6.58925-.24092,6.24827-4.02039,10.01374-2.84983,2.83927-12.08259,4.01083-16.08155,5.00687-7.86086,1.95794-12.86053-.67813-20.10192-5.00687-7.06435-4.22292-11.87449-7.21347-19.09683-9.01236-7.80277-1.94348-16.90979-1.00138-25.12742-1.00138-9.03829,0-17.39734,1.74056-26.13251,0-6.00932-1.19741-10.01902-10.95146-12.06116-15.02061-2.08921-4.16295 1.73608-10.10477 1.0051-13.01786-.97958-3.90382-20.55359-2.00275-23.11722-2.00275-8.36605,0-17.05566,2.01047-25.12742,0-9.03872-2.25131-18.77076-4.84443-27.1376-9.01236-6.40607-3.19117-6.2275-3.78889-8.04077-11.01511-1.53158-6.10363-1.79498-9.15608-3.01529-14.01923-1.17171-4.66948-3.30685-6.00825-9.04587-6.00825h-20.10193-19.09684c-8.44737,0-12.69897-1.16024-20.10193-3.00412-5.63827-1.40435-10.74919-1.84989-15.07645-4.0055-5.66898-2.824-12.06116-3.78256-12.06116-10.01373 0-6.87614 5.29129-7.48138 2.0102-14.01924-.95197-1.89691-11.99878-2.00275-15.07645-2.00275h-20.10193-19.09684c-6.83459,0-11.54546-4.49309-15.07645-8.01099-3.13455-3.12294-2.01018-9.11913-2.01018-14.01923 0-7.49422-9.38148-4.58978-15.07646-6.00825-6.27488-1.5629-14.0397.20659-20.10193-1.00137-7.04825-1.40442-12.50507-2.77045-14.07135-9.01237-1.41911-5.65545-1.65269-6.41988-8.04077-8.01098-6.09229-1.51743-10.79529,1.00137-16.08154,1.00137-7.63065,0-9.04587,3.11102-9.04587-6.00824 0-3.80028-.62215-1.75482 5.02548-4.0055z" fill="#ffe422" fill-rule="evenodd"/>
<path d="m626.6876,557.71252a34.48753,33.50217 0 1,1 -68.97505,0 34.48753,33.50217 0 1,1 68.97505,0z" fill="url(#radialGradient2332)" fill-rule="evenodd" opacity=".34946" transform="translate(8.36103,2.78702)"/>
<path d="m137.6264,424.22312c-6.847-8.02572-18.11891-14.87026-30.71664-14.21415-3.5401.18437-.02247,32.55264.23955,36.88667 .99493,16.45673 9.64768,28.46636 17.93889,33.32919 10.66326,6.25407 23.06052,19.84958 31.51085,27.35105 24.28408,21.55728 46.01647,45.99549 73.41945,62.06751 31.23864,18.3217 72.92701,32.39148 105.88079,39.29171 42.26239,8.84942 90.2203,14.52781 131.19937,30.06609 17.26041,6.5448 35.68717,3.29976 52.2256,7.82268 9.40912,2.57316 22.12209-1.15215 31.74783-1.65348 13.2526-.6902 18.72932-3.73089 22.85781-17.00439 5.23624-16.8349-13.19783-20.40491-21.27198-22.61308-13.48202-3.68695-22.26064-12.01879-36.51052-11.27664-15.79914.82284-29.67082-1.09034-45.79635-.2505-30.00436,1.56267-63.32449-29.14551-91.99111-40.01513-18.00046-6.82536-36.8911-25.24383-55.79827-33.99305-13.40125-6.20147-27.08381-12.85411-37.1459-21.78632-12.15358-10.78892-19.96755-15.51239-31.19317-22.09629-15.33511-8.99411-33.102-14.34606-49.21018-23.7936-12.99771-7.62324-28.52839-11.65811-38.9713-19.05554-8.20273-5.81056-17.36723-1.23704-28.41472-9.06273z" fill="#b85828" fill-rule="evenodd" opacity=".33333"/>
<path d="m126.4092,464.95885c-9.35712-13.57235-10.66765-17.17508 4.82626-17.67652 18.25613-.59084 42.69685,15.28238 61.88068,19.41107 11.30105,2.43217 32.04176,11.42308 43.46995,18.0602 16.46864,9.56447 36.56327,16.36581 52.16395,21.67224 16.4098,5.58168 33.14644,9.04758 49.67076,15.91284 17.53365,7.28459 33.05531,10.58422 50.50181,17.83264 15.99167,6.64395 28.67498,8.03058 42.6389,16.14039 12.56258,7.29594 30.06795,11.69397 41.80783,14.22058 11.26866,2.42522 26.68015,10.29737 36.53392,14.39128 13.99044,5.81251 24.2121,14.77174 34.4884,26.13769 11.7162,12.95848 5.40678,14.13275-4.82623,17.67651-7.53009,2.60772-14.34343,9.93436-21.38317,12.37223-9.38573,3.25036-20.77993,1.62116-32.47448-.89569-10.24006-2.20383-22.18484-8.6917-31.35589-10.66546-9.60986-2.06818-19.77441-6.91831-30.52481-8.74564-20.89652-3.55193-55.65143-21.08564-76.58379-28.66874-27.62702-10.00835-55.36961-25.36587-81.666-36.29109-14.64491-6.08444-30.11533-11.26894-43.56579-14.1637-16.40621-3.53089-39.25133-17.66837-55.48816-29.35145-11.06331-7.96052-22.66196-14.98442-30.23729-20.43519-4.01186-2.8867-9.3496-24.81054-9.87685-26.93419z" fill="#b7542a" fill-rule="evenodd" opacity=".44624"/>
<path d="m126.88283,366.38579c4.0827.30216 12.08548-3.51086 18.09174-5.00687 5.43269-1.35314 11.33491-1.00137 17.08664-1.00137 5.95024,0 7.20178,10.67571 8.04077,14.01923 1.44851,5.77257 7.4154,5.85248 12.06116,7.00962 7.2737,1.81169 17.50274,0 25.12741,0 6.95488,0 12.65034,2.72097 19.09684,4.0055 6.25183,1.24573 5.90028,7.52887 5.02548,11.0151-1.65901,6.61148-6.03185,5.00184-4.02039,13.01787 .88066,3.50958 15.45212,2.00274 18.09174,2.00274h22.11212 26.13252c7.13293,0 7.24987,4.15326 6.03057,9.01237-1.47107,5.86251-8.29901,5.98046-6.03057,15.02061 .25822,1.02907 20.3022,3.55469 22.11212,4.00549 7.2975,1.81762 17.61206,0 25.12742,0h30.15289c8.19079,0 15.13255-.77779 17.08665,7.00962 1.65718,6.6042-2.49397,9.08718-1.0051,15.0206 1.66033,6.61676 9.93623,9.48449 16.08154,11.01512 2.77704.69169 5.36052,2.00275 8.04078,3.00412 7.85569,2.93498 18.85484,1.00137 27.1376,1.00137 12.4131,0 22.40653,1.07471 34.17327,4.0055 6.45525,1.60783 3.65496,13.74601 2.0102,17.02336-.11746.23406 14.01774,2.49007 28.14271,6.00823 18.29763,4.55748 37.05761,8.38545 55.2803,12.0165 7.54036,1.50248 17.07998.97481 19.09684,9.01236 1.65344,6.58925-.24092,6.24827-4.02039,10.01374-2.84983,2.83927-12.08259,4.01083-16.08155,5.00687-7.86086,1.95794-12.86053-.67813-20.10192-5.00687-7.06435-4.22292-11.87449-7.21347-19.09683-9.01236-7.80277-1.94348-16.90979-1.00138-25.12742-1.00138-9.03829,0-17.39734,1.74056-26.13251,0-6.00932-1.19741-10.01902-10.95146-12.06116-15.02061-2.08921-4.16295 1.73608-10.10477 1.0051-13.01786-.97958-3.90382-20.55359-2.00275-23.11722-2.00275-8.36605,0-17.05566,2.01047-25.12742,0-9.03872-2.25131-18.77076-4.84443-27.1376-9.01236-6.40607-3.19117-6.2275-3.78889-8.04077-11.01511-1.53158-6.10363-1.79498-9.15608-3.01529-14.01923-1.17171-4.66948-3.30685-6.00825-9.04587-6.00825h-20.10193-19.09684c-8.44737,0-12.69897-1.16024-20.10193-3.00412-5.63827-1.40435-10.74919-1.84989-15.07645-4.0055-5.66898-2.824-12.06116-3.78256-12.06116-10.01373 0-6.87614 5.29129-7.48138 2.0102-14.01924-.95197-1.89691-11.99878-2.00275-15.07645-2.00275h-20.10193-19.09684c-6.83459,0-11.54546-4.49309-15.07645-8.01099-3.13455-3.12294-2.01018-9.11913-2.01018-14.01923 0-7.49422-9.38148-4.58978-15.07646-6.00825-6.27488-1.5629-14.0397.20659-20.10193-1.00137-7.04825-1.40442-12.50507-2.77045-14.07135-9.01237-1.41911-5.65545-1.65269-6.41988-8.04077-8.01098-6.09229-1.51743-10.79529,1.00137-16.08154,1.00137-7.63065,0-9.04587,3.11102-9.04587-6.00824 0-3.80028-.62215-1.75482 5.02548-4.0055z" fill="#ffe422" fill-rule="evenodd" opacity=".7043"/>
<path d="m123.67498,361.71723c4.20422.77591 12.78696-.48166 19.12256-.56408 5.73056-.07456 11.81508.99352 17.77104,1.81814 6.16153.85309 6.62934,7.76588 7.23876,9.99497 1.05214,3.84853 7.2247,4.7544 11.94566,6.15029 7.39145,2.1855 18.12425,2.50939 26.01966,3.60255 7.20183.99713 12.88845,3.52985 19.46422,5.26426 6.37719,1.68204 5.52574,5.59452 4.34944,7.6679-2.2308,3.93213-6.63405,2.28997-5.173,7.63419 .63967,2.3398 15.84544,3.47854 18.57879,3.85698l22.89729,3.17023 27.06046,3.74666c7.38621,1.02264 7.18511,3.65895 5.54558,6.54885-1.97809,3.48666-9.05763,2.58215-7.40992,8.60913 .18755.68606 20.74734,5.15274 22.58657,5.69657 7.41562,2.19263 18.23744,2.52506 26.01965,3.60253l31.22359,4.32307c8.48163,1.17431 15.73023,1.679 17.14961,6.87079 1.20371,4.40296-3.28745,5.37386-2.206,9.32963 1.206,4.41134 9.5533,7.40659 15.79808,9.25303 2.82199.83441 5.3955,2.03171 8.09326,3.04756 7.90695,2.97742 19.44666,3.33482 28.02354,4.52233 12.85387,1.77969 23.11879,3.89029 35.076,7.4258 6.55974,1.93956 2.7184,9.19382.76099,11.0251-.13978.13079 14.32233,3.58025 28.67595,7.82434 18.59382,5.49782 37.72298,10.60181 56.31106,15.50459 7.69156,2.0287 17.61085,3.06359 19.07581,8.42217 1.201,4.393-.73417,3.90634-4.93995,5.73942-3.17129,1.38218-12.82276.7974-17.04098.85228-8.29188.10788-13.2646-2.27153-20.42732-6.03995-6.9876-3.67628-11.73656-6.25211-19.07581-8.42217-7.92907-2.34447-17.43255-3.05596-25.94198-4.23413-9.35923-1.29583-18.15012-1.39648-27.06044-3.74664-6.12981-1.61679-9.52523-8.3437-11.32422-11.20297-1.84046-2.92517 2.5816-6.12433 2.05064-8.06646-.71154-2.60264-21.12807-4.20995-23.78272-4.57751-8.66312-1.19945-17.81725-1.17724-26.01967-3.60254-9.18503-2.71583-19.06149-5.74664-27.40209-9.57497-6.386-2.93118-6.15471-3.28256-7.4718-8.10023-1.11248-4.06924-1.14845-6.03223-2.03482-9.27446-.8511-3.1131-2.9582-4.26359-8.90101-5.08639l-20.81571-2.88205-19.77495-2.73793c-8.74732-1.21111-13.05989-2.55245-20.58268-4.77678-5.72954-1.69412-10.98737-2.70789-15.30107-4.68786-5.65121-2.59392-12.19601-4.11494-11.71263-8.04504 .53341-4.33689 6.05953-3.96001 3.16912-8.55396-.83864-1.33289-12.26949-2.98344-15.45644-3.42468l-20.81573-2.88204-19.77495-2.73794c-7.07728-.97987-11.60687-4.48914-14.99034-7.21418-3.00359-2.41909-1.37415-6.03978-.99403-9.13035 .58136-4.72672-9.35854-4.23989-15.14572-5.95104-6.37644-1.88537-14.55426-1.88258-20.73804-3.5136-7.18958-1.8963-12.7342-3.54024-13.87188-7.70168-1.03079-3.77042-1.21335-4.28605-7.70483-6.20545-6.19092-1.83053-11.25632-.91616-16.73027-1.67406-7.90161-1.09401-9.60841.66526-8.90099-5.0864 .2948-2.39689-.50812-1.19598 5.51466-1.80582z" fill="#ecd637" fill-rule="evenodd" opacity=".59677"/>
<path d="m403.99672,539.97607a16.75108,13.79501 0 1,1 -33.50217,0 16.75108,13.79501 0 1,1 33.50217,0z" fill="url(#radialGradient2334)" fill-rule="evenodd" transform="translate(33.50217,-23.64859)"/>
<path d="m403.99672,539.97607a16.75108,13.79501 0 1,1 -33.50217,0 16.75108,13.79501 0 1,1 33.50217,0z" fill="url(#radialGradient2334)" fill-rule="evenodd" transform="translate(-123.1697,-72.91645)"/>
<path d="m403.99672,539.97607a16.75108,13.79501 0 1,1 -33.50217,0 16.75108,13.79501 0 1,1 33.50217,0z" fill="url(#radialGradient2334)" fill-rule="evenodd" transform="matrix(.70588,0,0,.92857,25.21357,-114.1607)"/>
<path d="m403.99672,539.97607a16.75108,13.79501 0 1,1 -33.50217,0 16.75108,13.79501 0 1,1 33.50217,0z" fill="url(#radialGradient2334)" fill-rule="evenodd" transform="translate(140.9062,-53.2093)"/>
<path d="m403.99672,539.97607a16.75108,13.79501 0 1,1 -33.50217,0 16.75108,13.79501 0 1,1 33.50217,0z" fill="url(#radialGradient2334)" fill-rule="evenodd" transform="matrix(.70588,0,0,.92857,157.2515,-53.06853)"/>
<path d="m403.99672,539.97607a16.75108,13.79501 0 1,1 -33.50217,0 16.75108,13.79501 0 1,1 33.50217,0z" fill="url(#radialGradient2334)" fill-rule="evenodd" transform="matrix(.70588,0,0,.64286,-138.3558,63.76679)"/>
<path d="m120.40759,433.46948 4.21955,1.86015c75.07419,33.09567 118.64961,78.70474 202.83224,102.93251 54.43062,15.66515 110.46017,42.27037 162.77534,60.08483 9.83272,3.34827 19.4178,7.74099 29.1267,11.61146 12.49934,4.98292 10.70157,12.46718 15.26678,20.86064 3.08126,5.6651-12.96797,10.27707-14.94404,11.84308-4.52425,3.58544-14.32661,4.96651-22.29903,5.52887-12.47863.88022-24.22378-3.8355-37.00898-7.09952-11.16038-2.84921-23.52512-10.32219-35.25089-13.69689-10.83513-3.11835-27.40062-9.00744-39.06023-14.14745-28.85436-12.72014-65.58489-27.27021-94.99869-35.73552-19.30804-5.55685-37.81331-20.08476-55.00093-31.0046-13.57454-8.62435-30.17549-16.37437-45.33102-23.05554-13.28475-5.85644-26.91922-17.89146-38.94319-26.3832-9.61002-6.78693-17.43865-22.00401-20.0432-30.95302-2.39124-8.21609-9.27183-13.87101-13.36214-20.63537-2.3341-3.86001 1.07347-8.452 2.02173-12.01043z" fill="#a95132" fill-rule="evenodd" opacity=".30645"/>
<path d="m626.6876,557.71252a34.48753,33.50217 0 1,1 -68.97505,0 34.48753,33.50217 0 1,1 68.97505,0z" fill="url(#radialGradient2332)" fill-rule="evenodd" opacity=".66129" transform="matrix(1.70711,0,0,1.58232,-413.8313,-315.0596)"/>
<path d="m134.01816,405.0115 4.31084,1.81293c76.69859,32.25549 122.28058,76.88788 207.76558,100.41214 55.2727,15.21028 112.59134,41.15316 165.82699,58.47932 10.00574,3.25652 19.80495,7.53885 29.70741,11.30825 12.74855,4.8528 11.24538,12.20389 16.16648,20.42805 3.32147,5.55085-12.60411,10.12598-14.52473,11.66896-4.3973,3.53271-14.182,4.91786-22.16263,5.49393-12.49151.90169-24.47218-3.69115-37.43843-6.85601-11.31842-2.76268-24.03218-10.05981-35.93935-13.33652-11.00276-3.02779-27.86972-8.75768-39.78161-13.7672-29.47869-12.39721-66.9378-26.56661-96.80664-34.78611-19.60676-5.3955-38.7691-19.59833-56.46331-30.26391-13.97463-8.42349-30.95218-15.97975-46.43564-22.4913-13.57219-5.70775-27.74441-17.47859-40.15713-25.77667-9.92072-6.63213-18.39283-21.54366-21.36807-30.31901-2.73155-8.05669-9.86666-13.58604-14.24538-20.21272-2.49868-3.78147.73706-8.29872 1.54562-11.79413z" fill="#eee4e0" fill-rule="evenodd" opacity=".04301"/>
</g>
</svg>
