<?xml version="1.0" encoding="UTF-8" standalone="no"?>
<svg viewBox="0 0 568.28638 410.39865" xmlns="http://www.w3.org/2000/svg">
<defs>
<filter id="filter3878">
<feGaussianBlur stdDeviation="4.9607"/>
</filter>
</defs>
<g transform="matrix(.94562,0,0,.93528,-75.04117,-280.35919)">
<path d="m369.26934,317.02471c-10.54789,5.89384-15.35698,2.90379-36.00172,9.09721s-48.31749,30.733-57.86187,63.10637c1.08081,28.85565-12.21696,32.81726-7.83908,47.32484 8.68345,34.37715 3.25074,25.07021-6.09706,33.48548-24.14697.0197-41.33497-6.8281-56.03495-14.17809-21.55271-10.77636-44.5678-23.65251-66.19671-34.93716-2.88774-1.50665-35.17952-21.14557-31.59829-24.09793-1.17798,1.76697 5.57122,13.7916 6.62935,15.48461 4.93913,7.90261 8.2041,15.51841 13.93615,22.88819 13.07316,16.80834 28.35781,31.50393 40.25999,49.3572 10.03384,15.05076 20.74494,29.78735 30.87245,44.51826 7.92798,11.53161 13.20987,25.52502 23.61403,34.88877 14.95903,13.46312 31.14775-9.32836 36.87274,4.98411 1.6314,4.0785-13.56813,5.98555-9.96823,16.06528 1.42275,3.98369 4.82315,7.50927 6.29063,11.17796 2.02587,5.06467 5.30806,8.25528 9.27338,13.35351 4.5687,5.87405 5.33205,8.17683 8.77587,16.21242 15.18843,35.43968 24.25794,70.90299 60.3416,90.58498 4.05583,2.21227 8.93834,1.24528 13.11353,3.1937 11.26496,5.25698 26.75352,9.30853 39.24382,7.83908 8.98902-1.05753 22.91351-7.75918 30.29176-12.67802 23.70371-15.80247 29.46599-27.23691 42.09879-52.50251 2.25603-4.51206 3.46653-10.30487 6.24224-14.46844 7.57665-11.36498 17.7734-33.25039 25.69477-44.56664 8.31247-11.87495 6.08526-26.04608 13.45226-38.32442 .86424-1.44039 20.82888,11.56377 26.32384,8.12942 12.96229-8.10143 14.49783-23.88537 25.06572-34.45326 10.65779-10.6578 14.688-23.61452 24.29148-35.27589 10.85888-13.18578 20.46116-28.14372 31.06601-42.05039 8.41516-11.03523 20.683-20.78669 28.93687-31.79185 3.09326-4.12435 5.71365-8.63623 8.12942-13.06514 1.60305-2.93893 5.32283-11.86424 5.32283-8.51654 0,2.86459-18.14767,9.39539-21.09778,10.59729-7.06924,2.88006-11.79609,8.23285-17.3718,13.06514-5.2149,4.51958-12.80199,5.97002-18.43637,9.72627-20.33592,13.55728-27.99758,17.83863-52.64767,24.00115-6.17436,1.54359-41.69779,16.27273-45.96995,12.00057-7.9124-7.9124 3.46681-38.75 4.64538-49.3572 4.37897-39.41069-9.10146-64.78219-40.30838-86.81061-4.58771-3.23838-6.30065-1.63667-10.936-4.06471-5.76583-3.02019-10.19409-8.16324-16.0169-10.936-9.78873-4.6613-50.63669-16.77093-56.77266-13.36206s-9.53475-1.13957-9.67788,7.16164" fill="#0cf"/>
<path d="m406.79366,474.73238c19.54841-10.10305 23.54593-27.13391 45.09894-33.29191 2.0563-.58752 5.83752-1.58586 7.50036-.33873 4.19894,3.14921 11.32025,28.48434 9.14559,33.92098-4.67003,11.6751-17.93483,36.52171-35.56621,29.46915-4.93408-1.97363-10.02503-5.50046-14.71039-8.17781-7.55937-4.31964-6.39833-16.02423-11.46829-21.58168z" fill="#ff0" stroke="#000"/>
<path d="m350.37161,473.86138c-5.55042-6.04655-11.53363-10.13034-16.69435-15.29106-9.32944-9.32944-11.12447-19.85239-20.90423-26.37223-5.19924-3.46617-9.19389,3.95818-11.80701,6.04868-21.58358,17.26686-4.081,64.63755 24.04954,55.26071 5.33515-1.77839 10.67998-2.35701 15.29105-6.96808 3.93318-3.93317 7.82526-7.85396 10.065-12.67802z" fill="#ff0" stroke="#000"/>
<path d="m476.18408,573.3984c-30.32465-10.1988-57.53851-.86641-86.08476-7.21002-3.9451-.87669-12.23121,3.48197-15.04911,2.2743-7.30297-3.12985-24.81098-3.02987-33.00158-1.20974-7.75215,1.7227-17.14644,2.85498-25.35605,2.85498-5.84774,0-12.73121-1.12023-18.58154-.14517-2.88502.48084-19.63406,4.07683-19.12659,5.34552 6.23335,15.58337 8.16747,39.86127 20.77183,51.41526 21.63279,19.83006 89.39558,22.57911 117.0056,15.04911 5.86568-1.59973 12.76341-5.28665 18.43637-6.09707 10.08286-1.44041 32.24267-6.81417 33.53386-17.27502 2.69681-21.8488 4.03429-27.51626 7.45197-45.00215" fill="#fff"/>
<path d="m350.05787,724.04953c-5.8496-1.6821-12.4123-3.8655-14.5838-4.8521-5.4783-2.489-20.3579-12.7866-25.9906-17.9871-4.4835-4.1394-11.1973-12.8483-14.9822-19.4344-.9813-1.7075-2.9114-5.0472-4.2892-7.4216s-3.2182-7.0894-4.0898-10.4777c-2.5682-9.9826-6.9874-25.0974-9.2897-31.7727-3.9797-11.5388-5.7293-14.7487-10.0772-18.4877-7.0677-6.078-11.0303-11.6499-11.5379-16.2238-.175-1.5764-.5192-3.6665-.7648-4.6447-.4398-1.7506-.4245-1.7481.9703.1619 .7794,1.0671 1.424,2.5385 1.4325,3.2697 .023,1.9974 5.3386,7.35 10.4324,10.5056 7.7399,4.7947 9.3267,6.5807 12.7679,14.371 1.7413,3.942 4.1508,10.6599 5.3543,14.9286s2.7561,9.5076 3.4502,11.6419 1.7778,5.9762 2.4081,8.5374c2.6558,10.7922 5.523,16.6081 14.2982,29.0034 5.6976,8.0481 10.6486,12.8371 18.9244,18.3052 2.8837,1.9053 6.4275,4.3381 7.8752,5.4061 3.1707,2.339 6.1907,3.5867 17.5633,7.2561 8.2757,2.6703 9.2719,2.8151 21.3461,3.1037 11.8358.2829 13.1388.1702 19.8931-1.7198 8.9029-2.4913 25.7121-8.3658 31.3747-10.9648 6.7397-3.0934 15.0297-13.8835 21.1236-27.4942 .86-1.9209 3.9498-7.4321 6.8662-12.2471 2.9163-4.815 5.9275-9.8083 6.6914-11.0962s2.7952-4.4924 4.514-7.1211c7.6944-11.7672 9.9222-15.3921 13.6693-22.2412 2.1972-4.0163 5.9211-9.648 8.2753-12.5149 4.7096-5.7354 7.4024-12.0581 7.5079-17.6284 .034-1.8129.2662-3.2972.5153-3.2986s.7882-1.0776 1.1981-2.3916 2.197-4.8297 3.9714-7.8126l3.2261-5.4233-2.6613-4.3184c-1.6463-2.6714-4.1284-5.3676-6.5077-7.0691-2.1155-1.5129-5.0148-3.6077-6.4428-4.6553-5.1834-3.8022-26.7965-30.2918-26.896-32.9644-.012-.3311 2.0073,1.3224 4.4881,3.6743s5.8402,5.2085 7.4655,6.3478 6.1165,4.949 9.9804,8.4659l7.0254,6.3944 1.2901-2.8268c.7096-1.5547 1.3906-3.0489 1.5134-3.3205s-2.3187-2.1325-5.4256-4.1352-5.5105-3.796-5.3414-3.985 1.9224.043 3.8962.5165c2.4284.5821 4.3867,1.7013 6.0571,3.462l2.4686,2.6019 .9251-2.4758c.5089-1.3616 1.1387-3.7484 1.3996-5.3039l.4743-2.8281-3.7094-1.543c-2.0402-.8486-5.5182-1.992-7.7289-2.5408-4.4961-1.1161-4.1235-2.2585.7431-2.278 3.5096-.014 6.9241,1.4512 8.7661,3.7616 .7277.9127 1.5871,1.6594 1.9098,1.6594 2.028,0-1.245-13.1156-5.3628-21.4904-4.0314-8.1992-3.2218-13.5398 2.9749-19.6233 6.4159-6.2987 6.7715-9.7974 1.531-15.063-1.9399-1.9493-3.7368-3.4666-3.9932-3.3718-.2563.095-1.6379-.6012-3.0703-1.5465-2.2901-1.5115-2.6042-2.0782-2.6042-4.6987 0-1.9737.5963-3.8825 1.7659-5.6531 .9713-1.4702 2.5568-5.5696 3.5235-9.1096 1.5419-5.6468 1.6661-6.9131 1.0119-10.3219-.4101-2.1369-.7456-5.048-.7456-6.4689s-.4996-3.9198-1.1103-5.5532c-1.6849-4.5068-6.8759-11.6101-9.4483-12.9289-3.0082-1.5423-15.4593-2.3093-20.519-1.264-4.1281.8528-7.3712,2.4377-11.6885,5.712-1.4124,1.0712-3.0713,1.937-3.6865,1.924-.9478-.02-.9275-.1477.1331-.8373 .6883-.4475 2.5454-2.3825 4.1269-4.2999 5.7757-7.0027 12.0162-9.5013 24.2321-9.7023 7.6519-.1259 8.2536-.021 11.3088,1.9805 5.3841,3.5263 12.1273,14.1967 13.3184,21.0748l.5302,3.0616 .9473-3.4925c1.0866-4.0061 1.1499-8.8042.2608-19.7912-.8574-10.5962-2.8747-26.8242-3.5698-28.7167-.3136-.8537-1.1786-3.5337-1.9224-5.9556-2.2828-7.4338-7.0552-12.7441-20.9689-23.332-2.1008-1.5986-7.1009-5.829-11.1115-9.4009-11.4188-10.1698-16.241-12.8843-34.0289-19.1555-19.8998-7.0158-19.6279-6.9624-35.4917-6.9624-7.8762,0-16.0036.3685-18.061.819s-7.1784,1.4793-11.3799,2.2865-9.983,2.1959-12.8476,3.0861-7.682,2.3455-10.7052,3.2339c-6.6368,1.9505-18.1211,6.7106-25.03,10.3747-4.1026,2.1758-6.1984,4.0202-11.0732,9.7451-6.2841,7.38-12.6551,17.2787-16.206,25.1794-3.1055,6.9099-7.6701,21.8991-8.1516,26.7684-.2321,2.3478-.6028,5.6447-.8237,7.3265l-.4015,3.0579 2.2595-2.1248c5.4392-5.115 6.9814-5.5597 18.6099-5.3662 5.8482.097 11.7968.5271 13.2192.9551 3.8055,1.1452 18.8575,12.9079 18.8575,14.7366 0,.2702-2.7345-1.0129-6.0766-2.8512-10.3753-5.7069-12.8368-6.2745-24.8272-5.7251-9.2521.424-10.7069.6784-13.01,2.275-4.8356,3.3522-10.9699,12.8225-13.2981,20.5297-1.3687,4.5312-.585,9.6448 2.0758,13.5434 3.9581,5.7996 4.7274,11.4243 2.3219,16.9776-1.7243,3.9808-3.9061,6.4428-2.7824,3.1398 .3846-1.1307.4727-2.0499.1957-2.0427-.9918.026-7.0158,6.8647-8.088,9.182-1.0223,2.2094-1.0013,2.5383.3233,5.0474 2.3081,4.3717 2.7148,7.0574 1.9285,12.734-.8012,5.7849-1.3464,7.1908-5.729,14.7731-4.3672,7.5559-5.5799,12.0034-4.4834,16.4434 .7439,3.0121 3.2277,9.0879 4.9889,12.2037 .3645.6448 1.267.045 2.9188-1.9403l2.3911-2.8738 .019,4.6146 .019,4.6147 2.1312-3.8385c1.1722-2.1113 2.9691-4.6227 3.9932-5.581 2.3192-2.1703 4.1417-2.3577 2.2381-.2301-.7481.836-2.0409,3.0189-2.873,4.8508s-2.4344,4.8343-3.5607,6.6719c-1.1548,1.8841-1.8685,3.8643-1.6362,4.5406 .2995.8724 1.2281-.039 3.4062-3.3412 1.647-2.4973 4.1716-5.5417 5.6104-6.7653l2.6161-2.2246-1.0714,2.3153c-1.463,3.1618-5.7292,9.3285-7.8918,11.4074-1.381,1.3275-1.6264,2.0119-1.0991,3.0649 .5852,1.1686 1.6026.3039 7.3741-6.2674 7.9958-9.1041 10.8572-13.2119 10.8832-15.6242 .011-.9931.3289-1.5783.7137-1.3124 .382.2638.6945,1.2547.6945,2.202 0,2.1324-4.0734,11.7453-7.0564,16.6524-4.3837,7.2114-20.2226,26.5856-24.4203,29.8709-2.3015,1.8013-4.2872,3.6285-4.4128,4.0605s1.3566,2.7021 3.2936,5.0448 3.958,5.1775 4.4911,6.2997 1.4943,2.2654 2.1361,2.5407 .9925.695.7796.933c-.5124.5726-3.3191-1.0925-4.8546-2.88-.6728-.7833-3.0956-2.8451-5.3838-4.5817-4.9277-3.7398-6.4753-6.05-5.8671-8.758 .2401-1.0695 3.1451-5.0379 6.4554-8.8188s7.0129-8.188 8.228-9.7938c2.0808-2.75 2.1516-3.0429 1.2195-5.0397-.5442-1.1659-.9914-2.7485-.9937-3.5167s-.5079-2.485-1.1234-3.8152c-.7567-1.6354-1.0046-3.5529-.7656-5.9223 .3336-3.3078.1486-3.789-3.3072-8.6028-3.9058-5.4406-5.9196-9.2899-5.9196-11.3152 0-.6867-.3125-1.0327-.6945-.7689s-.7013,1.4196-.7097,2.5683c-.022,2.9573-2.3192,8.2505-4.2309,9.7469-2.5259,1.9772-2.9937,1.495-1.0518-1.0842 3.5575-4.7248 3.2623-10.0106-1.1008-19.7134-5.1569-11.4683-7.4699-14.5247-17.7019-23.391-10.1823-8.8232-12.3005-10.2112-22.4287-14.6954-8.2549-3.6548-14.5018-7.1119-22.8293-12.634-3.5801-2.3741-10.5385-6.1509-15.4632-8.3929-11.3548-5.1695-16.3617-8.3132-25.035-15.719-10.3013-8.7959-10.5001-8.8421-3.6747-.8534 3.4451,4.0325 11.5704,13.9536 18.0561,22.0471s14.2923,17.7045 17.3479,21.3578c7.3846,8.829 21.6389,26.58 24.5559,30.5794 1.2831,1.7593 3.9977,7.0405 6.0327,11.7361 2.0348,4.6956 5.1287,10.4583 6.8755,12.8061 3.0939,4.1584 4.4331,7.2276 5.9262,13.5822 1.0471,4.4566 3.5916,7.2406 8.9035,9.742 2.5589,1.205 6.1113,3.4007 7.8943,4.8795l3.2418,2.6886 1.5777-1.8768c.9832-1.1696 3.8824-2.6627 7.6941-3.9624 4.2017-1.4326 6.2405-2.5222 6.5126-3.4805 .2179-.7673 1.0407-1.7805 1.8284-2.2517 1.3828-.827 1.3932-.7942.3003.9497-.6226.9934-1.1321,2.4243-1.1321,3.1797 0,.7668-1.0234,1.9761-2.3168,2.7378l-5.4428,3.2039c-1.8124,1.0666-3.6386,2.9035-4.346,4.3715-2.24,4.6485-5.3403,4.9636-10.2668,1.0432-1.1282-.8978-4.6032-2.8337-7.722-4.3018-8.1846-3.8528-11.3233-7.716-13.5457-16.6724-.9073-3.6572-2.1874-6.3388-4.6028-9.6433-1.8404-2.5175-4.9828-8.3313-6.9832-12.9195-4.7957-10.9993-3.7735-9.56-24.9414-35.1208-3.8887-4.6956-10.9582-13.3849-15.71-19.3096-9.3417-11.6473-15.5762-19.2887-31.2403-38.2899-5.5551-6.7385-11.9581-14.8712-14.2288-18.0728-5.9218-8.3489-13.4064-18.5009-16.36849-22.2016-1.4029-1.7526-2.9495-4.0228-3.4368-5.0448-.8087-1.6954-.785-1.7649.2691-.7931 1.8779,1.7314 1.3213-.099-.9786-3.2167-3.3678-4.5661-1.2791-3.4003 5.3787,3.0022 7.614,7.3219 10.15349,9.2965 17.5893,13.6766 3.2466,1.9124 7.6217,4.7056 9.7226,6.2072 7.4549,5.3286 17.1316,10.9669 25.9132,15.0989 8.1377,3.829 29.3341,15.5735 35.1998,19.5036 5.9069,3.9577 17.7616,9.0856 27.4315,11.8659 23.5187,6.7622 32.1182,10.0013 37.9732,14.303 2.5798,1.8953 7.2801,8.6571 6.5697,9.451-.2111.236-1.7889-.953-3.5061-2.6422-2.6177-2.5752-4.2777-3.4039-10.2735-5.1294-3.9333-1.1319-9.1828-2.4255-11.6655-2.8746s-7.6391-1.8142-11.4587-3.0335-9.7448-2.9677-13.1672-3.8853c-6.43-1.7241-18.0014-6.9371-24.6813-11.119-8.3627-5.2356-27.9527-16.1812-33.7692-18.868-8.2814-3.8255-17.3504-8.9592-24.8703-14.0784-6.4521-4.3922-6.4904-4.2381-.7446,2.9931 3.1565,3.9724 4.9949,5.2468 19.7995,13.7246 8.976,5.14 20.6951,11.3104 26.0425,13.7119s11.3537,5.5645 13.3472,7.0288c4.5011,3.3064 19.7276,11.8375 26.2374,14.7004 8.1961,3.6044 12.1814,6.1711 20.4868,13.194 10.0307,8.4816 13.4206,12.1302 16.0801,17.3069 2.0665,4.0225 6.0818,16.0945 6.2056,18.6575 .034.7137.6079-.9725 1.2743-3.7471 1.3421-5.5878 2.5867-8.5355 6.1022-14.4528 1.3017-2.191 2.8127-6.1204 3.3578-8.732 .9279-4.4452.8995-5.0087-.447-8.8261-2.445-6.9325-.3628-11.0999 8.0533-16.1182 5.4407-3.2441 5.903-3.7097 5.903-5.9452 0-2.5553-1.5135-5.6057-4.1696-8.4038-5.9775-6.2974-7.5459-15.9756-3.9919-24.635 1.7441-4.2495 6.516-12.947 7.5694-13.7964 .2737-.2207.2166-2.8401-.1269-5.821-1.0329-8.9638-.7606-14.8704 1.0787-23.4025 3.2071-14.8767 11.7053-30.1117 24.9883-44.7975 5.2356-5.7885 19.4817-12.8537 36.2202-17.9631l11.5558-3.5247c2.5954-.7908 10.1453-2.4982 16.7775-3.7942 10.7928-2.109 13.5513-2.3563 26.2823-2.3563 15.4115,0 18.9938.6513 33.821,6.1494 3.2467,1.2039 8.5593,3.1248 11.806,4.2688 9.7225,3.4258 17.6479,8.2688 26.7266,16.3322 4.5777,4.0658 10.0466,8.6992 12.1531,10.2963 12.0623,9.1459 18.8446,16.1275 21.7258,22.3646 2.4572,5.3193 4.2045,13.0018 5.4634,24.0222 1.1447,10.0202 1.2273,13.0233.5931,21.5593-.4053,5.4545-1.0361,10.7969-1.4019,11.8719-.3657,1.0751-.611,6.0422-.545,11.038 .2919,22.1208.3129,21.8453-2.0859,27.3224-1.2153,2.7746-2.2146,5.7433-2.2207,6.5971-.01,1.2865-.1265,1.3529-.6844.388-.3703-.6403-.678-5.0933-.6838-9.8956s-.2653-8.7314-.5765-8.7314-1.0952,1.2406-1.7422,2.7569-2.5799,4.4339-4.2954,6.4835c-3.5261,4.2129-3.7767,5.4145-1.5685,7.5201 1.2623,1.2036 1.3756,1.2259.6094.1202-.5665-.8175-.6471-1.3582-.2026-1.3582 .4062,0 .922.3319 1.1463.7375s2.3522,1.8345 4.7286,3.1753c5.506,3.1067 7.3168,5.0063 7.8607,8.2465 .8673,5.1664-.2321,9.0132-3.9748,13.9083-5.0142,6.5579-5.0365,6.7192-1.8985,13.7138 7.3169,16.3098 6.1819,28.1084-3.7344,38.8178-4.645,5.0165-4.6262,5.5952.2727,8.3884 6.6065,3.7666 13.0871,13.2015 13.0871,19.053 0,3.1185-.3807,3.803-5.4771,9.8498-5.8145,6.8987-5.9512,7.24-6.7242,16.789-.5252,6.4883-2.0377,11.0253-5.4233,16.2688-1.2645,1.9583-3.6233,6.3694-5.2418,9.8025-2.7213,5.7719-5.963,11.1559-13.2986,22.0866-1.5755,2.3477-3.8489,5.9336-5.0519,7.9685s-4.3677,7.2655-7.0326,11.6234-5.708,9.8528-6.7625,12.2107c-5.0664,11.3291-13.0225,22.7909-19.4085,27.9609-3.1012,2.5106-23.6142,10.2249-37.3887,14.0606-7.2985,2.0324-9.033,2.2214-20.1395,2.1943-11.8442-.029-12.4236-.1074-22.7889-3.0879zm33.438-17.2147c-2.3267-2.8535-2.9676-4.8259-2.8103-8.6497 .1274-3.0994.3515-3.593 1.6333-3.5977 4.1057-.015 6.2641,6.094 3.9411,11.1543l-1.3166,2.8682-1.4475-1.7751zm-41.5528-15.3573c-.2361-.4269.027-.7761.5853-.7761s1.5921-.9807 2.298-2.1793c2.3269-3.9508 11.2689-12.0212 15.6592-14.1329 2.4509-1.1789-5.4165-.027-8.7243,1.2769-1.4906.5878-4.4061,2.1531-6.479,3.4785s-3.8997,2.2637-4.0596,2.085c-.3788-.4234 5.6734-5.519 8.3595-7.0381 3.1593-1.7868 7.5906-2.9491 13.8167-3.6239l5.6284-.6101-6.2502-.1026c-6.3789-.1048-15.7243,1.2904-22.5702,3.3694-2.1007.638-4.9133,1.1236-6.2502,1.0792-1.3683-.046-1.8236-.2327-1.0417-.4284 .7639-.1912 4.0515-1.3561 7.3057-2.5887s7.3168-2.5149 9.028-2.8497c2.8965-.5666 2.6797-.6414-3.1388-1.084-5.3091-.4038-7.4527-1.0293-14.2366-4.1541-4.3925-2.0234-9.3534-4.5615-11.0244-5.6403-3.5869-2.3158-8.1797-6.8143-9.2598-9.0698-.7477-1.5614-.7258-1.5677.9046-.2617 6.6271,5.3088 22.5852,10.5536 35.0051,11.5049 11.6685.8937 19.5186,2.0075 26.3898,3.7442 6.9481,1.7561 17.6534,2.0332 31.5982.8179 7.2442-.6314 22.7481-3.0744 27.0842-4.2678 3.1663-.8714-3.5172,3.3802-7.6335,4.856l-3.8252,1.3714 7.2919.4971c4.0106.2734 8.0732.8624 9.0281,1.309 1.3219.6182-.9148.8422-9.3753.9385-6.1113.07-11.8928.3909-12.8477.7139l-1.7361.5873 1.7361.454c.9549.2496 3.8586.8659 6.4527,1.3695s6.5005,1.5828 8.6808,2.3981l3.9644,1.4824-4.8613-.4404c-4.5448-.4117-16.8288-2.2246-21.5285-3.1772-1.3857-.2809-.6438.3576 2.2158,1.9068 7.0807,3.8362 17.9853,12.5283 15.7171,12.5283-.3524,0-.9375-.3231-1.3004-.7181-1.1332-1.2336-11.0523-5.3508-17.0997-7.0978-11.1164-3.2113-31.1284-2.8112-42.7078.8539-5.8934,1.8654-15.5028,7.0996-18.583,10.1221-2.4414,2.3956-3.5095,2.7748-4.2163,1.4967zm47.2707-36.5351c-.2895-1.0357-.9443-3.4548-1.4551-5.3757l-.9287-3.4925-.096,2.7164c-.2105,5.976-2.0203,6.9589-2.2139,1.2024-.1213-3.6053-1.6216-3.6211-4.7188-.05-2.6485,3.0539-3.1378,3.0813-2.1301.1192 .6718-1.9746.6085-2.0479-1.7667-2.0479-1.4273,0-3.8298.8916-5.7121,2.1198l-3.2488,2.1199 1.2313-2.1199c1.224-2.1072 1.2212-2.1198-.4747-2.1198-.9383,0-3.2112,1.0183-5.0509,2.2629s-4.1261,2.4829-5.081,2.752c-1.5477.436-1.4492.1984.9079-2.1896 3.2011-3.243 2.4249-4.0897-2.1993-2.3993-1.8875.6899-4.166,1.1296-5.0634.977-1.5932-.271-1.5826-.3082.4518-1.5853 2.9383-1.8445 1.208-1.6931-2.0834.1823-1.4984.8537-3.8301,1.5499-5.1817,1.5471l-2.4574-.01 2.0834-1.542c1.1459-.8481 2.7084-1.5801 3.4723-1.6266s.3245-.365-.9803-.7088c-1.58-.4164-3.0837-.2798-4.514.4099-3.7705,1.8181-8.7423,3.2875-8.7423,2.5838 0-.9758 4.2572-3.7424 5.903-3.8361 .7639-.043-.017-.5058-1.7361-1.0273-2.5172-.7638-3.5598-.749-5.3599.076-3.0384,1.3929-3.406,1.2924-1.932-.5278 1.2379-1.5288 1.2129-1.5523-1.653-1.5523-1.6005,0-3.6021.4875-4.4481,1.0834s-2.3194,1.3358-3.2742,1.6444l-1.7362.5611 2.0397-2.4206c1.9008-2.2557 1.9402-2.4206.5784-2.4206-.8037,0-2.8935.6861-4.6439,1.5247-3.4583,1.6567-4.1774,1.0147-1.5-1.339l1.6827-1.4793-7.6424-3.3066c-7.3152-3.165-7.8803-3.5777-13.1966-9.6368-5.2075-5.9352-15.1658-21.3837-16.1517-25.0564-.2438-.9083-2.4657-4.5436-4.9375-8.0786s-4.4942-6.7572-4.4942-7.1604 1.172.4198 2.6043,1.8291l2.6042,2.5624 .3472-3.5473c.191-1.951.9413-4.4247 1.6674-5.4971l1.3201-1.9498 7.6539,6.9412 7.654,6.9412 2.0356-2.2749c1.7429-1.9479 1.9219-2.5124 1.2449-3.9261-.6279-1.3113-.5945-1.6512.1624-1.6512 .9639,0 7.8747,5.1598 10.7009,7.9897 1.3568,1.3586 1.7829,1.4228 3.6637.5521 2.1467-.9937 2.2013-1.3186.8815-5.2432-.4979-1.4808.6293-1.1674 3.418.9505 1.3911,1.0563 3.7293,2.241 5.1961,2.6327s4.4841,1.2603 6.705,1.9305 4.9766,1.0087 6.1237.7523c2.4411-.5456 4.318-3.2966 3.6254-5.3138-.8808-2.5653 1.041-.4545 3.96,4.3495 1.5452,2.5429 4.0463,5.5382 5.5581,6.6563 2.3835,1.7628 3.2236,1.97 6.3229,1.5598 2.3109-.3059 4.1597-1.0877 5.2304-2.2119 1.5301-1.6064 1.626-2.1547 1.2604-7.2015-.3328-4.5937-.2543-5.2295.4933-3.997l3.0347,5.0448c2.587,4.3153 4.4561,5.493 8.7422,5.5081l3.2488.011 .4336-4.4628c.4649-4.7857 2.3897-15.7165 2.7675-15.7165 .1257,0 .5882,2.3081 1.0278,5.1292s1.2229,5.8771 1.7407,6.7911 1.1552,3.1462 1.4165,4.9604c.2969,2.0618.8405,3.2986 1.4498,3.2986 .5361,0 1.3651.6985 1.8422,1.5522 1.1694,2.0927 2.4703,1.9565 6.1267-.6414 3.6284-2.578 4.3809-3.9876 6.5174-12.2099l1.6016-6.1638 1.1302,4.2156c.6215,2.3185 1.1301,5.1932 1.1301,6.3882 0,1.6606.4025,2.2856 1.7077,2.6517 .9392.2635 2.0712.9686 2.5156,1.5671 1.1933,1.6068 4.0613,1.3238 6.6696-.6583 2.6152-1.9873 7.545-11.666 6.722-13.1972-.3964-.7375-.2593-.7312.5777.026 .6037.5464 1.307,2.8166 1.5629,5.0449 .4098,3.5686.7341,4.2021 2.721,5.3159 2.0215,1.1333 2.4679,1.1442 4.2998.1049 3.9108-2.2187 11.4194-11.3608 11.4194-13.9039 0-.5975-.7391-1.0477-1.7202-1.0477-2.5172,0-4.1964-3.1595-3.2655-6.1439 .712-2.2825.7032-2.2926-2.7399-3.1178-1.8999-.4554-4.8452-.8279-6.5452-.8279-2.6279,0-3.0909.2325-3.0909,1.5522 0,2.1063-2.4133,4.6568-4.4064,4.6568-1.9842,0-3.9272-2.2382-3.9272-4.5239 0-1.5869-.3191-1.6851-5.4715-1.6851-5.44,0-5.4765.014-6.3454,2.358-1.6587,4.4752-5.7875,5.2093-8.5633,1.5226-1.8499-2.457-2.8483-2.6766-8.3432-1.8348-2.7898.4273-3.2221.7373-3.2221,2.3105 0,1.071-.6975,2.3277-1.6991,3.0611-2.3947,1.7535-5.4954.1189-5.8219-3.0691l-.2291-2.2372-4.9794.4938c-7.3556.7294-8.1045,1.0708-8.1045,3.6946 0,2.5869-2.1491,5.3423-4.1668,5.3423-2.5668,0-4.7437-3.678-4.249-7.1791 .045-.3202-3.1991-.5821-7.2097-.5821h-7.2919v2.7675c0,4.2008-1.0405,5.7699-3.8261,5.7699-1.9425,0-2.5862-.4276-3.4479-2.2899-1.6176-3.4958-1.3881-5.4714.6356-5.4714 .9324,0 1.8627-.3029 2.0674-.6731 .4527-.8185-4.6071-1.6553-10.0092-1.6553-3.8794,0-3.9841.057-4.6142,2.5126-1.2121,4.7232-5.57,5.2765-7.3412.9321-.7376-1.8092-1.0568-1.8924-7.2575-1.8924-6.2566,0-6.4867.062-6.508,1.7463-.062,4.9152-4.5742,6.0767-7.0709,1.8202-1.5152-2.5833-1.6361-2.6336-5.3885-2.2454-6.1096.632-15.6301,3.098-18.6848,4.8395-3.1467,1.7941-4.946,2.047-4.946.6952 0-.498.1916-.6913.426-.4294s2.0313-.8753 3.9932-2.527 5.2859-3.7579 7.3868-4.6804 3.9509-1.8241 4.1116-2.0035-.4233-1.1772-1.2978-2.2174l-1.5898-1.8913 3.7284,1.1183c5.1912,1.5572 11.7953.376 8.9368-1.5983-.3819-.2638-.6944-.9778-.6944-1.5867 0-.8699.4833-.7774 2.257.432 1.8923,1.2902 2.9865,1.4594 6.7711,1.0467 2.4827-.2708 4.6009-.5707 4.707-.6666s-.1204-1.0959-.5036-2.2223c-.9156-2.6914-.069-2.5921 2.394.2805 1.4925,1.741 2.6202,2.3257 4.4703,2.3177 4.6458-.02 5.3443-.5378 5.0123-3.7165l-.2982-2.8545 1.8933,2.5147c1.7487,2.3225 2.2128,2.5147 6.0728,2.5147 3.4296,0 4.1076-.2088 3.7796-1.1642-.4962-1.445-.1227-1.4617 1.8381-.082 1.3166.9265 9.003,2.7982 11.4912,2.7982 .4461,0 .8112-.9207.8112-2.0461v-2.0462l1.8308,2.0462c1.6706,1.867 2.3134,2.0461 7.3423,2.0461h5.5115l-1.4394-2.0449c-.7916-1.1248-1.4393-2.3354-1.4393-2.6903 0-.682 4.4155,1.9257 6.3502,3.7503 1.6155,1.5234 7.9906,1.0487 7.6178-.5673-1.1787-5.1099-1.1163-5.2202 1.428-2.5224 2.2869,2.4247 2.5997,2.5224 8.0753,2.5224h5.6963l.011-2.5224c.01-1.3873.3004-3.0345.6546-3.6603 .5126-.9058.8021-.6729 1.4193,1.1411 .4264,1.2535.6299,2.9006.4521,3.6603-.2691,1.1502.1307,1.3813 2.3897,1.3813 2.7502,0 3.9208-.8568 6.3855-4.6736l1.2421-1.9235-.4236,3.0186-.4236,3.0186 2.2699-.5074c1.2485-.2791 3.9423-.727 5.9863-.9955 3.1752-.4171 3.8656-.8109 4.7421-2.7053 1.3308-2.8759 1.9674-2.8268 1.4416.1113l-.4166,2.3284 6.0592.01c5.9776.01 6.0857-.027 8.0247-2.5224l1.9654-2.5294-.3855,2.5224-.3856,2.5224h4.4427c4.4409,0 4.4437,0 7.2649-3.6866l2.8222-3.6866-.757,3.1045c-.4164,1.7075-1.0753,3.5411-1.4643,4.0747s-.4347.9816-.1014.9955 2.7789.3382 5.4349.7205c5.1439.7404 8.1271-.024 10.0134-2.566 .5242-.7064 1.2175-1.2844 1.5407-1.2844 .7517,0 .018,2.3344-1.2559,3.9979-.8828,1.1525-.715,1.3278 1.6681,1.7421 6.0913,1.0589 8.1825.8061 10.9946-1.3294 3.7008-2.8105 4.3397-2.6193 2.1192.6342-1.0197,1.4941-1.6037,2.7697-1.2978,2.8347l1.2507.2691c.382.083 1.2676.4276 1.968.7659 .8686.4195 2.5798-.1261 5.3821-1.716 4.5055-2.5563 5.2028-2.0929 2.0884,1.3877l-2.0202,2.2578 2.541.7775c1.3976.4276 3.525,1.4536 4.7275,2.2799s3.6478,1.7473 5.434,2.0466 5.0211,1.1863 7.1889,1.971l3.9413,1.4268-9.5493-.1654-9.5493-.1653-.015,3.1045c-.015,3.113-2.2087,9.68-3.2491,9.7263-.3052.014-1.119.5027-1.8085,1.087-1.1934,1.0114-1.1618,1.2462.6582,4.8893l1.9119,3.827 2.0062-1.9977c2.1325-2.1235 6.389-10.0879 7.8754-14.7359l.8942-2.796 .03,2.7745c.048,4.4061-2.9599,13.0717-6.504,18.7354-1.7935,2.8662-4.9897,8.629-7.1025,12.8061-5.9934,11.8489-8.4762,14.754-14.6245,17.1113-5.2128,1.9987-10.5814,5.1714-9.7496,5.7619 .4714.3346-1.2524.6137-3.8306.6203-4.3972.011-6.014.8292-3.6459,1.8448 .5729.2457 1.0417.7914 1.0417,1.2128 0,.4452-1.2.2929-2.8652-.3637-1.5759-.6214-3.7793-1.1298-4.8966-1.1298h-2.0314l1.8539,2.7165c2.2744,3.3325 1.7347,3.4089-2.5207.3572-3.1227-2.2394-3.4519-2.3136-6.4846-1.4601-3.6629,1.0308-3.9997,1.7884-1.2852,2.8907 1.0504.4266 2.5348,1.3577 3.2987,2.0693 1.3274,1.2363 1.2505,1.2724-1.7361.8134-1.7188-.2641-4.132-1.1435-5.3627-1.9543-3.0654-2.0194-3.5823-.5487-.5446,1.5495 3.8536,2.6617 2.8441,3.2478-2.1232,1.2327-3.821-1.55-4.3826-1.6321-3.4724-.5081 1.7586,2.1717 1.2891,2.32-2.3939.756-1.9139-.8127-4.2719-1.4777-5.24-1.4777-1.6536,0-1.732.1763-1.2958,2.9105l.4644,2.9105-1.9955-2.8822c-1.1951-1.7262-2.6027-2.8935-3.5095-2.9105-1.3608-.025-1.4524.212-.9052,2.3445 .3349,1.3051.3912,3.0231.1252,3.8179-.3945,1.1785-.7973.7407-2.183-2.3728-1.401-3.1478-2.0251-3.8179-3.5563-3.8179-1.8243,0-1.8468.062-1.2737,3.4898 .3208,1.9194.3313,4.2511.023,5.1816-.5594,1.6899-.5607,1.6897-1.0863-.1912zm-27.7662-16.8235c-2.2476-3.856-4.1252-11.3918-3.6514-14.655l.3795-2.6138h-3.057c-3.7312,0-4.1881.767-5.3252,8.9416-.6397,4.5981-.6377,6.261.01,7.418 .6557,1.1734.647,1.513-.041,1.5935-.6849.08 7.7365,1.5037 12.5043,2.1138 .5324.068.2102-1.0333-.8185-2.7981zm34.6668,1.5246c6.8768-.3383 12.8696-.8681 13.3173-1.1773 .5638-.3895.6246-1.3004.1978-2.9635-.3389-1.3207-.9774-5.1625-1.419-8.5373s-1.0868-6.3321-1.4339-6.5718-2.3253-.6314-4.3961-.8702c-4.264-.4918-3.7243-1.3782-5.1847,8.5155-.4261,2.8867-1.1453,6.1576-1.5983,7.2686-.7629,1.8712-.913,1.5131-2.0378-4.8605-.6678-3.7843-1.2262-7.6356-1.241-8.5585-.022-1.3512-.5794-1.7825-2.8632-2.2137-2.4095-.4549-2.9903-.29-3.8589,1.096-.5624.8973-1.4984,1.6315-2.0801,1.6315-.819,0-.9519.5372-.5893,2.3823 .2575,1.3103.069,4.625-.4181,7.366-.8268,4.6486-.967,4.902-2.0857,3.7705-1.9352-1.9571-2.8714-5.3989-2.6111-9.5987l.2431-3.921-3.0796.0004c-1.6937.0003-4.9373.5831-7.2079,1.2951l-4.1284,1.2946 .3642,6.6607c.5603,10.2476-.1532,9.6313 10.5097,9.0782 5.0037-.2595 14.7242-.7486 21.601-1.0869zm-48.8719-2.93c-1.691-2.4025-3.1536-9.7206-2.6441-13.2296 .3685-2.5373.3546-2.5513-3.4694-3.5077-5.7014-1.426-6.1306-.8856-6.1306,7.7188 0,4.1865.3172,7.4052.7807,7.9221 .4294.4788 3.0857,1.337 5.903,1.9072 7.232,1.4635 7.1677,1.4729 5.5604-.8108zm72.0687-1.238c2.0651-.7872 4.3308-1.4313 5.0349-1.4313 1.5311,0 1.5083.3981.2964-5.1762-.5411-2.4889-1.1803-5.8351-1.4204-7.4358-.5033-3.3558-1.2217-3.5512-6.1529-1.6734-3.0702,1.1692-3.2495,1.3931-3.2608,4.0747-.01,1.5606-.4754,5.2822-1.0418,8.2701s-1.0296,5.5267-1.0296,5.6417c0,.3324 3.4962-.7153 7.5742-2.2698zm-87.2693-2.7895c-2.8669-4.6532-4.0696-11.4046-2.7501-15.4377 .4582-1.4006.1965-1.7968-1.6662-2.5225-1.2153-.4735-2.5934-.8609-3.0623-.8609-1.0154,0-3.1883,5.4728-4.8821,12.2965-1.0361,4.1737-1.336,4.7054-1.9697,3.4926-.4111-.7869-.7524-4.7979-.7583-8.9134l-.011-7.4826-3.7313-.4906c-4.227-.5559-4.2834-.5085-7.5316,6.3283-1.529,3.2184-1.7722,4.3516-1.166,5.4329 1.5864,2.8296 20.1414,10.0735 26.1919,10.2252l2.6515.066-1.315-2.1343zm106.6038-.8852c2.0043-.4218 3.9179-.956 4.2526-1.1872 .3376-.2331.1824-2.9332-.3483-6.0621-1.9852-11.7036-1.7304-11.0554-4.4233-11.2531-1.3368-.098-3.9902.4257-5.8964,1.1642-3.4584,1.3398-3.4654,1.3494-3.2546,4.5018 .1161,1.7375-.2774,5.5137-.8746,8.3915s-1.0858,5.4273-1.0858,5.6656c0,.5267 6.637-.1699 11.6304-1.2207zm18.058-7.9943c3.3592-1.8436 3.4672-2.3877 1.8752-9.4415-1.3118-5.812-2.8756-7.4852-6.9964-7.4852-4.6784,0-5.796,1.1274-5.3451,5.3914 .2055,1.9437-.129,6.53-.7434,10.1916s-1.1171,6.8739-1.1171,7.1384c0,.4682 6.3801-2.5311 12.3268-5.7947zm-153.7266-12.882 1.1532-2.4924-2.2748.026c-2.2102.025-4.0204,1.2541-6.0331,4.0962-.8806,1.2433-.6684,1.7402 2.0834,4.8781l3.0638,3.4938 .4271-3.7546c.2349-2.065.9461-4.8761 1.5804-6.2469zm165.4266-3.8217 1.6997-2.4935-2.0645-1.1931c-4.2013-2.428-7.9562-.7705-6.2633,2.7648 .5193,1.0844.7019,3.696.4899,7.0078l-.338,5.2791 2.3883-4.4358c1.3135-2.4397 3.1531-5.5579 4.0879-6.9293zm-16.6996-19.6532c1.6849-1.2956 4.0592-3.7404 5.2762-5.4329 2.4829-3.4528 3.5759-3.9333 3.0285-1.3311-.4454,2.1171.1113,3.0472 2.5354,4.236 3.0721,1.5065 5.2066.256 8.2352-4.8249l2.7718-4.65-4.0572-.673c-3.8369-.6366-4.1558-.5628-5.8747,1.3582-.9997,1.1172-2.5435,2.0313-3.4308,2.0313-2.3246,0-4.7001-2.1264-4.7001-4.2072 0-1.5168-.4516-1.8617-2.9515-2.2539-1.6233-.2546-3.9271-.6861-5.1195-.9587-2.0261-.4633-2.1992-.3255-2.6434,2.1038-.2614,1.4297-.4196,3.4727-.3515,4.5398 .3109,4.8716.2033,8.3173-.3213,10.2837-.5486,2.0569-.4766,2.1344 1.9851,2.1344 1.7089,0 3.5684-.7797 5.6178-2.3555zm67.3897-10.8982c-.9888-1.3134-1.7979-2.6739-1.7979-3.0234 0-.5862-1.3174-1.446-8.53-5.5667-1.8951-1.0827-2.7424-2.1456-3.0412-3.815-.2277-1.2727-.6862-2.502-1.0188-2.7318s-.6048-.9845-.6048-1.6772c0-.7499.903.054 2.232,1.9862 1.299,1.8888 2.8231,3.257 3.6459,3.273 .7777.015 2.1953.5267 3.1502,1.1367s2.4284,1.1216 3.2745,1.1367c.8461.015 2.6221,1.0909 3.9466,2.3905l2.4081,2.3631 3.119-2.6607c1.7154-1.4634 5.3151-3.5986 7.9992-4.7449 4.1685-1.7801 5.1891-2.6051 6.9974-5.6563 1.1645-1.9647 2.1172-3.9728 2.1172-4.4624 0-3.0248 2.4756-9.121 5.2037-12.8139 1.7343-2.3478 5.2154-8.7294 7.7357-14.1814 3.3758-7.3027 5.7969-11.3898 9.1951-15.5225 2.5371-3.0854 6.7981-8.3819 9.4689-11.7699s7.6687-9.523 11.1063-13.6334 11.4066-13.9071 17.7089-21.7704 14.42764-17.775 18.05624-22.0258 5.5036-6.7634 4.1668-5.5834c-13.90824,12.2764-20.76614,16.9691-31.82404,21.7766-4.4739,1.945-11.0972,5.5143-14.7185,7.9318-7.3584,4.9121-19.5052,11.5664-26.423,14.475-6.9924,2.9399-9.5496,4.5943-17.7357,11.4743-12.2313,10.2798-14.3146,12.8806-19.4171,24.2399-2.4578,5.4716-4.4687,10.9287-4.4687,12.1269 0,3.9459.8402,6.9786 2.4823,8.9587 1.2465,1.5032 1.3707,1.9513.541,1.9513-1.6478,0-4.7509-4.1496-5.6718-7.5845-1.2953-4.8319-.9879-8.6706 1.3145-16.4112 3.7781-12.7022 6.4576-16.7105 17.6539-26.4082 10.3299-8.9473 13.7367-11.2389 23.0647-15.5147 10.1578-4.6562 19.302-9.719 26.1021-14.4518 2.7509-1.9146 8.283-4.9006 12.2935-6.6357s15.4172-7.7101 25.34814-13.2778c16.8907-9.4698 18.3026-10.4246 21.8757-14.7935 5.5639-6.8032 5.5004-7.1411-.5536-2.9448-6.6654,4.6202-17.7986,10.9156-24.80284,14.0251-4.828,2.1434-26.5331,14.3069-33.6772,18.8727-6.0632,3.8749-19.1693,9.6711-25.6914,11.362-3.6286.9407-9.7225,2.7059-13.5421,3.9228s-9.1322,2.6069-11.8059,3.0891c-4.6343.8359-13.0045,3.0961-15.9728,4.3133-.7639.3133-2.8733,1.9373-4.6876,3.6091-3.9675,3.6557-4.3478,2.3774-.8261-2.7772 1.8355-2.6864 3.8822-4.4111 7.942-6.6924 5.6525-3.1762 22.1144-8.9449 34.5359-12.1025 7.6778-1.9516 13.5495-4.3448 21.7183-8.852 7.5785-4.1814 19.2093-10.9732 23.6134-13.7889 2.1016-1.3437 8.2311-4.5251 13.6213-7.0698 12.37854-5.844 16.65244-8.256 27.00354-15.2394 4.5834-3.0923 10.0524-6.5858 12.1531-7.7634 5.2932-2.9669 9.10061-5.9192 15.98312-12.3934 3.25233-3.0593 6.8462-6.2302 7.98637-7.0463l2.07305-1.4839-2.47973,3.4808c-2.79453,3.9226-4.29646,6.7843-2.08722,3.9769 2.84306-3.6129 1.45483.3554-1.50963,4.3154-1.62332,2.1684-5.13906,6.8533-7.81276,10.4108s-6.54737,8.9222-8.6082,11.9216c-4.3546,6.3378-11.5619,15.4467-20.8957,26.4087-3.6346,4.2687-11.921,14.3805-18.41434,22.4706s-15.8686,19.637-20.834,25.6598c-21.5794,26.1746-22.4092,27.3236-26.5615,36.7758-2.1373,4.8652-5.3999,10.954-7.2502,13.5306-2.9359,4.0883-5.4257,10.2286-5.4257,13.3808 0,.5158-1.3744,3.0244-3.0542,5.5746-2.7406,4.1607-3.6142,4.8929-8.5072,7.1307-2.9992,1.3717-7.2189,3.6893-9.3773,5.1502-4.9087,3.3227-6.8663,3.3797-9.2089.2684zm-112.9201-30.4034c-4.0019-7.3353.2292-18.3015 9.6896-25.1137 4.1079-2.9581 4.1952-3.0935 4.1967-6.5134 0-4.285-1.4216-6.8467-6.4899-11.6802-2.5375-2.42-4.6891-3.782-6.48-4.1021-1.4747-.2635-3.2266-.9241-3.8933-1.4679-1.0054-.8201-.2324-.9205 4.5321-.5883 3.1594.2202 6.4888.8684 7.3987,1.4405 1.5025.9445 1.4576.7652-.4892-1.9527-2.7471-3.8353-4.6461-8.7207-5.7639-14.8287-.8234-4.4996-1.0227-4.8508-2.7524-4.8508-3.2735,0-8.8766-2.4792-11.6938-5.1741-3.3309-3.1864-4.4873-6.7522-3.9343-12.1317 .2283-2.2207.4918-4.7901.5856-5.7098 .3203-3.1393 1.2123-.9622 1.2123,2.9589 0,5.7634 1.5527,8.7566 5.7571,11.0981 6.8594,3.8201 10.61,2.4632 18.018-6.5181 9.2861-11.2586 21.0565-17.7417 39.0742-21.5221 13.7639-2.8879 27.8642,3.4582 30.0422,13.521 .3926,1.8142.5972,3.2986.4546,3.2986s-.8759-1.3509-1.6296-3.0019c-2.1114-4.6254-9.1823-7.8515-17.2263-7.8596h-4.3318l2.3107,4.0747c3.3311,5.8739 3.9416,8.439 4.4043,18.5058 .3912,8.5104.3175,9.2327-1.3578,13.3225-2.3129,5.6461-6.4349,11.8213-10.8563,16.2639l-3.5512,3.5683 3.9437-1.151c8.2551-2.4091 20.4662-10.5449 23.1727-15.439 1.7828-3.2238 2.2342-3.372 1.6237-.5329-1.3827,6.4291-6.203,13.0464-13.3847,18.3744-6.7137,4.9809-11.1692,6.2023-20.5507,5.6337-4.206-.255-8.6789-.8682-9.9398-1.3628s-2.4496-.7236-2.6418-.5089 2.7146,1.6918 6.4593,3.2824 8.7666,3.7671 11.1597,4.8366c7.597,3.3952 20.4516,2.2836 29.651-2.5641 1.895-.9986 3.5479-1.7013 3.673-1.5614 .6298.7038-7.4671,7.7293-11.2071,9.7241-5.3954,2.8778-9.2674,3.8794-15.0896,3.9034-3.9132.016-5.3547-.4025-9.7226-2.8244-6.9804-3.8705-11.9311-7.4571-15.7837-11.4345-2.1397-2.209-4.3196-3.636-6.4431-4.2179-1.7651-.4836-3.7964-1.1195-4.514-1.413-1.2398-.5071-1.2456-.4581-.1159.9846 3.3378,4.2627 4.3608,12.7527 2.0464,16.9839-.7504,1.3719-3.2969,3.5655-6.1992,5.34-2.7091,1.6564-6.0816,4.0765-7.4944,5.378-4.1667,3.8385-6.2759,10.7407-4.4483,14.5571 1.1985,2.5027.052,1.6788-1.4209-1.0212zm33.8026-48.7909c3.9961-.9055 4.3027-1.1279 4.6197-3.3509 .1867-1.3096.046-5.1751-.3128-8.59-.8471-8.0637-3.3126-19.8361-6.5525-31.2876-.5763-2.0369-8.7359,3.8447-15.5897,11.2374-3.6357,3.9216-7.923,7.9634-9.5272,8.9818l-2.9168,1.8516 2.0674,4.8856c4.1769,9.8705 8.1326,13.9051 15.9589,16.2772 2.8572.866 5.82,1.4374 6.5839,1.2697s3.315-.7413 5.6691-1.2748zm14.2138-7.4142c1.3867-1.636 3.8314-5.1497 5.4327-7.8082 3.2374-5.3749 4.1604-9.9081 4.1852-20.5553 .015-6.4158-2.0165-14.3096-3.8893-15.1128-.5444-.2335-2.9359.1414-5.3143.833-9.913,2.8826-14.7733,4.4904-15.291,5.0582-.3022.3315.7304,2.3171 2.2946,4.4125 6.5588,8.7859 9.8749,21.0319 8.3089,30.6837-.4379,2.6987-1.1034,5.5482-1.4789,6.3323-.6421,1.3408-.5663,1.3574 1.2741.2783 1.0762-.631 3.0913-2.4858 4.478-4.1217zm-84.9987,54.0707c-.2058-.6403-.9116-3.4343-1.5683-6.209-1.3558-5.7281-4.5041-13.5578-6.7138-16.6974-1.4853-2.1103-5.0966-4.2579-7.1598-4.2579-1.4683,0-2.1769,2.3167-.9698,3.1709 .5332.3773 1.6725.6913 2.5319.6978 2.4468.019 1.8299,1.4378-.8712,2.0041-6.3006,1.3209-8.7561-7.1598-3.0595-10.567 4.5922-2.7466 12.7612.7351 15.7068,6.6945 2.2217,4.4948 3.686,11.5477 3.6065,17.3718-.076,5.5952-.876,9.7418-1.5028,7.7922zm17.7411-3.6865c-.6773-2.4545-1.2288-6.7329-1.2256-9.5076 .01-4.4062.2875-5.5001 2.232-8.6421 4.2756-6.9084 8.6657-9.5556 12.468-7.5181 4.1336,2.2151 4.144,8.1249.019,10.7164-1.6486,1.0356-2.0412,1.0177-3.8498-.1763-1.9033-1.2565-2.0692-1.2559-3.0188.011-2.7831,3.713-3.4573,5.9301-3.8469,12.6494-.2209,3.8115-.6592,6.93-.974,6.93s-1.1264-2.0082-1.8037-4.4627zm12.2797-17.9939c.3954-.8257.7189-1.6989.7189-1.9404 0-.8579-1.7983-.4203-3.3886.8245-1.2647.9901-1.4109,1.4075-.6753,1.9285 1.4988,1.0614 2.5724.8006 3.345-.8126zm-52.2218,16.952c-2.0804-7.5065-6.3332-11.7045-12.8765-12.7102-5.2754-.8109-7.8848-3.073-9.3963-8.1458-1.8112-6.0782-.7288-10.7046 3.6082-15.423 2.8709-3.1234 10.2008-7.6967 10.9658-6.8418 .1655.185-1.1269,1.8319-2.872,3.6598s-3.9952,5.2021-5.0004,7.4981c-1.6597,3.7913-1.7512,4.4593-.9965,7.2746 .8672,3.2347 1.4682,3.6991 6.9005,5.3327 3.8545,1.1592 8.7175,6.1269 10.1762,10.3954 .7234,2.1171 1.0412,5.0266.9046,8.2821l-.2107,5.0185-1.2029-4.3404zm179.3336-1.0351c0-.8149 2.8649-4.5526 6.5274-8.5161 3.59-3.8851 7.045-7.9926 7.6777-9.1277 1.1018-1.9768 1.0828-2.1353-.4508-3.7534-1.3126-1.385-2.1368-1.6095-4.5743-1.2461-1.6352.2438-4.1297,1.3216-5.5433,2.3951-4.2177,3.2031-7.8035,2.3272-7.8035-1.9062 0-2.7658 5.645-13.2781 9.206-17.1437 4.0668-4.4148 12.3354-9.7173 18.6371-11.9518 4.9772-1.7648 15.9083-4.4147 15.9083-3.8565 0,.1417-3.8282,2.3112-8.5072,4.8213-8.7144,4.6749-18.0236,11.8512-22.1048,17.0403l-2.2954,2.9185 4.0217.4876c4.689.5686 7.1908,2.3386 8.9756,6.3504 2.5755,5.7889-.4107,10.3974-11.4143,17.6157-3.4273,2.2482-6.6879,4.816-7.2458,5.7062-.9381,1.4968-1.0144,1.5093-1.0144.1664zm-296.8157-7.3455c-.6534-.807-3.0307-2.5649-5.2829-3.9064-5.5385-3.2991-10.8343-8.0868-12.193-11.0232-2.8365-6.13 2.0722-13.096 9.228-13.096 2.0158,0 3.6651-.307 3.6651-.6821 0-1.1491-9.1483-10.3932-13.4051-13.5457-2.2088-1.6356-7.3028-4.7287-11.3202-6.8734s-7.2034-4.0123-7.0801-4.1502c.4215-.471 10.5761,1.9524 15.1183,3.608 9.4206,3.4337 17.5826,9.8829 22.3286,17.6427 5.2394,8.5665 6.2276,13.3841 3.0749,14.9895-1.4597.7433-2.1814.5211-5.0957-1.5688-5.2894-3.7934-11.9543-3.0954-11.9543,1.2518 0,.6861 3.2813,4.8139 7.2918,9.1728s7.292,8.313 7.292,8.7868c0,1.1946-.2967,1.0869-1.6674-.6058zm50.3349-6.3961c-2.8345-.42-5.9596-1.2848-6.9447-1.9217l-1.791-1.1581 1.9447.3265c2.7312.4587 16.1141-1.5474 20.2782-3.0397 1.9098-.6843 5.3474-2.2793 7.6392-3.5443 5.9659-3.2931 17.7388-10.9653 17.4026-11.341-.1564-.1747-4.2609.2807-9.121,1.0121-9.752,1.4677-13.5333,1.2338-20.3727-1.2597-3.7035-1.3502-5.2714-2.4779-8.2221-5.9134-4.2434-4.9405-4.7958-6.7963-1.0417-3.4991 4.9957,4.3876 6.8009,5.0119 14.7131,5.0887 4.4413.043 9.1125-.4027 11.8377-1.1299l4.5014-1.2012-3.9238-1.3793c-5.6771-1.9957-7.5439-3.5002-12.6644-10.2071-3.1598-4.1387-4.903-7.2099-5.6165-9.8952-1.2187-4.5863-1.3769-17.275-.2863-22.9586 .9063-4.7227 6.5024-14.2834 10.141-17.3254l2.5528-2.1344h-3.6627c-6.0915,0-10.6532,1.9181-13.8876,5.8396-2.9275,3.5494-3.3965,5.4533-2.0632,8.3757l.7735,1.6953-1.5374-1.6514c-3.117-3.3483-.8282-11.7985 4.3464-16.0469 4.7371-3.8893 8.9325-5.1961 17.313-5.393l7.8459-.1844 4.8613,3.2264c5.4883,3.6426 7.466,5.7832 10.9939,11.9 4.3243,7.4974 14.2303,20.4389 18.8682,24.6498 5.0791,4.6117 10.8573,7.2772 15.9628,7.3637 5.4193.092 7.4231-1.213 9.9244-6.4626 1.2443-2.6117 1.5826-4.3875 1.4159-7.4337-.2476-4.5268.4218-4.7213 1.4877-.4323 1.0675,4.2958.8786,8.1764-.5812,11.9375-2.4817,6.394-6.9266,9.2043-14.4716,9.1498-2.5905-.019-5.8854-.5029-7.3221-1.0758-1.7674-.7048-2.7566-.7805-3.0588-.2341-.2593.4688-.1103.5753.3551.2539 1.8836-1.3011.5553.8718-1.6153,2.6423-1.3083,1.0672-3.5143,3.5896-4.9022,5.6054-3.1206,4.5326-10.4998,12.2455-11.7157,12.2455-.4948,0-2.3458,2.0572-4.1134,4.5715-5.6813,8.0818-15.8809,16.0928-24.9609,19.6049-5.0432,1.9507-13.5296,2.4825-21.2825,1.3337zm43.3695-35.9503c6.9903-1.8427 10.3131-3.3507 16.9743-7.7037l6.3786-4.1684-4.7419-3.985c-5.4894-4.6131-15.8922-17.7284-21.6144-27.2503-3.4055-5.6668-4.6108-7.0089-8.5879-9.5628-4.4066-2.8299-4.72-2.9163-6.5974-1.8207-3.2056,1.8707-5.5385,5.1751-8.2749,11.7211-2.5613,6.127-2.576,6.2204-2.4719,15.6804 .058,5.2343.4176,10.4364.8,11.5604 .7514,2.2089 5.9511,10.0267 8.0648,12.1255 1.9332,1.9197 9.1931,4.4761 12.7586,4.4927 1.7188.01 5.0092-.4821 7.3121-1.0892zm-4.2978-6.6175c-5.6293-3.6082-7.8756-8.2865-7.8756-16.4024 0-5.9014 2.21-12.4164 5.3785-15.8554 1.3657-1.4823 2.5778-2.5892 2.6936-2.4598s-.2643,1.9653-.8448,4.0798c-.8181,2.98-.954,5.8511-.6046,12.7698 .4556,9.0213 1.6433,13.4915 4.8972,18.433 1.5327,2.3275.6563,2.1916-3.6443-.565zm56.3626,20.5666c-3.6891-1.3866-10.6801-4.7084-11.2504-5.3458-.5871-.6561 2.9894.087 9.425,1.9586 3.8222,1.1115 5.6696,1.3012 7.2919.7488 4.2057-1.4321 7.0717-1.568 10.8535-.5144l3.8195,1.0641-3.8195.072c-2.1008.04-5.8509.7651-8.3336,1.6123-5.2053,1.7763-4.4394,1.7375-7.9864.4044zm0-8.574c-1.5278-1.0517-3.5591-1.9187-4.514-1.9267-2.2131-.019-4.8612-.8041-4.8617-1.4421-.001-1.152 8.4166-.2201 11.0215,1.2203 2.326,1.2861 2.9968,1.3689 4.3705.5394 2.6765-1.6163 7.7426-2.0855 10.2368-.9481l2.2481,1.0252h-3.3476c-2.0542,0-4.5728.6781-6.5184,1.7463-3.9852,2.1878-5.1817,2.1573-8.6352-.2199zm-92.3956-7.7057c-1.3984-1.5628-1.6959-2.6434-1.6558-6.015 .076-6.4304 1.0363-8.1159 1.6776-2.9457 .7683,6.1935 1.3846,7.512 4.321,9.2439l2.6334,1.5532-2.6358.034c-1.8997.025-3.1119-.4977-4.3404-1.8707zm188.5054-2.9193c.3938-1.1594 1.3826-3.5683 2.1974-5.3533 1.0124-2.2179 1.3489-3.986 1.0628-5.5847-.4117-2.3003-.3953-2.3158.9754-.9295 2.5345,2.5634 1.4385,7.1911-2.7585,11.647l-2.1931,2.3284 .716-2.1079zm-85.9843-28.5491c-.079-6.5017 5.2886-16.3445 8.8605-16.2494 1.7975.048 1.8053.068.2856.751-1.4711.6609-5.7696,9.2155-8.1774,16.2745l-.9266,2.7165-.042-3.4926zm-10.1768-2.1343c-4.0998-5.2495-7.2406-9.831-7.2406-10.562 0-1.3047 5.8328,3.9848 7.9522,7.2115 2.033,3.0951 3.8698,7.8132 3.0418,7.8132-.1474,0-1.8364-2.0082-3.7534-4.4627zm10.5268-24.6593c-.7537-7.1614-.7105-7.0938-4.8249-7.5684-4.5588-.5258-18.2008-7.9497-21.8134-11.8708-2.7552-2.9904-2.1656-3.3877 1.7312-1.1665 2.6601,1.5163 13.367,4.5066 18.772,5.2428 3.327.4532 3.2697.602 2.5056-6.5064-.4044-3.7621-.5805-4.0667-2.5982-4.4926-10.8625-2.2931-12.5135-2.9871-15.6311-6.5713-2.7056-3.1104-4.985-7.3472-4.9117-9.1294 .014-.3339.7169.3073 1.5626,1.4248s2.9068,3.0279 4.5804,4.2454c2.7058,1.9683 3.7922,2.2471 9.8083,2.5172l6.7655.3037 .74-3.7729c.4069-2.0751.9241-5.8685 1.1492-8.4297s1.3322-8.6382 2.4602-13.5043c1.2081-5.2123 1.8765-9.6768 1.6267-10.8658-.356-1.6945-.2704-1.8562.5337-1.008 .7632.8051.9577,4.8637.9577,19.9857v18.9753l4.06-.0003c5.704-.0006 10.8004-1.8668 16.0336-5.8715 7.1168-5.4459 7.0129-4.625-.6206,4.9051-1.5125,1.8883-4.236,4.2749-6.0523,5.3034-2.7262,1.544-9.9019,3.3431-13.5943,3.4085-.5861.01-.8681,1.3835-.8681,4.228v4.2128l6.0766-1.838c6.3137-1.9097 11.8724-3.9983 16.2977-6.1236 1.4201-.682 3.1389-1.2179 3.8196-1.1908 1.0778.043 1.0583.1312-.1514.6845-.7639.3495-2.0139,1.4284-2.7778,2.3977-2.4593,3.1206-11.0786,8.9285-17.1991,11.5892l-5.9535,2.5881-.4908,4.7338c-.7754,7.4787-1.43,8.5178-1.9934,3.1643z"/>
<path d="m356.25737,725.80841c-18.149-5.3138-22.3069-6.9462-27.7051-10.8773-1.9502-1.4202-5.1084-3.5699-7.0182-4.7772-4.6954-2.9681-13.3298-10.3684-16.3728-14.0326-3.2098-3.8652-9.0134-12.3228-10.8395-15.7965-.7854-1.4941-2.5696-4.805-3.9649-7.3577s-2.8546-6.0453-3.2428-7.7613c-1.4746-6.518-7.8083-28.2447-10.1861-34.9411-3.3048-9.3077-5.2925-13.0164-8.3789-15.6338-7.8216-6.6327-12.6808-13.4615-12.5931-17.6975l.049-2.3705 1.2698,3.1045c1.4515,3.5485 3.4839,5.4394 11.9744,11.1406 6.8548,4.6028 8.0383,6.0327 11.3189,13.6753 2.4283,5.6571 9.7501,29.6214 11.7441,38.4383 2.3142,10.2331 14.6477,29.3484 23.9495,37.1186 2.8998,2.4223 6.3661,5.0738 7.7029,5.8923s4.462,2.9365 6.9447,4.7068c5.3474,3.8129 7.843,4.8878 19.7855,8.5224 8.8983,2.7081 9.206,2.7453 22.5702,2.7336 15.1689-.013 16.7182-.3114 34.7301-6.6816 17.5877-6.2202 17.9288-6.3935 22.8834-11.6223 4.3627-4.6044 11.9768-16.952 14.323-23.2274 .5496-1.4701 3.419-6.5658 6.3764-11.3239s7.0169-11.3118 9.0211-14.5639 4.9161-7.8338 6.4708-10.1816c3.9544-5.9714 9.079-14.4893 11.2187-18.6475 .9942-1.9321 3.8226-6.0243 6.2852-9.0936 3.5268-4.3956 4.867-6.8067 6.3119-11.3555 1.009-3.1762 1.8413-6.593 1.8497-7.593 .02-2.393 2.0392-7.276 5.1285-12.4028 1.3725-2.2776 2.4954-4.812 2.4954-5.632 0-3.0488-5.5344-9.664-11.2747-13.4764-4.3783-2.9078-7.6341-6.1244-15.5092-15.3223-5.4821-6.403-10.9458-13.1668-12.1414-15.0306l-2.1738-3.3886 4.7504,4.2547c2.6128,2.3401 5.4856,4.6823 6.3841,5.2048 1.5636.9093 16.0498,13.7101 16.7697,14.8187 .191.2941 2.0661,1.6838 4.1668,3.0883 5.0446,3.3727 7.9998,6.4773 10.8666,11.4159 4.3023,7.4115 3.8831,9.9263-2.8802,17.2789-5.0476,5.4874-5.649,6.8649-6.2682,14.3583-.7036,8.5147-1.7518,11.9596-5.3667,17.6379-1.7052,2.6784-4.0743,7.0714-5.2648,9.7623s-4.594,8.731-7.5634,13.4226c-18.6337,29.4404-22.3903,35.6348-24.6645,40.6704-1.1567,2.5612-3.5058,7.1015-5.2202,10.0896s-3.512,6.1314-3.9946,6.9851c-1.6292,2.8821-8.9448,10.5899-11.8684,12.5047-1.5966,1.0457-8.7148,3.9802-15.818,6.521-23.0406,8.2415-21.8502,7.9877-38.628,8.2373-10.6505.1585-15.9265-.069-18.4034-.7944zm27.2223-19.8296c-1.5119-2.0081-1.8117-3.1395-1.7318-6.5349 .091-3.8725.1899-4.0865 1.7333-3.7568 3.3202.7094 4.818,6.6935 2.7289,10.9029l-.9019,1.8173-1.8285-2.4285zm-38.3853-15.9525c3.029-4.7001 9.4169-10.528 15.0995-13.7757 4.3283-2.4738 4.7793-2.9081 3.0082-2.897-3.6241.023-11.6755,2.2406-15.2783,4.2088l-3.4723,1.8969 2.0834-1.9014c1.1459-1.0457 3.7292-2.5945 5.7407-3.4417 4.182-1.7614 14.8502-3.3125 18.3149-2.663 2.1147.3964 2.2035.3414.9452-.5843-2.8992-2.1329-17.6652-1.115-30.9038,2.1303-4.1001,1.0051 3.4821-2.1918 8.3336-3.5137l5.2085-1.4192-4.514-.099c-6.111-.1337-9.2335-1.0339-18.3069-5.2778-8.5712-4.0089-13.6217-7.3717-16.7637-11.1616l-2.0834-2.5131 2.1402,1.6444c2.7846,2.1397 8.5952,4.6804 13.0617,5.7114 1.9518.4506 6.2051,1.6294 9.4517,2.6198 4.2294,1.2901 8.722,1.9395 15.8459,2.2906 6.2609.3085 12.4331,1.1231 16.6672,2.1995 5.9823,1.5209 8.6017,1.7041 23.7387,1.6605 16.1616-.047 23.8016-.7622 35.917-3.364 4.3655-.9375 2.9835.2582-3.1001,2.6824-6.9151,2.7555-7.2162,3.1095-2.4019,2.8245 2.1786-.129 5.6799.092 7.7807.4913 3.6814.6997 3.5683.7294-3.1251.8212-3.8196.052-8.8198.454-11.1115.8926s-5.24.9666-6.5517,1.1733c-3.6279.5716-3.2824.9088 1.0455,1.0203 4.9503.1276 11.5377,1.3005 15.576,2.7733l3.1251,1.1398-4.1668-.4231c-2.2918-.2328-6.9794-.9137-10.417-1.5132-10.4413-1.8208-11.2659-1.5292-5.2085,1.8414 4.3244,2.4063 13.8893,9.2214 13.8893,9.8962 0,.105-2.2657-.8507-5.0349-2.1239-16.0935-7.3991-35.0145-8.6651-53.6475-3.5895-6.8501,1.8659-15.6398,6.5216-19.7767,10.4753l-3.1095,2.9717 2.0006-3.1045zm60.8174-18.2389c.5729-.4138.7292-.7524.3472-.7524s-1.1632.3386-1.7361.7524-.7292.7523-.3473.7523 1.1633-.3385 1.7362-.7523zm-16.5277-18.8762c-.4587-1.4176-.834-3.3385-.834-4.2686 0-3.1062-1.2975-1.7383-1.7829,1.8796-.5344,3.9821-1.6605,3.2788-1.6788-1.0484-.014-3.2389-1.2829-3.2709-4.5005-.1137-2.5515,2.5037-2.9755,2.4572-1.709-.1875 .7126-1.4881.5966-1.5336-2.6042-1.0217-1.8425.2946-4.4059,1.2492-5.6964,2.1214l-2.3463,1.5857 1.2109-2.0652 1.2108-2.0653h-2.2096c-1.2703,0-3.1506.8022-4.4233,1.8871-1.2176,1.0378-3.1499,2.2607-4.2941,2.7174-2.015.8043-1.9931.7435.6975-1.9343l2.7779-2.7647-3.1251.3994c-1.7188.2196-4.3751.6047-5.903.8558-2.7207.4471-2.7421.4324-1.0417-.7127 1.6213-1.0918 1.6399-1.1709.2804-1.1966-.8008-.015-2.4396.5209-3.6419,1.1912s-2.891,1.0886-3.7527.9295c-1.2323-.2275-.9081-.5234 1.5188-1.3864l3.0855-1.0972-3.0765-.8372c-2.5405-.6913-3.5015-.6103-5.5161.4647-1.3418.716-3.5334,1.5477-4.8702,1.8483-2.3488.5282-2.38.5052-.926-.6836 .8276-.6767 2.6812-1.5035 4.1191-1.8374l2.6145-.6071-4.5706-1.0153c-3.6742-.8162-4.8906-.8247-6.2025-.043-1.4399.8577-1.5286.832-.7538-.2182 .7571-1.0263.4927-1.2592-1.9186-1.6901-2.1238-.3795-3.5048-.1008-5.7394,1.1586l-2.9427,1.6583 1.6666-2.0154c1.5217-1.8403 1.5602-2.0611.4421-2.5406-.6894-.2956-2.7835.1964-4.7917,1.1259l-3.5672,1.651 1.8859-1.862 1.8858-1.862-6.7471-2.9173c-7.7189-3.3375-11.0793-5.9182-16.7359-12.853-4.2482-5.208-11.3221-16.5494-13.9591-22.3803-.8688-1.9209-3.1461-5.731-5.0608-8.4669l-3.4812-4.9743 2.6047,2.2203 2.6048,2.2204-.3576-2.9659c-.1967-1.6312.033-4.2282.5114-5.7711l.869-2.8053 .8559,2.8982c.4707,1.594 1.1626,2.8982 1.5374,2.8982s.4822-.3607.2384-.8014-.7128-1.8525-1.0425-3.1371c-.5698-2.2204-.3359-2.0932 4.7426,2.5781 2.9381,2.7026 6.4719,5.8662 7.8529,7.0303l2.5109,2.1164 2.1805-2.4925c1.4386-1.6446 2.0451-2.9691 1.7827-3.8932-.6121-2.1555.2081-1.7419 5.6886,2.8681 5.0943,4.285 6.8584,4.9442 9.3092,3.4784 1.0944-.6546 1.2025-1.1394.6293-2.8241-.966-2.8396-.5105-2.9665 2.4876-.6927 1.4349,1.0883 3.1122,1.9832 3.7274,1.9887s3.0994.704 5.5207,1.5522c5.9065,2.0693 9.3179,2.0084 11.429-.204 .9165-.9605 1.5315-2.1828 1.3668-2.7164-.6799-2.2028.6781-.708 2.9281,3.2229 2.7643,4.8294 5.1308,7.1335 8.3461,8.1256 3.0903.9536 7.7054-.1104 9.7389-2.2454 1.5168-1.5926 1.6432-2.2174 1.3148-6.4997l-.3633-4.7378 1.1772,2.3284c.6475,1.2806 2.0969,3.6381 3.2208,5.2388 2.0022,2.8517 2.1385,2.9105 6.7446,2.9105h4.701l.4505-5.6269c.2477-3.0948.8645-7.3732 1.3706-9.5075l.9202-3.8807 .5047,4.1873c.2776,2.303 1.1129,5.5197 1.8563,7.1482s1.3517,4.0314 1.3517,5.3395c0,1.7651.4103,2.5529 1.5911,3.0546 .8751.3718 2.0071,1.2363 2.5156,1.9211 1.2992,1.7495 2.1484,1.5792 5.8731-1.178 3.6783-2.7229 5.4118-5.9588 6.7216-12.5467 1.0275-5.1687 1.5709-4.7229 2.8228,2.3163 .5399,3.0358 1.2171,4.8922 1.7844,4.8922 .5029,0 1.5513.7118 2.3297,1.5819 3.2354,3.6158 9.5912-.6115 12.8764-8.5642 1.0451-2.5299 2.1633-4.418 2.485-4.1958s.5849,2.0889.5849,4.1482c0,2.8749.2822,3.8502 1.2153,4.2004 .6684.2508 1.7252.8749 2.3485,1.3869 2.3082,1.896 9.2266-3.3323 13.9073-10.5098 2.4928-3.8225 2.5719-5.7045.2399-5.7045-3.5095,0-4.9348-3.5054-2.8062-6.9018 .9831-1.5685.8999-1.6358-2.6042-2.1063-1.9909-.2672-5.2041-.489-7.1404-.4927-3.3075-.01-3.5808.146-4.514,2.5157-1.6679,4.2349-6.8964,3.7216-6.8964-.6771 0-1.8025-.1411-1.8453-6.0807-1.8453h-6.0807l-.9431,2.3812c-1.2604,3.1823-3.875,4.2862-6.1706,2.6052-.9493-.6951-1.8893-1.9621-2.089-2.8156-.3335-1.4252-.733-1.5074-4.8988-1.0089-5.7517.6884-5.8247.7267-7.0715,3.7149-.8336,1.9977-1.458,2.4964-3.1251,2.4964s-2.2904-.4977-3.1251-2.5056c-.9513-2.288-1.3198-2.5071-4.2435-2.5224-1.761-.01-4.5991.1972-6.3068.4588-2.9538.4525-3.1361.6287-3.7429,3.618-.7329,3.6106-2.1187,4.8785-4.5781,4.1886-1.7816-.4997-3.3517-3.3182-3.3517-6.0166 0-1.4566-.4134-1.5298-7.4655-1.3217-7.3919.2181-7.4632.2383-7.2364,2.0443 .3466,2.76-1.239,6.2868-3.0554,6.7963-2.5435.7134-3.195-.074-4.7887-5.7865-.448-1.6061-.3312-1.76.9823-1.2941 .8676.3078 1.9406.1117 2.5666-.4689 .9609-.8913.9388-1.0579-.207-1.5618-.7054-.3103-4.3296-.5887-8.0537-.6187-6.0438-.049-6.771.094-6.771,1.325 0,.7588-.499,2.1757-1.1088,3.1487-1.4996,2.3928-3.7351,1.9031-5.4777-1.1998l-1.3999-2.4925-7.6391.031c-4.2016.017-7.2485.2075-6.7711.4229 1.0996.4958 1.0868,3.3752-.022,4.9757-1.3239,1.9108-5.0812.514-5.6701-2.1079-.4577-2.0383-.4895-2.0475-5.4846-1.5756-6.8422.6464-14.8173,2.5839-18.1265,4.4036-1.507.8287-2.8437,1.3909-2.9705,1.2492-.8323-.9303 11.9146-9.0091 14.2177-9.0107 1.219-.0008 1.0795-.8143-.3473-2.0247-1.436-1.2183-.6453-1.3458 2.3638-.3814 2.23.7148 8.5741-.3084 8.5741-1.3827 0-.307-.375-.9772-.8334-1.4894-1.1425-1.2769-.2012-1.1678 2.2755.2635 1.6294.9417 2.6155,1.0249 4.6531.3924 1.4221-.4414 3.445-.8045 4.4954-.8068 2.1473-.01 2.2291-.1924 1.1253-2.5778-.6706-1.4492-.4887-1.3855 1.2533.4391 1.8058,1.8914 2.5699,2.1343 6.7119,2.1343 4.4059,0 4.6328-.086 3.9552-1.5012-1.3355-2.7887-.7305-3.4584 1.2289-1.3604 1.6927,1.8124 2.5209,2.0855 6.3245,2.0855 3.756,0 4.3152-.179 3.9433-1.2621-.395-1.1504-.2886-1.1561 1.2025-.064 .9106.6669 4.1824,1.4461 7.3811,1.7579l5.7453.5601-.5032-1.7721-.5033-1.7721 1.5985,1.6643c1.388,1.4452 2.4186,1.6644 7.8254,1.6644 6.1892,0 6.2193-.01 4.9661-1.557-1.8975-2.3432-.9322-2.5259 1.9162-.3627 2.0011,1.5196 3.404,1.9197 6.7316,1.9197 3.7983,0 5.2314-.7508 3.593-1.8824-.3358-.232-.7869-1.1751-1.0023-2.0957-.3391-1.449-.089-1.3463 1.859.764 2.1772,2.3584 2.4505,2.438 8.3685,2.438 5.2896,0 6.0609-.166 5.6969-1.2259-.5529-1.6104.245-5.0936 1.0409-4.5439 .3412.2357.6204,1.67.6204,3.1873v2.7587l3.2987-.5188c2.3478-.3692 3.7702-1.1218 4.9341-2.6105 1.6108-2.0602 1.6298-2.0641 1.2599-.2578l-.3756,1.8339 6.0321-.5397c4.9838-.446 6.2508-.8321 7.2909-2.222l1.2588-1.6823-.4375,1.7463c-.4317,1.7226-.3482,1.7463 6.1487,1.7463 6.3599,0 6.6377-.073 8.0805-2.1343l1.4942-2.1344-.4078,2.1344-.4078,2.1343h4.6348c4.5149,0 4.7041-.082 7.3156-3.1495l2.6808-3.1495-1.1391,3.1817c-.6265,1.7499-1.0219,3.3064-.8786,3.4588s2.9169.518 6.1636.8125c5.6099.5087 6.0346.4349 8.5555-1.4868 2.5548-1.9476 2.7714-1.5165.6362,1.2663-1.1767,1.5336-.6367,1.7491 6.3289,2.5258 3.3737.3762 4.4621.1766 6.4238-1.1784 2.3483-1.622 3.31-1.022 1.3202.8236-1.4604,1.3546-1.2961,2.3284.3929,2.3284 .789,0 2.0336.3582 2.7656.7961 1.0279.6148 2.1406.3377 4.8847-1.2164 4.1714-2.3623 5.0064-2.113 2.0944.6255-2.1209,1.9944-2.1364,2.8993-.05,2.8993 .6465,0 2.8601.9956 4.9191,2.2124s5.2094,2.4296 7.0008,2.6952 4.2351.9289 5.4306,1.4742c1.9818.9039 1.6026.9872-4.2987.9436-3.5598-.026-7.1311-.296-7.9362-.5993-1.3453-.507-1.4959-.2036-1.8608,3.7483-.4771,5.1654-2.531,9.1731-5.3761,10.4902l-2.0911.968 1.7129,2.5098c.9421,1.3804 1.9198,3.4307 2.1725,4.5562s.594,2.0464.7584,2.0464c1.1794,0 6.1606-6.7598 8.1942-11.1199 1.3573-2.9104 2.4679-4.8101 2.4679-4.2216 0,2.9465-3.3902,11.6382-6.3441,16.2646-1.83,2.8662-4.9561,8.4587-6.9468,12.4278-5.8386,11.6406-8.4093,14.5878-15.088,17.2979-6.0162,2.4413-10.7479,5.186-9.9228,5.7559 .4703.3248-1.0322.5906-3.339.5906-4.7817,0-5.7081.5447-3.7962,2.2318 1.2116,1.069 1.1081,1.0803-1.0924.1193-1.3368-.5838-3.6184-.9039-5.07-.7113-2.5394.3369-2.5944.4058-1.4511,1.8177 1.8115,2.237.8278,2.4122-1.9025.3387-2.404-1.8256-2.5025-1.8353-6.3843-.6278-2.1685.6745-3.9395,1.4309-3.9356,1.6808s1.332,1.1148 2.9515,1.9221c2.0826,1.0381 2.5896,1.5657 1.7322,1.8025-.6666.1841-2.595-.4371-4.2851-1.3805-1.8273-1.0198-3.576-1.4995-4.3137-1.1831-1.0237.439-.7297.8725 1.6809,2.4791 1.6069,1.0709 2.9216,2.0831 2.9216,2.2493 0,.2638-4.5092-1.3731-8.6809-3.1513-1.2143-.5176-1.172-.3262.3369,1.5227l1.7257,2.1148-1.9461-.827c-1.0704-.4548-2.5684-1.1991-3.329-1.654s-2.3145-.5985-3.453-.319c-1.7301.4246-1.9944.7836-1.6092,2.186l.4609,1.6779-1.6936-1.7463c-.9314-.9605-2.5438-1.7463-3.583-1.7463-1.6529,0-1.7994.188-1.1706,1.5012 .3954.8257.6995,2.3101.6759,3.2986-.035,1.4458-.333,1.1523-1.5258-1.5013-1.3043-2.9017-1.7646-3.2985-3.8265-3.2985h-2.3437l.4772,4.2687c.5458,4.8818.2649,5.3912-.9322,1.6912zm5.069-12.105c15.3706-.7978 17.3468-1.1639 16.6072-3.0763-.2672-.6909-.933-4.0503-1.4794-7.4652-1.7137-10.7091-1.3001-10.0569-6.5414-10.3168l-4.58-.2271-.4864,4.1078c-.7743,6.5389-1.8572,11.5218-2.4195,11.1334-.4769-.3294-1.9167-8.294-2.3189-12.828-.1425-1.6062-.6503-2.0128-3.0927-2.4764-2.6036-.4941-3.1525-.3141-5.0349,1.651-1.7751,1.8532-2.1191,2.8071-2.1527,5.9689-.022,2.0698-.2598,5.147-.5283,6.8382l-.4883,3.0749-1.5199-2.1594c-1.4838-2.1081-2.3877-6.6931-2.0872-10.5875 .1402-1.8176-.052-1.9377-3.0415-1.899-1.7552.023-4.9584.515-7.1183,1.0941l-3.9271,1.0529v5.988c0,3.2934.1922,7.0619.4271,8.3745 .3915,2.1879.695,2.4137 3.6459,2.7123 1.7704.1791 5.2502.1986 7.7329.043s10.7643-.607 18.4034-1.0035zm-32.2146-2.7676c-2.4784-4.3677-3.7828-9.4768-3.4413-13.4795l.2639-3.0921-3.138-.3276c-1.7869-.1865-3.5151.052-4.0137.5545-1.0765,1.0842-2.986,12.7618-2.4983,15.2787l.3544,1.8295-1.4326-1.8198c-1.8974-2.4102-2.978-7.1379-2.7463-12.0158 .1722-3.6264.044-4.0077-1.5152-4.4937-.9368-.2921-3.3165-.5659-5.2882-.6085l-3.5849-.077-.4736,3.1326c-.6308,4.1726.2455,12.1606 1.4862,13.5472 .5463.6106 2.1552,1.3079 3.5753,1.5496s4.9257.9604 7.7904,1.5972c4.6869,1.0418 6.6371,1.2809 14.3949,1.7651l2.2417.1399-1.9747-3.4799zm57.7627-1.5748c2.9747-1.0617 6.6165-1.9304 8.0929-1.9304 4.8918,0 15.8547-2.9385 21.7054-5.8179 7.388-3.636 10.3081-5.2814 10.7476-6.0562 .6081-1.0722-1.8833-12.0531-3.1129-13.7202-.9084-1.2316-2.0488-1.6112-5.0469-1.6796-4.9232-.1125-7.1681,1.0965-6.4156,3.4553 .2981.9344.5271,2.7468.509,4.0274-.051,3.5913-1.8299,14.4481-2.2841,13.9404-.2221-.2482-.9018-3.8356-1.5104-7.972-1.2873-8.7489-1.1842-8.6707-8.6485-6.5642l-4.8613,1.3719-.4077,5.8209c-.2242,3.2015-.8247,7.3926-1.3343,9.3135l-.9266,3.4926-1.2133-5.4329c-.6673-2.9881-1.2435-6.1314-1.2805-6.9851-.147-3.3908-.9348-3.7297-5.4085-2.3269l-4.1617,1.3051-.7806,5.9437c-.4293,3.2691-.9836,7.2536-1.2317,8.8543-.5588,3.6044-.027,3.6718 7.5697.9603zm-86.5315-2.6759c-3.5679-4.7387-4.6517-10.9519-2.931-16.802 .398-1.3529.1405-1.7199-1.4837-2.1157-1.0808-.2633-2.6055-.6841-3.3882-.9352-1.1764-.3774-1.6886.1909-2.9561,3.2798-.8432,2.055-2.1045,5.8319-2.8029,8.3931l-1.2698,4.6568-.9024-4.6568c-.6436-3.321-.7114-5.7114-.2366-8.3337l.6659-3.6771-2.1816-.4574c-4.5487-.9536-6.7637-.1604-8.8089,3.1547-1.0533,1.7075-2.2845,4.3155-2.7358,5.7956-.7632,2.5026-.6951,2.7958.9726,4.1874 4.0508,3.3799 21.3208,9.5794 27.1225,9.7362l2.666.072-1.73-2.2978zm-31.3322-14.6596c.029-2.2212.6478-5.0471 1.5115-6.899l1.463-3.1369-2.1228-.4745c-2.4094-.5385-5.8487,1.4358-7.3857,4.2397-.8594,1.5679-.6512,2.0114 2.7542,5.865 2.0261,2.2929 3.6946,4.1686 3.7076,4.1683s.045-1.6935.072-3.7626zm163.1074-4.3501c1.3747-2.7472 3.314-6.0768 4.3095-7.3991s1.6931-2.4766 1.5501-2.5653c-5.2395-3.2492-6.4641-3.4873-8.7462-1.7009-1.4308,1.12-1.4528,1.312-.4556,3.9791s.9642,4.6871-.1978,11.4339c-.5694,3.3062.6633,2.0013 3.54-3.7477zm-13.0713-26.0913c1.2799-.884 3.5804-3.2415 5.1123-5.2389l2.7853-3.6315v2.9445c0,1.9412.3003,2.8774.8726,2.7476 .4775-.1082 1.4931.1745 2.257.6284 2.7988,1.6627 5.5223-.097 8.578-5.544 1.5567-2.7749 2.6074-5.0472 2.3347-5.0497s-2.3334-.3408-4.5795-.7519c-3.8955-.713-4.1461-.659-5.4326,1.1687-.9476,1.3468-2.0302,1.9161-3.6435,1.9161-2.6314,0-4.0278-1.4807-4.0278-4.2711 0-1.4867-.3603-1.9379-1.5475-1.9379-.8511,0-3.4684-.2244-5.8162-.4986l-4.2686-.4987v2.2838c0,1.256-.3415,2.6653-.7588,3.1317-.5488.6133-.527,1.3321.079,2.5968 .8359,1.7457.635,7.6031-.3518,10.2538-.44,1.182-.079,1.3582 2.7855,1.3582 2.1165,0 4.1215-.5736 5.6181-1.6073zm-92.7911-16.2436c0-.4268-.4872-.7761-1.0827-.7761s-.8895.3493-.6534.7761 .7232.7762 1.0827.7762 .6534-.3493.6534-.7762zm83.336-1.9861c0-.1882-.4872-.3422-1.0826-.3422s-.8864.3549-.6465.7887c.3964.7168 1.7291.3727 1.7291-.4465zm-184.5048,20.7878c-1.5959-1.5901-4.2238-3.9389-5.8396-5.2195-5.8287-4.6195-5.5522-6.237 2.6609-15.5637 3.3631-3.8191 7.113-8.2973 8.3332-9.9514 2.0393-2.7646 2.1361-3.1389 1.1982-4.6354-.5611-.8954-1.0203-2.4357-1.0203-3.4229s-.5055-2.6573-1.1235-3.7112c-1.1004-1.8769-1.4748-7.3359-.6103-8.8991 .2403-.4344-1.297-3.1242-3.4161-5.9773s-4.4835-6.6871-5.2543-8.52c-2.8178-6.6993-1.2224-15.0898 4.7327-24.8901 3.7735-6.2103 5.062-13.2087 3.3526-18.2109-.6344-1.8564-1.1534-4.2444-1.1534-5.3068 0-2.934 3.5638-7.149 8.4551-10l4.3926-2.5603-4.0106,4.4974c-2.2057,2.4736-4.1985,5.3348-4.4283,6.3582-.2761,1.2293.2401,3.3145 1.5208,6.1434 1.8778,4.1476 1.9162,4.4746 1.2191,10.3752-.6037,5.1096-1.1854,6.8827-3.6053,10.9894-4.1759,7.0863-6.5084,12.8514-6.8615,16.9589-.26,3.0231.1626,4.7328 2.6468,10.7081 1.6259,3.9109 3.0628,7.1107 3.1933,7.1107s1.3476-1.3097 2.7049-2.9105c1.9922-2.3497 2.4469-2.6114 2.36-1.3582-.06.8537-.058,3.1239 0,5.0448l.1106,3.4926 1.4601-3.1045c1.7599-3.742 4.8059-8.3218 5.224-7.8545 .4349.4861-1.6345,4.8341-4.7625,10.0063-2.2512,3.7223-2.5829,4.7446-1.9612,6.043 .6912,1.4434.9759,1.2198 3.7295-2.928 3.0094-4.5335 5.9712-7.9386 5.9712-6.8652 0,.9487-2.8149,5.2202-5.983,9.0789-2.1572,2.6275-2.852,4.0426-2.5721,5.2388 .2109.9015.6072,1.639.8806,1.639 .9363,0 14.6339-15.9071 16.708-19.4031 1.1396-1.921 2.0734-3.066 2.075-2.5446 .01,1.8229-3.3279,9.3428-6.4404,14.528-4.8376,8.059-20.4869,27.4405-24.4478,30.2782-1.9167,1.3732-3.9214,3.0886-4.4549,3.8121-1.036,1.4049-.861,1.7201 4.289,7.7225 1.642,1.9138 4.4063,6.7819 3.8171,6.7221-.1052-.011-1.4972-1.3204-3.0932-2.9104zm263.2219-12.7371c-.8216-.4402-2.0443-1.9428-2.7172-3.3391-.7109-1.4753-2.533-3.3094-4.3498-4.3784-1.7195-1.0118-4.0786-2.4072-5.2424-3.1009-1.2022-.7165-2.3325-2.1659-2.6173-3.356l-.5013-2.0948 1.6567,1.9978c.9112,1.0988 2.2185,2.0092 2.9052,2.0232 2.537.052 8.6747,2.9326 10.5696,4.9614l1.9542,2.0925 3.3904-2.8121c1.8647-1.5466 5.484-3.7979 8.0429-5.0028 5.3119-2.5014 7.8563-5.2855 8.9035-9.7421 1.4931-6.3545 2.8322-9.4238 5.9261-13.5822 1.7468-2.3477 4.8408-8.1105 6.8757-12.806s4.7495-9.9768 6.0326-11.7361c2.917-3.9995 17.1714-21.7504 24.5559-30.5794 3.0557-3.6534 10.8622-13.2644 17.3479-21.3578s14.4583-17.8587 17.71683-21.7005c10.87406-12.8206 11.07773-13.3925 1.74204-4.8919-11.30737,10.296-19.23307,15.4566-32.98717,21.4787-4.0106,1.756-8.6982,4.2635-10.417,5.5722-4.161,3.1682-19.542,11.8268-26.2375,14.7702-8.2823,3.6409-11.5572,5.7594-20.2721,13.1143-10.536,8.8915-13.8134,13.079-18.4547,23.5789-3.282,7.4249-3.7879,9.1759-3.7879,13.1095 0,2.7057.4642,5.5434 1.149,7.0238 1.1039,2.3864 1.0995,2.4381-.1129,1.3196-2.0284-1.8713-3.92-7.5505-3.9608-11.8915-.044-4.6683 3.0659-15.3708 6.2897-21.6458 2.6595-5.1768 6.0494-8.8253 16.08-17.307 8.3054-7.0228 12.2908-9.5895 20.4868-13.1939 6.5098-2.8629 21.7364-11.3941 26.2375-14.7004 1.9935-1.4644 7.9997-4.6273 13.3471-7.0288s17.0666-8.5647 26.04254-13.696c16.25289-9.2913 16.33924-9.354 21.00762-15.2667 2.5782-3.2653 4.68765-6.1864 4.68765-6.4912s-2.42196,1.1115-5.38212,3.1472c-9.02236,6.2047-16.86492,10.7042-26.62339,15.2744-5.1234,2.3994-11.9716,5.9921-15.2182,7.9838s-8.0197,4.7383-10.6068,6.1036-5.5559,3.1545-6.5974,3.9761c-3.2971,2.6008-17.6241,9.3016-24.1166,11.2794-11.3549,3.459-25.6061,7.377-31.545,8.6722-9.4725,2.0661-14.0811,3.9548-17.4181,7.1386l-3.0702,2.9292 2.2799-3.7117c4.7161-7.6776 11.8401-10.9879 42.8087-19.8921 9.6698-2.7803 21.5246-7.9083 27.4315-11.8659 5.8657-3.9301 27.062-15.6746 35.1998-19.5036 8.78164-4.132 18.45832-9.7703 25.91324-15.0989 2.10076-1.5016 6.4759-4.2949 9.72253-6.2073 7.45543-4.3915 10.079-6.4247 17.18806-13.3202 3.15114-3.0564 5.72935-5.3272 5.72935-5.046s-.93754,1.834-2.0834,3.4509c-2.22978,3.1464-2.74622,4.6855-1.04171,3.1045 2.48566-2.3054.58177.7411-5.73872,9.1829-3.72924,4.9808-8.8712,12.0248-11.42659,15.6532s-8.02009,10.685-12.14379,15.6815c-10.88326,13.1866-31.82617,38.8421-36.66527,44.9157-2.2917,2.8764-8.3857,10.3758-13.5421,16.6654-20.4074,24.892-19.7165,23.9216-24.1933,33.9822-2.311,5.1935-5.6306,11.3636-7.3768,13.7114-2.8366,3.8137-4.52711,7.8033-4.5383,10.7102-.01,1.5943-2.0526,5.6899-4.5996,9.205-1.86201,2.5698-3.481,3.7158-7.9348,5.6165-3.07761,1.3134-6.908,3.3926-8.5121,4.6204-3.6472,2.7918-5.2901,3.3176-7.1882,2.3007zm-290.68761-7.8937c-1.8033-1.4329-5.6358-3.566-8.5164-4.7402-4.343-1.7703-5.7692-2.814-8.3505-6.1118-3.0325-3.8742-3.6495-5.2894-5.1497-11.812-.3985-1.7323-2.4369-5.6759-4.53-8.7636s-5.2507-9.0046-7.0169-13.1489c-4.0429-9.4859-3.9584-9.368-24.3178-33.9973-3.8478-4.6549-10.8793-13.2986-15.6254-19.2083-10.0937-12.5681-17.1219-21.177-31.9011-39.0762-5.92419-7.1748-12.32429-15.3153-14.22249-18.0899s-6.5978-9.2359-10.4433-14.3583c-7.4141-9.8755-9.143-12.4662-7.0587-10.5767 1.6673,1.5114 1.455.2745-.4368-2.5442-3.1385-4.6765-2.7028-4.5185 3.4144,1.2384 7.1454,6.7245 10.9131,9.657 16.2535,12.6504 2.1007,1.1776 7.5696,4.6711 12.15319,7.7633 10.3511,6.9835 14.6249,9.3955 27.0034,15.2395 5.3902,2.5447 11.5198,5.7261 13.6214,7.0698 4.404,2.8157 16.0349,9.6075 23.6133,13.7889 8.1688,4.5071 14.0405,6.9004 21.7183,8.852 12.3879,3.149 28.87741,8.9229 34.49121,12.0773 3.5333,1.9854 6.1406,4.0769 7.4782,5.9987 3.322,4.7729 3.4299,5.4659.3756,2.4123-3.3277-3.3269-6.2325-4.4127-20.56481-7.687-5.6775-1.297-11.1464-2.709-12.1532-3.1377s-5.6088-1.7834-10.2268-3.0104c-12.9063-3.4292-22.1454-8.0015-48.2027-23.8546-2.8647-1.7428-9.1149-4.973-13.8893-7.1781-9.2214-4.259-16.8825-8.6289-26.22969-14.9617-3.1586-2.14-5.8875-3.7294-6.0641-3.532s1.8883,3.1301 4.5887,6.5172l4.90989,6.1583 17.4742,9.8795c9.6108,5.4337 21.0681,11.4516 25.4605,13.3732s10.2372,5.0603 12.9881,6.9749c6.8002,4.7328 15.9445,9.7956 26.1021,14.4517 9.328,4.2758 12.7348,6.5674 23.0646,15.5147 11.19641,9.6977 13.87601,13.706 17.65401,26.4082 2.965,9.9683 2.6735,15.5678-1.0728,20.6127l-1.6477,2.2188 1.0362-2.3284c.57-1.2806 1.0382-4.363 1.0405-6.8498 0-4.0133-.4795-5.5834-4.3002-13.9702-4.9374-10.838-7.41021-13.936-18.60211-23.3058-7.6229-6.3816-11.7229-8.9796-19.8031-12.5483-6.4893-2.866-20.3995-10.661-25.697-14.4002-2.3477-1.657-6.7454-4.0869-9.7726-5.3997-14.0604-6.0976-23.4444-12.1931-34.5387-22.4351-3.3645-3.1061-6.2705-5.4761-6.4578-5.2668s3.0343,4.3681 7.159,9.2418 12.6559,15.2822 18.9582,23.1298 14.2713,17.6316 17.7089,21.7419 8.4355,10.2455 11.1063,13.6335 6.9319,8.6844 9.4689,11.7698c3.3982,4.1328 5.8194,8.2199 9.1952,15.5225 2.5203,5.452 6.0014,11.8337 7.7357,14.1815 2.728,3.6929 5.2036,9.7891 5.2036,12.8138 0,.4897.957,2.5048 2.1265,4.4782 1.7074,2.8808 2.8819,3.9037 5.9596,5.1906 5.2969,2.2149 7.4771,3.5511 10.2774,6.299l2.4094,2.3642 1.94041-2.2808c1.8272-2.1478 9.3661-5.5813 12.255-5.5813 .6538,0 1.4714-.7858 1.8169-1.7463 .3507-.9752.6428-1.2322.6614-.5821 .069,2.4356-2.1109,4.3094-9.4943,8.1579-1.2414.6471-2.2569,1.4942-2.2569,1.8826 0,1.5258-3.6798,5.4821-5.09891,5.4821-.8267,0-2.9786-1.1724-4.7819-2.6053zm258.42991-20.5443c1.9344-3.0651 1.8838-3.1453-4.5978-7.2937-4.0196-2.5727-4.3524-2.9366-2.277-2.4901 3.3761.7264 5.8742,2.2735 7.5763,4.6918l1.4488,2.0583 1.5635-3.7891c1.274-3.0872 1.5637-5.1548 1.5641-11.1623l.0005-7.3732-3.9932-9.3611c-2.1962-5.1485-3.9931-10.1367-3.9931-11.0847 0-3.2055 1.8682-6.7466 5.4674-10.3631 3.9746-3.9937 5.6333-6.9544 5.6397-10.0666 0-1.5533-1.0778-3.169-4.3361-6.4805-3.9877-4.0529-4.139-4.3184-1.8614-3.2677 3.9029,1.8005 8.1501,5.0403 9.0379,6.8941 1.0195,2.1291.9263,8.6833-.156,10.9643-.4489.9462-2.3294,3.6236-4.1788,5.9499-3.7287,4.6901-4.0476,6.39-1.9733,10.5174 2.4537,4.8822 4.9695,12.2048 5.5127,16.0454 1.247,8.8162-2.2192,19.0355-8.407,24.7856-3.5441,3.2935-3.6123,3.3211-2.0372.8253zm-83.2693-5.5759c-.9956-2.6861-.5069-7.4806 1.1634-11.4144 1.3727-3.2329 5.7672-8.2912 10.3107-11.8682 2.9809-2.3467 3.4903-3.1318 3.6779-5.6685 .2778-3.7562-2.1127-8.4679-6.177-12.1747-4.0243-3.6704-5.5344-4.5947-7.5829-4.6412-1.3794-.031-1.5221-.1939-.6944-.7917 1.7164-1.2396 4.3015-.8715 8.2289,1.1718 2.0432,1.063 3.8667,1.9327 4.0522,1.9327s-.9098-1.5834-2.4341-3.5187c-3.2631-4.143-5.1666-8.4462-6.3397-14.3322-1.4608-7.3296-1.2409-6.9851-4.4595-6.9851-3.6036,0-9.4563-3.1109-11.8607-6.3044-2.3654-3.1417-3.4677-7.5923-2.7931-11.2776l.5464-2.9854 .5502,3.3067c1.12,6.732 4.6916,10.2952 11.5274,11.5003 3.8749.6832 7.6472-1.7701 13.2734-8.6321 7.5618-9.2227 15.4344-14.332 28.7878-18.6833 11.5578-3.7662 20.1634-4.3693 26.3748-1.8483 7.4971,3.0429 13.0902,8.1052 12.9929,11.7601-.015.5744-.4709.1333-1.0125-.9803-1.8165-3.7353-12.7325-7.5621-18.7121-6.5599l-3.2547.5454 1.8252,2.6743c3.1387,4.5989 4.5973,9.3749 5.2728,17.2648 .8636,10.0876.054,14.1663-4.2377,21.3366-3.323,5.5526-10.3216,13.7191-11.7571,13.7191-.4048,0-.736.3121-.736.6936 0,.7825 3.71-.026 8.8131-1.9208 4.8473-1.7997 14.6381-8.028 17.708-11.2647 3.3731-3.5564 3.387-2.1519.032,3.2153-5.0272,8.0418-13.9213,14.6503-21.9497,16.309-3.7581.7764-5.2705.6785-19.187-1.2412l-3.1251-.4311 2.6762,1.6485c1.4719.9066 5.6908,2.8838 9.3753,4.3938s7.7928,3.214 9.1297,3.7867c5.3491,2.2918 20.7343.4599 27.2841-3.2486l2.2307-1.263-2.0834,2.4782c-5.1986,6.1838-19.203,11.1519-26.3733,9.356-5.2738-1.3208-16.4886-8.6554-21.624-14.1422-1.5713-1.6788-3.9151-3.3422-5.2085-3.6963s-3.8335-1.1662-5.6447-1.8046l-3.2933-1.1608 2.353,3.0722c2.6885,3.5103 4.1391,8.8354 3.4785,12.7702-.5518,3.2876-3.3585,6.5549-7.6034,8.8515-5.5766,3.017-9.662,7.1971-11.3695,11.6331-.9462,2.458-1.3989,4.7889-1.1475,5.9081 .578,2.574.033,2.3088-1.0036-.4887zm34.1495-46.1137c5.8769-1.5703 5.6908-1.2256 5.2246-9.6785-.353-6.3993-2.6288-18.2206-6.4403-33.4534-.9938-3.9718 4.4906,4.0933 7.8689,11.5717l3.2991,7.303-.015,8.2195c-.012,6.4162-.2898,8.7887-1.2665,10.814-1.5397,3.1931-1.192,3.6927 1.4911,2.1421 2.6458-1.5292 8.143-8.4171 11.1473-13.9676 2.1281-3.9318 2.3877-5.1054 3.0178-13.6447 .632-8.5642.5688-9.7791-.7587-14.577-2.1419-7.7415-1.92-7.5493-7.1062-6.1546-19.0551,5.1245-24.4977,8.1289-35.2021,19.4323-3.9825,4.2055-8.3016,8.1415-9.598,8.7469-2.28,1.0646-2.3257,1.1698-1.3984,3.2195 .5272,1.1654 1.5251,3.516 2.2174,5.2235 3.0213,7.4508 7.9092,12.3434 14.4073,14.4208 5.2434,1.6763 7.9719,1.7559 13.1121.3825zm-51.7261,44.5703c-3.0266-12.6269-2.4442-17.0468 3.0979-23.511 4.3698-5.0968 8.9993-5.8431 11.3522-1.8299 1.9164,3.2687-.6657,8.2661-4.2711,8.2661-1.0637,0-1.0204-.1733.3016-1.2082 1.8356-1.4369 2.1279-5.0008.4102-5.0008-1.4205,0-5.2739,4.5135-7.5009,8.7857-1.1926,2.2879-1.873,5.1889-2.308,9.8413-.4297,4.5954-.758,6.0083-1.0819,4.6568zm-19.5301-4.2109c-.7075-5.2727-6.0796-16.9627-8.9-19.3668-2.3956-2.0421-6.9476-2.8201-7.7725-1.3284-.6271,1.1338.2674,2.9118 1.9115,3.7997 1.4708.7943 1.4577.8238-.3877.8746-1.0504.029-2.5348-.646-3.2987-1.4998-3.1452-3.5149-.5955-8.0639 4.9234-8.7842 2.6734-.3489 3.776-.04 6.8384,1.9145 3.1306,1.9981 3.9305,3.0188 5.6101,7.1587 2.3378,5.7621 3.2626,11.0528 2.9002,16.5918-.3255,4.9738-1.2019,5.2811-1.8247.6399zm-21.1415-.058c-2.085-6.8122-7.1618-11.4217-13.5808-12.3305-4.4334-.6277-6.4514-2.1681-8.0744-6.163-1.7086-4.2056-1.6854-7.7853.076-11.8531 1.4823-3.4222 7.2567-8.9896 10.3834-10.0113 1.6926-.553 1.6813-.5018-.4518,2.0444-4.0207,4.7992-5.7991,8.437-5.7882,11.8395 .015,4.7837 1.2828,6.9545 4.521,7.7431 4.9909,1.2155 6.5803,2.2043 9.623,5.9863 3.2321,4.0176 4.8528,8.7938 4.4726,13.1809l-.2312,2.6682-.9502-3.1045zm187.2486-9.3873c4.6537-5.0639 7.1183-8.321 7.1183-9.4074 0-4.707-6.1921-5.5843-12.2183-1.731-3.0233,1.9331-3.967,2.2142-5.1194,1.5249-2.6702-1.5971-1.6373-5.9299 3.3625-14.1047 6.1828-10.1089 18.843-18.1771 32.0313-20.4131 2.8343-.4806 2.4307-.1355-4.3374,3.7079-4.1044,2.3308-9.8446,6.2769-12.7561,8.7691-5.0241,4.3006-9.9907,9.9183-9.9907,11.3004 0,.3501 1.8751.6365 4.1668.6365 3.9353,0 4.3211.1724 6.9447,3.1045 5.445,6.0853 3.1976,11.3677-7.9864,18.7714-2.6737,1.7699-5.6425,3.7511-6.5974,4.4026s1.467-2.3011 5.3821-6.5611zm-47.7446,2.758c-2.1008-.7839-4.6008-1.4766-5.5557-1.5393-1.6544-.1088-1.6386-.1467.3354-.8048 2.5148-.8384 6.5184.2355 8.8005,2.3606 1.9734,1.8377 1.3818,1.835-3.5802-.016zm-263.55021-5.8336c-10.4678-7.079-13.4-12.1716-10.165-17.6547 1.9895-3.3723 4.116-4.6357 8.7114-5.176l4.2316-.4975-4.9494-5.5361c-5.7496-6.4312-12.686-11.6626-21.0586-15.8823-4.7682-2.4031-5.3905-2.8907-3.1597-2.4758 11.5534,2.1492 23.092,8.1263 29.6945,15.3819 3.0703,3.3739 8.8484,14.074 8.8484,16.3854 0,3.8273-2.8869,4.4386-6.9098,1.4633-3.2751-2.4222-7.7893-3.2587-10.1064-1.8728-3.828,2.2896-2.8465,4.6285 5.7757,13.7617 3.3176,3.5143 5.8758,6.3761 5.6848,6.3596s-3.1598-1.932-6.5975-4.2567zm58.48811-1.4909c-3.7356-.5327-6.9447-1.1393-7.1314-1.348s3.0258-.8041 7.1391-1.323c9.4786-1.1959 14.6773-3.0329 23.7794-8.4027 6.9796-4.1176 14.8252-9.5231 14.4399-9.9488-.1013-.1118-3.6217.279-7.8233.8686-15.5701,2.1847-23.8041.7106-29.9829-5.3677-3.4064-3.351-3.6098-4.7202-.2942-1.9807 1.3543,1.119 4.0811,2.1082 7.5201,2.7281 5.4913.9897 8.492.7523 18.8508-1.4916l4.4274-.959-5.4691-1.8218c-5.1138-1.7034-5.794-2.1964-10.4718-7.5885-2.8606-3.2973-5.8343-7.6592-6.9447-10.1862-1.8148-4.1302-1.9376-5.0291-1.876-13.733 .047-6.698.4028-10.3694 1.2652-13.0736 1.6008-5.0191 6.7958-12.8035 10.3273-15.4747 1.5706-1.188 3.0276-2.3661 3.2377-2.6179 .6265-.7506-10.513.3004-13.3525,1.2598-3.2469,1.0971-7.0934,4.7887-8.8418,8.4856-1.1228,2.3743-1.3259,2.5278-1.352,1.0226-.09-5.2175 4.4308-11.4668 10.5413-14.5705 3.6604-1.8592 5.505-2.2652 11.5087-2.533 6.9195-.3087 7.2957-.2386 11.6901,2.1791 6.0803,3.3453 8.776,6.1427 13.2728,13.7735 4.787,8.1232 14.2585,20.1943 19.547,24.9119 6.1641,5.4987 16.0435,7.9957 20.7731,5.2502 2.7123-1.5743 4.8782-5.2426 5.8704-9.9425l.8662-4.1034 .2058,4.8112c.31,7.2441-2.5428,12.5305-8.0831,14.9785-3.1631,1.3976-10.2125,1.4107-13.9478.026-2.6007-.9641-3.1239-.9743-3.3948-.066-.1761.5905-1.79,2.8497-3.5864,5.0204s-4.8001,5.8351-6.675,8.1432-4.6972,5.1179-6.2719,6.244-4.4407,4.1661-6.3688,6.7554c-7.0532,9.4719-19.5469,17.9596-29.5458,20.0722-2.9937.6325-5.8063,1.1097-6.2501,1.0605s-3.8634-.5255-7.5989-1.0582zm45.2627-36.2359c4.8061-1.4068 18.4263-9.0708 19.6453-11.0542 .2615-.4255-.243-1.3138-1.1211-1.9741-7.3943-5.5597-17.6097-17.7777-24.4012-29.1849-2.0544-3.4507-4.2908-6.8016-4.9697-7.4464-2.445-2.3223-7.767-5.3157-9.4509-5.3157-2.9763,0-7.6828,5.7939-10.4819,12.9037-2.3507,5.971-2.4826,6.756-2.479,14.7464 0,4.6418.3362,9.7772.7424,11.4119 .7078,2.8486 5.3172,10.3519 8.0298,13.0711 1.3631,1.3664 7.1119,4.1037 10.0031,4.763 2.5956.5918 8.6365-.2093 14.4832-1.9208zm-9.1457-7.4694c-5.2731-4.2313-7.3474-10.8056-6.0231-19.0903 .8413-5.2633 3.4144-10.8586 5.5927-12.1615 1.2846-.7683 1.3486-.7007.6727.7108-.9468,1.9772-.9479,18.7487-.001,23.3936 .3914,1.9209 1.4819,4.8023 2.4235,6.403 2.0452,3.4771 1.0781,3.7473-2.6643.7444zm54.7053,20.4239c-2.2917-1.0736-4.297-1.9536-4.4561-1.9556s-.1277-.1843.07-.4052 2.3592.1709 4.8034.8708c3.8586,1.1049 5.184,1.1439 10.0628.2958 7.2105-1.2534 8.8197-.6616 3.039,1.1176-7.1967,2.2149-8.9335,2.2248-13.5191.077zm3.8617-6.8375c-1.3138-.9049-3.8138-2.0748-5.5558-2.5998l-3.1671-.9545 2.9329-.052c1.6757-.03 4.2539.6649 6.0149,1.621 2.9451,1.5991 3.1896,1.6164 5.5056.3881 1.3392-.7102 3.9304-1.2451 5.7911-1.1953 1.852.05 2.7423.2355 1.9784.4133-4.4688,1.0401-7.3616,2.1479-8.0582,3.086-1.0756,1.4484-2.6009,1.2504-5.4418-.7064zm-93.0674-8.1297c-1.7673-1.5992-2.5711-6.6168-1.5219-9.4996l.7062-1.9403 .048,2.3284c.081,3.9355 1.4075,8.0444 2.9995,9.2906 1.1601.9081 1.2534,1.1871.3972,1.1871-.6157,0-1.7987-.6148-2.6289-1.3662zm189.2855-4.2557c.2287-.7443 1.0082-2.6518 1.7322-4.2388s1.3163-3.4054 1.3163-4.0409c0-.8106.2187-.9109.733-.3362 1.0744,1.2008.1373,4.3731-2.1727,7.3553-1.1136,1.4376-1.8375,2.0048-1.6088,1.2606zm12.5253-10.2516c-2.3871-2.4724-2.3225-3.4726.6008-9.3146 3.0863-6.1677 5.2613-15.3328 4.4182-18.618-.3335-1.2997-.6201-3.7625-.6369-5.4728s-.4543-4.4375-.9723-6.0604c-1.8977-5.9459-7.9537-14.0289-11.2908-15.07-1.0686-.3334-6.4744-.5979-12.0128-.5878-9.382.017-10.3364.1569-13.974,2.0476-2.1474,1.1162-4.118,2.4157-4.3791,2.888s-1.1583,1.2674-1.9936,1.767c-2.5747,1.54 2.1553-4.181 5.7978-7.0124 5.9768-4.646 9.7084-5.7419 19.8654-5.8344 9.082-.083 9.1536-.069 12.1003,2.2452 4.5735,3.5925 10.1545,12.2811 11.8396,18.4322 .7893,2.8809 1.6726,5.074 1.9629,4.8735s.9118-2.3867 1.3811-4.8583c.6648-3.5008.676-6.8924.051-15.3511-.4414-5.9717-1.0717-12.2546-1.4008-13.9621s-.8015-5.7239-1.0498-8.9254-1.0937-8.0911-1.8786-10.8658c-3.3568-11.8674-5.6722-14.6611-24.3225-29.347-3.3386-2.6289-8.3387-6.9093-11.1114-9.5119-7.5948-7.129-14.5052-10.9359-30.1009-16.5827-21.9997-7.9655-23.1132-8.2037-38.2526-8.1817-7.1935.01-14.3405.3447-15.8822.7428s-7.4794,1.6197-13.1949,2.7147c-15.3209,2.9354-35.643,9.7699-47.1985,15.8734-6.293,3.3239-7.5189,4.3444-13.0641,10.8764-3.3657,3.9646-7.7118,9.8744-9.6579,13.133-3.9351,6.5887-9.0638,17.663-10.1124,21.8353-.3754,1.494-1.4555,4.9866-2.4002,7.7612-1.0278,3.0188-1.9123,7.6942-2.2025,11.6419-.2667,3.6284-.6703,7.295-.897,8.1481-.3057,1.1511.3535.7783 2.5562-1.4456 5.4175-5.47 7.7636-6.1562 19.7423-5.7745 8.8598.2823 11.0023.5957 13.8594,2.0276 3.3418,1.6749 9.9464,6.7314 13.9821,10.7049l2.0834,2.0513-2.4306-1.5762c-1.3368-.867-5.3995-2.8716-9.0281-4.4548l-6.5974-2.8785-11.1115.5425c-7.728.3773-11.8066.9089-13.3944,1.7458-3.31,1.7448-8.8866,9.0867-11.6648,15.3573-4.045,9.1298-4.0207,13.8343.1061,20.539 3.296,5.355 4.0872,10.2211 2.3708,14.5807-1.4929,3.7921-2.3547,4.4388-1.2667.9507 1.2366-3.9642.1433-7.4473-3.8684-12.3241-4.5404-5.5196-6.2517-10.1606-5.8319-15.8168 .3501-4.7186 3.5027-12.8217 7.2663-18.6763l2.5032-3.894-.8201-8.9782c-.7811-8.5495-.7375-9.3914.9131-17.6309 .9534-4.759 2.6691-10.9589 3.8126-13.7774 4.2214-10.4049 12.1078-22.4171 21.5805-32.8705 4.0903-4.5138 9.9087-7.956 22.0147-13.024 5.9744-2.5011 8.6546-3.3854 25.239-8.3272 3.6285-1.0812 12.0931-3.0494 18.81-4.3738 10.574-2.0848 13.8523-2.4079 24.433-2.4079 11.3329,0 12.8101.1699 20.3403,2.3398 4.466,1.2869 10.3467,3.1736 13.0682,4.1928s7.7609,2.8098 11.1985,3.9793c10.5219,3.5797 19.0447,8.748 27.531,16.6949 4.4102,4.1299 14.8766,12.6753 22.4933,18.3649 2.3093,1.725 10.0445,11.2841 11.3687,14.0494 2.1455,4.4803 4.4223,14.5298 5.3684,23.6957 1.1701,11.335.8267,26.8503-.7214,32.5992-.6202,2.3031-.8212,6.5525-.6333,13.3864 .4919,17.8797.3812,19.3291-1.8841,24.6874-1.1342,2.683-2.0821,5.5429-2.1063,6.3553-.035,1.1836-.186,1.0916-.7588-.4633-.3931-1.0671-.5666-4.0358-.3855-6.597s.1203-6.4031-.1351-8.5374l-.4642-3.8806-1.9708,4.2687c-1.0839,2.3477-3.338,5.9126-5.0091,7.922s-3.0384,4.0824-3.0384,4.6067 .6795,1.7617 1.51,2.7497c1.9986,2.3776 1.2661,2.3038-1.0614-.1069zm11.0824-34.3645c-.2308-.2579-.3949.2005-.3648,1.0187 .033.9041.1979,1.088.4196.4689 .2006-.5603.1759-1.2297-.055-1.4876zm-110.4572,16.4765c.5044-4.0695 3.2839-10.4643 5.5848-12.849 1.5916-1.6493 1.3796-.8828-1.6217,5.8639-1.899,4.2687-3.6541,8.2851-3.9002,8.9254s-.2745-.2328-.063-1.9403zm-9.11.027c-.7383-1.0383-2.6997-3.652-4.3586-5.8082s-2.6741-3.9204-2.2562-3.9204c1.7399,0 9.1884,10.2406 8.2286,11.3132-.1492.1668-.8754-.5463-1.6138-1.5846zm9.0221-28.4449-.642-4.7339-3.3246-.2833c-3.736-.3183-17.4654-7.3939-20.9817-10.8131-1.1459-1.1142-1.6146-1.8527-1.0417-1.641 5.5938,2.0669 19.7962,5.9187 21.8236,5.9187 1.5791,0 1.6186-.1584 1.3066-5.2389-.4223-6.876-.5383-7.1791-2.748-7.1791-1.0363,0-4.4056-.7513-7.4873-1.6695-4.6069-1.3727-6.0649-2.2051-8.2013-4.6825-1.4291-1.6571-3.1058-4.1365-3.7261-5.5097l-1.1279-2.4967 1.5151,1.769c3.7541,4.3831 6.3175,5.437 13.9197,5.7225l7.1832.2698 .911-3.8806c.501-2.1344.9189-5.6269.9287-7.7613s.9442-7.5478 2.0766-12.0299 2.0948-9.1971 2.1388-10.4777l.08-2.3284 .6265,2.3284c.7005,2.6034.4027,31.8911-.3442,33.8495-1.1274,2.9562 10.7616,2.2475 16.523-.9849 1.5771-.8849 3.9038-2.4774 5.1702-3.5389s2.4287-1.7891 2.5828-1.6169c.5602.626-6.2074,8.5593-8.9556,10.4981-3.3267,2.347-8.6757,4.0698-12.6763,4.0827l-2.857.01-.4417,3.6009c-.8445,6.886-1.2262,6.5827 5.635,4.4771 6.4134-1.9683 11.8922-3.986 16.4936-6.0744l2.7778-1.2607-3.4617,3.5175c-3.6992,3.7587-12.0295,8.9629-17.9327,11.203l-3.6064,1.3685-.4878,4.8706c-.2683,2.6789-.6044,5.0009-.7469,5.1602s-.548-1.8407-.9011-4.4443z" fill="#502" filter="url(#filter3878)"/>
</g>
</svg>
