<?xml version="1.0" encoding="UTF-8" standalone="no"?>
<!DOCTYPE svg  PUBLIC '-//W3C//DTD SVG 1.0//EN'  'http://www.w3.org/TR/2001/REC-SVG-20010904/DTD/svg10.dtd'>
<svg style="shape-rendering:geometricPrecision;text-rendering:geometricPrecision;image-rendering:optimizeQuality" xmlns="http://www.w3.org/2000/svg" fill-rule="evenodd" xml:space="preserve" height="1828.4mm" width="1303mm" version="1.0" clip-rule="evenodd" xmlns:xlink="http://www.w3.org/1999/xlink" viewBox="0 0 123872 173813">
 <defs>
  <style type="text/css">
   <![CDATA[
    .fil1 {fill:#657021}
    .fil0 {fill:#B0CB1F}
    .fil4 {fill:url(#id2)}
    .fil2 {fill:url(#id3)}
    .fil3 {fill:url(#id4)}
    .fil5 {fill:url(#id5)}
    .fil6 {fill:url(#id6)}
    .fil7 {fill:url(#id7)}
   ]]>
  </style>
    <mask id="id0">
  <linearGradient id="id1" y2="85427" gradientUnits="userSpaceOnUse" x2="5778.3" y1="86552" x1="38941">
   <stop stop-color="#fff" offset="0"/>
   <stop stop-opacity="0" stop-color="#fff" offset="1"/>
  </linearGradient>
     <rect y="3691" width="44720" fill="url(#id1)" height="1.646e5"/>
    </mask>
  <linearGradient id="id2" y2="50%" y1="50%">
   <stop stop-color="#2B2A29" offset="0"/>
   <stop stop-color="#898989" offset="1"/>
  </linearGradient>
  <linearGradient id="id3" y2="50%" y1="50%">
   <stop stop-color="#D9DADA" offset="0"/>
   <stop stop-color="#FEFEFE" offset="1"/>
  </linearGradient>
  <linearGradient id="id4" y2="48.412%" x2="0%" y1="51.588%" x1="101.2%">
   <stop stop-color="#EBECEC" offset="0"/>
   <stop stop-color="#FEFEFE" offset="1"/>
  </linearGradient>
  <linearGradient id="id5" y2="55.363%" xlink:href="#id2" x2="0%" y1="44.637%" x1="105.67%">
  </linearGradient>
  <linearGradient id="id6" y2="88494" gradientUnits="userSpaceOnUse" x2="60505" y1="1.0035e5" x1="60757">
   <stop stop-color="#FEFEFE" offset="0"/>
   <stop stop-color="#B2B3B3" offset="1"/>
  </linearGradient>
  <linearGradient id="id7" y2="1.0082e5" gradientUnits="userSpaceOnUse" x2="61194" y1="88124" x1="60068">
   <stop stop-color="#FEFEFE" offset="0"/>
   <stop stop-color="#D9DADA" offset="1"/>
  </linearGradient>
 </defs>
 <g id="Warstwa_x0020_1">
  <g id="_698446640">
   <path class="fil0" d="m58640 0c23724 0 43254 30871 45734 70518 128 2043 211 4111 246 6198 334 3635 1151 8233 3205 15293 3369 11586 10068 29805 13541 42424 3472 12619 3718 19639-1701 25489s-16503 10531-30174 12563c-13670 2032-29927 1416-44768 246s-28265-2894-35839-5173c-7575-2278-9299-5111-8806-9237 492-4126 3202-9545 5480-15826 2279-6281 4126-13424 5240-24637 1114-11212 1494-26495 1874-41777 914-42284 21145-76081 45968-76081z"/>
   <path style="mask:url(#id0)" class="fil1" d="m11578 1.6829e5c-964-236-1864-479-2694-729-7575-2278-9299-5111-8806-9237 492-4126 3202-9545 5480-15826 2279-6281 4126-13424 5240-24637 1114-11212 1494-26495 1874-41777 735-34018 13974-62537 32047-72390-12170 15585-20368 42203-20942 72665-380 17525-760 35051-1874 47910-1114 12858-2961 21050-5240 28253-1914 6052-4132 11405-5085 15768z"/>
      <ellipse cy="50566" cx="39731" rx="11639" class="fil2" ry="14225"/>
      <ellipse cy="50566" cx="39731" rx="10161" class="fil3" ry="12419"/>
      <ellipse cy="56270" cx="39731" rx="4738" class="fil4" ry="6764"/>
      <ellipse cy="56270" cx="39731" rx="3996" class="fil5" ry="5704"/>
      <ellipse cy="50566" cx="74646" rx="11639" class="fil2" ry="14225"/>
      <ellipse cy="50566" cx="74646" rx="10161" class="fil3" ry="12419"/>
      <ellipse cy="56270" cx="74646" rx="4738" class="fil4" ry="6764"/>
      <ellipse cy="56270" cx="74646" rx="3996" class="fil5" ry="5704"/>
    <path class="fil6" d="m60631 88305c2134 980 3023 1258 3761 1892 738-634 1627-912 3761-1892 2134 980 3023 1258 3761 1892 738-634 1627-912 3761-1892 2134 980 3023 1258 3761 1892 738-634 1627-912 3761-1892 3822 1755 3650 1257 5771 4589l893 1529c-747 1279-2161 3729-3332 4589l-3332 1530-3332-1530c-140-103-284-228-429-372-145 144-289 269-429 372l-3332 1530-3332-1530c-140-103-284-228-429-372-145 144-289 269-429 372l-3332 1530-3332-1530c-140-103-284-228-429-372-145 144-289 269-429 372l-3332 1530-3332-1530c-140-103-284-228-429-372-145 144-289 269-429 372l-3332 1530-3332-1530c-140-103-284-228-429-372-145 144-289 269-429 372l-3332 1530-3332-1530c-140-103-284-228-429-372-145 144-289 269-429 372l-3332 1530-3332-1530c-1171-860-2585-3310-3332-4589l893-1529c2121-3332 1949-2834 5771-4589 2134 980 3023 1258 3761 1892 738-634 1627-912 3761-1892 2134 980 3023 1258 3761 1892 738-634 1627-912 3761-1892 2134 980 3023 1258 3761 1892 738-634 1627-912 3761-1892z"/>
    <path class="fil7" d="m60631 89165c2134 849 3023 1090 3761 1640 738-550 1627-791 3761-1640 2134 849 3023 1090 3761 1640 738-550 1627-791 3761-1640 2134 849 3023 1090 3761 1640 738-550 1627-791 3761-1640 3822 1521 3650 1090 5771 3979l893 1327c-747 1109-2161 3233-3332 3979l-3332 1327-3332-1327c-140-89-284-198-429-322-145 124-289 233-429 322l-3332 1327-3332-1327c-140-89-284-198-429-322-145 124-289 233-429 322l-3332 1327-3332-1327c-140-89-284-198-429-322-145 124-289 233-429 322l-3332 1327-3332-1327c-140-89-284-198-429-322-145 124-289 233-429 322l-3332 1327-3332-1327c-140-89-284-198-429-322-145 124-289 233-429 322l-3332 1327-3332-1327c-140-89-284-198-429-322-145 124-289 233-429 322l-3332 1327-3332-1327c-1171-746-2585-2870-3332-3979l893-1327c2121-2889 1949-2458 5771-3979 2134 849 3023 1090 3761 1640 738-550 1627-791 3761-1640 2134 849 3023 1090 3761 1640 738-550 1627-791 3761-1640 2134 849 3023 1090 3761 1640 738-550 1627-791 3761-1640z"/>
  </g>
 </g>
</svg>
