<?xml version="1.0" encoding="UTF-8" standalone="no"?>
<svg viewBox="0 0 330.47946 325.95135" xmlns="http://www.w3.org/2000/svg">
<path d="m227.1271,51.99802c-1.88857-23.2923-78.06067-85.61493-144.78996-22.66277s-72.39498,33.36464-78.69019,34.62368 6.26581,14.89338 23.92181,12.59043c43.43699-5.66569 72.39498-59.80455 112.68436-59.17503 40.59797.63434 62.32264,35.88274 62.32264,35.88274l24.55134-1.25905z" fill="#fff" fill-rule="evenodd" stroke="#000" stroke-width="4"/>
<path d="m140.1875,11.1875c-18.05434.20866-37.58976,7.31967-56.28125,26.0625-17.20967,17.25694-29.87968,27.16801-39.34375,32.625v1.9375c34.52787-14.64816 60.88576-54.98128 95.6875-54.4375 40.59798.63434 62.3125,35.875 62.3125,35.875l9.4375-.46875c-7.28341-16.4904-36.78513-41.99858-71.8125-41.59375z" fill-opacity=".31373" fill-rule="evenodd"/>
<path d="m317.14868,151.46242c0,56.98933-61.81769,161.78704-103.24154,161.78704-42.58485,0-103.24154-104.79771-103.24154-161.78704s46.25221-103.24154 103.24154-103.24154 103.24154,46.25221 103.24154,103.24154z" fill="#fff" stroke="#000" stroke-linecap="round" stroke-width="4"/>
<path d="m315.76072,134.60726c.2483,2.91879.375,5.86104.375,8.84375-1e-005,56.98933-61.7949,161.8125-103.21875,161.8125-38.83992-1e-005-92.73138-87.17961-101.90625-145.75 5.11104,58.24704 62.25819,153.74999 102.90625,153.75 41.42385,0 103.21874-104.82317 103.21875-161.8125 0-5.73889-.47321-11.35889-1.375-16.84375z" fill-opacity=".31373"/>
<path d="m285.66697,233.04476c24.03021-2.36465 42.81251-22.63283 42.8125-47.28125 0-26.23594-21.29531-47.53128-47.53125-47.53125s-47.53126,21.29529-47.53125,47.53125c0,1.84402.1078,3.67925.3125,5.46875" fill="#fff" stroke="#000" stroke-linecap="round" stroke-width="4"/>
<path d="m190.85447,191.76351c.24702-1.96182.375-3.97153.375-6 0-26.23594-21.26407-47.53128-47.5-47.53125s-47.53126,21.29529-47.53125,47.53125c0,25.25649 19.71447,45.92895 44.59375,47.4375" fill="#fff" stroke="#000" stroke-linecap="round" stroke-width="4"/>
<path d="m225.32187,291.60402c0,6.12719-7.33449,13.46167-11.09997,13.46167-4.23782,0-11.09996-7.33448-11.09996-13.46167s4.97278-5.43189 11.09996-5.43189 11.09997-.69528 11.09997,5.43189z"/>
<path d="m191.8739,250.61208c.00191,5.73842-3.52173,10.39166-7.86903,10.39166s-7.87092-4.65324-7.86901-10.39166 3.52173-10.39166 7.86901-10.39166 7.87094,4.65324 7.86903,10.39166z" stroke="#000" stroke-linecap="round" stroke-width="2"/>
<path d="m248.53084,250.61208c.00191,5.73842-3.52173,10.39166-7.86903,10.39166s-7.87092-4.65324-7.86901-10.39166 3.52172-10.39166 7.86901-10.39166 7.87094,4.65324 7.86903,10.39166z" stroke="#000" stroke-linecap="round" stroke-width="2"/>
<path d="m187.15249,248.1967c.00082,1.96986-.98588,3.56746-2.20332,3.56746s-2.20415-1.5976-2.20333-3.56746 .98588-3.56746 2.20333-3.56746 2.20414,1.5976 2.20332,3.56746z" fill="#fff"/>
<path d="m242.23562,249.14098c.00082,1.96986-.98588,3.56746-2.20332,3.56746s-2.20415-1.5976-2.20333-3.56746 .98588-3.56746 2.20333-3.56746 2.20414,1.5976 2.20332,3.56746z" fill="#fff"/>
<path d="m281.07322,144.98226c-17.8296.25116-34.35759,14.09505-38.625,31.25 8.38071-5.51319 18.89809-8.8125 30.3125-8.8125 22.94049-2e-005 42.24104,13.27117 47.875,31.25 8.97223-23.95691-11.56161-53.86142-37.5-53.65625-.69023-.03128-1.37547-.04093-2.0625-.03125z" fill-opacity=".31373"/>
<g stroke="#000" stroke-linecap="round" stroke-width="2.85967" transform="matrix(1.39174,0,0,1.40582,-239.24654,-659.88464)">
<path d="m340.57116,672.76068c32.73512-15.10851 47.84364-1.25904 47.84364-1.25904" fill="none" stroke="#000" stroke-linecap="round" stroke-width="2.85967"/>
<path d="m337.42356,678.42638c23.92181-15.10852 44.69602,9.44282 44.69602,9.44282" fill="none" stroke="#000" stroke-linecap="round" stroke-width="2.85967"/>
<path d="m337.42356,681.57398c25.18086-12.59043 29.58751,18.25613 29.58751,18.25613" fill="none" stroke="#000" stroke-linecap="round" stroke-width="2.85967"/>
</g>
<g stroke="#000" stroke-linecap="round" stroke-width="2.85967" transform="matrix(-1.39174,0,0,1.40582,667.06082,-659.88464)">
<path d="m340.57116,672.76068c32.73512-15.10851 47.84364-1.25904 47.84364-1.25904" fill="none" stroke="#000" stroke-linecap="round" stroke-width="2.85967"/>
<path d="m337.42356,678.42638c23.92181-15.10852 44.69602,9.44282 44.69602,9.44282" fill="none" stroke="#000" stroke-linecap="round" stroke-width="2.85967"/>
<path d="m337.42356,681.57398c25.18086-12.59043 29.58751,18.25613 29.58751,18.25613" fill="none" stroke="#000" stroke-linecap="round" stroke-width="2.85967"/>
</g>
<path d="m145.55775,144.98226c17.8296.25116 34.35759,14.09505 38.625,31.25-8.38071-5.51319-18.89809-8.8125-30.3125-8.8125-22.94049-2e-005-42.24104,13.27117-47.875,31.25-8.97223-23.95691 11.56161-53.86142 37.5-53.65625 .69023-.03128 1.37547-.04093 2.0625-.03125z" fill-opacity=".31373"/>
</svg>
