<?xml version="1.0" encoding="UTF-8" standalone="no"?>
<svg width="330.48" xmlns="http://www.w3.org/2000/svg" height="325.95">
 <g stroke-width="4" fill-rule="evenodd">
  <path id="path3264" stroke="#000" d="m227.13 51.998c-1.8886-23.292-78.061-85.615-144.79-22.663s-72.395 33.365-78.69 34.624c-6.2952 1.259 6.2658 14.893 23.922 12.59 43.437-5.6657 72.395-59.804 112.68-59.175 40.598 0.63434 62.323 35.883 62.323 35.883l24.551-1.259z"/>
  <path id="path2407" fill="#ffd4aa" d="m140.19 11.188c-18.054 0.20866-37.59 7.3197-56.281 26.062-17.21 17.257-29.88 27.168-39.344 32.625v1.9375c34.528-14.648 60.886-54.981 95.688-54.438 40.598 0.63434 62.312 35.875 62.312 35.875l9.4375-0.4688c-7.2834-16.49-36.785-41.999-71.812-41.594z"/>
 </g>
 <g stroke-linecap="round">
  <g stroke-width="4">
   <path id="path2383" stroke="#000" d="m317.15 151.46c0 56.989-62.117 161.79-103.74 161.79-42.791 0-103.74-104.8-103.74-161.79 0-56.989 46.476-103.24 103.74-103.24 57.265 0 103.74 46.252 103.74 103.24z"/>
   <path id="path3397" d="m315.76 134.61c0.24832 2.9188 0.375 5.861 0.375 8.8438 0 56.989-61.795 161.81-103.22 161.81-38.84-0.000031-92.731-87.18-101.91-145.75 5.111 58.247 62.258 153.75 102.91 153.75 41.424 0 103.22-104.82 103.22-161.81 0-5.7389-0.47321-11.359-1.375-16.844z"/>
   <g stroke="#000" fill="#ffd4aa">
    <path id="path2386" d="m285.67 233.04c24.03-2.3646 42.812-22.633 42.812-47.281 0-26.236-21.295-47.531-47.531-47.531s-47.531 21.295-47.531 47.531c0 1.844 0.10779 3.6793 0.3125 5.4688"/>
    <path id="path2388" d="m190.85 191.76c0.24701-1.9618 0.375-3.9715 0.375-6 0-26.236-21.264-47.531-47.5-47.531s-47.531 21.295-47.531 47.531c0 25.256 19.714 45.929 44.594 47.438"/>
   </g>
  </g>
  <g stroke-width="2">
   <path id="path2390" fill="#ffaad4" d="m225.32 291.6c0 6.1272-7.3345 13.462-11.1 13.462-4.2378 0-11.1-7.3345-11.1-13.462 0-6.1272 4.9728-5.4319 11.1-5.4319s11.1-0.69528 11.1 5.4319z"/>
   <g stroke="#000" fill="#fff">
    <path id="path2397" d="m191.87 250.61c0.001907 5.7384-3.5217 10.392-7.869 10.392s-7.8709-4.6533-7.869-10.392c-0.001907-5.7384 3.5217-10.392 7.869-10.392s7.8709 4.6532 7.869 10.392z"/>
    <path id="path2399" d="m248.53 250.61c0.001907 5.7384-3.5217 10.392-7.869 10.392s-7.8709-4.6533-7.869-10.392c-0.001907-5.7384 3.5217-10.392 7.869-10.392s7.8709 4.6532 7.869 10.392z"/>
   </g>
   <path id="path2401" d="m187.15 248.2c0.000809 1.9699-0.98589 3.5675-2.2033 3.5675s-2.2042-1.5976-2.2033-3.5675c-0.000809-1.9699 0.98589-3.5675 2.2033-3.5675s2.2041 1.5976 2.2033 3.5675z"/>
   <path id="path2403" d="m242.24 249.14c0.000809 1.9699-0.98589 3.5675-2.2033 3.5675s-2.2042-1.5976-2.2033-3.5675c-0.000809-1.9698 0.98589-3.5675 2.2033-3.5675s2.2041 1.5976 2.2033 3.5675z"/>
   <path id="path2427" d="m281.07 144.98c-17.83 0.25116-34.358 14.095-38.625 31.25 8.3807-5.5132 18.898-8.8125 30.312-8.8125 22.94-0.000015 42.241 13.271 47.875 31.25 8.9722-23.957-11.562-53.861-37.5-53.656-0.69022-0.031281-1.3755-0.040924-2.0625-0.03125z"/>
  </g>
  <g stroke-width="2.86" stroke="#000" fill="none">
   <g id="g3221" externalResourcesRequired="false" transform="matrix(1.3917 0 0 1.4058 -239.25 -659.88)">
    <path id="path2445" d="m340.57 672.76c32.735-15.108 47.844-1.259 47.844-1.259"/>
    <path id="path2447" d="m337.42 678.43c23.922-15.108 44.696 9.4428 44.696 9.4428"/>
    <path id="path2449" d="m337.42 681.57c25.181-12.59 29.588 18.256 29.588 18.256"/>
   </g>
   <g id="g3384" externalResourcesRequired="false" transform="matrix(-1.3917 0 0 1.4058 667.06 -659.88)">
    <path id="path3386" d="m340.57 672.76c32.735-15.108 47.844-1.259 47.844-1.259"/>
    <path id="path3388" d="m337.42 678.43c23.922-15.108 44.696 9.4428 44.696 9.4428"/>
    <path id="path3390" d="m337.42 681.57c25.181-12.59 29.588 18.256 29.588 18.256"/>
   </g>
  </g>
  <path id="path3405" stroke-width="2" d="m145.56 144.98c17.83 0.25116 34.358 14.095 38.625 31.25-8.3807-5.5132-18.898-8.8125-30.312-8.8125-22.94-0.000015-42.241 13.271-47.875 31.25-8.9722-23.957 11.562-53.861 37.5-53.656 0.69023-0.031281 1.3755-0.040924 2.0625-0.03125z"/>
 </g>
</svg>
