<?xml version="1.0" encoding="UTF-8" standalone="no"?>
<!DOCTYPE svg  PUBLIC '-//W3C//DTD SVG 1.1//EN'  'http://www.w3.org/Graphics/SVG/1.1/DTD/svg11.dtd'>
<svg id="flash0.ai" style="enable-background:new 0 0 62.9 38.9" xmlns="http://www.w3.org/2000/svg" xml:space="preserve" height="38.9px" viewBox="0 0 62.9 38.9" width="62.9px" version="1.1" y="0px" x="0px" xmlns:xlink="http://www.w3.org/1999/xlink">
<symbol id="flash0.ai_x5F_2_x2F_Layer_13_copy_x2F__x3C_Path_x3E_" viewBox="-0.033 -1.033 2.586 1.033">
	<g id="Layer_1_21_">
		<path fill-rule="evenodd" clip-rule="evenodd" d="m1.75 0c1 0 1.067-0.233 0.2-0.7-0.6-0.333-1.183-0.417-1.75-0.25-0.367 0.1-0.3 0.284 0.2 0.55 0.467 0.267 0.917 0.4 1.35 0.4z" fill="#784000"/>
	</g>
</symbol>
<symbol id="flash0.ai_x5F_2_x2F_Layer_13_copy_x2F__x3C_Path_x3E__x5F_1" viewBox="-0.012 -1.257 2.694 1.263">
	<g id="Layer_1_20_">
		<path fill-rule="evenodd" clip-rule="evenodd" d="m2.65-0.3c0.1-0.233-0.033-0.467-0.4-0.7-0.267-0.2-0.5-0.283-0.7-0.25-0.333 0.1-0.683 0.183-1.05 0.25-0.533 0.067-0.65 0.25-0.35 0.55 0.267 0.267 0.6 0.417 1 0.45 0.867 0.033 1.367-0.067 1.5-0.3z" fill="#784000"/>
	</g>
</symbol>
<symbol id="flash0.ai_x5F_2_x2F_Layer_13_copy_x2F__x3C_Path_x3E__x5F_10" viewBox="-0.044 -0.657 2.189 0.664">
	<g id="Layer_1_11_">
		<path fill-rule="evenodd" clip-rule="evenodd" d="m1.1 0c1.066-0.1 1.316-0.233 0.75-0.4-0.567-0.2-1.1-0.283-1.6-0.25-0.333 0.066-0.383 0.2-0.15 0.4 0.267 0.2 0.6 0.283 1 0.25z" fill="#784000"/>
	</g>
</symbol>
<symbol id="flash0.ai_x5F_2_x2F_Layer_13_copy_x2F__x3C_Path_x3E__x5F_11" viewBox="-0.003 -0.895 3.229 0.909">
	<g id="Layer_1_10_">
		<path fill-rule="evenodd" clip-rule="evenodd" d="m2.05-0.75c-0.2 0.033-0.633 0-1.3-0.1-0.467-0.1-0.717-0.033-0.75 0.2-0.033 0.267 0.25 0.45 0.85 0.55 0.533 0.133 1.017 0.15 1.45 0.05 0.467-0.067 0.767-0.233 0.9-0.5 0.133-0.233-0.25-0.3-1.15-0.2z" fill="#784000"/>
	</g>
</symbol>
<symbol id="flash0.ai_x5F_2_x2F_Layer_13_copy_x2F__x3C_Path_x3E__x5F_12" viewBox="-0.012 -0.4 1.237 0.408">
	<g id="Layer_1_9_">
		<path fill-rule="evenodd" clip-rule="evenodd" d="m1.15-0.2c-0.2-0.133-0.483-0.2-0.85-0.2-0.3 0-0.383 0.067-0.25 0.2s0.3 0.2 0.5 0.2c0.6 0.033 0.8-0.033 0.6-0.2z" fill="#784000"/>
	</g>
</symbol>
<symbol id="flash0.ai_x5F_2_x2F_Layer_13_copy_x2F__x3C_Path_x3E__x5F_13" viewBox="0 -0.767 3.302 0.792">
	<g id="Layer_1_8_">
		<path fill-rule="evenodd" clip-rule="evenodd" d="m0.55-0.75c-0.367 0.033-0.55 0.15-0.55 0.35 0 0.233 0.2 0.367 0.6 0.4 0.533 0.033 1.1 0.033 1.7 0 0.7-0.067 1.034-0.167 1-0.3-0.067-0.167-0.417-0.3-1.05-0.4-0.533-0.067-1.1-0.083-1.7-0.05z" fill="#784000"/>
	</g>
</symbol>
<symbol id="flash0.ai_x5F_2_x2F_Layer_13_copy_x2F__x3C_Path_x3E__x5F_14" viewBox="0.086 -0.633 1.944 0.633">
	<g id="Layer_1_7_">
		<path fill-rule="evenodd" clip-rule="evenodd" d="m1.25-0.6c-0.233 0.1-0.567 0.15-1 0.15-0.2-0.033-0.217 0.017-0.05 0.15 0.233 0.167 0.55 0.267 0.95 0.3 0.3 0 0.567-0.05 0.8-0.15 0.133-0.1 0.1-0.217-0.1-0.35-0.233-0.133-0.433-0.167-0.6-0.1z" fill="#784000"/>
	</g>
</symbol>
<symbol id="flash0.ai_x5F_2_x2F_Layer_13_copy_x2F__x3C_Path_x3E__x5F_15" viewBox="-0.016 -1.867 28.916 1.874">
	<g id="Layer_1_6_">
		<path fill-rule="evenodd" clip-rule="evenodd" d="m25.65-0.65c0.367-0.167 1.45-0.45 3.25-0.85h-11.2c-0.367 0-4.15-0.067-11.35-0.2-0.3 0-1.467-0.05-3.5-0.15-1.1-0.033-1.9-0.017-2.4 0.05-0.567 0.067-0.617 0.25-0.15 0.55 0.434 0.267 0.85 0.433 1.25 0.5 2.1 0.367 3.7 0.55 4.8 0.55l9.2 0.2c1.733 0.033 4.65-0.05 8.75-0.25l1.35-0.4z" fill="#784000"/>
	</g>
</symbol>
<symbol id="flash0.ai_x5F_2_x2F_Layer_13_copy_x2F__x3C_Path_x3E__x5F_16" viewBox="0 -3.079 40.35 3.069">
	<g id="Layer_1_5_">
		<path fill-rule="evenodd" clip-rule="evenodd" d="m38.05-1.5c-6.467-0.533-11.417-0.783-14.85-0.75-4.2 0.067-9.233-0.1-15.1-0.5-3.367-0.2-5.167-0.3-5.4-0.3-1.133-0.067-1.833-0.017-2.1 0.15-0.4 0.2-0.6 0.4-0.6 0.6 0 0.267 0.383 0.517 1.15 0.75 1.167 0.333 4.567 0.65 10.2 0.95 1.633 0.1 4.083 0.133 7.35 0.1 3.267 0 5.5 0.033 6.7 0.1 1.267 0.033 3.083 0.133 5.45 0.3 2.033 0.1 3.683 0.117 4.95 0.05 2.034-0.067 3.55-0.083 4.55-0.05l-2.3-1.4z" fill="#784000"/>
	</g>
</symbol>
<symbol id="flash0.ai_x5F_2_x2F_Layer_13_copy_x2F__x3C_Path_x3E__x5F_17" viewBox="-0.018 -3.75 27.418 3.75">
	<g id="Layer_1_4_">
		<path fill-rule="evenodd" clip-rule="evenodd" d="m27.4 0l-2.8-1.95c-1.833-0.033-3.05-0.1-3.65-0.2-0.833-0.133-2.267-0.267-4.3-0.4-2.333-0.333-4.383-0.6-6.15-0.8-1.067-0.133-1.983-0.217-2.75-0.25h-2.05c-1.6-0.1-2.7-0.15-3.3-0.15-0.5 0-1 0.1-1.5 0.3-0.467 0.2-0.767 0.417-0.9 0.65-0.1 0.2 0.217 0.383 0.95 0.55 0.6 0.167 1.15 0.25 1.65 0.25l6.85 0.5c4.667 0.467 7.733 0.717 9.2 0.75 1.4 0.033 4.317 0.283 8.75 0.75z" fill="#784000"/>
	</g>
</symbol>
<symbol id="flash0.ai_x5F_2_x2F_Layer_13_copy_x2F__x3C_Path_x3E__x5F_18" viewBox="0 -2.062 11.85 2.062">
	<g id="Layer_1_3_">
		<path fill-rule="evenodd" clip-rule="evenodd" d="m10.35-1.25c-2.067-0.333-3.6-0.5-4.6-0.5-0.5 0-1.217-0.067-2.15-0.2-0.833-0.1-1.383-0.133-1.65-0.1-0.3 0.033-0.55 0.117-0.75 0.25-0.2 0.2-0.4 0.3-0.6 0.3-0.4 0.067-0.6 0.15-0.6 0.25 0.033 0.133 0.367 0.2 1 0.2 1.067 0 2.35 0.083 3.85 0.25 0.9 0.1 2.283 0.267 4.15 0.5 0.5 0 1.45 0.1 2.85 0.3l-1.5-1.25z" fill="#784000"/>
	</g>
</symbol>
<symbol id="flash0.ai_x5F_2_x2F_Layer_13_copy_x2F__x3C_Path_x3E__x5F_2" viewBox="-0.016 -0.904 2.178 0.904">
	<g id="Layer_1_19_">
		<path fill-rule="evenodd" clip-rule="evenodd" d="m0.75 0c0.567 0 1-0.133 1.3-0.4 0.3-0.3 0-0.467-0.9-0.5-0.867-0.033-1.25 0.117-1.15 0.45 0.133 0.3 0.383 0.45 0.75 0.45z" fill="#784000"/>
	</g>
</symbol>
<symbol id="flash0.ai_x5F_2_x2F_Layer_13_copy_x2F__x3C_Path_x3E__x5F_3" viewBox="-0.005 -1.169 3.45 1.174">
	<g id="Layer_1_18_">
		<path fill-rule="evenodd" clip-rule="evenodd" d="m3.4-0.45c0.167-0.333-0.133-0.55-0.9-0.65-1.533-0.167-2.367-0.033-2.5 0.4-0.067 0.4 0.483 0.633 1.65 0.7 0.967 0.033 1.55-0.117 1.75-0.45z" fill="#784000"/>
	</g>
</symbol>
<symbol id="flash0.ai_x5F_2_x2F_Layer_13_copy_x2F__x3C_Path_x3E__x5F_4" viewBox="-0.045 -0.783 2.701 0.792">
	<g id="Layer_1_17_">
		<path fill-rule="evenodd" clip-rule="evenodd" d="m1.95 0c0.466-0.033 0.7-0.1 0.7-0.2 0.033-0.033-0.083-0.133-0.35-0.3-0.2-0.133-0.55-0.217-1.05-0.25-0.533-0.067-0.917-0.033-1.15 0.1-0.267 0.133-0.167 0.283 0.3 0.45s0.983 0.233 1.55 0.2z" fill="#784000"/>
	</g>
</symbol>
<symbol id="flash0.ai_x5F_2_x2F_Layer_13_copy_x2F__x3C_Path_x3E__x5F_5" viewBox="-0.002 -0.85 3.215 0.817">
	<g id="Layer_1_16_">
		<path fill-rule="evenodd" clip-rule="evenodd" d="m1.75-0.05c1.067-0.033 1.55-0.133 1.45-0.3-0.033-0.1-0.283-0.25-0.75-0.45-0.233-0.067-0.6-0.067-1.1 0-0.533 0.066-0.934 0.183-1.2 0.35-0.267 0.133-0.183 0.25 0.25 0.35 0.367 0.067 0.817 0.083 1.35 0.05z" fill="#784000"/>
	</g>
</symbol>
<symbol id="flash0.ai_x5F_2_x2F_Layer_13_copy_x2F__x3C_Path_x3E__x5F_6" viewBox="-0.017 -1.1 2.324 1.1">
	<g id="Layer_1_15_">
		<path fill-rule="evenodd" clip-rule="evenodd" d="m1.2 0c0.6 0 0.95-0.1 1.05-0.3 0.133-0.2 0.033-0.383-0.3-0.55s-0.7-0.25-1.1-0.25-0.667 0.1-0.8 0.3c-0.133 0.167-0.066 0.35 0.2 0.55 0.267 0.167 0.583 0.25 0.95 0.25z" fill="#784000"/>
	</g>
</symbol>
<symbol id="flash0.ai_x5F_2_x2F_Layer_13_copy_x2F__x3C_Path_x3E__x5F_63" viewBox="0.033 -12.12 21.33 12.096">
	<g id="Layer_1_2_">
		<path fill-rule="evenodd" clip-rule="evenodd" d="m20-12c-0.5 0.333-0.85 0.567-1.05 0.7-0.3 0.233-0.667 0.35-1.1 0.35-0.467 0-0.817-0.117-1.05-0.35-0.333-0.333-0.783-0.383-1.35-0.15l-0.15 1.1c-0.033 0.233-0.4 0.483-1.1 0.75-0.667 0.267-1.25 0.4-1.75 0.4-1.5 0-2.717 0.3-3.65 0.9-0.467 0.3-1.05 0.433-1.75 0.4-0.767-0.067-1.333-0.083-1.7-0.05-0.467 0.033-1.033 0.383-1.7 1.05-0.567 0.567-0.917 1.05-1.05 1.45-0.067 0.267-0.283 0.75-0.65 1.45-0.433 0.733-0.683 1.217-0.75 1.45-0.1 0.267-0.3 0.483-0.6 0.65-0.3 0.2-0.483 0.4-0.55 0.6-0.133 0.466 0.534 0.883 2 1.25 0.933 0.267 4.517-1.55 10.75-5.45 6.2-3.9 9.034-6.017 8.5-6.35-0.433-0.3-0.867-0.35-1.3-0.15z" fill="#4D2F0B"/>
	</g>
</symbol>
<symbol id="flash0.ai_x5F_2_x2F_Layer_13_copy_x2F__x3C_Path_x3E__x5F_7" viewBox="-0.006 -1.114 3.896 1.064">
	<g id="Layer_1_14_">
		<path fill-rule="evenodd" clip-rule="evenodd" d="m3.4-0.05c0.767 0 0.633-0.184-0.4-0.55-1.033-0.4-1.85-0.567-2.45-0.5-0.533 0.067-0.683 0.233-0.45 0.5s0.517 0.434 0.85 0.5c0.1 0.033 0.917 0.05 2.45 0.05z" fill="#784000"/>
	</g>
</symbol>
<symbol id="flash0.ai_x5F_2_x2F_Layer_13_copy_x2F__x3C_Path_x3E__x5F_8" viewBox="-0.002 -0.36 2.214 0.374">
	<g id="Layer_1_13_">
		<path fill-rule="evenodd" clip-rule="evenodd" d="m1.3-0.35c-0.9-0.033-1.333 0.017-1.3 0.15 0.033 0.267 0.683 0.284 1.95 0.05 0.5-0.067 0.283-0.133-0.65-0.2z" fill="#784000"/>
	</g>
</symbol>
<symbol id="flash0.ai_x5F_2_x2F_Layer_13_copy_x2F__x3C_Path_x3E__x5F_9" viewBox="-0.025 -0.688 1.74 0.698">
	<g id="Layer_1_12_">
		<path fill-rule="evenodd" clip-rule="evenodd" d="m1 0c0.767-0.1 0.917-0.267 0.45-0.5-0.5-0.233-0.917-0.25-1.25-0.05-0.3 0.133-0.3 0.267 0 0.4 0.267 0.133 0.533 0.183 0.8 0.15z" fill="#784000"/>
	</g>
</symbol>
		<linearGradient id="SVGID_1_" y2="25.875" gradientUnits="userSpaceOnUse" x2="42.101" gradientTransform="matrix(.75 0 0 .75 15.05 12.65)" y1="25.875" x1="17.5">
		<stop stop-color="#C4A04A" offset="0"/>
		<stop stop-color="#9C7832" offset="1"/>
	</linearGradient>
	<path fill-rule="evenodd" clip-rule="evenodd" d="m46.55 24.763l0.075 2.813c-3 2.25-5.5 4.162-7.5 5.737-1.425 1.125-4.163 3.138-8.213 6.037l-2.737-4.537 0.563-3.563c0.975-0.65 2.05-1.301 3.225-1.95 2.351-1.325 3.988-2.024 4.913-2.1 1.499-0.125 4.724-0.937 9.674-2.437z" fill="url(#SVGID_1_)"/>
	<path fill-rule="evenodd" clip-rule="evenodd" d="m45.875 25.213v2.925l-6.75 5.175c-0.625 0.5-3.051 2.287-7.275 5.362l-0.3-3.3 0.263-1.875-2.362-2.7c3.649-2.3 6.125-3.5 7.425-3.6 1.175-0.075 3.813-0.713 7.912-1.913l1.087-0.074z" fill="#E6B95E"/>
		<linearGradient id="SVGID_2_" y2="10.656" gradientUnits="userSpaceOnUse" x2="37.79" gradientTransform="matrix(.595 .4566 -.4566 .595 15.05 12.65)" y1="10.656" x1="-16.413">
		<stop stop-color="#FDCB53" offset="0"/>
		<stop stop-color="#D48801" offset="1"/>
	</linearGradient>
	<path fill-rule="evenodd" clip-rule="evenodd" d="m16.063 30.237c-0.175-0.375-0.325-0.899-0.45-1.575-0.1-0.55-0.15-1.188-0.15-1.912l0.075-0.9c9.975 0.9 15.212 1.35 15.712 1.35l-0.638 6.487 0.3 5.662c-1.55-0.5-3.837-1.412-6.862-2.737-2.925-1.274-5.138-2.726-6.638-4.35l-1.349-2.025z" fill="url(#SVGID_2_)"/>
	<path fill-rule="evenodd" clip-rule="evenodd" d="m15.537 25.813c0.2-1.875 1.663-3.237 4.388-4.088 3.45-1.075 6.663-1.45 9.638-1.125 1.175 0.125 3.925 0.738 8.25 1.838 3.199 0.8 6.112 1.575 8.737 2.325l-10.612 6.225-4.388 4.388-0.75 0.487c-1.325-0.275-2.875-0.725-4.65-1.35-3.524-1.25-6.387-2.763-8.587-4.538-1.5-1.175-2.175-2.563-2.026-4.162z" fill="#CCA658"/>
	<path fill-rule="evenodd" clip-rule="evenodd" d="m38.563 30.088c-2.7 1.875-5.038 3.637-7.013 5.287-2.35-0.425-4.513-1.138-6.487-2.138-2.825-1.425-4.9-2.662-6.226-3.712-2-1.626-2.637-3.051-1.912-4.275 1.425-2.45 4.825-3.862 10.2-4.237 1.975-0.125 5.7 0.537 11.175 1.987 2.726 0.725 5.25 1.463 7.575 2.213-2 1.249-4.437 2.874-7.312 4.875z" fill="#EBD88D"/>
		<use opacity=".5" style="enable-background:new" xlink:href="#flash0.ai_x5F_2_x2F_Layer_13_copy_x2F__x3C_Path_x3E__x5F_63" transform="matrix(.75 0 0 -.75 15.8 26.8)" height="12.096" width="21.33" y="-12.12" x="0.033"/>
		<linearGradient id="SVGID_3_" y2="-22.306" gradientUnits="userSpaceOnUse" x2="34.301" gradientTransform="matrix(.0598 .7476 -.7476 .0598 15.049 12.65)" y1="-22.306" x1="31.166">
		<stop stop-color="#B5882F" offset="0"/>
		<stop stop-color="#E6B95E" offset="1"/>
	</linearGradient>
	<path fill-rule="evenodd" clip-rule="evenodd" d="m32.6 36.013c-0.024-0.476 0.175-0.938 0.601-1.388 0.425-0.425 0.787-0.525 1.087-0.3 0.325 0.225 0.475 0.575 0.45 1.05s-0.188 0.9-0.487 1.275c-0.325 0.399-0.662 0.563-1.013 0.487-0.4-0.1-0.613-0.475-0.638-1.124z" fill="url(#SVGID_3_)"/>
		<linearGradient id="SVGID_4_" y2="-25.065" gradientUnits="userSpaceOnUse" x2="31.305" gradientTransform="matrix(.0583 .7477 -.7477 .0583 15.05 12.65)" y1="-25.065" x1="29.374">
		<stop stop-color="#B5882F" offset="0"/>
		<stop stop-color="#E6B95E" offset="1"/>
	</linearGradient>
	<path fill-rule="evenodd" clip-rule="evenodd" d="m35.45 33.05c0.375-0.399 0.6-0.225 0.675 0.525 0.075 0.774-0.112 1.138-0.563 1.087-0.426-0.025-0.613-0.25-0.563-0.675 0.025-0.349 0.176-0.663 0.451-0.937z" fill="url(#SVGID_4_)"/>
		<linearGradient id="SVGID_5_" y2="-30.242" gradientUnits="userSpaceOnUse" x2="28.863" gradientTransform="matrix(.0581 .7477 -.7477 .0581 15.05 12.65)" y1="-30.242" x1="26.28">
		<stop stop-color="#B5882F" offset="0"/>
		<stop stop-color="#E6B95E" offset="1"/>
	</linearGradient>
	<path fill-rule="evenodd" clip-rule="evenodd" d="m39.313 30.237c0.8-0.225 1.063 0.112 0.787 1.013-0.275 0.949-0.675 1.4-1.2 1.35-0.475-0.025-0.675-0.375-0.6-1.05 0.1-0.7 0.437-1.138 1.013-1.313z" fill="url(#SVGID_5_)"/>
		<linearGradient id="SVGID_6_" y2="-34.326" gradientUnits="userSpaceOnUse" x2="25.381" gradientTransform="matrix(.059 .7477 -.7477 .059 15.05 12.65)" y1="-34.326" x1="23.475">
		<stop stop-color="#B5882F" offset="0"/>
		<stop stop-color="#E6B95E" offset="1"/>
	</linearGradient>
	<path fill-rule="evenodd" clip-rule="evenodd" d="m42.125 27.987c0.4-0.149 0.662-0.088 0.787 0.188 0.125 0.226 0.125 0.5 0 0.825-0.1 0.3-0.3 0.513-0.6 0.638-0.35 0.149-0.625 0.087-0.825-0.188-0.225-0.275-0.263-0.55-0.112-0.825 0.149-0.275 0.4-0.487 0.75-0.638z" fill="url(#SVGID_6_)"/>
		<linearGradient id="SVGID_7_" y2="-36.91" gradientUnits="userSpaceOnUse" x2="23.215" gradientTransform="matrix(.0534 .7481 -.7481 .0534 15.05 12.65)" y1="-36.91" x1="22.162">
		<stop stop-color="#B5882F" offset="0"/>
		<stop stop-color="#E6B95E" offset="1"/>
	</linearGradient>
	<path fill-rule="evenodd" clip-rule="evenodd" d="m44.149 27.162c0.275 0.226 0.301 0.463 0.075 0.713-0.25 0.25-0.487 0.287-0.712 0.112-0.2-0.149-0.188-0.362 0.037-0.638 0.251-0.274 0.451-0.336 0.6-0.187z" fill="url(#SVGID_7_)"/>
		<linearGradient id="SVGID_8_" y2="-38.531" gradientUnits="userSpaceOnUse" x2="23.55" gradientTransform="matrix(.0603 .7476 -.7476 .0603 15.049 12.65)" y1="-38.531" x1="21.995">
		<stop stop-color="#B5882F" offset="0"/>
		<stop stop-color="#E6B95E" offset="1"/>
	</linearGradient>
	<path fill-rule="evenodd" clip-rule="evenodd" d="m45.388 27.95c-0.2 0.124-0.375 0.05-0.525-0.226-0.101-0.175-0.013-0.449 0.263-0.824 0.25-0.4 0.4-0.488 0.45-0.263 0.123 0.751 0.061 1.188-0.188 1.313z" fill="url(#SVGID_8_)"/>
	<path fill-rule="evenodd" clip-rule="evenodd" d="m45.537 23.3c0.1 0.175 0.15 0.438 0.15 0.788 0.25 0.925-0.238 1.462-1.463 1.612-0.675 0.075-1.188 0.287-1.537 0.638-0.176 0.199-0.413 0.612-0.713 1.237-0.199 0.625-0.375 1.074-0.524 1.35-0.251 0.475-0.688 0.862-1.313 1.163-0.601 0.3-1.051 0.6-1.351 0.899-0.375 0.475-0.763 0.913-1.162 1.313-0.475 0.5-0.925 0.8-1.351 0.9-0.648 0.175-1.073 0.324-1.273 0.45-0.325 0.199-0.813 0.563-1.463 1.087-0.55 0.45-0.975 0.737-1.274 0.862-0.325 0.15-0.775 0.075-1.351-0.225-0.75-0.45-1.412-0.813-1.987-1.088-0.625-0.3-1.738-0.575-3.338-0.824-1.524-0.25-2.412-0.45-2.662-0.601-0.85-0.575-1.875-0.763-3.075-0.563-0.375 0.075-0.825-0.101-1.35-0.524-0.55-0.525-0.925-0.876-1.125-1.051-0.2-0.2-0.275-0.537-0.226-1.012 0.025-0.525-0.012-0.876-0.112-1.051s-0.387-0.412-0.862-0.712c-0.425-0.251-0.688-0.525-0.787-0.825-0.125-0.35-0.088-0.663 0.112-0.938 0.075-0.101 0.337-0.375 0.787-0.825 0.275-0.274 0.413-0.537 0.413-0.787-0.05-0.351-0.088-0.663-0.113-0.938-0.05-0.351 0.363-0.9 1.238-1.65 0.824-0.675 1.4-1.037 1.725-1.087 3.075-0.301 7.575-0.351 13.5-0.15 6.3 0.25 9.938 0.688 10.912 1.313 0.9 0.577 1.426 0.989 1.575 1.239z" fill="#7A5215"/>
	<path fill-rule="evenodd" clip-rule="evenodd" d="m45.612 23.525c0.024 0.1 0.05 0.287 0.075 0.563 0.25 0.925-0.238 1.462-1.463 1.612-0.675 0.075-1.188 0.287-1.537 0.638-0.176 0.199-0.413 0.612-0.713 1.237-0.199 0.625-0.375 1.074-0.524 1.35-0.251 0.475-0.688 0.862-1.313 1.163-0.601 0.3-1.051 0.6-1.351 0.899-0.375 0.475-0.763 0.913-1.162 1.313-0.475 0.5-0.925 0.8-1.351 0.9-0.648 0.175-1.073 0.324-1.273 0.45-0.325 0.199-0.813 0.563-1.463 1.087-0.55 0.45-0.975 0.737-1.274 0.862-0.325 0.175-0.838 0.063-1.538-0.337 0.125-0.45 0.338-0.688 0.638-0.713 0.425-0.024 0.85-0.212 1.275-0.563 0.1-0.075 0.337-0.3 0.712-0.675 0.1-0.125 0.475-0.313 1.125-0.563 0.801-0.325 1.275-0.525 1.425-0.6 0.676-0.4 1.363-1.025 2.063-1.875 0.275-0.326 0.737-0.638 1.388-0.938 0.7-0.326 1.15-0.588 1.351-0.788 0.249-0.225 0.449-0.725 0.6-1.5s0.338-1.287 0.563-1.537c0.3-0.3 0.875-0.487 1.725-0.563 0.425-0.05 0.913-0.101 1.463-0.15 0.247-0.023 0.434-0.447 0.559-1.272z" fill="#5E4007"/>
	<path fill-rule="evenodd" clip-rule="evenodd" d="m17.375 30.725c-0.2-0.2-0.275-0.537-0.226-1.012 0.025-0.525-0.012-0.876-0.112-1.051s-0.387-0.412-0.862-0.712c-0.425-0.251-0.688-0.525-0.787-0.825-0.125-0.4-0.038-0.775 0.262-1.125 0.275 0.6 0.738 1.162 1.388 1.688 0.475 0.375 0.713 0.85 0.713 1.425 0 0.625 0.062 1.013 0.188 1.163 0.275 0.3 0.712 0.574 1.313 0.824 0.6 0.25 1.125 0.362 1.575 0.338 0.399-0.05 0.912 0.05 1.537 0.3 0.225 0.075 0.775 0.325 1.65 0.75 0.35 0.175 1.037 0.313 2.063 0.413 1.025 0.1 1.762 0.262 2.212 0.487 1.351 0.699 2.375 1.087 3.075 1.162 0.25 0.025 0.399 0.4 0.45 1.125-0.275-0.024-0.675-0.175-1.2-0.45-0.825-0.475-1.388-0.787-1.688-0.938-0.625-0.3-1.738-0.575-3.338-0.824-1.524-0.25-2.412-0.45-2.662-0.601-0.85-0.575-1.875-0.763-3.075-0.563-0.375 0.075-0.825-0.101-1.35-0.524-0.551-0.525-0.926-0.876-1.126-1.05z" fill="#634506"/>
	<path fill-rule="evenodd" clip-rule="evenodd" d="m47 21.987c0.075 0.35 0.012 0.838-0.188 1.463 0 0.574-0.287 0.888-0.862 0.938l-0.263-0.45c-0.25-0.35-0.85-0.075-1.8 0.825-0.7 0.75-1.726 1.412-3.075 1.987-0.601 0.25-1.213 0.675-1.838 1.275-0.825 0.799-1.438 1.337-1.837 1.612-0.55 0.399-1.226 0.925-2.025 1.575-0.726 0.624-1.237 1.037-1.537 1.237-1.251 0.899-2.338 1.313-3.263 1.237-0.575-0.075-0.976-0.125-1.2-0.15-0.325-0.025-0.55 0.025-0.675 0.15-0.075 0.05-0.112 0.263-0.112 0.638 0 0.35-0.125 0.638-0.375 0.862-0.525 0.45-1.025 0.225-1.5-0.675-0.125-0.375-0.226-0.663-0.301-0.862-0.125-0.351-0.337-0.65-0.637-0.9-0.275-0.25-0.8-0.513-1.575-0.787-0.976-0.375-1.726-0.713-2.25-1.013-0.8-0.45-1.425-0.851-1.875-1.2-0.35-0.3-0.825-0.775-1.425-1.425-0.5-0.55-0.938-0.9-1.313-1.05-0.226-0.101-0.601-0.188-1.125-0.263-0.4-0.025-0.65-0.088-0.75-0.188-0.1-0.101-0.125-0.288-0.075-0.563-0.05-0.5-0.063-0.913-0.038-1.237 0.05-0.626 0.375-1.088 0.976-1.388 1.125-0.851 1.875-1.351 2.25-1.5 2.05-0.851 6.575-1.413 13.575-1.688 6.475-0.25 10.725-0.188 12.75 0.188 1.426 0.277 2.213 0.727 2.363 1.352z" fill="#E3B309"/>
	<path fill-rule="evenodd" clip-rule="evenodd" d="m45.837 20.938c0.851 0.45 1.088 0.875 0.713 1.275-0.2 0.199-0.649 0.425-1.35 0.675-0.976 0.375-1.788 1.063-2.438 2.063-0.226 0.375-0.688 0.688-1.388 0.938-0.95 0.325-1.7 0.675-2.25 1.05-1.025 0.675-1.75 1.188-2.175 1.537-0.601 0.5-1.251 1.138-1.95 1.913-1.45 1.624-3.075 2.438-4.875 2.438-1.45 0-2.7-0.313-3.75-0.938-2.45-1.3-3.95-2.175-4.5-2.625-2.05-1.525-3.525-2.487-4.425-2.888-0.55-0.25-1.051-0.6-1.5-1.05-0.425-0.425-0.638-0.738-0.638-0.938 0-0.176 0.263-0.45 0.787-0.825 0.5-0.375 0.976-0.638 1.425-0.787 0.1-0.025 1.088-0.588 2.963-1.688 1.675-1.001 2.85-1.525 3.525-1.576 2.699-0.15 6.7-0.075 12 0.225 5.651 0.326 8.927 0.725 9.826 1.201z" fill="#FFD129"/>
	<path fill-rule="evenodd" clip-rule="evenodd" d="m15.612 25.4c0.15 0.1 0.212 0.212 0.188 0.337 0 0.05-0.05 0.15-0.15 0.3-0.05 0.075-0.037 0.125 0.038 0.15 0.1 0.05 0.149 0.138 0.149 0.263 0.025 0.175-0.037 0.287-0.188 0.337-0.149 0.05-0.262 0-0.337-0.149-0.025-0.075-0.025-0.213 0-0.413 0.05-0.225 0.05-0.438 0-0.637-0.025-0.251-0.013-0.375 0.037-0.375 0.026 0.024 0.113 0.087 0.263 0.187z" fill="#FFEDA8"/>
	<path fill-rule="evenodd" clip-rule="evenodd" d="m26.975 33.463c0.25 0.024 0.413 0.225 0.487 0.6 0.05 0.35 0.013 0.625-0.112 0.825-0.175 0.274-0.437 0.024-0.787-0.75-0.1-0.175-0.1-0.338 0-0.487 0.099-0.151 0.237-0.213 0.412-0.188z" fill="#FFEDA8"/>
	<path fill-rule="evenodd" clip-rule="evenodd" d="m31.138 32.45c1.05-0.075 2.087-0.525 3.112-1.351-0.375 0.375-0.763 0.7-1.163 0.976-0.324 0.225-0.587 0.375-0.787 0.45-0.275 0.074-0.838 0.162-1.688 0.262-0.75 0.101-1.525 0.063-2.325-0.112l-0.975-0.3 1.875 0.188c1.05 0.075 1.7 0.037 1.951-0.113z" fill="#FFEDA8"/>
	<path fill-rule="evenodd" clip-rule="evenodd" d="m46.212 23.487c0.101 0.25 0.101 0.413 0 0.487-0.074 0.076-0.162 0.026-0.262-0.149-0.101-0.125-0.101-0.275 0-0.45 0.1-0.15 0.188-0.112 0.262 0.112z" fill="#FFEDA8"/>
	<path fill-rule="evenodd" clip-rule="evenodd" d="m32.487 31.1c-0.65-0.225-1.149-0.388-1.5-0.487-0.35-0.101-0.875-0.037-1.575 0.188-0.8 0.274-1.438 0.4-1.912 0.375-0.55-0.024-1.088-0.288-1.612-0.787-0.5-0.476-0.9-0.713-1.2-0.713-0.5 0-1.038-0.101-1.612-0.3-0.576-0.2-1.038-0.438-1.388-0.713-0.375-0.25-0.675-0.324-0.9-0.225-0.25 0.125-0.375 0.412-0.375 0.862 0 0.4-0.087 0.625-0.263 0.675-0.275 0-0.512-0.013-0.712-0.037-0.275-0.025-0.475-0.188-0.601-0.487-0.149-0.45-0.3-0.825-0.449-1.125-0.15-0.3-0.175-0.713-0.075-1.237 0.075-0.5 0.05-0.851-0.075-1.051-0.15-0.25-0.6-0.55-1.35-0.899-1.025-0.476-1.55-0.726-1.575-0.75-0.3-0.15-0.325-0.413-0.075-0.788 0.1-0.149 0.375-0.438 0.825-0.862 1.2-1.2 2.262-1.813 3.188-1.837 0.825-0.301 4.975-0.663 12.45-1.088 7.35-0.45 11.462-0.6 12.337-0.45 1.301 0.2 1.9 0.725 1.8 1.575-0.024 0.225-0.2 0.462-0.524 0.713-0.45 0.35-0.75 0.625-0.9 0.824-0.199 0.301-0.425 0.513-0.675 0.638-0.399 0.2-0.813 0.413-1.237 0.638-0.525 0.274-0.788 0.638-0.788 1.088-0.024 0.25 0 0.712 0.075 1.387-0.025 0.525-0.199 0.851-0.524 0.976-0.251 0.1-0.7 0.112-1.351 0.037-0.625-0.075-1.05-0.112-1.274-0.112-0.351 0.025-0.737 0.1-1.163 0.225-0.6 0.226-1.112 1.025-1.537 2.4-0.1 0.3 0.024 0.5 0.375 0.6 0.65 0.226 1 0.35 1.05 0.375 0.351 0.226 0.525 0.55 0.525 0.976 0.024 0.425-0.15 0.774-0.525 1.05-0.351 0.275-0.688 0.325-1.013 0.15-0.324-0.176-0.475-0.426-0.45-0.75 0.025-0.226-0.1-0.375-0.375-0.45-0.324-0.075-0.5-0.163-0.524-0.263-0.125-0.325-0.588-0.388-1.388-0.188-0.227 0.047-0.602-0.003-1.128-0.153z" fill="#EBAC65"/>
	<g fill-rule="evenodd" clip-rule="evenodd" fill="#D1944F">
		<path d="m45.725 20.225c0.125 0.226 0.162 0.463 0.112 0.713-0.024 0.225-0.2 0.462-0.524 0.713-0.45 0.35-0.75 0.625-0.9 0.824-0.199 0.301-0.425 0.513-0.675 0.638-0.399 0.2-0.813 0.413-1.237 0.638-0.275 0.15-0.475 0.3-0.601 0.45 0.101-0.425 0.325-0.738 0.676-0.938 0.85-0.5 1.362-0.875 1.537-1.125 0.375-0.525 0.713-0.862 1.013-1.013 0.424-0.225 0.624-0.525 0.599-0.9z"/>
		<path d="m31.362 29.825c0.075 0.024 0.438 0.212 1.088 0.563 0.5 0.274 0.925 0.425 1.274 0.45 0.125 0 0.45-0.013 0.976-0.038 0.2-0.024 0.362 0.025 0.487 0.15 0.2 0.274 0.45 0.438 0.75 0.487 0.375 0.075 0.575 0.275 0.6 0.6 0.025 0.175 0.112 0.338 0.263 0.488 0.175 0.175 0.362 0.249 0.563 0.225-0.351 0.275-0.688 0.325-1.013 0.15-0.324-0.176-0.475-0.426-0.45-0.75 0.025-0.226-0.1-0.375-0.375-0.45-0.324-0.075-0.5-0.163-0.524-0.263-0.125-0.325-0.588-0.388-1.388-0.188-0.225 0.05-0.6 0-1.125-0.15-0.65-0.225-1.149-0.388-1.5-0.487-0.35-0.101-0.875-0.037-1.575 0.188-0.8 0.274-1.438 0.4-1.912 0.375-0.55-0.024-1.088-0.288-1.612-0.787-0.5-0.476-0.9-0.713-1.2-0.713-0.5 0-1.038-0.101-1.612-0.3-0.576-0.2-1.038-0.438-1.388-0.713-0.375-0.25-0.675-0.324-0.9-0.225-0.25 0.125-0.375 0.412-0.375 0.862 0 0.4-0.087 0.625-0.263 0.675-0.275 0-0.512-0.013-0.712-0.037-0.3-0.025-0.513-0.213-0.638-0.563 0.775 0.225 1.212 0 1.313-0.675 0.05-0.375 0.238-0.601 0.563-0.675 0.275-0.075 0.575-0.025 0.9 0.149 0.2 0.125 0.575 0.351 1.125 0.675 0.5 0.25 0.912 0.388 1.237 0.413 0.35 0.024 0.762 0.137 1.237 0.337 0.45 0.175 0.75 0.325 0.9 0.45 0.125 0.1 0.262 0.063 0.412-0.112 0.125-0.15 0.188-0.287 0.188-0.412 0-0.075 0.7-0.075 2.1 0 1.424 0.076 2.287 0.176 2.586 0.301z"/>
		<path d="m18.237 26.037c-0.15-0.25-0.6-0.55-1.35-0.899-1.025-0.476-1.55-0.726-1.575-0.75-0.175-0.075-0.263-0.213-0.263-0.413 0.275 0.125 0.512 0.213 0.713 0.263 0.6 0.15 1.187 0.425 1.762 0.825 0.75 0.5 1.038 0.95 0.863 1.35l-0.038 0.113c0.001-0.176-0.036-0.338-0.112-0.489z"/>
		<path d="m37.475 27.35c-0.6 0.226-1.112 1.025-1.537 2.4-0.1 0.25-0.038 0.438 0.188 0.563 0.149 0.05 0.425 0.125 0.825 0.225-0.476-0.05-0.801-0.137-0.976-0.262-0.3-0.226-0.475-0.363-0.524-0.413-0.126-0.149-0.15-0.337-0.075-0.563 0.1-0.275 0.3-0.675 0.6-1.2 0.3-0.574 0.5-0.912 0.601-1.012 0.423-0.426 0.898-0.575 1.423-0.45 1.25 0.25 2.15 0.35 2.7 0.3 0.575-0.05 0.938-0.412 1.087-1.088v0.375c-0.025 0.525-0.199 0.851-0.524 0.976-0.251 0.1-0.7 0.112-1.351 0.037-0.625-0.075-1.05-0.112-1.274-0.112-0.351 0.024-0.738 0.099-1.163 0.224z"/>
	</g>
	<path fill-rule="evenodd" clip-rule="evenodd" d="m15.837 23.338c0.125 0.05 0.125 0.175 0 0.375-0.149 0.175-0.275 0.225-0.375 0.149-0.125-0.05-0.125-0.162 0-0.337s0.25-0.238 0.375-0.187z" fill="#FFD4A1"/>
	<path fill-rule="evenodd" clip-rule="evenodd" d="m18.649 28.588l-0.187-0.788c-0.074-0.2-0.062-0.388 0.038-0.563 0.1-0.149 0.2-0.225 0.3-0.225 0.175-0.025 0.263 0.337 0.263 1.087 0.025 0.125 0.112 0.25 0.263 0.375 0.174 0.101 0.262 0.188 0.262 0.263 0 0.125-0.087 0.237-0.262 0.338-0.175 0.1-0.325 0.112-0.45 0.037-0.101-0.049-0.176-0.224-0.227-0.524z" fill="#FFD4A1"/>
	<path fill-rule="evenodd" clip-rule="evenodd" d="m19.55 27.612c0.25 0.075 0.338 0.188 0.263 0.338-0.075 0.175-0.188 0.25-0.338 0.225-0.1-0.024-0.137-0.125-0.112-0.3 0.024-0.2 0.087-0.288 0.187-0.263z" fill="#FFD4A1"/>
	<path fill-rule="evenodd" clip-rule="evenodd" d="m18.912 26.225c0.125 0.075 0.2 0.213 0.226 0.413 0 0.175-0.113 0.225-0.338 0.149-0.25-0.074-0.325-0.212-0.225-0.412 0.074-0.175 0.188-0.225 0.337-0.15z" fill="#FFD4A1"/>
	<path fill-rule="evenodd" clip-rule="evenodd" d="m33.649 29.975c0.2-0.025 0.426 0.038 0.676 0.188 0.274 0.15 0.337 0.263 0.188 0.338-0.126 0.075-0.351 0.1-0.676 0.075-0.324-0.051-0.563-0.112-0.712-0.188-0.226-0.2-0.051-0.338 0.524-0.413z" fill="#FFD4A1"/>
	<path fill-rule="evenodd" clip-rule="evenodd" d="m35.6 30.763c0.175-0.051 0.388 0 0.638 0.149 0.25 0.15 0.325 0.275 0.225 0.375-0.1 0.101-0.225 0.113-0.375 0.038-0.249-0.15-0.388-0.226-0.412-0.226-0.15-0.05-0.225-0.125-0.225-0.225-0.001-0.074 0.049-0.111 0.149-0.111z" fill="#FFD4A1"/>
	<path fill-rule="evenodd" clip-rule="evenodd" d="m37.212 31.588c0.476 0.049 0.513 0.324 0.113 0.824-0.075 0.101-0.175 0.113-0.301 0.038-0.125-0.075-0.225-0.188-0.3-0.338-0.075-0.125-0.05-0.25 0.075-0.375 0.1-0.125 0.238-0.174 0.413-0.149z" fill="#FFD4A1"/>
	<path fill-rule="evenodd" clip-rule="evenodd" d="m35.149 28.813c0.15-0.176 0.263-0.287 0.338-0.338 0.1-0.025 0.075 0.038-0.075 0.188-0.075 0.075-0.137 0.238-0.188 0.488-0.05 0.199-0.112 0.287-0.188 0.262-0.1-0.025-0.125-0.112-0.075-0.262 0.026-0.127 0.089-0.239 0.188-0.338z" fill="#FFD4A1"/>
	<path fill-rule="evenodd" clip-rule="evenodd" d="m39.274 26.075c0.101 0.05 0.338 0.037 0.713-0.038 0.225-0.05 0.563-0.125 1.013-0.225 0.4-0.101 0.362 0.15-0.112 0.75-0.126 0.15-0.413 0.2-0.863 0.15-0.35-0.025-0.712-0.101-1.087-0.226-0.25-0.075-0.3-0.188-0.15-0.337 0.15-0.124 0.312-0.149 0.486-0.074z" fill="#FFD4A1"/>
	<path fill-rule="evenodd" clip-rule="evenodd" d="m41.225 24.537c0.125 0.05 0.15 0.15 0.075 0.301-0.075 0.175-0.188 0.212-0.338 0.112-0.149-0.075-0.162-0.176-0.037-0.3 0.15-0.1 0.25-0.137 0.3-0.113z" fill="#FFD4A1"/>
	<path fill-rule="evenodd" clip-rule="evenodd" d="m43.399 22.213c0.2 0 0.237 0.05 0.113 0.149-0.175 0.125-0.301 0.2-0.375 0.226-0.101 0.074-0.237 0.124-0.413 0.149-0.199 0.025-0.313 0.013-0.337-0.037-0.025-0.025 0.112-0.112 0.412-0.263s0.501-0.224 0.6-0.224z" fill="#FFD4A1"/>
		<linearGradient id="SVGID_9_" y2="15.475" gradientUnits="userSpaceOnUse" x2="41.851" gradientTransform="matrix(.75 0 0 .75 15.05 12.65)" y1="15.475" x1="17.25">
		<stop stop-color="#C4A04A" offset="0"/>
		<stop stop-color="#9C7832" offset="1"/>
	</linearGradient>
	<path fill-rule="evenodd" clip-rule="evenodd" d="m46.362 16.962l0.075 2.813c-3 2.25-5.5 4.163-7.5 5.738-1.425 1.1-4.163 3.112-8.213 6.037l-2.737-4.537 0.563-3.563c0.975-0.65 2.05-1.301 3.225-1.95 2.351-1.325 3.988-2.025 4.913-2.1 1.5-0.125 4.724-0.938 9.674-2.438z" fill="url(#SVGID_9_)"/>
	<path fill-rule="evenodd" clip-rule="evenodd" d="m45.649 17.413l0.038 2.925-6.75 5.175c-1 0.774-3.426 2.562-7.275 5.362l-0.3-3.3 0.263-1.875-2.4-2.7c3.75-2.3 6.238-3.5 7.463-3.6 1.1-0.075 3.737-0.712 7.912-1.913l1.049-0.074z" fill="#E6B95E"/>
		<linearGradient id="SVGID_10_" y2="3.2559" gradientUnits="userSpaceOnUse" x2="28.804" gradientTransform="matrix(.6111 .4348 -.4348 .6111 15.05 12.649)" y1="3.2559" x1="-.2197">
		<stop stop-color="#FDCB53" offset="0"/>
		<stop stop-color="#D48801" offset="1"/>
	</linearGradient>
	<path fill-rule="evenodd" clip-rule="evenodd" d="m31.024 19.4l-0.6 6.488 0.3 5.662c-1.55-0.5-3.837-1.413-6.862-2.737-2.925-1.275-5.138-2.726-6.638-4.35l-1.388-2.025c-0.149-0.4-0.287-0.925-0.412-1.575-0.175-0.875-0.2-1.813-0.075-2.813 9.951 0.9 15.176 1.35 15.675 1.35z" fill="url(#SVGID_10_)"/>
	<path fill-rule="evenodd" clip-rule="evenodd" d="m31.362 27.575l-0.75 0.487c-1.325-0.275-2.875-0.725-4.65-1.35-3.549-1.25-6.425-2.763-8.625-4.538-1.475-1.174-2.137-2.562-1.987-4.162 0.2-1.875 1.663-3.237 4.388-4.087 3.45-1.075 6.663-1.45 9.638-1.125 1.2 0.125 3.95 0.737 8.25 1.837 3.199 0.8 6.112 1.575 8.737 2.325l-10.65 6.225-4.351 4.388z" fill="#C98000"/>
	<path fill-rule="evenodd" clip-rule="evenodd" d="m38.337 22.287c-2.699 1.875-5.024 3.638-6.975 5.288-2.375-0.45-4.55-1.163-6.525-2.138-2.825-1.425-4.899-2.662-6.225-3.713-2-1.625-2.625-3.05-1.875-4.275 1.425-2.45 4.825-3.862 10.2-4.237 1.975-0.125 5.688 0.538 11.138 1.987 2.725 0.725 5.25 1.463 7.574 2.213-1.999 1.25-4.436 2.875-7.312 4.875z" fill="#FFD875"/>
		<linearGradient id="SVGID_11_" y2="-6.0674" gradientUnits="userSpaceOnUse" x2="24.549" gradientTransform="matrix(.4457 .6032 -.6032 .4457 15.05 12.65)" y1="-6.0674" x1="20.384">
		<stop stop-color="#E6B95E" offset="0"/>
		<stop stop-color="#FFD875" offset="1"/>
	</linearGradient>
	<path fill-rule="evenodd" clip-rule="evenodd" d="m28.212 22.25c1.326 0.025 2.213 0.2 2.663 0.525 0.425 0.3 0.438 0.612 0.037 0.938-1.025 0.949-2.525 1.024-4.5 0.225-0.474-0.201-0.412-0.538 0.188-1.013 0.6-0.45 1.137-0.675 1.612-0.675z" fill="url(#SVGID_11_)"/>
		<linearGradient id="SVGID_12_" y2="-2.9902" gradientUnits="userSpaceOnUse" x2="15.947" gradientTransform="matrix(.4472 .6021 -.6021 .4472 15.049 12.65)" y1="-2.9902" x1="13.767">
		<stop stop-color="#E6B95E" offset="0"/>
		<stop stop-color="#FFD875" offset="1"/>
	</linearGradient>
	<path fill-rule="evenodd" clip-rule="evenodd" d="m23.3 19.663c1.45 0.025 1.862 0.275 1.237 0.75-0.65 0.525-1.288 0.663-1.912 0.413-0.5-0.176-0.613-0.425-0.338-0.75 0.25-0.301 0.588-0.438 1.013-0.413z" fill="url(#SVGID_12_)"/>
		<linearGradient id="SVGID_13_" y2="4.9922" gradientUnits="userSpaceOnUse" x2="23.325" gradientTransform="matrix(.75 0 0 .75 15.05 12.65)" y1="4.9922" x1="16.475">
		<stop stop-color="#E6B95E" offset="0"/>
		<stop stop-color="#FFD875" offset="1"/>
	</linearGradient>
	<path fill-rule="evenodd" clip-rule="evenodd" d="m29.75 15.462c1.675-0.025 2.6 0.188 2.774 0.638 0.175 0.45-0.3 0.8-1.425 1.05-1.675 0.4-2.875 0.125-3.6-0.825-0.349-0.525 0.401-0.812 2.251-0.863z" fill="url(#SVGID_13_)"/>
		<linearGradient id="SVGID_14_" y2="-17.696" gradientUnits="userSpaceOnUse" x2="19.587" gradientTransform="matrix(.45 .6 -.6 .45 15.049 12.65)" y1="-17.696" x1="18.212">
		<stop stop-color="#E6B95E" offset="0"/>
		<stop stop-color="#FFD875" offset="1"/>
	</linearGradient>
	<path fill-rule="evenodd" clip-rule="evenodd" d="m34.287 15.65c0.575 0.05 0.788 0.188 0.638 0.413-0.15 0.25-0.487 0.35-1.013 0.3-0.475-0.05-0.65-0.188-0.524-0.413 0.149-0.225 0.449-0.325 0.899-0.3z" fill="url(#SVGID_14_)"/>
		<linearGradient id="SVGID_15_" y2="-22.644" gradientUnits="userSpaceOnUse" x2="24.299" gradientTransform="matrix(.4442 .6043 -.6043 .4442 15.05 12.65)" y1="-22.644" x1="21.724">
		<stop stop-color="#E6B95E" offset="0"/>
		<stop stop-color="#FFD875" offset="1"/>
	</linearGradient>
	<path fill-rule="evenodd" clip-rule="evenodd" d="m38.975 15.837c0.575 0.025 1 0.137 1.275 0.337 0.25 0.2 0.25 0.375 0 0.525s-0.601 0.238-1.05 0.263c-0.525 0.025-1-0.038-1.426-0.188-0.449-0.175-0.5-0.375-0.149-0.6 0.324-0.249 0.775-0.361 1.35-0.337z" fill="url(#SVGID_15_)"/>
		<linearGradient id="SVGID_16_" y2="-16.407" gradientUnits="userSpaceOnUse" x2="25.18" gradientTransform="matrix(.4454 .6034 -.6034 .4454 15.05 12.65)" y1="-16.407" x1="22.57">
		<stop stop-color="#E6B95E" offset="0"/>
		<stop stop-color="#FFD875" offset="1"/>
	</linearGradient>
	<path fill-rule="evenodd" clip-rule="evenodd" d="m35.787 19.137c0.976-0.05 1.45 0.087 1.425 0.413-0.024 0.275-0.324 0.513-0.899 0.713-0.475 0.149-0.85 0.212-1.125 0.188-0.275-0.025-0.638-0.138-1.088-0.338-0.399-0.2-0.362-0.413 0.112-0.637 0.45-0.201 0.976-0.314 1.575-0.339z" fill="url(#SVGID_16_)"/>
		<linearGradient id="SVGID_17_" y2="-8.4072" gradientUnits="userSpaceOnUse" x2="19.186" gradientTransform="matrix(.4472 .6021 -.6021 .4472 15.049 12.65)" y1="-8.4072" x1="15.916">
		<stop stop-color="#E6B95E" offset="0"/>
		<stop stop-color="#FFD875" offset="1"/>
	</linearGradient>
	<path fill-rule="evenodd" clip-rule="evenodd" d="m28.813 18.462c0.575 0.025 0.875 0.2 0.899 0.525 0.025 0.225-0.074 0.488-0.3 0.788-0.2 0.325-1.15 0.363-2.85 0.112-0.85-0.15-0.938-0.437-0.263-0.862 0.651-0.4 1.488-0.587 2.514-0.563z" fill="url(#SVGID_17_)"/>
		<linearGradient id="SVGID_18_" y2="-23.692" gradientUnits="userSpaceOnUse" x2="23.276" gradientTransform="matrix(.0598 .7476 -.7476 .0598 15.049 12.65)" y1="-23.692" x1="20.141">
		<stop stop-color="#B5882F" offset="0"/>
		<stop stop-color="#E6B95E" offset="1"/>
	</linearGradient>
	<path fill-rule="evenodd" clip-rule="evenodd" d="m32.975 27.65c-0.024-0.476 0.175-0.926 0.601-1.351 0.425-0.45 0.787-0.563 1.087-0.337 0.325 0.225 0.475 0.587 0.45 1.087-0.024 0.476-0.188 0.9-0.487 1.275-0.325 0.375-0.662 0.524-1.013 0.45-0.4-0.074-0.613-0.449-0.638-1.124z" fill="url(#SVGID_18_)"/>
		<linearGradient id="SVGID_19_" y2="-26.507" gradientUnits="userSpaceOnUse" x2="19.792" gradientTransform="matrix(.0613 .7475 -.7475 .0613 15.05 12.65)" y1="-26.507" x1="18.262">
		<stop stop-color="#B5882F" offset="0"/>
		<stop stop-color="#E6B95E" offset="1"/>
	</linearGradient>
	<path fill-rule="evenodd" clip-rule="evenodd" d="m36.125 24.463c0.35-0.025 0.463 0.237 0.337 0.787-0.125 0.55-0.35 0.763-0.675 0.638-0.275-0.125-0.324-0.4-0.149-0.825 0.149-0.375 0.312-0.576 0.487-0.6z" fill="url(#SVGID_19_)"/>
		<linearGradient id="SVGID_20_" y2="-35.382" gradientUnits="userSpaceOnUse" x2="15.385" gradientTransform="matrix(.065 .7472 -.7472 .065 15.05 12.65)" y1="-35.382" x1="13.653">
		<stop stop-color="#B5882F" offset="0"/>
		<stop stop-color="#E6B95E" offset="1"/>
	</linearGradient>
	<path fill-rule="evenodd" clip-rule="evenodd" d="m42.462 20.338c0.95-0.075 1.251 0.162 0.9 0.712s-0.837 0.862-1.463 0.938c-0.524 0.025-0.675-0.225-0.449-0.75 0.2-0.55 0.537-0.85 1.012-0.9z" fill="url(#SVGID_20_)"/>
		<linearGradient id="SVGID_21_" y2="-31.273" gradientUnits="userSpaceOnUse" x2="19.381" gradientTransform="matrix(.0569 .7478 -.7478 .0569 15.05 12.65)" y1="-31.273" x1="17.074">
		<stop stop-color="#B5882F" offset="0"/>
		<stop stop-color="#E6B95E" offset="1"/>
	</linearGradient>
	<path fill-rule="evenodd" clip-rule="evenodd" d="m38.938 25.513c-0.125-0.275-0.213-0.563-0.263-0.862-0.101-0.601 0.05-1.001 0.45-1.2 0.4-0.2 0.712-0.101 0.938 0.3 0.125 0.2 0.199 0.412 0.225 0.638l-1.35 1.124z" fill="url(#SVGID_21_)"/>
		<linearGradient id="SVGID_22_" y2="-38.143" gradientUnits="userSpaceOnUse" x2="12.906" gradientTransform="matrix(.0679 .7469 -.7469 .0679 15.05 12.65)" y1="-38.143" x1="11.801">
		<stop stop-color="#B5882F" offset="0"/>
		<stop stop-color="#E6B95E" offset="1"/>
	</linearGradient>
	<path fill-rule="evenodd" clip-rule="evenodd" d="m44.337 18.762c0.525 0 0.7 0.175 0.525 0.525s-0.425 0.512-0.75 0.487c-0.274-0.025-0.351-0.2-0.225-0.525 0.1-0.324 0.25-0.487 0.45-0.487z" fill="url(#SVGID_22_)"/>
		<use opacity=".5898" style="enable-background:new" xlink:href="#flash0.ai_x5F_2_x2F_Layer_13_copy_x2F__x3C_Path_x3E__x5F_18" transform="matrix(.75 0 0 -.75 25.4 25.15)" height="2.062" width="11.85" y="-2.062"/>
		<use opacity=".5898" style="enable-background:new" xlink:href="#flash0.ai_x5F_2_x2F_Layer_13_copy_x2F__x3C_Path_x3E__x5F_17" transform="matrix(.75 0 0 -.75 19.85 20.85)" height="3.75" width="27.418" y="-3.75" x="-0.018"/>
		<use opacity=".5898" style="enable-background:new" xlink:href="#flash0.ai_x5F_2_x2F_Layer_13_copy_x2F__x3C_Path_x3E__x5F_16" transform="matrix(.75 0 0 -.75 15.55 17.25)" height="3.069" width="40.35" y="-3.079"/>
		<use opacity=".5898" style="enable-background:new" xlink:href="#flash0.ai_x5F_2_x2F_Layer_13_copy_x2F__x3C_Path_x3E__x5F_15" transform="matrix(.75 0 0 -.75 17.8 13.95)" height="1.874" width="28.916" y="-1.867" x="-0.016"/>
		<use opacity=".5898" style="enable-background:new" xlink:href="#flash0.ai_x5F_2_x2F_Layer_13_copy_x2F__x3C_Path_x3E__x5F_14" transform="matrix(.75 0 0 -.75 18.65 17.25)" height="0.633" width="1.944" y="-0.633" x="0.086"/>
		<use opacity=".5898" style="enable-background:new" xlink:href="#flash0.ai_x5F_2_x2F_Layer_13_copy_x2F__x3C_Path_x3E__x5F_13" transform="matrix(.75 0 0 -.75 23.05 16.75)" height="0.792" width="3.302" y="-0.767"/>
		<use opacity=".5898" style="enable-background:new" xlink:href="#flash0.ai_x5F_2_x2F_Layer_13_copy_x2F__x3C_Path_x3E__x5F_12" transform="matrix(.75 0 0 -.75 25.7 17.15)" height="0.408" width="1.237" y="-0.4" x="-0.012"/>
		<use opacity=".5898" style="enable-background:new" xlink:href="#flash0.ai_x5F_2_x2F_Layer_13_copy_x2F__x3C_Path_x3E__x5F_11" transform="matrix(.75 0 0 -.75 33.45 16.7)" height="0.909" width="3.229" y="-0.895" x="-0.003"/>
		<use opacity=".5898" style="enable-background:new" xlink:href="#flash0.ai_x5F_2_x2F_Layer_13_copy_x2F__x3C_Path_x3E__x5F_10" transform="matrix(.75 0 0 -.75 35.4 15.25)" height="0.664" width="2.189" y="-0.657" x="-0.044"/>
		<use opacity=".5898" style="enable-background:new" xlink:href="#flash0.ai_x5F_2_x2F_Layer_13_copy_x2F__x3C_Path_x3E__x5F_9" transform="matrix(.75 0 0 -.75 19.6 15.45)" height="0.698" width="1.74" y="-0.688" x="-0.025"/>
		<use opacity=".5898" style="enable-background:new" xlink:href="#flash0.ai_x5F_2_x2F_Layer_13_copy_x2F__x3C_Path_x3E__x5F_8" transform="matrix(.75 0 0 -.75 22.55 13.6)" height="0.374" width="2.214" y="-0.36" x="-0.002"/>
		<use opacity=".5898" style="enable-background:new" xlink:href="#flash0.ai_x5F_2_x2F_Layer_13_copy_x2F__x3C_Path_x3E__x5F_7" transform="matrix(.75 0 0 -.75 16.85 19.85)" height="1.064" width="3.896" y="-1.114" x="-0.006"/>
		<use opacity=".5898" style="enable-background:new" xlink:href="#flash0.ai_x5F_2_x2F_Layer_13_copy_x2F__x3C_Path_x3E__x5F_6" transform="matrix(.75 0 0 -.75 19.2 20.3)" height="1.1" width="2.324" y="-1.1" x="-0.017"/>
		<use opacity=".5898" style="enable-background:new" xlink:href="#flash0.ai_x5F_2_x2F_Layer_13_copy_x2F__x3C_Path_x3E__x5F_5" transform="matrix(.75 0 0 -.75 30.5 19.3)" height="0.817" width="3.215" y="-0.85" x="-0.002"/>
		<use opacity=".5898" style="enable-background:new" xlink:href="#flash0.ai_x5F_2_x2F_Layer_13_copy_x2F__x3C_Path_x3E__x5F_4" transform="matrix(.75 0 0 -.75 38.9 19.95)" height="0.792" width="2.701" y="-0.783" x="-0.045"/>
		<use opacity=".5898" style="enable-background:new" xlink:href="#flash0.ai_x5F_2_x2F_Layer_13_copy_x2F__x3C_Path_x3E__x5F_3" transform="matrix(.75 0 0 -.75 29.4 23.2)" height="1.174" width="3.45" y="-1.169" x="-0.005"/>
		<use opacity=".5898" style="enable-background:new" xlink:href="#flash0.ai_x5F_2_x2F_Layer_13_copy_x2F__x3C_Path_x3E__x5F_2" transform="matrix(.75 0 0 -.75 24.05 24.1)" height="0.904" width="2.178" y="-0.904" x="-0.016"/>
		<use opacity=".5898" style="enable-background:new" xlink:href="#flash0.ai_x5F_2_x2F_Layer_13_copy_x2F__x3C_Path_x3E__x5F_1" transform="matrix(.75 0 0 -.75 25.55 24.7)" height="1.263" width="2.694" y="-1.257" x="-0.012"/>
		<use opacity=".5898" style="enable-background:new" xlink:href="#flash0.ai_x5F_2_x2F_Layer_13_copy_x2F__x3C_Path_x3E_" transform="matrix(.75 0 0 -.75 34.4 22.95)" height="1.033" width="2.586" y="-1.033" x="-0.033"/>
	<path fill-rule="evenodd" clip-rule="evenodd" d="m35.35 36.35l-13.85-12.65 27.25 4.95c-2.267 3.333-6.733 5.9-13.4 7.7z" fill-opacity=".251"/>
		<linearGradient id="SVGID_23_" y2="25.875" gradientUnits="userSpaceOnUse" x2="42.126" gradientTransform="matrix(-.75 0 0 .75 52.7 8.6001)" y1="25.875" x1="17.501">
		<stop stop-color="#C4A04A" offset="0"/>
		<stop stop-color="#9C7832" offset="1"/>
	</linearGradient>
	<path fill-rule="evenodd" clip-rule="evenodd" d="m21.2 20.713l-0.075 2.813c3 2.25 5.5 4.162 7.5 5.737 1.424 1.125 4.163 3.138 8.212 6.037l2.737-4.537-0.561-3.563c-0.975-0.649-2.05-1.3-3.225-1.95-2.351-1.324-3.988-2.025-4.913-2.1-1.5-0.125-4.725-0.937-9.675-2.437z" fill="url(#SVGID_23_)"/>
	<path fill-rule="evenodd" clip-rule="evenodd" d="m21.875 21.162v2.926l6.75 5.175c0.625 0.5 3.05 2.287 7.275 5.362l0.3-3.3-0.263-1.875 2.362-2.7c-3.649-2.3-6.125-3.5-7.425-3.6-1.175-0.075-3.813-0.713-7.913-1.913l-1.086-0.075z" fill="#E6B95E"/>
		<linearGradient id="SVGID_24_" y2="10.657" gradientUnits="userSpaceOnUse" x2="37.79" gradientTransform="matrix(-.595 .4566 .4566 .595 52.7 8.6001)" y1="10.657" x1="-16.413">
		<stop stop-color="#FDCB53" offset="0"/>
		<stop stop-color="#D48801" offset="1"/>
	</linearGradient>
	<path fill-rule="evenodd" clip-rule="evenodd" d="m52.288 22.7l-0.075-0.9c-9.976 0.9-15.213 1.35-15.713 1.35l0.638 6.487-0.3 5.662c1.55-0.499 3.838-1.412 6.862-2.737 2.925-1.275 5.138-2.725 6.638-4.35l1.35-2.025c0.175-0.375 0.325-0.9 0.45-1.575 0.099-0.549 0.15-1.187 0.15-1.912z" fill="url(#SVGID_24_)"/>
	<path fill-rule="evenodd" clip-rule="evenodd" d="m52.213 21.763c-0.2-1.875-1.663-3.237-4.388-4.087-3.45-1.075-6.662-1.45-9.638-1.125-1.175 0.125-3.925 0.737-8.25 1.837-3.199 0.8-6.112 1.575-8.737 2.325l10.612 6.225 4.388 4.388 0.75 0.487c1.325-0.275 2.875-0.725 4.65-1.35 3.524-1.25 6.388-2.763 8.587-4.538 1.501-1.175 2.175-2.563 2.026-4.162z" fill="#CCA658"/>
	<path fill-rule="evenodd" clip-rule="evenodd" d="m29.188 26.037c2.7 1.875 5.038 3.638 7.012 5.288 2.35-0.425 4.513-1.138 6.487-2.138 2.825-1.425 4.9-2.662 6.226-3.713 2-1.625 2.638-3.05 1.912-4.274-1.425-2.45-4.825-3.863-10.2-4.238-1.975-0.125-5.7 0.538-11.175 1.988-2.726 0.725-5.25 1.462-7.575 2.212 2 1.25 4.438 2.875 7.313 4.875z" fill="#EBD88D"/>
		<use opacity=".5" style="enable-background:new" xlink:href="#flash0.ai_x5F_2_x2F_Layer_13_copy_x2F__x3C_Path_x3E__x5F_63" transform="matrix(-.75 0 0 -.75 51.95 22.75)" height="12.096" width="21.33" y="-12.12" x="0.033"/>
		<linearGradient id="SVGID_25_" y2="-22.305" gradientUnits="userSpaceOnUse" x2="34.301" gradientTransform="matrix(-.0598 .7476 .7476 .0598 52.7 8.6005)" y1="-22.305" x1="31.166">
		<stop stop-color="#B5882F" offset="0"/>
		<stop stop-color="#E6B95E" offset="1"/>
	</linearGradient>
	<path fill-rule="evenodd" clip-rule="evenodd" d="m35.15 31.963c0.024-0.476-0.175-0.938-0.601-1.388-0.425-0.425-0.787-0.525-1.087-0.3-0.325 0.225-0.475 0.575-0.45 1.05 0.024 0.476 0.188 0.899 0.487 1.274 0.325 0.4 0.662 0.563 1.013 0.488 0.4-0.1 0.613-0.475 0.638-1.124z" fill="url(#SVGID_25_)"/>
		<linearGradient id="SVGID_26_" y2="-25.065" gradientUnits="userSpaceOnUse" x2="31.305" gradientTransform="matrix(-.0583 .7477 .7477 .0583 52.7 8.6002)" y1="-25.065" x1="29.374">
		<stop stop-color="#B5882F" offset="0"/>
		<stop stop-color="#E6B95E" offset="1"/>
	</linearGradient>
	<path fill-rule="evenodd" clip-rule="evenodd" d="m32.3 29c-0.375-0.399-0.6-0.225-0.675 0.525-0.075 0.775 0.112 1.138 0.563 1.087 0.426-0.024 0.613-0.25 0.563-0.675-0.025-0.349-0.176-0.662-0.451-0.937z" fill="url(#SVGID_26_)"/>
		<linearGradient id="SVGID_27_" y2="-30.242" gradientUnits="userSpaceOnUse" x2="28.863" gradientTransform="matrix(-.0581 .7477 .7477 .0581 52.7 8.6)" y1="-30.242" x1="26.28">
		<stop stop-color="#B5882F" offset="0"/>
		<stop stop-color="#E6B95E" offset="1"/>
	</linearGradient>
	<path fill-rule="evenodd" clip-rule="evenodd" d="m28.438 26.188c-0.8-0.225-1.063 0.112-0.788 1.013 0.275 0.95 0.675 1.4 1.201 1.35 0.475-0.024 0.675-0.375 0.6-1.05-0.101-0.701-0.438-1.138-1.013-1.313z" fill="url(#SVGID_27_)"/>
		<linearGradient id="SVGID_28_" y2="-34.326" gradientUnits="userSpaceOnUse" x2="25.381" gradientTransform="matrix(-.059 .7477 .7477 .059 52.7 8.5999)" y1="-34.326" x1="23.475">
		<stop stop-color="#B5882F" offset="0"/>
		<stop stop-color="#E6B95E" offset="1"/>
	</linearGradient>
	<path fill-rule="evenodd" clip-rule="evenodd" d="m25.625 23.938c-0.401-0.15-0.663-0.088-0.788 0.188-0.125 0.225-0.125 0.5 0 0.825 0.1 0.3 0.3 0.513 0.601 0.638 0.349 0.149 0.625 0.087 0.825-0.188 0.225-0.275 0.262-0.55 0.113-0.825-0.15-0.275-0.401-0.488-0.751-0.638z" fill="url(#SVGID_28_)"/>
		<linearGradient id="SVGID_29_" y2="-36.911" gradientUnits="userSpaceOnUse" x2="23.215" gradientTransform="matrix(-.0534 .7481 .7481 .0534 52.7 8.6003)" y1="-36.911" x1="22.162">
		<stop stop-color="#B5882F" offset="0"/>
		<stop stop-color="#E6B95E" offset="1"/>
	</linearGradient>
	<path fill-rule="evenodd" clip-rule="evenodd" d="m23.601 23.112c-0.275 0.226-0.301 0.463-0.076 0.713 0.25 0.25 0.488 0.288 0.712 0.112 0.2-0.15 0.188-0.362-0.037-0.638-0.25-0.274-0.45-0.336-0.599-0.187z" fill="url(#SVGID_29_)"/>
		<linearGradient id="SVGID_30_" y2="-38.532" gradientUnits="userSpaceOnUse" x2="23.55" gradientTransform="matrix(-.0603 .7476 .7476 .0603 52.701 8.6002)" y1="-38.532" x1="21.995">
		<stop stop-color="#B5882F" offset="0"/>
		<stop stop-color="#E6B95E" offset="1"/>
	</linearGradient>
	<path fill-rule="evenodd" clip-rule="evenodd" d="m22.362 23.9c0.2 0.125 0.375 0.05 0.525-0.226 0.101-0.175 0.013-0.45-0.262-0.825-0.25-0.399-0.401-0.487-0.451-0.262-0.123 0.751-0.061 1.188 0.188 1.313z" fill="url(#SVGID_30_)"/>
	<path fill-rule="evenodd" clip-rule="evenodd" d="m22.212 19.25c-0.1 0.175-0.149 0.438-0.149 0.787-0.25 0.926 0.237 1.463 1.462 1.613 0.675 0.074 1.188 0.287 1.538 0.637 0.175 0.2 0.413 0.613 0.712 1.238 0.2 0.625 0.375 1.074 0.525 1.35 0.251 0.475 0.688 0.862 1.313 1.162 0.6 0.301 1.051 0.601 1.35 0.9 0.375 0.475 0.763 0.913 1.163 1.313 0.475 0.5 0.925 0.8 1.351 0.9 0.649 0.175 1.074 0.324 1.274 0.449 0.325 0.2 0.813 0.563 1.463 1.088 0.55 0.45 0.975 0.738 1.274 0.862 0.325 0.15 0.775 0.075 1.351-0.225 0.75-0.45 1.412-0.813 1.987-1.088 0.625-0.3 1.737-0.575 3.338-0.825 1.524-0.249 2.412-0.449 2.662-0.6 0.85-0.574 1.875-0.762 3.075-0.563 0.375 0.075 0.825-0.1 1.35-0.525 0.55-0.524 0.925-0.875 1.125-1.05 0.2-0.2 0.275-0.537 0.226-1.013-0.025-0.524 0.013-0.875 0.112-1.05s0.388-0.412 0.862-0.712c0.425-0.25 0.688-0.525 0.787-0.825 0.126-0.35 0.088-0.663-0.112-0.938-0.075-0.101-0.337-0.375-0.787-0.825-0.275-0.274-0.413-0.537-0.413-0.787 0.051-0.351 0.088-0.663 0.113-0.938 0.05-0.35-0.362-0.9-1.238-1.65-0.824-0.675-1.399-1.037-1.725-1.087-3.075-0.3-7.575-0.35-13.5-0.15-6.3 0.25-9.938 0.688-10.912 1.313-0.901 0.577-1.427 0.989-1.577 1.239z" fill="#7A5215"/>
	<path fill-rule="evenodd" clip-rule="evenodd" d="m22.138 19.475c-0.025 0.1-0.05 0.288-0.075 0.562-0.25 0.926 0.237 1.463 1.462 1.613 0.675 0.074 1.188 0.287 1.538 0.637 0.175 0.2 0.413 0.613 0.712 1.238 0.2 0.625 0.375 1.074 0.525 1.35 0.251 0.475 0.688 0.862 1.313 1.162 0.6 0.301 1.051 0.601 1.35 0.9 0.375 0.475 0.763 0.913 1.163 1.313 0.475 0.5 0.925 0.8 1.351 0.9 0.649 0.175 1.074 0.324 1.274 0.449 0.325 0.2 0.813 0.563 1.463 1.088 0.55 0.45 0.975 0.738 1.274 0.862 0.325 0.175 0.838 0.063 1.538-0.337-0.125-0.45-0.338-0.688-0.638-0.713-0.425-0.024-0.85-0.212-1.275-0.563-0.1-0.075-0.337-0.3-0.712-0.675-0.1-0.125-0.475-0.313-1.125-0.563-0.801-0.323-1.276-0.523-1.425-0.598-0.676-0.399-1.363-1.024-2.063-1.875-0.275-0.324-0.738-0.637-1.388-0.938-0.7-0.324-1.15-0.587-1.35-0.787-0.25-0.225-0.449-0.725-0.6-1.5s-0.338-1.287-0.563-1.537c-0.3-0.301-0.875-0.488-1.725-0.563-0.425-0.05-0.913-0.101-1.463-0.15-0.249-0.025-0.436-0.45-0.561-1.275z" fill="#5E4007"/>
	<path fill-rule="evenodd" clip-rule="evenodd" d="m50.375 26.675c0.2-0.2 0.275-0.537 0.226-1.013-0.025-0.524 0.013-0.875 0.112-1.05s0.388-0.412 0.862-0.712c0.425-0.25 0.688-0.525 0.787-0.825 0.126-0.4 0.038-0.775-0.262-1.125-0.275 0.6-0.737 1.162-1.388 1.688-0.474 0.375-0.712 0.85-0.712 1.425 0 0.625-0.063 1.013-0.188 1.162-0.275 0.301-0.712 0.575-1.313 0.825-0.6 0.251-1.125 0.362-1.575 0.338-0.399-0.05-0.912 0.05-1.537 0.3-0.225 0.075-0.774 0.325-1.65 0.75-0.35 0.176-1.037 0.313-2.063 0.412-1.024 0.101-1.762 0.263-2.212 0.488-1.351 0.699-2.375 1.087-3.075 1.162-0.25 0.025-0.399 0.4-0.45 1.125 0.275-0.024 0.675-0.175 1.2-0.45 0.825-0.475 1.388-0.787 1.688-0.938 0.625-0.3 1.737-0.575 3.338-0.825 1.524-0.249 2.412-0.449 2.662-0.6 0.85-0.574 1.875-0.762 3.075-0.563 0.375 0.075 0.825-0.1 1.35-0.525 0.55-0.524 0.925-0.874 1.125-1.049z" fill="#634506"/>
	<path fill-rule="evenodd" clip-rule="evenodd" d="m20.75 17.938c-0.076 0.35-0.012 0.838 0.188 1.462 0 0.575 0.287 0.888 0.862 0.938l0.263-0.45c0.25-0.35 0.85-0.075 1.799 0.825 0.7 0.75 1.725 1.412 3.076 1.987 0.6 0.25 1.212 0.675 1.837 1.274 0.826 0.801 1.438 1.338 1.837 1.613 0.55 0.4 1.226 0.925 2.025 1.574 0.726 0.625 1.237 1.038 1.537 1.238 1.251 0.899 2.338 1.313 3.263 1.237 0.575-0.075 0.976-0.125 1.2-0.15 0.325-0.024 0.55 0.025 0.675 0.15 0.075 0.05 0.112 0.263 0.112 0.638 0 0.35 0.126 0.637 0.375 0.862 0.525 0.45 1.025 0.225 1.5-0.675 0.126-0.375 0.226-0.663 0.301-0.863 0.125-0.35 0.337-0.649 0.637-0.899 0.275-0.25 0.801-0.513 1.575-0.788 0.976-0.375 1.726-0.712 2.25-1.012 0.801-0.45 1.425-0.851 1.875-1.2 0.351-0.3 0.825-0.775 1.425-1.425 0.501-0.55 0.938-0.9 1.313-1.051 0.226-0.1 0.601-0.188 1.125-0.262 0.4-0.025 0.65-0.088 0.75-0.188 0.101-0.101 0.126-0.288 0.075-0.563 0.051-0.5 0.063-0.913 0.038-1.238-0.051-0.625-0.375-1.087-0.976-1.387-1.125-0.85-1.875-1.35-2.25-1.5-2.05-0.85-6.575-1.413-13.575-1.688-6.475-0.25-10.725-0.188-12.75 0.188-1.424 0.277-2.212 0.728-2.362 1.353z" fill="#E3B309"/>
	<path fill-rule="evenodd" clip-rule="evenodd" d="m21.913 16.888c-0.851 0.45-1.088 0.875-0.713 1.275 0.2 0.2 0.649 0.425 1.35 0.675 0.975 0.375 1.788 1.063 2.438 2.063 0.225 0.375 0.688 0.688 1.388 0.938 0.95 0.325 1.7 0.675 2.25 1.05 1.025 0.675 1.75 1.188 2.174 1.537 0.601 0.5 1.251 1.138 1.95 1.913 1.45 1.625 3.075 2.438 4.875 2.438 1.45 0 2.7-0.313 3.75-0.938 2.45-1.3 3.95-2.176 4.5-2.625 2.05-1.525 3.525-2.487 4.425-2.888 0.55-0.25 1.051-0.601 1.5-1.05 0.426-0.425 0.638-0.738 0.638-0.938 0-0.176-0.263-0.45-0.787-0.825-0.5-0.375-0.976-0.638-1.425-0.788-0.101-0.025-1.088-0.587-2.963-1.688-1.675-1-2.85-1.525-3.525-1.575-2.699-0.15-6.699-0.075-12 0.225-5.65 0.326-8.925 0.726-9.825 1.201z" fill="#FFD129"/>
	<path fill-rule="evenodd" clip-rule="evenodd" d="m52.138 21.35c-0.15 0.101-0.212 0.213-0.188 0.338 0 0.05 0.05 0.15 0.15 0.3 0.05 0.075 0.037 0.125-0.038 0.15-0.1 0.05-0.149 0.138-0.149 0.263-0.025 0.175 0.037 0.287 0.188 0.337 0.149 0.05 0.262 0 0.337-0.149 0.025-0.075 0.025-0.213 0-0.413-0.05-0.225-0.05-0.438 0-0.638 0.025-0.25 0.013-0.375-0.037-0.375-0.026 0.025-0.113 0.087-0.263 0.187z" fill="#FFEDA8"/>
	<path fill-rule="evenodd" clip-rule="evenodd" d="m40.775 29.412c-0.25 0.025-0.413 0.226-0.487 0.601-0.051 0.35-0.013 0.625 0.112 0.825 0.175 0.274 0.438 0.025 0.787-0.75 0.1-0.175 0.1-0.338 0-0.488-0.099-0.15-0.237-0.212-0.412-0.188z" fill="#FFEDA8"/>
	<path fill-rule="evenodd" clip-rule="evenodd" d="m36.612 28.4c-1.05-0.075-2.087-0.525-3.112-1.351 0.375 0.375 0.763 0.7 1.163 0.976 0.324 0.225 0.587 0.375 0.787 0.449 0.275 0.075 0.838 0.163 1.688 0.263 0.75 0.101 1.524 0.063 2.325-0.112l0.975-0.3-1.875 0.188c-1.05 0.075-1.701 0.037-1.951-0.113z" fill="#FFEDA8"/>
	<path fill-rule="evenodd" clip-rule="evenodd" d="m21.538 19.438c-0.101 0.25-0.101 0.413 0 0.488 0.074 0.074 0.162 0.024 0.262-0.151 0.101-0.125 0.101-0.275 0-0.45-0.1-0.15-0.188-0.113-0.262 0.113z" fill="#FFEDA8"/>
	<path fill-rule="evenodd" clip-rule="evenodd" d="m35.263 27.05c0.65-0.225 1.149-0.388 1.5-0.487s0.875-0.037 1.575 0.188c0.8 0.275 1.438 0.4 1.912 0.375 0.55-0.024 1.088-0.287 1.612-0.787 0.501-0.476 0.9-0.713 1.2-0.713 0.5 0 1.037-0.1 1.612-0.3s1.038-0.438 1.388-0.713c0.375-0.25 0.675-0.324 0.9-0.225 0.25 0.125 0.375 0.412 0.375 0.862 0 0.4 0.088 0.625 0.263 0.675 0.274 0 0.512-0.013 0.712-0.037 0.275-0.025 0.475-0.188 0.601-0.487 0.149-0.45 0.3-0.825 0.449-1.125 0.15-0.301 0.175-0.713 0.075-1.238-0.075-0.499-0.05-0.85 0.075-1.05 0.15-0.25 0.6-0.55 1.35-0.899 1.025-0.476 1.551-0.726 1.575-0.75 0.3-0.15 0.325-0.413 0.075-0.788-0.1-0.15-0.375-0.438-0.825-0.863-1.2-1.2-2.263-1.813-3.188-1.837-0.825-0.3-4.975-0.663-12.45-1.087-7.35-0.45-11.462-0.6-12.337-0.45-1.3 0.2-1.9 0.725-1.799 1.575 0.024 0.225 0.2 0.462 0.525 0.712 0.45 0.35 0.75 0.625 0.899 0.825 0.2 0.3 0.425 0.512 0.675 0.637 0.4 0.2 0.813 0.413 1.238 0.638 0.524 0.275 0.788 0.638 0.788 1.087 0.024 0.251 0 0.713-0.076 1.388 0.026 0.525 0.2 0.851 0.525 0.976 0.251 0.1 0.7 0.112 1.35 0.037 0.625-0.075 1.05-0.112 1.275-0.112 0.351 0.025 0.738 0.1 1.163 0.225 0.6 0.226 1.112 1.025 1.537 2.4 0.1 0.3-0.024 0.5-0.375 0.6-0.65 0.226-1 0.351-1.05 0.375-0.35 0.226-0.525 0.55-0.525 0.976-0.024 0.425 0.15 0.775 0.525 1.05 0.35 0.275 0.688 0.325 1.013 0.149 0.324-0.175 0.475-0.424 0.45-0.75-0.025-0.225 0.1-0.375 0.375-0.449 0.324-0.075 0.5-0.162 0.524-0.263 0.125-0.325 0.588-0.388 1.388-0.188 0.225 0.048 0.6-0.002 1.126-0.152z" fill="#EBAC65"/>
	<g fill-rule="evenodd" clip-rule="evenodd" fill="#D1944F">
		<path d="m22.025 16.175c-0.125 0.225-0.162 0.462-0.112 0.712 0.024 0.225 0.2 0.462 0.525 0.712 0.45 0.35 0.75 0.625 0.899 0.825 0.2 0.3 0.425 0.512 0.675 0.637 0.4 0.2 0.813 0.413 1.238 0.638 0.275 0.15 0.475 0.3 0.6 0.45-0.101-0.425-0.325-0.738-0.676-0.938-0.85-0.5-1.362-0.875-1.537-1.125-0.375-0.525-0.713-0.862-1.012-1.012-0.425-0.224-0.625-0.524-0.6-0.899z"/>
		<path d="m36.388 25.775c-0.075 0.025-0.438 0.213-1.088 0.563-0.5 0.274-0.925 0.425-1.274 0.449-0.125 0-0.45-0.012-0.976-0.037-0.2-0.024-0.362 0.025-0.487 0.15-0.2 0.274-0.45 0.438-0.75 0.487-0.375 0.075-0.575 0.275-0.6 0.6-0.025 0.175-0.112 0.338-0.263 0.487-0.175 0.176-0.362 0.25-0.563 0.226 0.35 0.275 0.688 0.325 1.013 0.149 0.324-0.175 0.475-0.424 0.45-0.75-0.025-0.225 0.1-0.375 0.375-0.449 0.324-0.075 0.5-0.162 0.524-0.263 0.125-0.325 0.588-0.388 1.388-0.188 0.225 0.05 0.6 0 1.125-0.15 0.65-0.225 1.149-0.388 1.5-0.487s0.875-0.037 1.575 0.188c0.8 0.275 1.438 0.4 1.912 0.375 0.55-0.024 1.088-0.287 1.612-0.787 0.501-0.476 0.9-0.713 1.2-0.713 0.5 0 1.037-0.1 1.612-0.3s1.038-0.438 1.388-0.713c0.375-0.25 0.675-0.324 0.9-0.225 0.25 0.125 0.375 0.412 0.375 0.862 0 0.4 0.088 0.625 0.263 0.675 0.274 0 0.512-0.013 0.712-0.037 0.3-0.025 0.513-0.213 0.638-0.563-0.774 0.225-1.213 0-1.313-0.675-0.05-0.375-0.237-0.601-0.563-0.676-0.275-0.074-0.575-0.024-0.9 0.15-0.2 0.125-0.575 0.351-1.125 0.675-0.5 0.251-0.912 0.388-1.237 0.413-0.35 0.025-0.763 0.137-1.237 0.337-0.45 0.175-0.75 0.325-0.9 0.45-0.125 0.1-0.262 0.063-0.412-0.112-0.125-0.15-0.188-0.287-0.188-0.413 0-0.074-0.7-0.074-2.1 0-1.424 0.077-2.286 0.177-2.586 0.302z"/>
		<path d="m49.513 21.987c0.15-0.25 0.6-0.55 1.35-0.899 1.025-0.476 1.551-0.726 1.575-0.75 0.175-0.075 0.263-0.213 0.263-0.413-0.275 0.125-0.513 0.212-0.713 0.262-0.6 0.15-1.187 0.425-1.762 0.825-0.75 0.5-1.038 0.95-0.863 1.35l0.038 0.112c-0.001-0.174 0.037-0.336 0.112-0.487z"/>
		<path d="m30.275 23.3c0.6 0.226 1.112 1.025 1.537 2.4 0.1 0.25 0.038 0.438-0.188 0.563-0.149 0.05-0.425 0.125-0.825 0.225 0.476-0.05 0.801-0.137 0.976-0.263 0.3-0.225 0.475-0.362 0.524-0.412 0.126-0.15 0.15-0.338 0.075-0.563-0.1-0.275-0.3-0.675-0.6-1.2-0.3-0.574-0.5-0.912-0.601-1.013-0.425-0.425-0.899-0.574-1.425-0.449-1.25 0.25-2.15 0.35-2.7 0.3-0.575-0.05-0.938-0.413-1.087-1.088v0.375c0.026 0.525 0.2 0.851 0.525 0.976 0.251 0.1 0.7 0.112 1.35 0.037 0.625-0.075 1.05-0.112 1.275-0.112 0.352 0.025 0.739 0.099 1.164 0.224z"/>
	</g>
	<path fill-rule="evenodd" clip-rule="evenodd" d="m51.913 19.288c-0.126 0.05-0.126 0.175 0 0.375 0.149 0.175 0.274 0.225 0.375 0.15 0.125-0.05 0.125-0.162 0-0.337-0.126-0.176-0.25-0.239-0.375-0.188z" fill="#FFD4A1"/>
	<path fill-rule="evenodd" clip-rule="evenodd" d="m49.25 23.188c-0.1-0.15-0.2-0.225-0.3-0.225-0.175-0.025-0.263 0.337-0.263 1.087-0.024 0.125-0.112 0.251-0.263 0.375-0.175 0.101-0.262 0.188-0.262 0.263 0 0.125 0.087 0.237 0.262 0.338 0.175 0.1 0.325 0.112 0.45 0.037 0.1-0.05 0.175-0.225 0.226-0.525l0.188-0.787c0.074-0.201 0.062-0.389-0.038-0.563z" fill="#FFD4A1"/>
	<path fill-rule="evenodd" clip-rule="evenodd" d="m48.2 23.563c-0.25 0.075-0.338 0.188-0.263 0.338 0.075 0.175 0.188 0.25 0.338 0.225 0.1-0.024 0.137-0.125 0.112-0.3-0.024-0.201-0.087-0.289-0.187-0.263z" fill="#FFD4A1"/>
	<path fill-rule="evenodd" clip-rule="evenodd" d="m48.838 22.175c-0.125 0.075-0.2 0.213-0.226 0.413 0 0.175 0.113 0.225 0.338 0.149 0.25-0.075 0.325-0.212 0.225-0.412-0.074-0.175-0.188-0.225-0.337-0.15z" fill="#FFD4A1"/>
	<path fill-rule="evenodd" clip-rule="evenodd" d="m34.101 25.925c-0.2-0.024-0.426 0.038-0.676 0.188-0.274 0.15-0.337 0.263-0.188 0.338 0.126 0.075 0.351 0.101 0.676 0.075 0.324-0.051 0.563-0.113 0.712-0.188 0.226-0.2 0.051-0.338-0.524-0.413z" fill="#FFD4A1"/>
	<path fill-rule="evenodd" clip-rule="evenodd" d="m32.15 26.713c-0.175-0.051-0.388 0-0.638 0.149-0.25 0.15-0.325 0.275-0.225 0.375 0.1 0.101 0.225 0.112 0.375 0.038 0.249-0.15 0.388-0.226 0.412-0.226 0.15-0.05 0.225-0.124 0.225-0.225 0.001-0.074-0.049-0.111-0.149-0.111z" fill="#FFD4A1"/>
	<path fill-rule="evenodd" clip-rule="evenodd" d="m30.538 27.537c-0.475 0.051-0.513 0.326-0.113 0.825 0.075 0.101 0.175 0.112 0.301 0.038 0.125-0.075 0.225-0.188 0.3-0.338 0.075-0.125 0.05-0.25-0.075-0.375-0.101-0.124-0.239-0.174-0.413-0.15z" fill="#FFD4A1"/>
	<path fill-rule="evenodd" clip-rule="evenodd" d="m32.601 24.763c-0.15-0.175-0.263-0.287-0.338-0.338-0.1-0.024-0.075 0.038 0.075 0.188 0.075 0.075 0.137 0.238 0.188 0.487 0.05 0.2 0.112 0.288 0.188 0.263 0.1-0.024 0.125-0.112 0.075-0.263-0.026-0.125-0.089-0.237-0.188-0.337z" fill="#FFD4A1"/>
	<path fill-rule="evenodd" clip-rule="evenodd" d="m28.476 22.025c-0.101 0.05-0.338 0.037-0.713-0.038-0.225-0.05-0.563-0.125-1.012-0.225-0.401-0.101-0.363 0.149 0.112 0.75 0.125 0.149 0.413 0.2 0.863 0.149 0.35-0.024 0.712-0.1 1.087-0.225 0.25-0.075 0.299-0.188 0.149-0.338-0.149-0.122-0.312-0.148-0.486-0.073z" fill="#FFD4A1"/>
	<path fill-rule="evenodd" clip-rule="evenodd" d="m26.525 20.487c-0.125 0.05-0.149 0.15-0.075 0.3 0.075 0.176 0.188 0.213 0.338 0.113 0.15-0.075 0.162-0.176 0.037-0.301-0.15-0.099-0.25-0.136-0.3-0.112z" fill="#FFD4A1"/>
	<path fill-rule="evenodd" clip-rule="evenodd" d="m24.351 18.163c-0.2 0-0.237 0.05-0.113 0.15 0.175 0.125 0.301 0.2 0.375 0.225 0.101 0.075 0.237 0.125 0.413 0.15 0.2 0.025 0.313 0.013 0.337-0.038 0.025-0.025-0.112-0.112-0.412-0.262s-0.501-0.225-0.6-0.225z" fill="#FFD4A1"/>
		<linearGradient id="SVGID_31_" y2="15.476" gradientUnits="userSpaceOnUse" x2="41.876" gradientTransform="matrix(-.75 0 0 .75 52.7 8.6001)" y1="15.476" x1="17.251">
		<stop stop-color="#C4A04A" offset="0"/>
		<stop stop-color="#9C7832" offset="1"/>
	</linearGradient>
	<path fill-rule="evenodd" clip-rule="evenodd" d="m21.388 12.913l-0.075 2.813c3 2.25 5.5 4.163 7.5 5.738 1.424 1.1 4.163 3.112 8.212 6.037l2.737-4.537-0.562-3.564c-0.975-0.65-2.05-1.3-3.225-1.95-2.351-1.325-3.988-2.025-4.913-2.1-1.499-0.125-4.725-0.937-9.674-2.437z" fill="url(#SVGID_31_)"/>
	<path fill-rule="evenodd" clip-rule="evenodd" d="m22.101 13.363l-0.038 2.925 6.75 5.175c1 0.774 3.425 2.563 7.275 5.362l0.3-3.3-0.263-1.875 2.4-2.7c-3.75-2.3-6.238-3.5-7.463-3.6-1.1-0.075-3.737-0.712-7.913-1.913l-1.048-0.074z" fill="#E6B95E"/>
		<linearGradient id="SVGID_32_" y2="3.2559" gradientUnits="userSpaceOnUse" x2="28.804" gradientTransform="matrix(-.6111 .4348 .4348 .6111 52.7 8.5995)" y1="3.2559" x1="-.2197">
		<stop stop-color="#FDCB53" offset="0"/>
		<stop stop-color="#D48801" offset="1"/>
	</linearGradient>
	<path fill-rule="evenodd" clip-rule="evenodd" d="m36.726 15.35l0.6 6.488-0.3 5.662c1.55-0.5 3.838-1.412 6.862-2.737 2.925-1.275 5.138-2.726 6.638-4.351l1.388-2.024c0.149-0.4 0.287-0.925 0.412-1.575 0.174-0.875 0.199-1.813 0.074-2.813-9.95 0.9-15.174 1.35-15.674 1.35z" fill="url(#SVGID_32_)"/>
	<path fill-rule="evenodd" clip-rule="evenodd" d="m36.388 23.525l0.75 0.487c1.325-0.274 2.875-0.725 4.65-1.351 3.55-1.249 6.425-2.762 8.625-4.537 1.475-1.175 2.137-2.563 1.987-4.163-0.2-1.875-1.663-3.237-4.388-4.087-3.45-1.075-6.662-1.45-9.638-1.125-1.2 0.125-3.95 0.737-8.25 1.837-3.199 0.8-6.112 1.575-8.737 2.325l10.65 6.225 4.351 4.389z" fill="#C98000"/>
	<path fill-rule="evenodd" clip-rule="evenodd" d="m29.413 18.238c2.699 1.875 5.024 3.637 6.975 5.288 2.375-0.45 4.55-1.163 6.525-2.138 2.825-1.425 4.899-2.663 6.225-3.712 2-1.625 2.625-3.05 1.875-4.275-1.425-2.45-4.825-3.862-10.2-4.237-1.975-0.126-5.688 0.536-11.138 1.986-2.725 0.725-5.25 1.463-7.574 2.213 1.999 1.249 4.436 2.874 7.312 4.875z" fill="#FFD875"/>
		<linearGradient id="SVGID_33_" y2="-6.0674" gradientUnits="userSpaceOnUse" x2="24.549" gradientTransform="matrix(-.4457 .6032 .6032 .4457 52.7 8.6)" y1="-6.0674" x1="20.384">
		<stop stop-color="#E6B95E" offset="0"/>
		<stop stop-color="#FFD875" offset="1"/>
	</linearGradient>
	<path fill-rule="evenodd" clip-rule="evenodd" d="m39.538 18.2c-1.325 0.025-2.213 0.2-2.663 0.525-0.425 0.3-0.438 0.613-0.037 0.938 1.025 0.95 2.525 1.025 4.5 0.225 0.475-0.2 0.412-0.538-0.188-1.013-0.6-0.45-1.137-0.675-1.612-0.675z" fill="url(#SVGID_33_)"/>
		<linearGradient id="SVGID_34_" y2="-2.9897" gradientUnits="userSpaceOnUse" x2="15.947" gradientTransform="matrix(-.4472 .6021 .6021 .4472 52.7 8.5998)" y1="-2.9897" x1="13.767">
		<stop stop-color="#E6B95E" offset="0"/>
		<stop stop-color="#FFD875" offset="1"/>
	</linearGradient>
	<path fill-rule="evenodd" clip-rule="evenodd" d="m44.45 15.613c-1.45 0.025-1.862 0.275-1.237 0.75 0.65 0.525 1.287 0.663 1.912 0.412 0.5-0.175 0.613-0.425 0.338-0.75-0.25-0.3-0.588-0.437-1.013-0.412z" fill="url(#SVGID_34_)"/>
		<linearGradient id="SVGID_35_" y2="4.9927" gradientUnits="userSpaceOnUse" x2="23.325" gradientTransform="matrix(-.75 0 0 .75 52.7 8.6001)" y1="4.9927" x1="16.475">
		<stop stop-color="#E6B95E" offset="0"/>
		<stop stop-color="#FFD875" offset="1"/>
	</linearGradient>
	<path fill-rule="evenodd" clip-rule="evenodd" d="m38 11.413c-1.675-0.025-2.6 0.188-2.774 0.638-0.175 0.45 0.3 0.8 1.425 1.05 1.675 0.4 2.875 0.125 3.6-0.825 0.35-0.526-0.4-0.813-2.251-0.863z" fill="url(#SVGID_35_)"/>
		<linearGradient id="SVGID_36_" y2="-17.696" gradientUnits="userSpaceOnUse" x2="19.587" gradientTransform="matrix(-.45 .6 .6 .45 52.701 8.5999)" y1="-17.696" x1="18.212">
		<stop stop-color="#E6B95E" offset="0"/>
		<stop stop-color="#FFD875" offset="1"/>
	</linearGradient>
	<path fill-rule="evenodd" clip-rule="evenodd" d="m33.463 11.6c-0.575 0.05-0.788 0.188-0.638 0.413 0.15 0.25 0.487 0.35 1.013 0.3 0.475-0.05 0.65-0.188 0.524-0.413-0.149-0.225-0.449-0.325-0.899-0.3z" fill="url(#SVGID_36_)"/>
		<linearGradient id="SVGID_37_" y2="-22.644" gradientUnits="userSpaceOnUse" x2="24.299" gradientTransform="matrix(-.4442 .6043 .6043 .4442 52.7 8.6001)" y1="-22.644" x1="21.724">
		<stop stop-color="#E6B95E" offset="0"/>
		<stop stop-color="#FFD875" offset="1"/>
	</linearGradient>
	<path fill-rule="evenodd" clip-rule="evenodd" d="m28.775 11.788c-0.575 0.025-1 0.137-1.274 0.337-0.25 0.2-0.25 0.375 0 0.525s0.6 0.238 1.049 0.263c0.525 0.025 1-0.038 1.426-0.188 0.449-0.175 0.5-0.375 0.149-0.6-0.325-0.25-0.775-0.362-1.35-0.337z" fill="url(#SVGID_37_)"/>
		<linearGradient id="SVGID_38_" y2="-16.406" gradientUnits="userSpaceOnUse" x2="25.18" gradientTransform="matrix(-.4454 .6034 .6034 .4454 52.7 8.6007)" y1="-16.406" x1="22.57">
		<stop stop-color="#E6B95E" offset="0"/>
		<stop stop-color="#FFD875" offset="1"/>
	</linearGradient>
	<path fill-rule="evenodd" clip-rule="evenodd" d="m31.963 15.087c-0.976-0.05-1.45 0.087-1.425 0.413 0.024 0.275 0.325 0.513 0.899 0.712 0.475 0.15 0.85 0.212 1.125 0.188s0.638-0.137 1.088-0.337c0.399-0.2 0.362-0.413-0.112-0.637-0.45-0.201-0.975-0.314-1.575-0.339z" fill="url(#SVGID_38_)"/>
		<linearGradient id="SVGID_39_" y2="-8.4067" gradientUnits="userSpaceOnUse" x2="19.186" gradientTransform="matrix(-.4472 .6021 .6021 .4472 52.7 8.5998)" y1="-8.4067" x1="15.916">
		<stop stop-color="#E6B95E" offset="0"/>
		<stop stop-color="#FFD875" offset="1"/>
	</linearGradient>
	<path fill-rule="evenodd" clip-rule="evenodd" d="m38.938 14.413c-0.575 0.025-0.875 0.2-0.899 0.525-0.025 0.225 0.074 0.488 0.3 0.788 0.2 0.325 1.149 0.363 2.85 0.112 0.85-0.15 0.938-0.437 0.263-0.862-0.652-0.401-1.489-0.588-2.514-0.563z" fill="url(#SVGID_39_)"/>
		<linearGradient id="SVGID_40_" y2="-23.69" gradientUnits="userSpaceOnUse" x2="23.276" gradientTransform="matrix(-.0598 .7476 .7476 .0598 52.7 8.6005)" y1="-23.69" x1="20.141">
		<stop stop-color="#B5882F" offset="0"/>
		<stop stop-color="#E6B95E" offset="1"/>
	</linearGradient>
	<path fill-rule="evenodd" clip-rule="evenodd" d="m34.775 23.6c0.024-0.475-0.175-0.925-0.601-1.35-0.425-0.45-0.787-0.563-1.087-0.338-0.325 0.226-0.475 0.588-0.45 1.088 0.024 0.476 0.188 0.9 0.487 1.275 0.325 0.375 0.662 0.524 1.013 0.449 0.4-0.074 0.613-0.449 0.638-1.124z" fill="url(#SVGID_40_)"/>
		<linearGradient id="SVGID_41_" y2="-26.507" gradientUnits="userSpaceOnUse" x2="19.792" gradientTransform="matrix(-.0613 .7475 .7475 .0613 52.7 8.6002)" y1="-26.507" x1="18.262">
		<stop stop-color="#B5882F" offset="0"/>
		<stop stop-color="#E6B95E" offset="1"/>
	</linearGradient>
	<path fill-rule="evenodd" clip-rule="evenodd" d="m31.625 20.412c-0.35-0.024-0.463 0.238-0.337 0.788 0.125 0.55 0.35 0.763 0.675 0.638 0.275-0.125 0.324-0.4 0.149-0.825-0.149-0.375-0.312-0.575-0.487-0.601z" fill="url(#SVGID_41_)"/>
		<linearGradient id="SVGID_42_" y2="-35.382" gradientUnits="userSpaceOnUse" x2="15.385" gradientTransform="matrix(-.065 .7472 .7472 .065 52.7 8.6003)" y1="-35.382" x1="13.653">
		<stop stop-color="#B5882F" offset="0"/>
		<stop stop-color="#E6B95E" offset="1"/>
	</linearGradient>
	<path fill-rule="evenodd" clip-rule="evenodd" d="m25.288 16.288c-0.95-0.075-1.25 0.163-0.9 0.712s0.837 0.863 1.463 0.938c0.525 0.025 0.674-0.225 0.449-0.75-0.2-0.55-0.537-0.85-1.012-0.9z" fill="url(#SVGID_42_)"/>
		<linearGradient id="SVGID_43_" y2="-31.274" gradientUnits="userSpaceOnUse" x2="19.381" gradientTransform="matrix(-.0569 .7478 .7478 .0569 52.7 8.5997)" y1="-31.274" x1="17.074">
		<stop stop-color="#B5882F" offset="0"/>
		<stop stop-color="#E6B95E" offset="1"/>
	</linearGradient>
	<path fill-rule="evenodd" clip-rule="evenodd" d="m28.813 21.463c0.125-0.275 0.212-0.563 0.262-0.863 0.101-0.6-0.05-1-0.45-1.2-0.401-0.2-0.712-0.1-0.938 0.3-0.125 0.2-0.2 0.412-0.226 0.638l1.352 1.125z" fill="url(#SVGID_43_)"/>
		<linearGradient id="SVGID_44_" y2="-38.143" gradientUnits="userSpaceOnUse" x2="12.906" gradientTransform="matrix(-.0679 .7469 .7469 .0679 52.7 8.6001)" y1="-38.143" x1="11.801">
		<stop stop-color="#B5882F" offset="0"/>
		<stop stop-color="#E6B95E" offset="1"/>
	</linearGradient>
	<path fill-rule="evenodd" clip-rule="evenodd" d="m23.413 14.712c-0.525 0-0.7 0.175-0.525 0.525s0.425 0.512 0.75 0.487c0.274-0.025 0.35-0.2 0.225-0.525-0.1-0.324-0.25-0.487-0.45-0.487z" fill="url(#SVGID_44_)"/>
		<use opacity=".5898" style="enable-background:new" xlink:href="#flash0.ai_x5F_2_x2F_Layer_13_copy_x2F__x3C_Path_x3E__x5F_18" transform="matrix(-.75 0 0 -.75 42.35 21.1)" height="2.062" width="11.85" y="-2.062"/>
		<use opacity=".5898" style="enable-background:new" xlink:href="#flash0.ai_x5F_2_x2F_Layer_13_copy_x2F__x3C_Path_x3E__x5F_17" transform="matrix(-.75 0 0 -.75 47.9 16.8)" height="3.75" width="27.418" y="-3.75" x="-0.018"/>
		<use opacity=".5898" style="enable-background:new" xlink:href="#flash0.ai_x5F_2_x2F_Layer_13_copy_x2F__x3C_Path_x3E__x5F_16" transform="matrix(-.75 0 0 -.75 52.2 13.2)" height="3.069" width="40.35" y="-3.079"/>
		<use opacity=".5898" style="enable-background:new" xlink:href="#flash0.ai_x5F_2_x2F_Layer_13_copy_x2F__x3C_Path_x3E__x5F_15" transform="matrix(-.75 0 0 -.75 49.95 9.8999)" height="1.874" width="28.916" y="-1.867" x="-0.016"/>
		<use opacity=".5898" style="enable-background:new" xlink:href="#flash0.ai_x5F_2_x2F_Layer_13_copy_x2F__x3C_Path_x3E__x5F_14" transform="matrix(-.75 0 0 -.75 49.1 13.2)" height="0.633" width="1.944" y="-0.633" x="0.086"/>
		<use opacity=".5898" style="enable-background:new" xlink:href="#flash0.ai_x5F_2_x2F_Layer_13_copy_x2F__x3C_Path_x3E__x5F_13" transform="matrix(-.75 0 0 -.75 44.7 12.7)" height="0.792" width="3.302" y="-0.767"/>
		<use opacity=".5898" style="enable-background:new" xlink:href="#flash0.ai_x5F_2_x2F_Layer_13_copy_x2F__x3C_Path_x3E__x5F_12" transform="matrix(-.75 0 0 -.75 42.05 13.1)" height="0.408" width="1.237" y="-0.4" x="-0.012"/>
		<use opacity=".5898" style="enable-background:new" xlink:href="#flash0.ai_x5F_2_x2F_Layer_13_copy_x2F__x3C_Path_x3E__x5F_11" transform="matrix(-.75 0 0 -.75 34.3 12.65)" height="0.909" width="3.229" y="-0.895" x="-0.003"/>
		<use opacity=".5898" style="enable-background:new" xlink:href="#flash0.ai_x5F_2_x2F_Layer_13_copy_x2F__x3C_Path_x3E__x5F_10" transform="matrix(-.75 0 0 -.75 32.35 11.2)" height="0.664" width="2.189" y="-0.657" x="-0.044"/>
		<use opacity=".5898" style="enable-background:new" xlink:href="#flash0.ai_x5F_2_x2F_Layer_13_copy_x2F__x3C_Path_x3E__x5F_9" transform="matrix(-.75 0 0 -.75 48.15 11.4)" height="0.698" width="1.74" y="-0.688" x="-0.025"/>
		<use opacity=".5898" style="enable-background:new" xlink:href="#flash0.ai_x5F_2_x2F_Layer_13_copy_x2F__x3C_Path_x3E__x5F_8" transform="matrix(-.75 0 0 -.75 45.2 9.5498)" height="0.374" width="2.214" y="-0.36" x="-0.002"/>
		<use opacity=".5898" style="enable-background:new" xlink:href="#flash0.ai_x5F_2_x2F_Layer_13_copy_x2F__x3C_Path_x3E__x5F_7" transform="matrix(-.75 0 0 -.75 50.9 15.8)" height="1.064" width="3.896" y="-1.114" x="-0.006"/>
		<use opacity=".5898" style="enable-background:new" xlink:href="#flash0.ai_x5F_2_x2F_Layer_13_copy_x2F__x3C_Path_x3E__x5F_6" transform="matrix(-.75 0 0 -.75 48.55 16.25)" height="1.1" width="2.324" y="-1.1" x="-0.017"/>
		<use opacity=".5898" style="enable-background:new" xlink:href="#flash0.ai_x5F_2_x2F_Layer_13_copy_x2F__x3C_Path_x3E__x5F_5" transform="matrix(-.75 0 0 -.75 37.25 15.25)" height="0.817" width="3.215" y="-0.85" x="-0.002"/>
		<use opacity=".5898" style="enable-background:new" xlink:href="#flash0.ai_x5F_2_x2F_Layer_13_copy_x2F__x3C_Path_x3E__x5F_4" transform="matrix(-.75 0 0 -.75 28.85 15.9)" height="0.792" width="2.701" y="-0.783" x="-0.045"/>
		<use opacity=".5898" style="enable-background:new" xlink:href="#flash0.ai_x5F_2_x2F_Layer_13_copy_x2F__x3C_Path_x3E__x5F_3" transform="matrix(-.75 0 0 -.75 38.35 19.15)" height="1.174" width="3.45" y="-1.169" x="-0.005"/>
		<use opacity=".5898" style="enable-background:new" xlink:href="#flash0.ai_x5F_2_x2F_Layer_13_copy_x2F__x3C_Path_x3E__x5F_2" transform="matrix(-.75 0 0 -.75 43.7 20.05)" height="0.904" width="2.178" y="-0.904" x="-0.016"/>
		<use opacity=".5898" style="enable-background:new" xlink:href="#flash0.ai_x5F_2_x2F_Layer_13_copy_x2F__x3C_Path_x3E__x5F_1" transform="matrix(-.75 0 0 -.75 42.2 20.65)" height="1.263" width="2.694" y="-1.257" x="-0.012"/>
		<use opacity=".5898" style="enable-background:new" xlink:href="#flash0.ai_x5F_2_x2F_Layer_13_copy_x2F__x3C_Path_x3E_" transform="matrix(-.75 0 0 -.75 33.35 18.9)" height="1.033" width="2.586" y="-1.033" x="-0.033"/>
</svg>
