<?xml version="1.0" encoding="UTF-8" standalone="no"?>
<svg viewBox="0 0 548.55945 511.44623" xmlns="http://www.w3.org/2000/svg" xmlns:xlink="http://www.w3.org/1999/xlink">
<defs>
<filter id="filter4011-4">
<feGaussianBlur stdDeviation="1.06762"/>
</filter>
<filter id="filter4047">
<feGaussianBlur stdDeviation="1.17123"/>
</filter>
<filter id="filter4274">
<feGaussianBlur stdDeviation="1.16693"/>
</filter>
<filter id="filter4731">
<feGaussianBlur stdDeviation="2.46819"/>
</filter>
<filter id="filter4715"></filter>
<filter height="1.2578" id="filter3779" width="1.18836" x="-.09418" y="-.1289">
<feGaussianBlur stdDeviation=".71098"/>
</filter>
<filter height="1.31842" id="filter4111" width="1.32943" x="-.16471" y="-.15921">
<feGaussianBlur stdDeviation="2.02505"/>
</filter>
<filter height="1.5723" id="filter4291" width="1.57717" x="-.28858" y="-.28615">
<feGaussianBlur stdDeviation="3.60482"/>
</filter>
<filter height="1.24819" id="filter4347" width="1.2174" x="-.1087" y="-.1241">
<feGaussianBlur stdDeviation="6.0655"/>
</filter>
<filter height="1.36249" id="filter4543" width="1.25012" x="-.12506" y="-.18124">
<feGaussianBlur stdDeviation="10.52729"/>
</filter>
<filter height="2.08063" id="filter4575" width="1.36575" x="-.18288" y="-.54031">
<feGaussianBlur stdDeviation="15.00946"/>
</filter>
<filter height="2.1927" id="filter4617" width="2.30442" x="-.65221" y="-.59635">
<feGaussianBlur stdDeviation="7.80081"/>
</filter>
<filter height="1.21925" id="filter4623" width="1.32449" x="-.16224" y="-.10962">
<feGaussianBlur stdDeviation="1.70719"/>
</filter>
<linearGradient id="linearGradient3833">
<stop offset="0" stop-color="#244a22"/>
<stop offset="1" stop-color="#14190f" stop-opacity=".93725"/>
</linearGradient>
<linearGradient id="linearGradient3805">
<stop offset="0" stop-color="#9baf72"/>
<stop offset="1" stop-color="#224815"/>
</linearGradient>
<linearGradient id="linearGradient3833-6">
<stop offset="0" stop-color="#244a22"/>
<stop offset="1" stop-color="#142f0f" stop-opacity=".93671"/>
</linearGradient>
<linearGradient gradientUnits="userSpaceOnUse" id="linearGradient4406" x1="655.71526" x2="677.93865" y1="684.75802" y2="547.28592">
<stop offset="0" stop-color="#830c1b"/>
<stop offset="1" stop-color="#bc2609" stop-opacity=".00422"/>
</linearGradient>
<linearGradient id="linearGradient4391-3">
<stop offset="0" stop-color="#ddaddf"/>
<stop offset="1" stop-color="#bc2609" stop-opacity=".00422"/>
</linearGradient>
<linearGradient gradientUnits="userSpaceOnUse" id="linearGradient4551" x1="328.71429" x2="302.28574">
<stop offset="0" stop-color="#244a22"/>
<stop offset="1" stop-color="#5f9911"/>
</linearGradient>
<linearGradient gradientUnits="userSpaceOnUse" id="linearGradient4596" x2="0" y1="466.47372" y2="582.13617">
<stop offset="0" stop-color="#e29239"/>
<stop offset="1" stop-color="#e29239" stop-opacity=".01688"/>
</linearGradient>
<linearGradient gradientUnits="userSpaceOnUse" id="linearGradient4426" x1="513.03134" x2="596.11633" xlink:href="#linearGradient4391-3" y1="661.01437" y2="623.04733"/>
<linearGradient gradientUnits="userSpaceOnUse" id="linearGradient4464" x1="798.39917" x2="729.45649" xlink:href="#linearGradient4391-3" y1="632.73007" y2="606.88491"/>
<linearGradient gradientUnits="userSpaceOnUse" id="linearGradient4549" x1="289.28571" x2="316.07144" xlink:href="#linearGradient3833" y1="433.07648" y2="485.75504"/>
<linearGradient gradientUnits="userSpaceOnUse" id="linearGradient4553" x1="318.65503" x2="307.98862" xlink:href="#linearGradient3805" y1="453.88983" y2="456.75507"/>
<linearGradient gradientTransform="matrix(.49743,1.50238,1.9699,-.53002,-804.92733,308.35463)" gradientUnits="userSpaceOnUse" id="linearGradient4559" x1="245.87143" x2="301.27142" xlink:href="#linearGradient3833-6"/>
<linearGradient gradientTransform="matrix(.45334,1.55479,-2.01976,.68257,1181.5102,-296.40647)" gradientUnits="userSpaceOnUse" id="linearGradient4561" x1="245.87143" x2="301.27142" xlink:href="#linearGradient3833-6"/>
<linearGradient gradientUnits="userSpaceOnUse" id="linearGradient4563" x1="245.85455" x2="305.93116" xlink:href="#linearGradient3833"/>
<linearGradient gradientUnits="userSpaceOnUse" id="linearGradient4565" x1="311.63571" x2="326.04285" xlink:href="#linearGradient3805" y1="478.52289" y2="502.15506"/>
<linearGradient gradientUnits="userSpaceOnUse" id="linearGradient4567" x1="238.50197" x2="307.21235" xlink:href="#linearGradient3833-6"/>
<radialGradient cx="321.22852" cy="469.50415" gradientTransform="matrix(2.91978,-.3316,.27561,1.77241,-746.08841,-256.13079)" gradientUnits="userSpaceOnUse" id="radialGradient4555" r="9.24137">
<stop offset="0" stop-color="#338000"/>
<stop offset="1" stop-color="#338000" stop-opacity="0"/>
</radialGradient>
<radialGradient cx="321.22852" cy="469.50415" gradientTransform="matrix(3.90057,.54104,-.26254,1.89276,-808.48157,-592.9529)" gradientUnits="userSpaceOnUse" id="radialGradient4557" r="9.24137">
<stop offset="0" stop-color="#9db174"/>
<stop offset="1" stop-color="#9db174" stop-opacity="0"/>
</radialGradient>
</defs>
<g transform="matrix(1.39715,0,0,1.39715,-637.08416,-525.07483)">
<path d="m782.86823,680.62604c0,18.41043-44.09542,33.33503-98.48987,33.33503s-98.48988-14.9246-98.48988-33.33503 44.09542-33.33504 98.48988-33.33504c53.01671,0 96.52054,14.20429 98.42623,32.13681" fill="#1a1a1a" filter="url(#filter4575)" opacity=".58991" transform="matrix(1.17949,0,0,1.29857,-140.51481,-223.92251)"/>
<path d="m623.5958,417.04647c41.43518-14.94371 82.36016-5.39766 117.85714,16.42857 24.32724,17.60659 40.83811,35.3438 52.14286,72.14286 6.53629,28.78641 9.54909,60.30163-12.14286,98.57143-23.27498,41.83651-54.24012,61.90353-77.14285,70.71429-50.97855,14.68667-98.26164,14.57167-133.57143-11.42858-34.9657-25.74689-51.79272-59.20001-56.42857-90.71428-4.54663-30.90775 2.80293-58.98664 25.71428-92.85715 26.54508-33.64237 43.93444-45.62837 83.57143-62.85714z" fill="#bc2609"/>
<path d="m623.5958,417.04647c41.43518-14.94371 82.36016-5.39766 117.85714,16.42857 24.32724,17.60659 40.83811,35.3438 52.14286,72.14286 6.53629,28.78641 9.54909,60.30163-12.14286,98.57143-23.27498,41.83651-54.24012,61.90353-77.14285,70.71429-50.97855,14.68667-98.26164,14.57167-133.57143-11.42858-34.9657-25.74689-51.79272-59.20001-56.42857-90.71428-4.54663-30.90775 2.80293-58.98664 25.71428-92.85715 26.54508-33.64237 43.93444-45.62837 83.57143-62.85714z" fill="url(#linearGradient4426)"/>
<path d="m623.5958,417.04647c41.43518-14.94371 82.36016-5.39766 117.85714,16.42857 24.32724,17.60659 40.83811,35.3438 52.14286,72.14286 6.53629,28.78641 9.54909,60.30163-12.14286,98.57143-23.27498,41.83651-54.24012,61.90353-77.14285,70.71429-50.97855,14.68667-98.26164,14.57167-133.57143-11.42858-34.9657-25.74689-51.79272-59.20001-56.42857-90.71428-4.54663-30.90775 2.80293-58.98664 25.71428-92.85715 26.54508-33.64237 43.93444-45.62837 83.57143-62.85714z" fill="url(#linearGradient4406)"/>
<path d="m623.59581,417.04647c41.43518-14.94371 82.36016-5.39766 117.85714,16.42857 24.32724,17.60659 40.83813,35.3438 52.14283,72.14286 6.5363,28.78641 9.5491,60.30163-12.1428,98.57143-23.27501,41.83651-54.24015,61.90353-77.14288,70.71429-50.97855,14.68667-98.26164,14.57167-133.57143-11.42858-34.9657-25.74689-51.79272-59.20001-56.42857-90.71428-4.54663-30.90775 2.80293-58.98664 25.71428-92.85715 26.54508-33.64237 43.93444-45.62837 83.57143-62.85714z" fill="url(#linearGradient4464)"/>
<path d="m461.6397,471.52448c0,38.49453-45.22607,69.70052-101.01525,69.70052s-101.01525-31.20599-101.01525-69.70052 45.22607-69.70053 101.01525-69.70053c54.37611,0 98.99543,29.69987 100.94997,67.19514" fill="#c3150e" filter="url(#filter4543)" transform="matrix(1.01701,0,0,1.18302,282.265,-49.42786)"/>
<g filter="url(#filter4347)" opacity=".92744" transform="matrix(1,0,0,1.00649,300,-3.61438)">
<g filter="url(#filter4274)">
<path d="m383.35291,443.49274c0,8.2289-6.67085,14.89975-14.89975,14.89975s-14.89975-6.67085-14.89975-14.89975 6.67084-14.89975 14.89975-14.89975c8.02047,0 14.60182,6.34888 14.89012,14.36418" fill="#fff" filter="url(#filter4047)" opacity=".9306" transform="matrix(.97874,-.43862,.30637,.89739,-130.60717,211.22246)"/>
<path d="m383.35291,443.49274c0,8.2289-6.67085,14.89975-14.89975,14.89975s-14.89975-6.67085-14.89975-14.89975 6.67084-14.89975 14.89975-14.89975c8.02047,0 14.60182,6.34888 14.89012,14.36418" fill="#fff" filter="url(#filter4011-4)" opacity=".96845" transform="matrix(.88542,-.32955,.27716,.67423,-130.95476,347.97541)"/>
<path d="m383.35291,443.49274c0,8.2289-6.67085,14.89975-14.89975,14.89975s-14.89975-6.67085-14.89975-14.89975 6.67084-14.89975 14.89975-14.89975c8.02047,0 14.60182,6.34888 14.89012,14.36418" fill="#fff" filter="url(#filter4047)" opacity=".9306" transform="matrix(.94041,-.31748,.29437,.64953,-216.43105,325.6905)"/>
<path d="m383.35291,443.49274c0,8.2289-6.67085,14.89975-14.89975,14.89975s-14.89975-6.67085-14.89975-14.89975 6.67084-14.89975 14.89975-14.89975c8.02047,0 14.60182,6.34888 14.89012,14.36418" fill="#fff" filter="url(#filter4111)" opacity=".9306" transform="matrix(.73657,-.26101,.23057,.53401,-110.25023,336.16952)"/>
<path d="m383.35291,443.49274c0,8.2289-6.67085,14.89975-14.89975,14.89975s-14.89975-6.67085-14.89975-14.89975 6.67084-14.89975 14.89975-14.89975c8.02047,0 14.60182,6.34888 14.89012,14.36418" fill="#fff" filter="url(#filter4111)" opacity=".9306" transform="matrix(.73657,-.26101,.23057,.53401,-103.43169,325.31037)"/>
<path d="m383.35291,443.49274c0,8.2289-6.67085,14.89975-14.89975,14.89975s-14.89975-6.67085-14.89975-14.89975 6.67084-14.89975 14.89975-14.89975c8.02047,0 14.60182,6.34888 14.89012,14.36418" fill="#fff" filter="url(#filter4111)" opacity=".9306" transform="matrix(.65147,-.21024,.20393,.43014,-49.40375,341.81074)"/>
<path d="m383.35291,443.49274c0,8.2289-6.67085,14.89975-14.89975,14.89975s-14.89975-6.67085-14.89975-14.89975 6.67084-14.89975 14.89975-14.89975c8.02047,0 14.60182,6.34888 14.89012,14.36418" fill="#fff" filter="url(#filter4111)" opacity=".9306" transform="matrix(.65147,-.21024,.20393,.43014,-36.52431,333.47698)"/>
<path d="m383.35291,443.49274c0,8.2289-6.67085,14.89975-14.89975,14.89975s-14.89975-6.67085-14.89975-14.89975 6.67084-14.89975 14.89975-14.89975c8.02047,0 14.60182,6.34888 14.89012,14.36418" fill="#fff" filter="url(#filter4111)" opacity=".9306" transform="matrix(.65147,-.21024,.20393,.43014,-23.39232,323.88053)"/>
<path d="m383.35291,443.49274c0,8.2289-6.67085,14.89975-14.89975,14.89975s-14.89975-6.67085-14.89975-14.89975 6.67084-14.89975 14.89975-14.89975c8.02047,0 14.60182,6.34888 14.89012,14.36418" fill="#fff" filter="url(#filter4111)" opacity=".9306" transform="matrix(.65147,-.21024,.20393,.43014,7.9224,314.78916)"/>
<path d="m383.35291,443.49274c0,8.2289-6.67085,14.89975-14.89975,14.89975s-14.89975-6.67085-14.89975-14.89975 6.67084-14.89975 14.89975-14.89975c8.02047,0 14.60182,6.34888 14.89012,14.36418" fill="#fff" filter="url(#filter4111)" opacity=".9306" transform="matrix(.65235,.20751,-.08402,.46856,145.40527,227.66972)"/>
<path d="m383.35291,443.49274c0,8.2289-6.67085,14.89975-14.89975,14.89975s-14.89975-6.67085-14.89975-14.89975 6.67084-14.89975 14.89975-14.89975c8.02047,0 14.60182,6.34888 14.89012,14.36418" fill="#fff" filter="url(#filter4111)" opacity=".9306" transform="matrix(.66645,-.02564,.14919,.32357,48.40073,361.71386)"/>
</g>
<path d="m383.35291,443.49274c0,8.2289-6.67085,14.89975-14.89975,14.89975s-14.89975-6.67085-14.89975-14.89975 6.67084-14.89975 14.89975-14.89975c8.02047,0 14.60182,6.34888 14.89012,14.36418" fill="#fff" filter="url(#filter4291)" opacity=".9306" transform="matrix(.65147,-.21024,.20393,.43014,-38.54461,417.82473)"/>
<path d="m383.35291,443.49274c0,8.2289-6.67085,14.89975-14.89975,14.89975s-14.89975-6.67085-14.89975-14.89975 6.67084-14.89975 14.89975-14.89975c8.02047,0 14.60182,6.34888 14.89012,14.36418" fill="#fff" filter="url(#filter4291)" opacity=".9306" transform="matrix(.65147,-.21024,.20393,.43014,-63.79843,407.72319)"/>
</g>
<path d="m557.5889,535.16408 12.12183-9.09137 8.08122-4.04061 16.16244-10.10153 11.11168-2.0203 40.4061-21.21321 10.22408-2.67332-12.24438-1.36729 3.15301-7.78536 2.9079-6.35677-8.08122-4.04061h-3.03046l-5.05076,1.01015-22.22336,3.03046-5.05076,14.14213-20.20305,17.1726-28.28427,33.33503z" fill="url(#linearGradient4596)" filter="url(#filter4731)"/>
<path d="m586.14102,512.68818c8.41794,1.49685 18.3511,22.30111 26.76904,34.85027-5.06686-12.69901-7.83546-30.78352-17.67767-39.90103l-9.09137,5.05076z" fill="#600000" filter="url(#filter4623)" opacity=".62776" transform="matrix(-1.11095,-.57068,-.61679,1.02789,1581.206,323.76657)"/>
<path d="m621.24382,510.41534c8.41794,1.49684 18.3511,22.3011 26.76904,34.85026-5.06686-12.69901-7.83546-30.78352-17.67767-39.90102l-9.09137,5.05076z" fill="#600000" filter="url(#filter4623)" opacity=".62776" transform="matrix(.8122,0,0,.69546,116.9074,154.17327)"/>
<path d="m643.21463,489.95975c8.41794,1.49684 18.3511,22.3011 26.76904,34.85026-5.06686-12.69901-7.83546-30.78352-17.67767-39.90102l-9.09137,5.05076z" fill="#600000" filter="url(#filter4623)" opacity=".62776" transform="matrix(.78777,-.77835,.61597,.99545,-172.63818,516.37465)"/>
<g transform="translate(300)">
<path d="m303.86729,390.42853c3.11567,26.70161 8.62673,60.83335 12.30874,73.19634l9.74746,1.97698c3.08551-19.78249 8.08819-39.9722 13.8673-55.71429l5.20921-8.95395c-6.29196,26.83645-12.33364,53.54777-10.71429,76.42857 7.38016-10.93472 19.94809-33.96503 27.85715-50.2092-3.8365,14.87705-17.03134,40.61116-22.85715,53.06634-1.52481,9.27517 1.09362,9.8184 0,16.42858l-5,5.71428-6.42857,5.71429-9.28571,3.57143-5-.71429-3.94652-.96683-3.91062-.46174-.71429-2.85714c-.50265-.56733-2.88097-1.99947-18.57143,0l-19.28571,7.85714-20,10-10,3.57143-5.71429,2.14285-5.71428,7.14286-.71429,6.42857v-7.85714l5.71429-8.57143c3.75666-2.23422 1.02364-.16624 25-15l23.57142-11.42857c6.57907-2.59146 13.70492-4.44333 20.71429-2.85714-21.30867-21.30224-49.9654-40.75599-66.84699-63.03046 23.04983,19.97221 40.55195,26.31008 76.1327,55.17331l-4.91334-22.14285c-1.29185-11.19512-3.7076-25.12959-3.65808-45.71429l3.153-31.93365z" fill="#3d6c38" stroke="#112b00" stroke-width=".3"/>
<path d="m289.28571,476.6479 24.28572,23.21428 2.5-30-6.78572-36.78571 5.35715,38.92857-6.07143-3.92857-3.57143.71428 4.64286,22.85715-20.35715-15z" fill="url(#linearGradient4549)" filter="url(#filter4715)"/>
<path d="m312.85714,508.43361-2.5-40.35714 16.07143-1.07143 1.78572,33.92857-15.35715,7.5z" fill="url(#linearGradient4551)"/>
<path d="m303.92857,397.66113c-.89717,20.21039-2.89273,43.48022 1.07143,69.38723 3.05702.7247 4.5374.0889 8.3517,1.65393-5.7218-16.4428-7.21499-47.55039-9.42313-71.04116z" fill="url(#linearGradient4553)"/>
<path d="m330.31989,469.50415c0,3.6263-4.07035,6.56599-9.09137,6.56599s-9.09138-2.93969-9.09138-6.56599 4.07035-6.56599 9.09138-6.56599c4.96487,0 9.01158,2.87669 9.09023,6.46198" fill="#9db174" transform="matrix(.93945,-.1018,.104,.91959,-31.71259,68.69255)"/>
<path d="m330.31989,469.50415c0,3.6263-4.07035,6.56599-9.09137,6.56599s-9.09138-2.93969-9.09138-6.56599 4.07035-6.56599 9.09138-6.56599c4.96487,0 9.01158,2.87669 9.09023,6.46198" fill="#89945a" transform="matrix(.85272,-.09081,.0944,.82033,.4558,111.55886)"/>
<path d="m330.31989,469.50415c0,3.6263-4.07035,6.56599-9.09137,6.56599s-9.09138-2.93969-9.09138-6.56599 4.07035-6.56599 9.09138-6.56599c4.89385,0 8.90958,2.79781 9.08549,6.32998" fill="url(#radialGradient4555)" filter="url(#filter3779)" transform="matrix(.62351,-.08311,.08732,.59347,76.12589,215.47654)"/>
<path d="m330.31989,469.50415c0,3.6263-4.07035,6.56599-9.09137,6.56599s-9.09138-2.93969-9.09138-6.56599 4.07035-6.56599 9.09138-6.56599c4.57258,0 8.43366,2.45281 9.01707,5.72824" fill="url(#radialGradient4557)" transform="matrix(.39987,-.04366,.05546,.31479,162.74183,333.59036)"/>
<path d="m344.36396,401.75126c-7.1186,33.56544-22.72076,73.09481-9.92883,92.66333-4.18495-7.56414-7.4074-16.02812-6.94967-27.93263 4.95025-27.93473 11.00638-45.46751 16.8785-64.7307z" fill="url(#linearGradient4559)"/>
<path d="m240.18398,442.00252c25.93343,24.27451 46.26511,31.21112 70.27565,59.82687-6.81381-2.22663-5.63527-5.39074-17.53223-14.82141-4.64527-3.25272-40.05391-31.3701-52.74342-45.00546z" fill="url(#linearGradient4561)"/>
<path d="m246.07143,521.29075c20.97638-8.49819 44.39258-21.87114 59.64286-18.92857-5.75946-.78332-11.94367-.97912-19.75186,1.07143-17.63123,6.61852-28.17129,12.14718-39.891,17.85714z" fill="url(#linearGradient4563)"/>
<path d="m360,432.54075c-8.32815,16.29314-16.0698,32.97727-25.71428,48.39286-.56113,3.60942-.23387,2.90632-1.25,3.78572l-.17858,2.64285 2.14286,7.5-2.85714-12.85714-2.5-7.5-1.78572-3.92857-.71428-6.78572-1.42857,6.42857-.35715,6.78572-1.07143,7.85714-4.64285,8.21429-2.85715,8.57143-1.42857,4.64285c-.207-6.37374-6.83235-7.56212-12.14285-7.85714l-3.57143,1.42857-.35715,2.5-.35714.71429-6.42857.35714c-2.82595-.34986-10.11091,1.97432-16.25,4.46428l-11.96429,5.17858-24.64286,13.21428 29.10715-13.39286 13.39286-5.53571c7.38095-1.81016 14.7619-4.00916 22.14285-2.14286l8.21429,3.57143 5-.71428c6.72684.23938 10.70479-5.01901 15.71429-8.21429l.71428-11.07143 4.46429-11.42857c8.77927-14.94048 14.51615-29.88095 21.60714-44.82143z" fill="url(#linearGradient4565)"/>
<path d="m238.75,523.53162c23.99095-10.67926 50.77235-27.48438 68.21429-23.7866-6.58717-.98436-13.66013-1.23041-22.59045,1.34642-20.16506,8.31716-32.21986,15.26476-45.62384,22.44018z" fill="url(#linearGradient4567)"/>
</g>
<path d="m383.35291,443.49274c0,8.2289-6.67085,14.89975-14.89975,14.89975s-14.89975-6.67085-14.89975-14.89975 6.67084-14.89975 14.89975-14.89975c8.02047,0 14.60182,6.34888 14.89012,14.36418" fill="#fff" filter="url(#filter4617)" opacity=".89274" transform="matrix(1.45854,-.63656,.45656,1.30235,-57.03674,202.22596)"/>
</g>
</svg>
